M48
; DRILL file {KiCad 7.0.7} date Fri Nov 24 19:35:13 2023
; FORMAT={-:-/ absolute / inch / decimal}
; #@! TF.CreationDate,2023-11-24T19:35:13-07:00
; #@! TF.GenerationSoftware,Kicad,Pcbnew,7.0.7
; #@! TF.FileFunction,Plated,1,2,PTH
FMAT,2
INCH
; #@! TA.AperFunction,Plated,PTH,ComponentDrill
T1C0.0079
; #@! TA.AperFunction,Plated,PTH,ViaDrill
T2C0.0157
; #@! TA.AperFunction,Plated,PTH,ComponentDrill
T3C0.0197
; #@! TA.AperFunction,Plated,PTH,ComponentDrill
T4C0.0236
; #@! TA.AperFunction,Plated,PTH,ComponentDrill
T5C0.0320
; #@! TA.AperFunction,Plated,PTH,ComponentDrill
T6C0.0335
; #@! TA.AperFunction,Plated,PTH,ComponentDrill
T7C0.0354
; #@! TA.AperFunction,Plated,PTH,ComponentDrill
T8C0.0394
; #@! TA.AperFunction,Plated,PTH,ComponentDrill
T9C0.0470
%
G90
G05
T1
X2.7323Y-3.128
X2.7323Y-3.1831
X2.7598Y-3.1004
X2.7598Y-3.1555
X2.7598Y-3.2106
X2.7874Y-3.128
X2.7874Y-3.1831
X2.815Y-3.1004
X2.815Y-3.1555
X2.815Y-3.2106
X2.8425Y-3.128
X2.8425Y-3.1831
T2
X1.937Y-2.4681
X1.937Y-3.0098
X1.937Y-3.2264
X1.9764Y-2.7126
X1.9764Y-2.9488
X1.9764Y-4.0531
X2.0157Y-2.5768
X2.0157Y-2.6378
X2.0157Y-2.874
X2.0157Y-3.7618
X2.0157Y-4.0138
X2.0443Y-3.0492
X2.0443Y-3.1102
X2.0443Y-3.185
X2.0443Y-3.2264
X2.0443Y-3.8366
X2.0443Y-3.8957
X2.0551Y-2.4098
X2.0551Y-2.4681
X2.0551Y-2.5177
X2.0551Y-2.7126
X2.0551Y-2.9488
X2.0622Y-3.2657
X2.0622Y-3.7185
X2.065Y-2.252
X2.1142Y-2.2028
X2.1142Y-2.5768
X2.1535Y-3.3051
X2.1535Y-3.5413
X2.1634Y-2.3012
X2.1929Y-2.2028
X2.202Y-3.6594
X2.2045Y-3.2264
X2.2126Y-2.4587
X2.2323Y-2.3012
X2.2323Y-2.4098
X2.2323Y-3.0098
X2.252Y-1.6122
X2.252Y-1.8878
X2.252Y-3.3642
X2.252Y-3.4823
X2.2717Y-2.9705
X2.2717Y-3.1476
X2.2913Y-1.9469
X2.2913Y-2.3799
X2.2913Y-2.5965
X2.2913Y-2.874
X2.2913Y-3.1102
X2.2913Y-3.7185
X2.2913Y-3.7972
X2.2913Y-3.8366
X2.311Y-1.8287
X2.3307Y-2.1461
X2.3307Y-2.3012
X2.3307Y-2.4587
X2.3307Y-2.5177
X2.3307Y-2.6358
X2.3307Y-2.6752
X2.3307Y-2.7126
X2.3307Y-2.8524
X2.3307Y-2.9114
X2.3307Y-3.0098
X2.3307Y-3.2657
X2.3504Y-3.8957
X2.3509Y-3.6594
X2.3701Y-2.7539
X2.3701Y-2.8917
X2.3701Y-3.0492
X2.3898Y-3.2016
X2.4024Y-2.5571
X2.4024Y-2.813
X2.4094Y-2.2161
X2.4094Y-2.4193
X2.4094Y-3.1016
X2.4291Y-2.8917
X2.4291Y-3.2516
X2.4417Y-3.9744
X2.4488Y-2.3012
X2.4756Y-2.4587
X2.4882Y-2.1461
X2.4882Y-2.5965
X2.4882Y-4.4764
X2.5276Y-2.1043
X2.5276Y-2.2618
X2.5276Y-2.3406
X2.5276Y-2.3799
X2.5414Y-2.5177
X2.5414Y-2.7539
X2.5669Y-1.1004
X2.5669Y-1.6122
X2.5669Y-1.8287
X2.5669Y-3.9154
X2.574Y-2.4587
X2.574Y-2.7126
X2.5866Y-2.1461
X2.5992Y-2.5965
X2.6063Y-2.3012
X2.6063Y-3.1673
X2.6283Y-3.0516
X2.6386Y-3.7776
X2.6386Y-3.876
X2.6457Y-1.6122
X2.6457Y-1.7697
X2.6457Y-2.3799
X2.6457Y-2.4264
X2.6457Y-2.5965
X2.6457Y-2.9016
X2.6457Y-3.3051
X2.685Y-2.1043
X2.685Y-2.3012
X2.685Y-2.7146
X2.7047Y-1.1988
X2.7047Y-1.8287
X2.7215Y-3.6594
X2.7323Y-2.8516
X2.7441Y-3.4516
X2.7567Y-3.9744
X2.8031Y-3.4626
X2.8819Y-3.9154
X2.9409Y-3.3516
X2.9488Y-1.1988
X2.9535Y-3.7776
X2.9535Y-3.876
X3.0Y-3.4016
X3.0591Y-2.9516
X3.0717Y-3.9744
X3.0984Y-1.1398
X3.0984Y-2.7146
X3.1181Y-2.813
X3.1181Y-3.3016
X3.1969Y-3.9154
X3.2106Y-2.7539
X3.2685Y-3.7776
X3.2685Y-3.876
X3.2756Y-2.4614
X3.2756Y-2.7539
X3.2756Y-3.4016
X3.315Y-2.3913
X3.315Y-2.7736
X3.315Y-3.4516
X3.3543Y-2.4783
X3.3543Y-2.6555
X3.3543Y-2.7539
X3.3543Y-3.502
X3.3937Y-1.8484
X3.3937Y-2.5571
X3.3937Y-2.6161
X3.3937Y-2.7736
X3.3937Y-3.3516
X3.4331Y-1.1988
X3.4331Y-1.3563
X3.4331Y-1.9469
X3.4331Y-2.4783
X3.4331Y-2.7539
X3.4331Y-2.8516
X3.4331Y-3.3839
X3.4331Y-3.8169
X3.4331Y-3.9744
X3.4795Y-1.3957
X3.4795Y-1.6122
X3.4916Y-2.4001
X3.4916Y-2.6157
X3.4921Y-2.111
X3.5118Y-1.7106
X3.5118Y-1.8484
X3.5118Y-3.0516
X3.5315Y-2.3996
X3.5315Y-2.6161
X3.5709Y-1.4547
X3.5709Y-1.5531
X3.5709Y-1.7697
X3.5709Y-2.3012
X3.5709Y-2.3996
X3.5709Y-2.6161
X3.6299Y-2.6752
X3.689Y-4.0138
X3.7087Y-1.9469
X3.7087Y-2.2028
X3.7087Y-2.3012
X3.7283Y-3.2516
X3.7874Y-2.7146
X3.7874Y-4.0531
X3.9055Y-3.5413
X3.9449Y-3.5807
X3.9843Y-3.6201
T5
X3.7087Y-2.4783
X3.7874Y-2.4783
T6
X2.9016Y-0.9685
X3.0984Y-0.9685
T7
X3.5906Y-3.3839
X3.689Y-3.3839
X3.7874Y-3.3839
T8
X3.3543Y-1.3563
X3.3543Y-1.4547
X3.3543Y-1.5531
X3.5709Y-2.8516
X3.5709Y-3.1016
X3.6496Y-2.8516
X3.6496Y-3.1016
X3.7283Y-2.8516
X3.7283Y-3.1016
X3.8071Y-2.8516
X3.8071Y-3.1016
T9
X3.8465Y-2.4114
T3
G00X2.7894Y-2.002
M15
G01X2.7894Y-2.0098
M16
G05
G00X2.7894Y-2.072
M15
G01X2.7894Y-2.0799
M16
G05
G00X2.7894Y-2.1421
M15
G01X2.7894Y-2.15
M16
G05
G00X2.7894Y-2.2122
M15
G01X2.7894Y-2.2201
M16
G05
G00X2.7894Y-2.2823
M15
G01X2.7894Y-2.2902
M16
G05
G00X2.7894Y-2.3524
M15
G01X2.7894Y-2.3602
M16
G05
G00X2.7894Y-2.4224
M15
G01X2.7894Y-2.4303
M16
G05
G00X2.7894Y-2.4925
M15
G01X2.7894Y-2.5004
M16
G05
G00X3.2106Y-2.037
M15
G01X3.2106Y-2.0449
M16
G05
G00X3.2106Y-2.1071
M15
G01X3.2106Y-2.115
M16
G05
G00X3.2106Y-2.1772
M15
G01X3.2106Y-2.185
M16
G05
G00X3.2106Y-2.2472
M15
G01X3.2106Y-2.2551
M16
G05
G00X3.2106Y-2.3173
M15
G01X3.2106Y-2.3252
M16
G05
G00X3.2106Y-2.3874
M15
G01X3.2106Y-2.3953
M16
G05
G00X3.2106Y-2.4575
M15
G01X3.2106Y-2.4654
M16
G05
G00X3.2106Y-2.5276
M15
G01X3.2106Y-2.5354
M16
G05
T4
G00X2.0945Y-4.2961
M15
G01X2.0945Y-4.3157
M16
G05
G00X2.0945Y-4.4961
M15
G01X2.0945Y-4.5157
M16
G05
G00X2.0945Y-4.6961
M15
G01X2.0945Y-4.7157
M16
G05
G00X2.311Y-1.0874
M15
G01X2.311Y-1.1071
M16
G05
G00X2.311Y-1.2874
M15
G01X2.311Y-1.3071
M16
G05
G00X2.311Y-1.4874
M15
G01X2.311Y-1.5071
M16
G05
G00X2.3701Y-4.2961
M15
G01X2.3701Y-4.3157
M16
G05
G00X2.3701Y-4.4961
M15
G01X2.3701Y-4.5157
M16
G05
G00X2.3701Y-4.6961
M15
G01X2.3701Y-4.7157
M16
G05
G00X2.5669Y-1.3039
M15
G01X2.5669Y-1.3236
M16
G05
G00X2.5669Y-1.5039
M15
G01X2.5669Y-1.5236
M16
G05
G00X2.5669Y-1.7039
M15
G01X2.5669Y-1.7236
M16
G05
G00X2.8622Y-0.876
M15
G01X2.8622Y-0.8484
M16
G05
G00X3.1378Y-0.876
M15
G01X3.1378Y-0.8484
M16
G05
G00X3.7087Y-1.0902
M15
G01X3.7087Y-1.1098
M16
G05
G00X3.7087Y-1.2902
M15
G01X3.7087Y-1.3098
M16
G05
G00X3.7087Y-1.4902
M15
G01X3.7087Y-1.5098
M16
G05
T0
M30
