%TF.GenerationSoftware,KiCad,Pcbnew,7.0.7*%
%TF.CreationDate,2023-11-24T19:35:17-07:00*%
%TF.ProjectId,mouse,6d6f7573-652e-46b6-9963-61645f706362,rev?*%
%TF.SameCoordinates,Original*%
%TF.FileFunction,Drillmap*%
%TF.FilePolarity,Positive*%
%FSLAX45Y45*%
G04 Gerber Fmt 4.5, Leading zero omitted, Abs format (unit mm)*
G04 Created by KiCad (PCBNEW 7.0.7) date 2023-11-24 19:35:17*
%MOMM*%
%LPD*%
G01*
G04 APERTURE LIST*
%ADD10C,0.100000*%
%ADD11C,0.200000*%
%ADD12C,0.020000*%
%ADD13C,0.040000*%
%ADD14C,0.050000*%
%ADD15C,0.060000*%
%ADD16C,0.081280*%
%ADD17C,0.085000*%
%ADD18C,0.090000*%
%ADD19C,0.119380*%
G04 APERTURE END LIST*
D10*
X7120000Y-3195000D02*
X8120000Y-3195000D01*
X8120000Y-4195000D01*
X7120000Y-4195000D01*
X7120000Y-3195000D01*
D11*
X10270000Y-10595000D02*
X7770000Y-10595000D01*
X7770000Y-11995000D01*
X7470000Y-11995000D01*
X7470000Y-10595000D01*
X5020000Y-10595000D01*
X5020000Y-10495000D01*
X7370000Y-10495000D01*
X10270000Y-10495000D01*
X10270000Y-10595000D01*
X4720000Y-2045000D02*
X10520000Y-2045000D01*
X10520000Y-12295000D01*
X4720000Y-12295000D01*
X4720000Y-2045000D01*
D12*
X6930000Y-7935000D02*
X6950000Y-7955000D01*
X6950000Y-7935000D02*
X6930000Y-7955000D01*
X6930000Y-8075000D02*
X6950000Y-8095000D01*
X6950000Y-8075000D02*
X6930000Y-8095000D01*
X7000000Y-7865000D02*
X7020000Y-7885000D01*
X7020000Y-7865000D02*
X7000000Y-7885000D01*
X7000000Y-8005000D02*
X7020000Y-8025000D01*
X7020000Y-8005000D02*
X7000000Y-8025000D01*
X7000000Y-8145000D02*
X7020000Y-8165000D01*
X7020000Y-8145000D02*
X7000000Y-8165000D01*
X7070000Y-7935000D02*
X7090000Y-7955000D01*
X7090000Y-7935000D02*
X7070000Y-7955000D01*
X7070000Y-8075000D02*
X7090000Y-8095000D01*
X7090000Y-8075000D02*
X7070000Y-8095000D01*
X7140000Y-7865000D02*
X7160000Y-7885000D01*
X7160000Y-7865000D02*
X7140000Y-7885000D01*
X7140000Y-8005000D02*
X7160000Y-8025000D01*
X7160000Y-8005000D02*
X7140000Y-8025000D01*
X7140000Y-8145000D02*
X7160000Y-8165000D01*
X7160000Y-8145000D02*
X7140000Y-8165000D01*
X7210000Y-7935000D02*
X7230000Y-7955000D01*
X7230000Y-7935000D02*
X7210000Y-7955000D01*
X7210000Y-8075000D02*
X7230000Y-8095000D01*
X7230000Y-8075000D02*
X7210000Y-8095000D01*
D13*
X4940000Y-6269000D02*
G75*
G03*
X4940000Y-6269000I-20000J0D01*
G01*
X4940000Y-7645000D02*
G75*
G03*
X4940000Y-7645000I-20000J0D01*
G01*
X4940000Y-8195000D02*
G75*
G03*
X4940000Y-8195000I-20000J0D01*
G01*
X5040000Y-6890000D02*
G75*
G03*
X5040000Y-6890000I-20000J0D01*
G01*
X5040000Y-7490000D02*
G75*
G03*
X5040000Y-7490000I-20000J0D01*
G01*
X5040000Y-10295000D02*
G75*
G03*
X5040000Y-10295000I-20000J0D01*
G01*
X5140000Y-6545000D02*
G75*
G03*
X5140000Y-6545000I-20000J0D01*
G01*
X5140000Y-6700000D02*
G75*
G03*
X5140000Y-6700000I-20000J0D01*
G01*
X5140000Y-7300000D02*
G75*
G03*
X5140000Y-7300000I-20000J0D01*
G01*
X5140000Y-9555000D02*
G75*
G03*
X5140000Y-9555000I-20000J0D01*
G01*
X5140000Y-10195000D02*
G75*
G03*
X5140000Y-10195000I-20000J0D01*
G01*
X5212450Y-7745000D02*
G75*
G03*
X5212450Y-7745000I-20000J0D01*
G01*
X5212450Y-7900000D02*
G75*
G03*
X5212450Y-7900000I-20000J0D01*
G01*
X5212450Y-8090000D02*
G75*
G03*
X5212450Y-8090000I-20000J0D01*
G01*
X5212450Y-8195000D02*
G75*
G03*
X5212450Y-8195000I-20000J0D01*
G01*
X5212450Y-9745000D02*
G75*
G03*
X5212450Y-9745000I-20000J0D01*
G01*
X5212450Y-9895000D02*
G75*
G03*
X5212450Y-9895000I-20000J0D01*
G01*
X5240000Y-6121000D02*
G75*
G03*
X5240000Y-6121000I-20000J0D01*
G01*
X5240000Y-6269000D02*
G75*
G03*
X5240000Y-6269000I-20000J0D01*
G01*
X5240000Y-6395000D02*
G75*
G03*
X5240000Y-6395000I-20000J0D01*
G01*
X5240000Y-6890000D02*
G75*
G03*
X5240000Y-6890000I-20000J0D01*
G01*
X5240000Y-7490000D02*
G75*
G03*
X5240000Y-7490000I-20000J0D01*
G01*
X5258000Y-8295000D02*
G75*
G03*
X5258000Y-8295000I-20000J0D01*
G01*
X5258000Y-9445000D02*
G75*
G03*
X5258000Y-9445000I-20000J0D01*
G01*
X5265000Y-5720000D02*
G75*
G03*
X5265000Y-5720000I-20000J0D01*
G01*
X5390000Y-5595000D02*
G75*
G03*
X5390000Y-5595000I-20000J0D01*
G01*
X5390000Y-6545000D02*
G75*
G03*
X5390000Y-6545000I-20000J0D01*
G01*
X5490000Y-8395000D02*
G75*
G03*
X5490000Y-8395000I-20000J0D01*
G01*
X5490000Y-8995000D02*
G75*
G03*
X5490000Y-8995000I-20000J0D01*
G01*
X5515000Y-5845000D02*
G75*
G03*
X5515000Y-5845000I-20000J0D01*
G01*
X5590000Y-5595000D02*
G75*
G03*
X5590000Y-5595000I-20000J0D01*
G01*
X5613050Y-9295000D02*
G75*
G03*
X5613050Y-9295000I-20000J0D01*
G01*
X5619540Y-8195000D02*
G75*
G03*
X5619540Y-8195000I-20000J0D01*
G01*
X5640000Y-6245000D02*
G75*
G03*
X5640000Y-6245000I-20000J0D01*
G01*
X5690000Y-5845000D02*
G75*
G03*
X5690000Y-5845000I-20000J0D01*
G01*
X5690000Y-6121000D02*
G75*
G03*
X5690000Y-6121000I-20000J0D01*
G01*
X5690000Y-7645000D02*
G75*
G03*
X5690000Y-7645000I-20000J0D01*
G01*
X5740000Y-4095000D02*
G75*
G03*
X5740000Y-4095000I-20000J0D01*
G01*
X5740000Y-4795000D02*
G75*
G03*
X5740000Y-4795000I-20000J0D01*
G01*
X5740000Y-8545000D02*
G75*
G03*
X5740000Y-8545000I-20000J0D01*
G01*
X5740000Y-8845000D02*
G75*
G03*
X5740000Y-8845000I-20000J0D01*
G01*
X5790000Y-7545000D02*
G75*
G03*
X5790000Y-7545000I-20000J0D01*
G01*
X5790000Y-7995000D02*
G75*
G03*
X5790000Y-7995000I-20000J0D01*
G01*
X5840000Y-4945000D02*
G75*
G03*
X5840000Y-4945000I-20000J0D01*
G01*
X5840000Y-6045000D02*
G75*
G03*
X5840000Y-6045000I-20000J0D01*
G01*
X5840000Y-6595000D02*
G75*
G03*
X5840000Y-6595000I-20000J0D01*
G01*
X5840000Y-7300000D02*
G75*
G03*
X5840000Y-7300000I-20000J0D01*
G01*
X5840000Y-7900000D02*
G75*
G03*
X5840000Y-7900000I-20000J0D01*
G01*
X5840000Y-9445000D02*
G75*
G03*
X5840000Y-9445000I-20000J0D01*
G01*
X5840000Y-9645000D02*
G75*
G03*
X5840000Y-9645000I-20000J0D01*
G01*
X5840000Y-9745000D02*
G75*
G03*
X5840000Y-9745000I-20000J0D01*
G01*
X5890000Y-4645000D02*
G75*
G03*
X5890000Y-4645000I-20000J0D01*
G01*
X5940000Y-5451000D02*
G75*
G03*
X5940000Y-5451000I-20000J0D01*
G01*
X5940000Y-5845000D02*
G75*
G03*
X5940000Y-5845000I-20000J0D01*
G01*
X5940000Y-6245000D02*
G75*
G03*
X5940000Y-6245000I-20000J0D01*
G01*
X5940000Y-6395000D02*
G75*
G03*
X5940000Y-6395000I-20000J0D01*
G01*
X5940000Y-6695000D02*
G75*
G03*
X5940000Y-6695000I-20000J0D01*
G01*
X5940000Y-6795000D02*
G75*
G03*
X5940000Y-6795000I-20000J0D01*
G01*
X5940000Y-6890000D02*
G75*
G03*
X5940000Y-6890000I-20000J0D01*
G01*
X5940000Y-7245000D02*
G75*
G03*
X5940000Y-7245000I-20000J0D01*
G01*
X5940000Y-7395000D02*
G75*
G03*
X5940000Y-7395000I-20000J0D01*
G01*
X5940000Y-7645000D02*
G75*
G03*
X5940000Y-7645000I-20000J0D01*
G01*
X5940000Y-8295000D02*
G75*
G03*
X5940000Y-8295000I-20000J0D01*
G01*
X5990000Y-9895000D02*
G75*
G03*
X5990000Y-9895000I-20000J0D01*
G01*
X5991230Y-9295000D02*
G75*
G03*
X5991230Y-9295000I-20000J0D01*
G01*
X6040000Y-6995000D02*
G75*
G03*
X6040000Y-6995000I-20000J0D01*
G01*
X6040000Y-7345000D02*
G75*
G03*
X6040000Y-7345000I-20000J0D01*
G01*
X6040000Y-7745000D02*
G75*
G03*
X6040000Y-7745000I-20000J0D01*
G01*
X6090000Y-8132000D02*
G75*
G03*
X6090000Y-8132000I-20000J0D01*
G01*
X6122000Y-6495000D02*
G75*
G03*
X6122000Y-6495000I-20000J0D01*
G01*
X6122000Y-7145000D02*
G75*
G03*
X6122000Y-7145000I-20000J0D01*
G01*
X6140000Y-5629000D02*
G75*
G03*
X6140000Y-5629000I-20000J0D01*
G01*
X6140000Y-6145000D02*
G75*
G03*
X6140000Y-6145000I-20000J0D01*
G01*
X6140000Y-7878000D02*
G75*
G03*
X6140000Y-7878000I-20000J0D01*
G01*
X6190000Y-7345000D02*
G75*
G03*
X6190000Y-7345000I-20000J0D01*
G01*
X6190000Y-8259000D02*
G75*
G03*
X6190000Y-8259000I-20000J0D01*
G01*
X6222000Y-10095000D02*
G75*
G03*
X6222000Y-10095000I-20000J0D01*
G01*
X6240000Y-5845000D02*
G75*
G03*
X6240000Y-5845000I-20000J0D01*
G01*
X6308000Y-6245000D02*
G75*
G03*
X6308000Y-6245000I-20000J0D01*
G01*
X6340000Y-5451000D02*
G75*
G03*
X6340000Y-5451000I-20000J0D01*
G01*
X6340000Y-6595000D02*
G75*
G03*
X6340000Y-6595000I-20000J0D01*
G01*
X6340000Y-11370000D02*
G75*
G03*
X6340000Y-11370000I-20000J0D01*
G01*
X6440000Y-5345000D02*
G75*
G03*
X6440000Y-5345000I-20000J0D01*
G01*
X6440000Y-5745000D02*
G75*
G03*
X6440000Y-5745000I-20000J0D01*
G01*
X6440000Y-5945000D02*
G75*
G03*
X6440000Y-5945000I-20000J0D01*
G01*
X6440000Y-6045000D02*
G75*
G03*
X6440000Y-6045000I-20000J0D01*
G01*
X6475050Y-6395000D02*
G75*
G03*
X6475050Y-6395000I-20000J0D01*
G01*
X6475050Y-6995000D02*
G75*
G03*
X6475050Y-6995000I-20000J0D01*
G01*
X6540000Y-2795000D02*
G75*
G03*
X6540000Y-2795000I-20000J0D01*
G01*
X6540000Y-4095000D02*
G75*
G03*
X6540000Y-4095000I-20000J0D01*
G01*
X6540000Y-4645000D02*
G75*
G03*
X6540000Y-4645000I-20000J0D01*
G01*
X6540000Y-9945000D02*
G75*
G03*
X6540000Y-9945000I-20000J0D01*
G01*
X6558000Y-6245000D02*
G75*
G03*
X6558000Y-6245000I-20000J0D01*
G01*
X6558000Y-6890000D02*
G75*
G03*
X6558000Y-6890000I-20000J0D01*
G01*
X6590000Y-5451000D02*
G75*
G03*
X6590000Y-5451000I-20000J0D01*
G01*
X6622000Y-6595000D02*
G75*
G03*
X6622000Y-6595000I-20000J0D01*
G01*
X6640000Y-5845000D02*
G75*
G03*
X6640000Y-5845000I-20000J0D01*
G01*
X6640000Y-8045000D02*
G75*
G03*
X6640000Y-8045000I-20000J0D01*
G01*
X6696000Y-7751000D02*
G75*
G03*
X6696000Y-7751000I-20000J0D01*
G01*
X6722000Y-9595000D02*
G75*
G03*
X6722000Y-9595000I-20000J0D01*
G01*
X6722000Y-9845000D02*
G75*
G03*
X6722000Y-9845000I-20000J0D01*
G01*
X6740000Y-4095000D02*
G75*
G03*
X6740000Y-4095000I-20000J0D01*
G01*
X6740000Y-4495000D02*
G75*
G03*
X6740000Y-4495000I-20000J0D01*
G01*
X6740000Y-6045000D02*
G75*
G03*
X6740000Y-6045000I-20000J0D01*
G01*
X6740000Y-6163000D02*
G75*
G03*
X6740000Y-6163000I-20000J0D01*
G01*
X6740000Y-6595000D02*
G75*
G03*
X6740000Y-6595000I-20000J0D01*
G01*
X6740000Y-7370000D02*
G75*
G03*
X6740000Y-7370000I-20000J0D01*
G01*
X6740000Y-8395000D02*
G75*
G03*
X6740000Y-8395000I-20000J0D01*
G01*
X6840000Y-5345000D02*
G75*
G03*
X6840000Y-5345000I-20000J0D01*
G01*
X6840000Y-5845000D02*
G75*
G03*
X6840000Y-5845000I-20000J0D01*
G01*
X6840000Y-6895000D02*
G75*
G03*
X6840000Y-6895000I-20000J0D01*
G01*
X6890000Y-3045000D02*
G75*
G03*
X6890000Y-3045000I-20000J0D01*
G01*
X6890000Y-4645000D02*
G75*
G03*
X6890000Y-4645000I-20000J0D01*
G01*
X6932500Y-9295000D02*
G75*
G03*
X6932500Y-9295000I-20000J0D01*
G01*
X6960000Y-7243000D02*
G75*
G03*
X6960000Y-7243000I-20000J0D01*
G01*
X6990000Y-8767000D02*
G75*
G03*
X6990000Y-8767000I-20000J0D01*
G01*
X7022000Y-10095000D02*
G75*
G03*
X7022000Y-10095000I-20000J0D01*
G01*
X7140000Y-8795000D02*
G75*
G03*
X7140000Y-8795000I-20000J0D01*
G01*
X7340000Y-9945000D02*
G75*
G03*
X7340000Y-9945000I-20000J0D01*
G01*
X7490000Y-8513000D02*
G75*
G03*
X7490000Y-8513000I-20000J0D01*
G01*
X7510000Y-3045000D02*
G75*
G03*
X7510000Y-3045000I-20000J0D01*
G01*
X7522000Y-9595000D02*
G75*
G03*
X7522000Y-9595000I-20000J0D01*
G01*
X7522000Y-9845000D02*
G75*
G03*
X7522000Y-9845000I-20000J0D01*
G01*
X7640000Y-8640000D02*
G75*
G03*
X7640000Y-8640000I-20000J0D01*
G01*
X7790000Y-7497000D02*
G75*
G03*
X7790000Y-7497000I-20000J0D01*
G01*
X7822000Y-10095000D02*
G75*
G03*
X7822000Y-10095000I-20000J0D01*
G01*
X7890000Y-2895000D02*
G75*
G03*
X7890000Y-2895000I-20000J0D01*
G01*
X7890000Y-6895000D02*
G75*
G03*
X7890000Y-6895000I-20000J0D01*
G01*
X7940000Y-7145000D02*
G75*
G03*
X7940000Y-7145000I-20000J0D01*
G01*
X7940000Y-8386000D02*
G75*
G03*
X7940000Y-8386000I-20000J0D01*
G01*
X8140000Y-9945000D02*
G75*
G03*
X8140000Y-9945000I-20000J0D01*
G01*
X8175000Y-6995000D02*
G75*
G03*
X8175000Y-6995000I-20000J0D01*
G01*
X8322000Y-9595000D02*
G75*
G03*
X8322000Y-9595000I-20000J0D01*
G01*
X8322000Y-9845000D02*
G75*
G03*
X8322000Y-9845000I-20000J0D01*
G01*
X8340000Y-6252000D02*
G75*
G03*
X8340000Y-6252000I-20000J0D01*
G01*
X8340000Y-6995000D02*
G75*
G03*
X8340000Y-6995000I-20000J0D01*
G01*
X8340000Y-8640000D02*
G75*
G03*
X8340000Y-8640000I-20000J0D01*
G01*
X8440000Y-6074000D02*
G75*
G03*
X8440000Y-6074000I-20000J0D01*
G01*
X8440000Y-7045000D02*
G75*
G03*
X8440000Y-7045000I-20000J0D01*
G01*
X8440000Y-8767000D02*
G75*
G03*
X8440000Y-8767000I-20000J0D01*
G01*
X8540000Y-6295000D02*
G75*
G03*
X8540000Y-6295000I-20000J0D01*
G01*
X8540000Y-6745000D02*
G75*
G03*
X8540000Y-6745000I-20000J0D01*
G01*
X8540000Y-6995000D02*
G75*
G03*
X8540000Y-6995000I-20000J0D01*
G01*
X8540000Y-8895000D02*
G75*
G03*
X8540000Y-8895000I-20000J0D01*
G01*
X8640000Y-4695000D02*
G75*
G03*
X8640000Y-4695000I-20000J0D01*
G01*
X8640000Y-6495000D02*
G75*
G03*
X8640000Y-6495000I-20000J0D01*
G01*
X8640000Y-6645000D02*
G75*
G03*
X8640000Y-6645000I-20000J0D01*
G01*
X8640000Y-7045000D02*
G75*
G03*
X8640000Y-7045000I-20000J0D01*
G01*
X8640000Y-8513000D02*
G75*
G03*
X8640000Y-8513000I-20000J0D01*
G01*
X8740000Y-3045000D02*
G75*
G03*
X8740000Y-3045000I-20000J0D01*
G01*
X8740000Y-3445000D02*
G75*
G03*
X8740000Y-3445000I-20000J0D01*
G01*
X8740000Y-4945000D02*
G75*
G03*
X8740000Y-4945000I-20000J0D01*
G01*
X8740000Y-6295000D02*
G75*
G03*
X8740000Y-6295000I-20000J0D01*
G01*
X8740000Y-6995000D02*
G75*
G03*
X8740000Y-6995000I-20000J0D01*
G01*
X8740000Y-7243000D02*
G75*
G03*
X8740000Y-7243000I-20000J0D01*
G01*
X8740000Y-8595000D02*
G75*
G03*
X8740000Y-8595000I-20000J0D01*
G01*
X8740000Y-9695000D02*
G75*
G03*
X8740000Y-9695000I-20000J0D01*
G01*
X8740000Y-10095000D02*
G75*
G03*
X8740000Y-10095000I-20000J0D01*
G01*
X8858000Y-3545000D02*
G75*
G03*
X8858000Y-3545000I-20000J0D01*
G01*
X8858000Y-4095000D02*
G75*
G03*
X8858000Y-4095000I-20000J0D01*
G01*
X8888770Y-6096230D02*
G75*
G03*
X8888770Y-6096230I-20000J0D01*
G01*
X8888770Y-6643770D02*
G75*
G03*
X8888770Y-6643770I-20000J0D01*
G01*
X8890000Y-5362000D02*
G75*
G03*
X8890000Y-5362000I-20000J0D01*
G01*
X8940000Y-4345000D02*
G75*
G03*
X8940000Y-4345000I-20000J0D01*
G01*
X8940000Y-4695000D02*
G75*
G03*
X8940000Y-4695000I-20000J0D01*
G01*
X8940000Y-7751000D02*
G75*
G03*
X8940000Y-7751000I-20000J0D01*
G01*
X8990000Y-6095000D02*
G75*
G03*
X8990000Y-6095000I-20000J0D01*
G01*
X8990000Y-6645000D02*
G75*
G03*
X8990000Y-6645000I-20000J0D01*
G01*
X9090000Y-3695000D02*
G75*
G03*
X9090000Y-3695000I-20000J0D01*
G01*
X9090000Y-3945000D02*
G75*
G03*
X9090000Y-3945000I-20000J0D01*
G01*
X9090000Y-4495000D02*
G75*
G03*
X9090000Y-4495000I-20000J0D01*
G01*
X9090000Y-5845000D02*
G75*
G03*
X9090000Y-5845000I-20000J0D01*
G01*
X9090000Y-6095000D02*
G75*
G03*
X9090000Y-6095000I-20000J0D01*
G01*
X9090000Y-6645000D02*
G75*
G03*
X9090000Y-6645000I-20000J0D01*
G01*
X9240000Y-6795000D02*
G75*
G03*
X9240000Y-6795000I-20000J0D01*
G01*
X9390000Y-10195000D02*
G75*
G03*
X9390000Y-10195000I-20000J0D01*
G01*
X9440000Y-4945000D02*
G75*
G03*
X9440000Y-4945000I-20000J0D01*
G01*
X9440000Y-5595000D02*
G75*
G03*
X9440000Y-5595000I-20000J0D01*
G01*
X9440000Y-5845000D02*
G75*
G03*
X9440000Y-5845000I-20000J0D01*
G01*
X9490000Y-8259000D02*
G75*
G03*
X9490000Y-8259000I-20000J0D01*
G01*
X9640000Y-6895000D02*
G75*
G03*
X9640000Y-6895000I-20000J0D01*
G01*
X9640000Y-10295000D02*
G75*
G03*
X9640000Y-10295000I-20000J0D01*
G01*
X9940000Y-8995000D02*
G75*
G03*
X9940000Y-8995000I-20000J0D01*
G01*
X10040000Y-9095000D02*
G75*
G03*
X10040000Y-9095000I-20000J0D01*
G01*
X10140000Y-9195000D02*
G75*
G03*
X10140000Y-9195000I-20000J0D01*
G01*
D14*
X7085000Y-5070000D02*
X7085000Y-5120000D01*
X7060000Y-5095000D02*
X7110000Y-5095000D01*
D11*
X7060000Y-5085000D02*
X7060000Y-5105000D01*
X7060000Y-5105000D02*
G75*
G03*
X7110000Y-5105000I25000J0D01*
G01*
X7110000Y-5105000D02*
X7110000Y-5085000D01*
X7110000Y-5085000D02*
G75*
G03*
X7060000Y-5085000I-25000J0D01*
G01*
D14*
X7085000Y-5248000D02*
X7085000Y-5298000D01*
X7060000Y-5273000D02*
X7110000Y-5273000D01*
D11*
X7060000Y-5263000D02*
X7060000Y-5283000D01*
X7060000Y-5283000D02*
G75*
G03*
X7110000Y-5283000I25000J0D01*
G01*
X7110000Y-5283000D02*
X7110000Y-5263000D01*
X7110000Y-5263000D02*
G75*
G03*
X7060000Y-5263000I-25000J0D01*
G01*
D14*
X7085000Y-5426000D02*
X7085000Y-5476000D01*
X7060000Y-5451000D02*
X7110000Y-5451000D01*
D11*
X7060000Y-5441000D02*
X7060000Y-5461000D01*
X7060000Y-5461000D02*
G75*
G03*
X7110000Y-5461000I25000J0D01*
G01*
X7110000Y-5461000D02*
X7110000Y-5441000D01*
X7110000Y-5441000D02*
G75*
G03*
X7060000Y-5441000I-25000J0D01*
G01*
D14*
X7085000Y-5604000D02*
X7085000Y-5654000D01*
X7060000Y-5629000D02*
X7110000Y-5629000D01*
D11*
X7060000Y-5619000D02*
X7060000Y-5639000D01*
X7060000Y-5639000D02*
G75*
G03*
X7110000Y-5639000I25000J0D01*
G01*
X7110000Y-5639000D02*
X7110000Y-5619000D01*
X7110000Y-5619000D02*
G75*
G03*
X7060000Y-5619000I-25000J0D01*
G01*
D14*
X7085000Y-5782000D02*
X7085000Y-5832000D01*
X7060000Y-5807000D02*
X7110000Y-5807000D01*
D11*
X7060000Y-5797000D02*
X7060000Y-5817000D01*
X7060000Y-5817000D02*
G75*
G03*
X7110000Y-5817000I25000J0D01*
G01*
X7110000Y-5817000D02*
X7110000Y-5797000D01*
X7110000Y-5797000D02*
G75*
G03*
X7060000Y-5797000I-25000J0D01*
G01*
D14*
X7085000Y-5960000D02*
X7085000Y-6010000D01*
X7060000Y-5985000D02*
X7110000Y-5985000D01*
D11*
X7060000Y-5975000D02*
X7060000Y-5995000D01*
X7060000Y-5995000D02*
G75*
G03*
X7110000Y-5995000I25000J0D01*
G01*
X7110000Y-5995000D02*
X7110000Y-5975000D01*
X7110000Y-5975000D02*
G75*
G03*
X7060000Y-5975000I-25000J0D01*
G01*
D14*
X7085000Y-6138000D02*
X7085000Y-6188000D01*
X7060000Y-6163000D02*
X7110000Y-6163000D01*
D11*
X7060000Y-6153000D02*
X7060000Y-6173000D01*
X7060000Y-6173000D02*
G75*
G03*
X7110000Y-6173000I25000J0D01*
G01*
X7110000Y-6173000D02*
X7110000Y-6153000D01*
X7110000Y-6153000D02*
G75*
G03*
X7060000Y-6153000I-25000J0D01*
G01*
D14*
X7085000Y-6316000D02*
X7085000Y-6366000D01*
X7060000Y-6341000D02*
X7110000Y-6341000D01*
D11*
X7060000Y-6331000D02*
X7060000Y-6351000D01*
X7060000Y-6351000D02*
G75*
G03*
X7110000Y-6351000I25000J0D01*
G01*
X7110000Y-6351000D02*
X7110000Y-6331000D01*
X7110000Y-6331000D02*
G75*
G03*
X7060000Y-6331000I-25000J0D01*
G01*
D14*
X8155000Y-5159000D02*
X8155000Y-5209000D01*
X8130000Y-5184000D02*
X8180000Y-5184000D01*
D11*
X8130000Y-5174000D02*
X8130000Y-5194000D01*
X8130000Y-5194000D02*
G75*
G03*
X8180000Y-5194000I25000J0D01*
G01*
X8180000Y-5194000D02*
X8180000Y-5174000D01*
X8180000Y-5174000D02*
G75*
G03*
X8130000Y-5174000I-25000J0D01*
G01*
D14*
X8155000Y-5337000D02*
X8155000Y-5387000D01*
X8130000Y-5362000D02*
X8180000Y-5362000D01*
D11*
X8130000Y-5352000D02*
X8130000Y-5372000D01*
X8130000Y-5372000D02*
G75*
G03*
X8180000Y-5372000I25000J0D01*
G01*
X8180000Y-5372000D02*
X8180000Y-5352000D01*
X8180000Y-5352000D02*
G75*
G03*
X8130000Y-5352000I-25000J0D01*
G01*
D14*
X8155000Y-5515000D02*
X8155000Y-5565000D01*
X8130000Y-5540000D02*
X8180000Y-5540000D01*
D11*
X8130000Y-5530000D02*
X8130000Y-5550000D01*
X8130000Y-5550000D02*
G75*
G03*
X8180000Y-5550000I25000J0D01*
G01*
X8180000Y-5550000D02*
X8180000Y-5530000D01*
X8180000Y-5530000D02*
G75*
G03*
X8130000Y-5530000I-25000J0D01*
G01*
D14*
X8155000Y-5693000D02*
X8155000Y-5743000D01*
X8130000Y-5718000D02*
X8180000Y-5718000D01*
D11*
X8130000Y-5708000D02*
X8130000Y-5728000D01*
X8130000Y-5728000D02*
G75*
G03*
X8180000Y-5728000I25000J0D01*
G01*
X8180000Y-5728000D02*
X8180000Y-5708000D01*
X8180000Y-5708000D02*
G75*
G03*
X8130000Y-5708000I-25000J0D01*
G01*
D14*
X8155000Y-5871000D02*
X8155000Y-5921000D01*
X8130000Y-5896000D02*
X8180000Y-5896000D01*
D11*
X8130000Y-5886000D02*
X8130000Y-5906000D01*
X8130000Y-5906000D02*
G75*
G03*
X8180000Y-5906000I25000J0D01*
G01*
X8180000Y-5906000D02*
X8180000Y-5886000D01*
X8180000Y-5886000D02*
G75*
G03*
X8130000Y-5886000I-25000J0D01*
G01*
D14*
X8155000Y-6049000D02*
X8155000Y-6099000D01*
X8130000Y-6074000D02*
X8180000Y-6074000D01*
D11*
X8130000Y-6064000D02*
X8130000Y-6084000D01*
X8130000Y-6084000D02*
G75*
G03*
X8180000Y-6084000I25000J0D01*
G01*
X8180000Y-6084000D02*
X8180000Y-6064000D01*
X8180000Y-6064000D02*
G75*
G03*
X8130000Y-6064000I-25000J0D01*
G01*
D14*
X8155000Y-6227000D02*
X8155000Y-6277000D01*
X8130000Y-6252000D02*
X8180000Y-6252000D01*
D11*
X8130000Y-6242000D02*
X8130000Y-6262000D01*
X8130000Y-6262000D02*
G75*
G03*
X8180000Y-6262000I25000J0D01*
G01*
X8180000Y-6262000D02*
X8180000Y-6242000D01*
X8180000Y-6242000D02*
G75*
G03*
X8130000Y-6242000I-25000J0D01*
G01*
D14*
X8155000Y-6405000D02*
X8155000Y-6455000D01*
X8130000Y-6430000D02*
X8180000Y-6430000D01*
D11*
X8130000Y-6420000D02*
X8130000Y-6440000D01*
X8130000Y-6440000D02*
G75*
G03*
X8180000Y-6440000I25000J0D01*
G01*
X8180000Y-6440000D02*
X8180000Y-6420000D01*
X8180000Y-6420000D02*
G75*
G03*
X8130000Y-6420000I-25000J0D01*
G01*
D15*
X5341213Y-10958213D02*
X5341213Y-10915787D01*
X5298787Y-10915787D01*
X5298787Y-10958213D01*
X5341213Y-10958213D01*
D11*
X5290000Y-10912000D02*
X5290000Y-10962000D01*
X5290000Y-10962000D02*
G75*
G03*
X5350000Y-10962000I30000J0D01*
G01*
X5350000Y-10962000D02*
X5350000Y-10912000D01*
X5350000Y-10912000D02*
G75*
G03*
X5290000Y-10912000I-30000J0D01*
G01*
D15*
X5341213Y-11466213D02*
X5341213Y-11423787D01*
X5298787Y-11423787D01*
X5298787Y-11466213D01*
X5341213Y-11466213D01*
D11*
X5290000Y-11420000D02*
X5290000Y-11470000D01*
X5290000Y-11470000D02*
G75*
G03*
X5350000Y-11470000I30000J0D01*
G01*
X5350000Y-11470000D02*
X5350000Y-11420000D01*
X5350000Y-11420000D02*
G75*
G03*
X5290000Y-11420000I-30000J0D01*
G01*
D15*
X5341213Y-11974213D02*
X5341213Y-11931787D01*
X5298787Y-11931787D01*
X5298787Y-11974213D01*
X5341213Y-11974213D01*
D11*
X5290000Y-11928000D02*
X5290000Y-11978000D01*
X5290000Y-11978000D02*
G75*
G03*
X5350000Y-11978000I30000J0D01*
G01*
X5350000Y-11978000D02*
X5350000Y-11928000D01*
X5350000Y-11928000D02*
G75*
G03*
X5290000Y-11928000I-30000J0D01*
G01*
D15*
X5891213Y-2808213D02*
X5891213Y-2765787D01*
X5848787Y-2765787D01*
X5848787Y-2808213D01*
X5891213Y-2808213D01*
D11*
X5840000Y-2762000D02*
X5840000Y-2812000D01*
X5840000Y-2812000D02*
G75*
G03*
X5900000Y-2812000I30000J0D01*
G01*
X5900000Y-2812000D02*
X5900000Y-2762000D01*
X5900000Y-2762000D02*
G75*
G03*
X5840000Y-2762000I-30000J0D01*
G01*
D15*
X5891213Y-3316213D02*
X5891213Y-3273787D01*
X5848787Y-3273787D01*
X5848787Y-3316213D01*
X5891213Y-3316213D01*
D11*
X5840000Y-3270000D02*
X5840000Y-3320000D01*
X5840000Y-3320000D02*
G75*
G03*
X5900000Y-3320000I30000J0D01*
G01*
X5900000Y-3320000D02*
X5900000Y-3270000D01*
X5900000Y-3270000D02*
G75*
G03*
X5840000Y-3270000I-30000J0D01*
G01*
D15*
X5891213Y-3824213D02*
X5891213Y-3781787D01*
X5848787Y-3781787D01*
X5848787Y-3824213D01*
X5891213Y-3824213D01*
D11*
X5840000Y-3778000D02*
X5840000Y-3828000D01*
X5840000Y-3828000D02*
G75*
G03*
X5900000Y-3828000I30000J0D01*
G01*
X5900000Y-3828000D02*
X5900000Y-3778000D01*
X5900000Y-3778000D02*
G75*
G03*
X5840000Y-3778000I-30000J0D01*
G01*
D15*
X6041213Y-10958213D02*
X6041213Y-10915787D01*
X5998787Y-10915787D01*
X5998787Y-10958213D01*
X6041213Y-10958213D01*
D11*
X5990000Y-10912000D02*
X5990000Y-10962000D01*
X5990000Y-10962000D02*
G75*
G03*
X6050000Y-10962000I30000J0D01*
G01*
X6050000Y-10962000D02*
X6050000Y-10912000D01*
X6050000Y-10912000D02*
G75*
G03*
X5990000Y-10912000I-30000J0D01*
G01*
D15*
X6041213Y-11466213D02*
X6041213Y-11423787D01*
X5998787Y-11423787D01*
X5998787Y-11466213D01*
X6041213Y-11466213D01*
D11*
X5990000Y-11420000D02*
X5990000Y-11470000D01*
X5990000Y-11470000D02*
G75*
G03*
X6050000Y-11470000I30000J0D01*
G01*
X6050000Y-11470000D02*
X6050000Y-11420000D01*
X6050000Y-11420000D02*
G75*
G03*
X5990000Y-11420000I-30000J0D01*
G01*
D15*
X6041213Y-11974213D02*
X6041213Y-11931787D01*
X5998787Y-11931787D01*
X5998787Y-11974213D01*
X6041213Y-11974213D01*
D11*
X5990000Y-11928000D02*
X5990000Y-11978000D01*
X5990000Y-11978000D02*
G75*
G03*
X6050000Y-11978000I30000J0D01*
G01*
X6050000Y-11978000D02*
X6050000Y-11928000D01*
X6050000Y-11928000D02*
G75*
G03*
X5990000Y-11928000I-30000J0D01*
G01*
D15*
X6541213Y-3358213D02*
X6541213Y-3315787D01*
X6498787Y-3315787D01*
X6498787Y-3358213D01*
X6541213Y-3358213D01*
D11*
X6490000Y-3312000D02*
X6490000Y-3362000D01*
X6490000Y-3362000D02*
G75*
G03*
X6550000Y-3362000I30000J0D01*
G01*
X6550000Y-3362000D02*
X6550000Y-3312000D01*
X6550000Y-3312000D02*
G75*
G03*
X6490000Y-3312000I-30000J0D01*
G01*
D15*
X6541213Y-3866213D02*
X6541213Y-3823787D01*
X6498787Y-3823787D01*
X6498787Y-3866213D01*
X6541213Y-3866213D01*
D11*
X6490000Y-3820000D02*
X6490000Y-3870000D01*
X6490000Y-3870000D02*
G75*
G03*
X6550000Y-3870000I30000J0D01*
G01*
X6550000Y-3870000D02*
X6550000Y-3820000D01*
X6550000Y-3820000D02*
G75*
G03*
X6490000Y-3820000I-30000J0D01*
G01*
D15*
X6541213Y-4374213D02*
X6541213Y-4331787D01*
X6498787Y-4331787D01*
X6498787Y-4374213D01*
X6541213Y-4374213D01*
D11*
X6490000Y-4328000D02*
X6490000Y-4378000D01*
X6490000Y-4378000D02*
G75*
G03*
X6550000Y-4378000I30000J0D01*
G01*
X6550000Y-4378000D02*
X6550000Y-4328000D01*
X6550000Y-4328000D02*
G75*
G03*
X6490000Y-4328000I-30000J0D01*
G01*
D15*
X7291213Y-2211213D02*
X7291213Y-2168787D01*
X7248787Y-2168787D01*
X7248787Y-2211213D01*
X7291213Y-2211213D01*
D11*
X7300000Y-2225000D02*
X7300000Y-2155000D01*
X7300000Y-2155000D02*
G75*
G03*
X7240000Y-2155000I-30000J0D01*
G01*
X7240000Y-2155000D02*
X7240000Y-2225000D01*
X7240000Y-2225000D02*
G75*
G03*
X7300000Y-2225000I30000J0D01*
G01*
D15*
X7991213Y-2211213D02*
X7991213Y-2168787D01*
X7948787Y-2168787D01*
X7948787Y-2211213D01*
X7991213Y-2211213D01*
D11*
X8000000Y-2225000D02*
X8000000Y-2155000D01*
X8000000Y-2155000D02*
G75*
G03*
X7940000Y-2155000I-30000J0D01*
G01*
X7940000Y-2155000D02*
X7940000Y-2225000D01*
X7940000Y-2225000D02*
G75*
G03*
X8000000Y-2225000I30000J0D01*
G01*
D15*
X9441213Y-2815213D02*
X9441213Y-2772787D01*
X9398787Y-2772787D01*
X9398787Y-2815213D01*
X9441213Y-2815213D01*
D11*
X9390000Y-2769000D02*
X9390000Y-2819000D01*
X9390000Y-2819000D02*
G75*
G03*
X9450000Y-2819000I30000J0D01*
G01*
X9450000Y-2819000D02*
X9450000Y-2769000D01*
X9450000Y-2769000D02*
G75*
G03*
X9390000Y-2769000I-30000J0D01*
G01*
D15*
X9441213Y-3323213D02*
X9441213Y-3280787D01*
X9398787Y-3280787D01*
X9398787Y-3323213D01*
X9441213Y-3323213D01*
D11*
X9390000Y-3277000D02*
X9390000Y-3327000D01*
X9390000Y-3327000D02*
G75*
G03*
X9450000Y-3327000I30000J0D01*
G01*
X9450000Y-3327000D02*
X9450000Y-3277000D01*
X9450000Y-3277000D02*
G75*
G03*
X9390000Y-3277000I-30000J0D01*
G01*
D15*
X9441213Y-3831213D02*
X9441213Y-3788787D01*
X9398787Y-3788787D01*
X9398787Y-3831213D01*
X9441213Y-3831213D01*
D11*
X9390000Y-3785000D02*
X9390000Y-3835000D01*
X9390000Y-3835000D02*
G75*
G03*
X9450000Y-3835000I30000J0D01*
G01*
X9450000Y-3835000D02*
X9450000Y-3785000D01*
X9450000Y-3785000D02*
G75*
G03*
X9390000Y-3785000I-30000J0D01*
G01*
D16*
X9420000Y-6335640D02*
X9460640Y-6295000D01*
X9420000Y-6254360D01*
X9379360Y-6295000D01*
X9420000Y-6335640D01*
X9620000Y-6335640D02*
X9660640Y-6295000D01*
X9620000Y-6254360D01*
X9579360Y-6295000D01*
X9620000Y-6335640D01*
D17*
X7327500Y-2417500D02*
X7412500Y-2502500D01*
X7412500Y-2417500D02*
X7327500Y-2502500D01*
X7412500Y-2460000D02*
G75*
G03*
X7412500Y-2460000I-42500J0D01*
G01*
X7827500Y-2417500D02*
X7912500Y-2502500D01*
X7912500Y-2417500D02*
X7827500Y-2502500D01*
X7912500Y-2460000D02*
G75*
G03*
X7912500Y-2460000I-42500J0D01*
G01*
D18*
X9075000Y-8550000D02*
X9165000Y-8640000D01*
X9165000Y-8550000D02*
X9075000Y-8640000D01*
X9120000Y-8550000D02*
X9120000Y-8640000D01*
X9075000Y-8595000D02*
X9165000Y-8595000D01*
X9325000Y-8550000D02*
X9415000Y-8640000D01*
X9415000Y-8550000D02*
X9325000Y-8640000D01*
X9370000Y-8550000D02*
X9370000Y-8640000D01*
X9325000Y-8595000D02*
X9415000Y-8595000D01*
X9575000Y-8550000D02*
X9665000Y-8640000D01*
X9665000Y-8550000D02*
X9575000Y-8640000D01*
X9620000Y-8550000D02*
X9620000Y-8640000D01*
X9575000Y-8595000D02*
X9665000Y-8595000D01*
D10*
X8470000Y-3395000D02*
X8570000Y-3495000D01*
X8570000Y-3395000D02*
X8470000Y-3495000D01*
X8555356Y-3480356D02*
X8555356Y-3409644D01*
X8484644Y-3409644D01*
X8484644Y-3480356D01*
X8555356Y-3480356D01*
X8470000Y-3645000D02*
X8570000Y-3745000D01*
X8570000Y-3645000D02*
X8470000Y-3745000D01*
X8555356Y-3730356D02*
X8555356Y-3659644D01*
X8484644Y-3659644D01*
X8484644Y-3730356D01*
X8555356Y-3730356D01*
X8470000Y-3895000D02*
X8570000Y-3995000D01*
X8570000Y-3895000D02*
X8470000Y-3995000D01*
X8555356Y-3980356D02*
X8555356Y-3909644D01*
X8484644Y-3909644D01*
X8484644Y-3980356D01*
X8555356Y-3980356D01*
X9020000Y-7193000D02*
X9120000Y-7293000D01*
X9120000Y-7193000D02*
X9020000Y-7293000D01*
X9105356Y-7278356D02*
X9105356Y-7207644D01*
X9034644Y-7207644D01*
X9034644Y-7278356D01*
X9105356Y-7278356D01*
X9020000Y-7828000D02*
X9120000Y-7928000D01*
X9120000Y-7828000D02*
X9020000Y-7928000D01*
X9105356Y-7913356D02*
X9105356Y-7842644D01*
X9034644Y-7842644D01*
X9034644Y-7913356D01*
X9105356Y-7913356D01*
X9220000Y-7193000D02*
X9320000Y-7293000D01*
X9320000Y-7193000D02*
X9220000Y-7293000D01*
X9305356Y-7278356D02*
X9305356Y-7207644D01*
X9234644Y-7207644D01*
X9234644Y-7278356D01*
X9305356Y-7278356D01*
X9220000Y-7828000D02*
X9320000Y-7928000D01*
X9320000Y-7828000D02*
X9220000Y-7928000D01*
X9305356Y-7913356D02*
X9305356Y-7842644D01*
X9234644Y-7842644D01*
X9234644Y-7913356D01*
X9305356Y-7913356D01*
X9420000Y-7193000D02*
X9520000Y-7293000D01*
X9520000Y-7193000D02*
X9420000Y-7293000D01*
X9505356Y-7278356D02*
X9505356Y-7207644D01*
X9434644Y-7207644D01*
X9434644Y-7278356D01*
X9505356Y-7278356D01*
X9420000Y-7828000D02*
X9520000Y-7928000D01*
X9520000Y-7828000D02*
X9420000Y-7928000D01*
X9505356Y-7913356D02*
X9505356Y-7842644D01*
X9434644Y-7842644D01*
X9434644Y-7913356D01*
X9505356Y-7913356D01*
X9620000Y-7193000D02*
X9720000Y-7293000D01*
X9720000Y-7193000D02*
X9620000Y-7293000D01*
X9705356Y-7278356D02*
X9705356Y-7207644D01*
X9634644Y-7207644D01*
X9634644Y-7278356D01*
X9705356Y-7278356D01*
X9620000Y-7828000D02*
X9720000Y-7928000D01*
X9720000Y-7828000D02*
X9620000Y-7928000D01*
X9705356Y-7913356D02*
X9705356Y-7842644D01*
X9634644Y-7842644D01*
X9634644Y-7913356D01*
X9705356Y-7913356D01*
D19*
X9710310Y-6065310D02*
X9829690Y-6184690D01*
X9829690Y-6065310D02*
X9710310Y-6184690D01*
X9770000Y-6184690D02*
X9829690Y-6125000D01*
X9770000Y-6065310D01*
X9710310Y-6125000D01*
X9770000Y-6184690D01*
D11*
X4970777Y-12616484D02*
X4970777Y-12416484D01*
X4970777Y-12416484D02*
X5018396Y-12416484D01*
X5018396Y-12416484D02*
X5046967Y-12426008D01*
X5046967Y-12426008D02*
X5066015Y-12445055D01*
X5066015Y-12445055D02*
X5075539Y-12464103D01*
X5075539Y-12464103D02*
X5085063Y-12502198D01*
X5085063Y-12502198D02*
X5085063Y-12530769D01*
X5085063Y-12530769D02*
X5075539Y-12568865D01*
X5075539Y-12568865D02*
X5066015Y-12587912D01*
X5066015Y-12587912D02*
X5046967Y-12606960D01*
X5046967Y-12606960D02*
X5018396Y-12616484D01*
X5018396Y-12616484D02*
X4970777Y-12616484D01*
X5170777Y-12616484D02*
X5170777Y-12483150D01*
X5170777Y-12521246D02*
X5180301Y-12502198D01*
X5180301Y-12502198D02*
X5189824Y-12492674D01*
X5189824Y-12492674D02*
X5208872Y-12483150D01*
X5208872Y-12483150D02*
X5227920Y-12483150D01*
X5294586Y-12616484D02*
X5294586Y-12483150D01*
X5294586Y-12416484D02*
X5285063Y-12426008D01*
X5285063Y-12426008D02*
X5294586Y-12435531D01*
X5294586Y-12435531D02*
X5304110Y-12426008D01*
X5304110Y-12426008D02*
X5294586Y-12416484D01*
X5294586Y-12416484D02*
X5294586Y-12435531D01*
X5418396Y-12616484D02*
X5399348Y-12606960D01*
X5399348Y-12606960D02*
X5389824Y-12587912D01*
X5389824Y-12587912D02*
X5389824Y-12416484D01*
X5523158Y-12616484D02*
X5504110Y-12606960D01*
X5504110Y-12606960D02*
X5494586Y-12587912D01*
X5494586Y-12587912D02*
X5494586Y-12416484D01*
X5751729Y-12616484D02*
X5751729Y-12416484D01*
X5751729Y-12416484D02*
X5818396Y-12559341D01*
X5818396Y-12559341D02*
X5885062Y-12416484D01*
X5885062Y-12416484D02*
X5885062Y-12616484D01*
X6066015Y-12616484D02*
X6066015Y-12511722D01*
X6066015Y-12511722D02*
X6056491Y-12492674D01*
X6056491Y-12492674D02*
X6037443Y-12483150D01*
X6037443Y-12483150D02*
X5999348Y-12483150D01*
X5999348Y-12483150D02*
X5980301Y-12492674D01*
X6066015Y-12606960D02*
X6046967Y-12616484D01*
X6046967Y-12616484D02*
X5999348Y-12616484D01*
X5999348Y-12616484D02*
X5980301Y-12606960D01*
X5980301Y-12606960D02*
X5970777Y-12587912D01*
X5970777Y-12587912D02*
X5970777Y-12568865D01*
X5970777Y-12568865D02*
X5980301Y-12549817D01*
X5980301Y-12549817D02*
X5999348Y-12540293D01*
X5999348Y-12540293D02*
X6046967Y-12540293D01*
X6046967Y-12540293D02*
X6066015Y-12530769D01*
X6161253Y-12483150D02*
X6161253Y-12683150D01*
X6161253Y-12492674D02*
X6180301Y-12483150D01*
X6180301Y-12483150D02*
X6218396Y-12483150D01*
X6218396Y-12483150D02*
X6237443Y-12492674D01*
X6237443Y-12492674D02*
X6246967Y-12502198D01*
X6246967Y-12502198D02*
X6256491Y-12521246D01*
X6256491Y-12521246D02*
X6256491Y-12578388D01*
X6256491Y-12578388D02*
X6246967Y-12597436D01*
X6246967Y-12597436D02*
X6237443Y-12606960D01*
X6237443Y-12606960D02*
X6218396Y-12616484D01*
X6218396Y-12616484D02*
X6180301Y-12616484D01*
X6180301Y-12616484D02*
X6161253Y-12606960D01*
X6342205Y-12597436D02*
X6351729Y-12606960D01*
X6351729Y-12606960D02*
X6342205Y-12616484D01*
X6342205Y-12616484D02*
X6332682Y-12606960D01*
X6332682Y-12606960D02*
X6342205Y-12597436D01*
X6342205Y-12597436D02*
X6342205Y-12616484D01*
X6342205Y-12492674D02*
X6351729Y-12502198D01*
X6351729Y-12502198D02*
X6342205Y-12511722D01*
X6342205Y-12511722D02*
X6332682Y-12502198D01*
X6332682Y-12502198D02*
X6342205Y-12492674D01*
X6342205Y-12492674D02*
X6342205Y-12511722D01*
D12*
X4690000Y-12935000D02*
X4710000Y-12955000D01*
X4710000Y-12935000D02*
X4690000Y-12955000D01*
D11*
X5008872Y-12836484D02*
X5027920Y-12836484D01*
X5027920Y-12836484D02*
X5046967Y-12846008D01*
X5046967Y-12846008D02*
X5056491Y-12855531D01*
X5056491Y-12855531D02*
X5066015Y-12874579D01*
X5066015Y-12874579D02*
X5075539Y-12912674D01*
X5075539Y-12912674D02*
X5075539Y-12960293D01*
X5075539Y-12960293D02*
X5066015Y-12998388D01*
X5066015Y-12998388D02*
X5056491Y-13017436D01*
X5056491Y-13017436D02*
X5046967Y-13026960D01*
X5046967Y-13026960D02*
X5027920Y-13036484D01*
X5027920Y-13036484D02*
X5008872Y-13036484D01*
X5008872Y-13036484D02*
X4989824Y-13026960D01*
X4989824Y-13026960D02*
X4980301Y-13017436D01*
X4980301Y-13017436D02*
X4970777Y-12998388D01*
X4970777Y-12998388D02*
X4961253Y-12960293D01*
X4961253Y-12960293D02*
X4961253Y-12912674D01*
X4961253Y-12912674D02*
X4970777Y-12874579D01*
X4970777Y-12874579D02*
X4980301Y-12855531D01*
X4980301Y-12855531D02*
X4989824Y-12846008D01*
X4989824Y-12846008D02*
X5008872Y-12836484D01*
X5161253Y-13017436D02*
X5170777Y-13026960D01*
X5170777Y-13026960D02*
X5161253Y-13036484D01*
X5161253Y-13036484D02*
X5151729Y-13026960D01*
X5151729Y-13026960D02*
X5161253Y-13017436D01*
X5161253Y-13017436D02*
X5161253Y-13036484D01*
X5246967Y-12855531D02*
X5256491Y-12846008D01*
X5256491Y-12846008D02*
X5275539Y-12836484D01*
X5275539Y-12836484D02*
X5323158Y-12836484D01*
X5323158Y-12836484D02*
X5342205Y-12846008D01*
X5342205Y-12846008D02*
X5351729Y-12855531D01*
X5351729Y-12855531D02*
X5361253Y-12874579D01*
X5361253Y-12874579D02*
X5361253Y-12893627D01*
X5361253Y-12893627D02*
X5351729Y-12922198D01*
X5351729Y-12922198D02*
X5237444Y-13036484D01*
X5237444Y-13036484D02*
X5361253Y-13036484D01*
X5485063Y-12836484D02*
X5504110Y-12836484D01*
X5504110Y-12836484D02*
X5523158Y-12846008D01*
X5523158Y-12846008D02*
X5532682Y-12855531D01*
X5532682Y-12855531D02*
X5542205Y-12874579D01*
X5542205Y-12874579D02*
X5551729Y-12912674D01*
X5551729Y-12912674D02*
X5551729Y-12960293D01*
X5551729Y-12960293D02*
X5542205Y-12998388D01*
X5542205Y-12998388D02*
X5532682Y-13017436D01*
X5532682Y-13017436D02*
X5523158Y-13026960D01*
X5523158Y-13026960D02*
X5504110Y-13036484D01*
X5504110Y-13036484D02*
X5485063Y-13036484D01*
X5485063Y-13036484D02*
X5466015Y-13026960D01*
X5466015Y-13026960D02*
X5456491Y-13017436D01*
X5456491Y-13017436D02*
X5446967Y-12998388D01*
X5446967Y-12998388D02*
X5437444Y-12960293D01*
X5437444Y-12960293D02*
X5437444Y-12912674D01*
X5437444Y-12912674D02*
X5446967Y-12874579D01*
X5446967Y-12874579D02*
X5456491Y-12855531D01*
X5456491Y-12855531D02*
X5466015Y-12846008D01*
X5466015Y-12846008D02*
X5485063Y-12836484D01*
X5675539Y-12836484D02*
X5694586Y-12836484D01*
X5694586Y-12836484D02*
X5713634Y-12846008D01*
X5713634Y-12846008D02*
X5723158Y-12855531D01*
X5723158Y-12855531D02*
X5732682Y-12874579D01*
X5732682Y-12874579D02*
X5742205Y-12912674D01*
X5742205Y-12912674D02*
X5742205Y-12960293D01*
X5742205Y-12960293D02*
X5732682Y-12998388D01*
X5732682Y-12998388D02*
X5723158Y-13017436D01*
X5723158Y-13017436D02*
X5713634Y-13026960D01*
X5713634Y-13026960D02*
X5694586Y-13036484D01*
X5694586Y-13036484D02*
X5675539Y-13036484D01*
X5675539Y-13036484D02*
X5656491Y-13026960D01*
X5656491Y-13026960D02*
X5646967Y-13017436D01*
X5646967Y-13017436D02*
X5637443Y-12998388D01*
X5637443Y-12998388D02*
X5627920Y-12960293D01*
X5627920Y-12960293D02*
X5627920Y-12912674D01*
X5627920Y-12912674D02*
X5637443Y-12874579D01*
X5637443Y-12874579D02*
X5646967Y-12855531D01*
X5646967Y-12855531D02*
X5656491Y-12846008D01*
X5656491Y-12846008D02*
X5675539Y-12836484D01*
X5827920Y-13036484D02*
X5827920Y-12903150D01*
X5827920Y-12922198D02*
X5837443Y-12912674D01*
X5837443Y-12912674D02*
X5856491Y-12903150D01*
X5856491Y-12903150D02*
X5885063Y-12903150D01*
X5885063Y-12903150D02*
X5904110Y-12912674D01*
X5904110Y-12912674D02*
X5913634Y-12931722D01*
X5913634Y-12931722D02*
X5913634Y-13036484D01*
X5913634Y-12931722D02*
X5923158Y-12912674D01*
X5923158Y-12912674D02*
X5942205Y-12903150D01*
X5942205Y-12903150D02*
X5970777Y-12903150D01*
X5970777Y-12903150D02*
X5989824Y-12912674D01*
X5989824Y-12912674D02*
X5999348Y-12931722D01*
X5999348Y-12931722D02*
X5999348Y-13036484D01*
X6094586Y-13036484D02*
X6094586Y-12903150D01*
X6094586Y-12922198D02*
X6104110Y-12912674D01*
X6104110Y-12912674D02*
X6123158Y-12903150D01*
X6123158Y-12903150D02*
X6151729Y-12903150D01*
X6151729Y-12903150D02*
X6170777Y-12912674D01*
X6170777Y-12912674D02*
X6180301Y-12931722D01*
X6180301Y-12931722D02*
X6180301Y-13036484D01*
X6180301Y-12931722D02*
X6189824Y-12912674D01*
X6189824Y-12912674D02*
X6208872Y-12903150D01*
X6208872Y-12903150D02*
X6237443Y-12903150D01*
X6237443Y-12903150D02*
X6256491Y-12912674D01*
X6256491Y-12912674D02*
X6266015Y-12931722D01*
X6266015Y-12931722D02*
X6266015Y-13036484D01*
X6656491Y-12826960D02*
X6485063Y-13084103D01*
X6913634Y-12836484D02*
X6932682Y-12836484D01*
X6932682Y-12836484D02*
X6951729Y-12846008D01*
X6951729Y-12846008D02*
X6961253Y-12855531D01*
X6961253Y-12855531D02*
X6970777Y-12874579D01*
X6970777Y-12874579D02*
X6980301Y-12912674D01*
X6980301Y-12912674D02*
X6980301Y-12960293D01*
X6980301Y-12960293D02*
X6970777Y-12998388D01*
X6970777Y-12998388D02*
X6961253Y-13017436D01*
X6961253Y-13017436D02*
X6951729Y-13026960D01*
X6951729Y-13026960D02*
X6932682Y-13036484D01*
X6932682Y-13036484D02*
X6913634Y-13036484D01*
X6913634Y-13036484D02*
X6894586Y-13026960D01*
X6894586Y-13026960D02*
X6885063Y-13017436D01*
X6885063Y-13017436D02*
X6875539Y-12998388D01*
X6875539Y-12998388D02*
X6866015Y-12960293D01*
X6866015Y-12960293D02*
X6866015Y-12912674D01*
X6866015Y-12912674D02*
X6875539Y-12874579D01*
X6875539Y-12874579D02*
X6885063Y-12855531D01*
X6885063Y-12855531D02*
X6894586Y-12846008D01*
X6894586Y-12846008D02*
X6913634Y-12836484D01*
X7066015Y-13017436D02*
X7075539Y-13026960D01*
X7075539Y-13026960D02*
X7066015Y-13036484D01*
X7066015Y-13036484D02*
X7056491Y-13026960D01*
X7056491Y-13026960D02*
X7066015Y-13017436D01*
X7066015Y-13017436D02*
X7066015Y-13036484D01*
X7199348Y-12836484D02*
X7218396Y-12836484D01*
X7218396Y-12836484D02*
X7237444Y-12846008D01*
X7237444Y-12846008D02*
X7246967Y-12855531D01*
X7246967Y-12855531D02*
X7256491Y-12874579D01*
X7256491Y-12874579D02*
X7266015Y-12912674D01*
X7266015Y-12912674D02*
X7266015Y-12960293D01*
X7266015Y-12960293D02*
X7256491Y-12998388D01*
X7256491Y-12998388D02*
X7246967Y-13017436D01*
X7246967Y-13017436D02*
X7237444Y-13026960D01*
X7237444Y-13026960D02*
X7218396Y-13036484D01*
X7218396Y-13036484D02*
X7199348Y-13036484D01*
X7199348Y-13036484D02*
X7180301Y-13026960D01*
X7180301Y-13026960D02*
X7170777Y-13017436D01*
X7170777Y-13017436D02*
X7161253Y-12998388D01*
X7161253Y-12998388D02*
X7151729Y-12960293D01*
X7151729Y-12960293D02*
X7151729Y-12912674D01*
X7151729Y-12912674D02*
X7161253Y-12874579D01*
X7161253Y-12874579D02*
X7170777Y-12855531D01*
X7170777Y-12855531D02*
X7180301Y-12846008D01*
X7180301Y-12846008D02*
X7199348Y-12836484D01*
X7389825Y-12836484D02*
X7408872Y-12836484D01*
X7408872Y-12836484D02*
X7427920Y-12846008D01*
X7427920Y-12846008D02*
X7437444Y-12855531D01*
X7437444Y-12855531D02*
X7446967Y-12874579D01*
X7446967Y-12874579D02*
X7456491Y-12912674D01*
X7456491Y-12912674D02*
X7456491Y-12960293D01*
X7456491Y-12960293D02*
X7446967Y-12998388D01*
X7446967Y-12998388D02*
X7437444Y-13017436D01*
X7437444Y-13017436D02*
X7427920Y-13026960D01*
X7427920Y-13026960D02*
X7408872Y-13036484D01*
X7408872Y-13036484D02*
X7389825Y-13036484D01*
X7389825Y-13036484D02*
X7370777Y-13026960D01*
X7370777Y-13026960D02*
X7361253Y-13017436D01*
X7361253Y-13017436D02*
X7351729Y-12998388D01*
X7351729Y-12998388D02*
X7342206Y-12960293D01*
X7342206Y-12960293D02*
X7342206Y-12912674D01*
X7342206Y-12912674D02*
X7351729Y-12874579D01*
X7351729Y-12874579D02*
X7361253Y-12855531D01*
X7361253Y-12855531D02*
X7370777Y-12846008D01*
X7370777Y-12846008D02*
X7389825Y-12836484D01*
X7523158Y-12836484D02*
X7656491Y-12836484D01*
X7656491Y-12836484D02*
X7570777Y-13036484D01*
X7742206Y-13036484D02*
X7780301Y-13036484D01*
X7780301Y-13036484D02*
X7799348Y-13026960D01*
X7799348Y-13026960D02*
X7808872Y-13017436D01*
X7808872Y-13017436D02*
X7827920Y-12988865D01*
X7827920Y-12988865D02*
X7837444Y-12950769D01*
X7837444Y-12950769D02*
X7837444Y-12874579D01*
X7837444Y-12874579D02*
X7827920Y-12855531D01*
X7827920Y-12855531D02*
X7818396Y-12846008D01*
X7818396Y-12846008D02*
X7799348Y-12836484D01*
X7799348Y-12836484D02*
X7761253Y-12836484D01*
X7761253Y-12836484D02*
X7742206Y-12846008D01*
X7742206Y-12846008D02*
X7732682Y-12855531D01*
X7732682Y-12855531D02*
X7723158Y-12874579D01*
X7723158Y-12874579D02*
X7723158Y-12922198D01*
X7723158Y-12922198D02*
X7732682Y-12941246D01*
X7732682Y-12941246D02*
X7742206Y-12950769D01*
X7742206Y-12950769D02*
X7761253Y-12960293D01*
X7761253Y-12960293D02*
X7799348Y-12960293D01*
X7799348Y-12960293D02*
X7818396Y-12950769D01*
X7818396Y-12950769D02*
X7827920Y-12941246D01*
X7827920Y-12941246D02*
X7837444Y-12922198D01*
X7913634Y-12836484D02*
X7913634Y-12874579D01*
X7989825Y-12836484D02*
X7989825Y-12874579D01*
X8285063Y-13112674D02*
X8275539Y-13103150D01*
X8275539Y-13103150D02*
X8256491Y-13074579D01*
X8256491Y-13074579D02*
X8246968Y-13055531D01*
X8246968Y-13055531D02*
X8237444Y-13026960D01*
X8237444Y-13026960D02*
X8227920Y-12979341D01*
X8227920Y-12979341D02*
X8227920Y-12941246D01*
X8227920Y-12941246D02*
X8237444Y-12893627D01*
X8237444Y-12893627D02*
X8246968Y-12865055D01*
X8246968Y-12865055D02*
X8256491Y-12846008D01*
X8256491Y-12846008D02*
X8275539Y-12817436D01*
X8275539Y-12817436D02*
X8285063Y-12807912D01*
X8466015Y-13036484D02*
X8351729Y-13036484D01*
X8408872Y-13036484D02*
X8408872Y-12836484D01*
X8408872Y-12836484D02*
X8389825Y-12865055D01*
X8389825Y-12865055D02*
X8370777Y-12884103D01*
X8370777Y-12884103D02*
X8351729Y-12893627D01*
X8542206Y-12855531D02*
X8551730Y-12846008D01*
X8551730Y-12846008D02*
X8570777Y-12836484D01*
X8570777Y-12836484D02*
X8618396Y-12836484D01*
X8618396Y-12836484D02*
X8637444Y-12846008D01*
X8637444Y-12846008D02*
X8646968Y-12855531D01*
X8646968Y-12855531D02*
X8656491Y-12874579D01*
X8656491Y-12874579D02*
X8656491Y-12893627D01*
X8656491Y-12893627D02*
X8646968Y-12922198D01*
X8646968Y-12922198D02*
X8532682Y-13036484D01*
X8532682Y-13036484D02*
X8656491Y-13036484D01*
X8894587Y-13036484D02*
X8894587Y-12836484D01*
X8980301Y-13036484D02*
X8980301Y-12931722D01*
X8980301Y-12931722D02*
X8970777Y-12912674D01*
X8970777Y-12912674D02*
X8951730Y-12903150D01*
X8951730Y-12903150D02*
X8923158Y-12903150D01*
X8923158Y-12903150D02*
X8904111Y-12912674D01*
X8904111Y-12912674D02*
X8894587Y-12922198D01*
X9104111Y-13036484D02*
X9085063Y-13026960D01*
X9085063Y-13026960D02*
X9075539Y-13017436D01*
X9075539Y-13017436D02*
X9066015Y-12998388D01*
X9066015Y-12998388D02*
X9066015Y-12941246D01*
X9066015Y-12941246D02*
X9075539Y-12922198D01*
X9075539Y-12922198D02*
X9085063Y-12912674D01*
X9085063Y-12912674D02*
X9104111Y-12903150D01*
X9104111Y-12903150D02*
X9132682Y-12903150D01*
X9132682Y-12903150D02*
X9151730Y-12912674D01*
X9151730Y-12912674D02*
X9161253Y-12922198D01*
X9161253Y-12922198D02*
X9170777Y-12941246D01*
X9170777Y-12941246D02*
X9170777Y-12998388D01*
X9170777Y-12998388D02*
X9161253Y-13017436D01*
X9161253Y-13017436D02*
X9151730Y-13026960D01*
X9151730Y-13026960D02*
X9132682Y-13036484D01*
X9132682Y-13036484D02*
X9104111Y-13036484D01*
X9285063Y-13036484D02*
X9266015Y-13026960D01*
X9266015Y-13026960D02*
X9256492Y-13007912D01*
X9256492Y-13007912D02*
X9256492Y-12836484D01*
X9437444Y-13026960D02*
X9418396Y-13036484D01*
X9418396Y-13036484D02*
X9380301Y-13036484D01*
X9380301Y-13036484D02*
X9361253Y-13026960D01*
X9361253Y-13026960D02*
X9351730Y-13007912D01*
X9351730Y-13007912D02*
X9351730Y-12931722D01*
X9351730Y-12931722D02*
X9361253Y-12912674D01*
X9361253Y-12912674D02*
X9380301Y-12903150D01*
X9380301Y-12903150D02*
X9418396Y-12903150D01*
X9418396Y-12903150D02*
X9437444Y-12912674D01*
X9437444Y-12912674D02*
X9446968Y-12931722D01*
X9446968Y-12931722D02*
X9446968Y-12950769D01*
X9446968Y-12950769D02*
X9351730Y-12969817D01*
X9523158Y-13026960D02*
X9542206Y-13036484D01*
X9542206Y-13036484D02*
X9580301Y-13036484D01*
X9580301Y-13036484D02*
X9599349Y-13026960D01*
X9599349Y-13026960D02*
X9608873Y-13007912D01*
X9608873Y-13007912D02*
X9608873Y-12998388D01*
X9608873Y-12998388D02*
X9599349Y-12979341D01*
X9599349Y-12979341D02*
X9580301Y-12969817D01*
X9580301Y-12969817D02*
X9551730Y-12969817D01*
X9551730Y-12969817D02*
X9532682Y-12960293D01*
X9532682Y-12960293D02*
X9523158Y-12941246D01*
X9523158Y-12941246D02*
X9523158Y-12931722D01*
X9523158Y-12931722D02*
X9532682Y-12912674D01*
X9532682Y-12912674D02*
X9551730Y-12903150D01*
X9551730Y-12903150D02*
X9580301Y-12903150D01*
X9580301Y-12903150D02*
X9599349Y-12912674D01*
X9675539Y-13112674D02*
X9685063Y-13103150D01*
X9685063Y-13103150D02*
X9704111Y-13074579D01*
X9704111Y-13074579D02*
X9713634Y-13055531D01*
X9713634Y-13055531D02*
X9723158Y-13026960D01*
X9723158Y-13026960D02*
X9732682Y-12979341D01*
X9732682Y-12979341D02*
X9732682Y-12941246D01*
X9732682Y-12941246D02*
X9723158Y-12893627D01*
X9723158Y-12893627D02*
X9713634Y-12865055D01*
X9713634Y-12865055D02*
X9704111Y-12846008D01*
X9704111Y-12846008D02*
X9685063Y-12817436D01*
X9685063Y-12817436D02*
X9675539Y-12807912D01*
D13*
X4710000Y-13209000D02*
G75*
G03*
X4710000Y-13209000I-20000J0D01*
G01*
D11*
X5008872Y-13100484D02*
X5027920Y-13100484D01*
X5027920Y-13100484D02*
X5046967Y-13110008D01*
X5046967Y-13110008D02*
X5056491Y-13119531D01*
X5056491Y-13119531D02*
X5066015Y-13138579D01*
X5066015Y-13138579D02*
X5075539Y-13176674D01*
X5075539Y-13176674D02*
X5075539Y-13224293D01*
X5075539Y-13224293D02*
X5066015Y-13262388D01*
X5066015Y-13262388D02*
X5056491Y-13281436D01*
X5056491Y-13281436D02*
X5046967Y-13290960D01*
X5046967Y-13290960D02*
X5027920Y-13300484D01*
X5027920Y-13300484D02*
X5008872Y-13300484D01*
X5008872Y-13300484D02*
X4989824Y-13290960D01*
X4989824Y-13290960D02*
X4980301Y-13281436D01*
X4980301Y-13281436D02*
X4970777Y-13262388D01*
X4970777Y-13262388D02*
X4961253Y-13224293D01*
X4961253Y-13224293D02*
X4961253Y-13176674D01*
X4961253Y-13176674D02*
X4970777Y-13138579D01*
X4970777Y-13138579D02*
X4980301Y-13119531D01*
X4980301Y-13119531D02*
X4989824Y-13110008D01*
X4989824Y-13110008D02*
X5008872Y-13100484D01*
X5161253Y-13281436D02*
X5170777Y-13290960D01*
X5170777Y-13290960D02*
X5161253Y-13300484D01*
X5161253Y-13300484D02*
X5151729Y-13290960D01*
X5151729Y-13290960D02*
X5161253Y-13281436D01*
X5161253Y-13281436D02*
X5161253Y-13300484D01*
X5342205Y-13167150D02*
X5342205Y-13300484D01*
X5294586Y-13090960D02*
X5246967Y-13233817D01*
X5246967Y-13233817D02*
X5370777Y-13233817D01*
X5485063Y-13100484D02*
X5504110Y-13100484D01*
X5504110Y-13100484D02*
X5523158Y-13110008D01*
X5523158Y-13110008D02*
X5532682Y-13119531D01*
X5532682Y-13119531D02*
X5542205Y-13138579D01*
X5542205Y-13138579D02*
X5551729Y-13176674D01*
X5551729Y-13176674D02*
X5551729Y-13224293D01*
X5551729Y-13224293D02*
X5542205Y-13262388D01*
X5542205Y-13262388D02*
X5532682Y-13281436D01*
X5532682Y-13281436D02*
X5523158Y-13290960D01*
X5523158Y-13290960D02*
X5504110Y-13300484D01*
X5504110Y-13300484D02*
X5485063Y-13300484D01*
X5485063Y-13300484D02*
X5466015Y-13290960D01*
X5466015Y-13290960D02*
X5456491Y-13281436D01*
X5456491Y-13281436D02*
X5446967Y-13262388D01*
X5446967Y-13262388D02*
X5437444Y-13224293D01*
X5437444Y-13224293D02*
X5437444Y-13176674D01*
X5437444Y-13176674D02*
X5446967Y-13138579D01*
X5446967Y-13138579D02*
X5456491Y-13119531D01*
X5456491Y-13119531D02*
X5466015Y-13110008D01*
X5466015Y-13110008D02*
X5485063Y-13100484D01*
X5675539Y-13100484D02*
X5694586Y-13100484D01*
X5694586Y-13100484D02*
X5713634Y-13110008D01*
X5713634Y-13110008D02*
X5723158Y-13119531D01*
X5723158Y-13119531D02*
X5732682Y-13138579D01*
X5732682Y-13138579D02*
X5742205Y-13176674D01*
X5742205Y-13176674D02*
X5742205Y-13224293D01*
X5742205Y-13224293D02*
X5732682Y-13262388D01*
X5732682Y-13262388D02*
X5723158Y-13281436D01*
X5723158Y-13281436D02*
X5713634Y-13290960D01*
X5713634Y-13290960D02*
X5694586Y-13300484D01*
X5694586Y-13300484D02*
X5675539Y-13300484D01*
X5675539Y-13300484D02*
X5656491Y-13290960D01*
X5656491Y-13290960D02*
X5646967Y-13281436D01*
X5646967Y-13281436D02*
X5637443Y-13262388D01*
X5637443Y-13262388D02*
X5627920Y-13224293D01*
X5627920Y-13224293D02*
X5627920Y-13176674D01*
X5627920Y-13176674D02*
X5637443Y-13138579D01*
X5637443Y-13138579D02*
X5646967Y-13119531D01*
X5646967Y-13119531D02*
X5656491Y-13110008D01*
X5656491Y-13110008D02*
X5675539Y-13100484D01*
X5827920Y-13300484D02*
X5827920Y-13167150D01*
X5827920Y-13186198D02*
X5837443Y-13176674D01*
X5837443Y-13176674D02*
X5856491Y-13167150D01*
X5856491Y-13167150D02*
X5885063Y-13167150D01*
X5885063Y-13167150D02*
X5904110Y-13176674D01*
X5904110Y-13176674D02*
X5913634Y-13195722D01*
X5913634Y-13195722D02*
X5913634Y-13300484D01*
X5913634Y-13195722D02*
X5923158Y-13176674D01*
X5923158Y-13176674D02*
X5942205Y-13167150D01*
X5942205Y-13167150D02*
X5970777Y-13167150D01*
X5970777Y-13167150D02*
X5989824Y-13176674D01*
X5989824Y-13176674D02*
X5999348Y-13195722D01*
X5999348Y-13195722D02*
X5999348Y-13300484D01*
X6094586Y-13300484D02*
X6094586Y-13167150D01*
X6094586Y-13186198D02*
X6104110Y-13176674D01*
X6104110Y-13176674D02*
X6123158Y-13167150D01*
X6123158Y-13167150D02*
X6151729Y-13167150D01*
X6151729Y-13167150D02*
X6170777Y-13176674D01*
X6170777Y-13176674D02*
X6180301Y-13195722D01*
X6180301Y-13195722D02*
X6180301Y-13300484D01*
X6180301Y-13195722D02*
X6189824Y-13176674D01*
X6189824Y-13176674D02*
X6208872Y-13167150D01*
X6208872Y-13167150D02*
X6237443Y-13167150D01*
X6237443Y-13167150D02*
X6256491Y-13176674D01*
X6256491Y-13176674D02*
X6266015Y-13195722D01*
X6266015Y-13195722D02*
X6266015Y-13300484D01*
X6656491Y-13090960D02*
X6485063Y-13348103D01*
X6913634Y-13100484D02*
X6932682Y-13100484D01*
X6932682Y-13100484D02*
X6951729Y-13110008D01*
X6951729Y-13110008D02*
X6961253Y-13119531D01*
X6961253Y-13119531D02*
X6970777Y-13138579D01*
X6970777Y-13138579D02*
X6980301Y-13176674D01*
X6980301Y-13176674D02*
X6980301Y-13224293D01*
X6980301Y-13224293D02*
X6970777Y-13262388D01*
X6970777Y-13262388D02*
X6961253Y-13281436D01*
X6961253Y-13281436D02*
X6951729Y-13290960D01*
X6951729Y-13290960D02*
X6932682Y-13300484D01*
X6932682Y-13300484D02*
X6913634Y-13300484D01*
X6913634Y-13300484D02*
X6894586Y-13290960D01*
X6894586Y-13290960D02*
X6885063Y-13281436D01*
X6885063Y-13281436D02*
X6875539Y-13262388D01*
X6875539Y-13262388D02*
X6866015Y-13224293D01*
X6866015Y-13224293D02*
X6866015Y-13176674D01*
X6866015Y-13176674D02*
X6875539Y-13138579D01*
X6875539Y-13138579D02*
X6885063Y-13119531D01*
X6885063Y-13119531D02*
X6894586Y-13110008D01*
X6894586Y-13110008D02*
X6913634Y-13100484D01*
X7066015Y-13281436D02*
X7075539Y-13290960D01*
X7075539Y-13290960D02*
X7066015Y-13300484D01*
X7066015Y-13300484D02*
X7056491Y-13290960D01*
X7056491Y-13290960D02*
X7066015Y-13281436D01*
X7066015Y-13281436D02*
X7066015Y-13300484D01*
X7199348Y-13100484D02*
X7218396Y-13100484D01*
X7218396Y-13100484D02*
X7237444Y-13110008D01*
X7237444Y-13110008D02*
X7246967Y-13119531D01*
X7246967Y-13119531D02*
X7256491Y-13138579D01*
X7256491Y-13138579D02*
X7266015Y-13176674D01*
X7266015Y-13176674D02*
X7266015Y-13224293D01*
X7266015Y-13224293D02*
X7256491Y-13262388D01*
X7256491Y-13262388D02*
X7246967Y-13281436D01*
X7246967Y-13281436D02*
X7237444Y-13290960D01*
X7237444Y-13290960D02*
X7218396Y-13300484D01*
X7218396Y-13300484D02*
X7199348Y-13300484D01*
X7199348Y-13300484D02*
X7180301Y-13290960D01*
X7180301Y-13290960D02*
X7170777Y-13281436D01*
X7170777Y-13281436D02*
X7161253Y-13262388D01*
X7161253Y-13262388D02*
X7151729Y-13224293D01*
X7151729Y-13224293D02*
X7151729Y-13176674D01*
X7151729Y-13176674D02*
X7161253Y-13138579D01*
X7161253Y-13138579D02*
X7170777Y-13119531D01*
X7170777Y-13119531D02*
X7180301Y-13110008D01*
X7180301Y-13110008D02*
X7199348Y-13100484D01*
X7456491Y-13300484D02*
X7342206Y-13300484D01*
X7399348Y-13300484D02*
X7399348Y-13100484D01*
X7399348Y-13100484D02*
X7380301Y-13129055D01*
X7380301Y-13129055D02*
X7361253Y-13148103D01*
X7361253Y-13148103D02*
X7342206Y-13157627D01*
X7637444Y-13100484D02*
X7542206Y-13100484D01*
X7542206Y-13100484D02*
X7532682Y-13195722D01*
X7532682Y-13195722D02*
X7542206Y-13186198D01*
X7542206Y-13186198D02*
X7561253Y-13176674D01*
X7561253Y-13176674D02*
X7608872Y-13176674D01*
X7608872Y-13176674D02*
X7627920Y-13186198D01*
X7627920Y-13186198D02*
X7637444Y-13195722D01*
X7637444Y-13195722D02*
X7646967Y-13214769D01*
X7646967Y-13214769D02*
X7646967Y-13262388D01*
X7646967Y-13262388D02*
X7637444Y-13281436D01*
X7637444Y-13281436D02*
X7627920Y-13290960D01*
X7627920Y-13290960D02*
X7608872Y-13300484D01*
X7608872Y-13300484D02*
X7561253Y-13300484D01*
X7561253Y-13300484D02*
X7542206Y-13290960D01*
X7542206Y-13290960D02*
X7532682Y-13281436D01*
X7713634Y-13100484D02*
X7846967Y-13100484D01*
X7846967Y-13100484D02*
X7761253Y-13300484D01*
X7913634Y-13100484D02*
X7913634Y-13138579D01*
X7989825Y-13100484D02*
X7989825Y-13138579D01*
X8285063Y-13376674D02*
X8275539Y-13367150D01*
X8275539Y-13367150D02*
X8256491Y-13338579D01*
X8256491Y-13338579D02*
X8246968Y-13319531D01*
X8246968Y-13319531D02*
X8237444Y-13290960D01*
X8237444Y-13290960D02*
X8227920Y-13243341D01*
X8227920Y-13243341D02*
X8227920Y-13205246D01*
X8227920Y-13205246D02*
X8237444Y-13157627D01*
X8237444Y-13157627D02*
X8246968Y-13129055D01*
X8246968Y-13129055D02*
X8256491Y-13110008D01*
X8256491Y-13110008D02*
X8275539Y-13081436D01*
X8275539Y-13081436D02*
X8285063Y-13071912D01*
X8466015Y-13300484D02*
X8351729Y-13300484D01*
X8408872Y-13300484D02*
X8408872Y-13100484D01*
X8408872Y-13100484D02*
X8389825Y-13129055D01*
X8389825Y-13129055D02*
X8370777Y-13148103D01*
X8370777Y-13148103D02*
X8351729Y-13157627D01*
X8580301Y-13186198D02*
X8561253Y-13176674D01*
X8561253Y-13176674D02*
X8551730Y-13167150D01*
X8551730Y-13167150D02*
X8542206Y-13148103D01*
X8542206Y-13148103D02*
X8542206Y-13138579D01*
X8542206Y-13138579D02*
X8551730Y-13119531D01*
X8551730Y-13119531D02*
X8561253Y-13110008D01*
X8561253Y-13110008D02*
X8580301Y-13100484D01*
X8580301Y-13100484D02*
X8618396Y-13100484D01*
X8618396Y-13100484D02*
X8637444Y-13110008D01*
X8637444Y-13110008D02*
X8646968Y-13119531D01*
X8646968Y-13119531D02*
X8656491Y-13138579D01*
X8656491Y-13138579D02*
X8656491Y-13148103D01*
X8656491Y-13148103D02*
X8646968Y-13167150D01*
X8646968Y-13167150D02*
X8637444Y-13176674D01*
X8637444Y-13176674D02*
X8618396Y-13186198D01*
X8618396Y-13186198D02*
X8580301Y-13186198D01*
X8580301Y-13186198D02*
X8561253Y-13195722D01*
X8561253Y-13195722D02*
X8551730Y-13205246D01*
X8551730Y-13205246D02*
X8542206Y-13224293D01*
X8542206Y-13224293D02*
X8542206Y-13262388D01*
X8542206Y-13262388D02*
X8551730Y-13281436D01*
X8551730Y-13281436D02*
X8561253Y-13290960D01*
X8561253Y-13290960D02*
X8580301Y-13300484D01*
X8580301Y-13300484D02*
X8618396Y-13300484D01*
X8618396Y-13300484D02*
X8637444Y-13290960D01*
X8637444Y-13290960D02*
X8646968Y-13281436D01*
X8646968Y-13281436D02*
X8656491Y-13262388D01*
X8656491Y-13262388D02*
X8656491Y-13224293D01*
X8656491Y-13224293D02*
X8646968Y-13205246D01*
X8646968Y-13205246D02*
X8637444Y-13195722D01*
X8637444Y-13195722D02*
X8618396Y-13186198D01*
X8837444Y-13100484D02*
X8742206Y-13100484D01*
X8742206Y-13100484D02*
X8732682Y-13195722D01*
X8732682Y-13195722D02*
X8742206Y-13186198D01*
X8742206Y-13186198D02*
X8761253Y-13176674D01*
X8761253Y-13176674D02*
X8808872Y-13176674D01*
X8808872Y-13176674D02*
X8827920Y-13186198D01*
X8827920Y-13186198D02*
X8837444Y-13195722D01*
X8837444Y-13195722D02*
X8846968Y-13214769D01*
X8846968Y-13214769D02*
X8846968Y-13262388D01*
X8846968Y-13262388D02*
X8837444Y-13281436D01*
X8837444Y-13281436D02*
X8827920Y-13290960D01*
X8827920Y-13290960D02*
X8808872Y-13300484D01*
X8808872Y-13300484D02*
X8761253Y-13300484D01*
X8761253Y-13300484D02*
X8742206Y-13290960D01*
X8742206Y-13290960D02*
X8732682Y-13281436D01*
X9085063Y-13300484D02*
X9085063Y-13100484D01*
X9170777Y-13300484D02*
X9170777Y-13195722D01*
X9170777Y-13195722D02*
X9161253Y-13176674D01*
X9161253Y-13176674D02*
X9142206Y-13167150D01*
X9142206Y-13167150D02*
X9113634Y-13167150D01*
X9113634Y-13167150D02*
X9094587Y-13176674D01*
X9094587Y-13176674D02*
X9085063Y-13186198D01*
X9294587Y-13300484D02*
X9275539Y-13290960D01*
X9275539Y-13290960D02*
X9266015Y-13281436D01*
X9266015Y-13281436D02*
X9256492Y-13262388D01*
X9256492Y-13262388D02*
X9256492Y-13205246D01*
X9256492Y-13205246D02*
X9266015Y-13186198D01*
X9266015Y-13186198D02*
X9275539Y-13176674D01*
X9275539Y-13176674D02*
X9294587Y-13167150D01*
X9294587Y-13167150D02*
X9323158Y-13167150D01*
X9323158Y-13167150D02*
X9342206Y-13176674D01*
X9342206Y-13176674D02*
X9351730Y-13186198D01*
X9351730Y-13186198D02*
X9361253Y-13205246D01*
X9361253Y-13205246D02*
X9361253Y-13262388D01*
X9361253Y-13262388D02*
X9351730Y-13281436D01*
X9351730Y-13281436D02*
X9342206Y-13290960D01*
X9342206Y-13290960D02*
X9323158Y-13300484D01*
X9323158Y-13300484D02*
X9294587Y-13300484D01*
X9475539Y-13300484D02*
X9456492Y-13290960D01*
X9456492Y-13290960D02*
X9446968Y-13271912D01*
X9446968Y-13271912D02*
X9446968Y-13100484D01*
X9627920Y-13290960D02*
X9608873Y-13300484D01*
X9608873Y-13300484D02*
X9570777Y-13300484D01*
X9570777Y-13300484D02*
X9551730Y-13290960D01*
X9551730Y-13290960D02*
X9542206Y-13271912D01*
X9542206Y-13271912D02*
X9542206Y-13195722D01*
X9542206Y-13195722D02*
X9551730Y-13176674D01*
X9551730Y-13176674D02*
X9570777Y-13167150D01*
X9570777Y-13167150D02*
X9608873Y-13167150D01*
X9608873Y-13167150D02*
X9627920Y-13176674D01*
X9627920Y-13176674D02*
X9637444Y-13195722D01*
X9637444Y-13195722D02*
X9637444Y-13214769D01*
X9637444Y-13214769D02*
X9542206Y-13233817D01*
X9713634Y-13290960D02*
X9732682Y-13300484D01*
X9732682Y-13300484D02*
X9770777Y-13300484D01*
X9770777Y-13300484D02*
X9789825Y-13290960D01*
X9789825Y-13290960D02*
X9799349Y-13271912D01*
X9799349Y-13271912D02*
X9799349Y-13262388D01*
X9799349Y-13262388D02*
X9789825Y-13243341D01*
X9789825Y-13243341D02*
X9770777Y-13233817D01*
X9770777Y-13233817D02*
X9742206Y-13233817D01*
X9742206Y-13233817D02*
X9723158Y-13224293D01*
X9723158Y-13224293D02*
X9713634Y-13205246D01*
X9713634Y-13205246D02*
X9713634Y-13195722D01*
X9713634Y-13195722D02*
X9723158Y-13176674D01*
X9723158Y-13176674D02*
X9742206Y-13167150D01*
X9742206Y-13167150D02*
X9770777Y-13167150D01*
X9770777Y-13167150D02*
X9789825Y-13176674D01*
X9866015Y-13376674D02*
X9875539Y-13367150D01*
X9875539Y-13367150D02*
X9894587Y-13338579D01*
X9894587Y-13338579D02*
X9904111Y-13319531D01*
X9904111Y-13319531D02*
X9913634Y-13290960D01*
X9913634Y-13290960D02*
X9923158Y-13243341D01*
X9923158Y-13243341D02*
X9923158Y-13205246D01*
X9923158Y-13205246D02*
X9913634Y-13157627D01*
X9913634Y-13157627D02*
X9904111Y-13129055D01*
X9904111Y-13129055D02*
X9894587Y-13110008D01*
X9894587Y-13110008D02*
X9875539Y-13081436D01*
X9875539Y-13081436D02*
X9866015Y-13071912D01*
D14*
X4685000Y-13448000D02*
X4685000Y-13498000D01*
X4660000Y-13473000D02*
X4710000Y-13473000D01*
D11*
X5008872Y-13364484D02*
X5027920Y-13364484D01*
X5027920Y-13364484D02*
X5046967Y-13374008D01*
X5046967Y-13374008D02*
X5056491Y-13383531D01*
X5056491Y-13383531D02*
X5066015Y-13402579D01*
X5066015Y-13402579D02*
X5075539Y-13440674D01*
X5075539Y-13440674D02*
X5075539Y-13488293D01*
X5075539Y-13488293D02*
X5066015Y-13526388D01*
X5066015Y-13526388D02*
X5056491Y-13545436D01*
X5056491Y-13545436D02*
X5046967Y-13554960D01*
X5046967Y-13554960D02*
X5027920Y-13564484D01*
X5027920Y-13564484D02*
X5008872Y-13564484D01*
X5008872Y-13564484D02*
X4989824Y-13554960D01*
X4989824Y-13554960D02*
X4980301Y-13545436D01*
X4980301Y-13545436D02*
X4970777Y-13526388D01*
X4970777Y-13526388D02*
X4961253Y-13488293D01*
X4961253Y-13488293D02*
X4961253Y-13440674D01*
X4961253Y-13440674D02*
X4970777Y-13402579D01*
X4970777Y-13402579D02*
X4980301Y-13383531D01*
X4980301Y-13383531D02*
X4989824Y-13374008D01*
X4989824Y-13374008D02*
X5008872Y-13364484D01*
X5161253Y-13545436D02*
X5170777Y-13554960D01*
X5170777Y-13554960D02*
X5161253Y-13564484D01*
X5161253Y-13564484D02*
X5151729Y-13554960D01*
X5151729Y-13554960D02*
X5161253Y-13545436D01*
X5161253Y-13545436D02*
X5161253Y-13564484D01*
X5351729Y-13364484D02*
X5256491Y-13364484D01*
X5256491Y-13364484D02*
X5246967Y-13459722D01*
X5246967Y-13459722D02*
X5256491Y-13450198D01*
X5256491Y-13450198D02*
X5275539Y-13440674D01*
X5275539Y-13440674D02*
X5323158Y-13440674D01*
X5323158Y-13440674D02*
X5342205Y-13450198D01*
X5342205Y-13450198D02*
X5351729Y-13459722D01*
X5351729Y-13459722D02*
X5361253Y-13478769D01*
X5361253Y-13478769D02*
X5361253Y-13526388D01*
X5361253Y-13526388D02*
X5351729Y-13545436D01*
X5351729Y-13545436D02*
X5342205Y-13554960D01*
X5342205Y-13554960D02*
X5323158Y-13564484D01*
X5323158Y-13564484D02*
X5275539Y-13564484D01*
X5275539Y-13564484D02*
X5256491Y-13554960D01*
X5256491Y-13554960D02*
X5246967Y-13545436D01*
X5485063Y-13364484D02*
X5504110Y-13364484D01*
X5504110Y-13364484D02*
X5523158Y-13374008D01*
X5523158Y-13374008D02*
X5532682Y-13383531D01*
X5532682Y-13383531D02*
X5542205Y-13402579D01*
X5542205Y-13402579D02*
X5551729Y-13440674D01*
X5551729Y-13440674D02*
X5551729Y-13488293D01*
X5551729Y-13488293D02*
X5542205Y-13526388D01*
X5542205Y-13526388D02*
X5532682Y-13545436D01*
X5532682Y-13545436D02*
X5523158Y-13554960D01*
X5523158Y-13554960D02*
X5504110Y-13564484D01*
X5504110Y-13564484D02*
X5485063Y-13564484D01*
X5485063Y-13564484D02*
X5466015Y-13554960D01*
X5466015Y-13554960D02*
X5456491Y-13545436D01*
X5456491Y-13545436D02*
X5446967Y-13526388D01*
X5446967Y-13526388D02*
X5437444Y-13488293D01*
X5437444Y-13488293D02*
X5437444Y-13440674D01*
X5437444Y-13440674D02*
X5446967Y-13402579D01*
X5446967Y-13402579D02*
X5456491Y-13383531D01*
X5456491Y-13383531D02*
X5466015Y-13374008D01*
X5466015Y-13374008D02*
X5485063Y-13364484D01*
X5675539Y-13364484D02*
X5694586Y-13364484D01*
X5694586Y-13364484D02*
X5713634Y-13374008D01*
X5713634Y-13374008D02*
X5723158Y-13383531D01*
X5723158Y-13383531D02*
X5732682Y-13402579D01*
X5732682Y-13402579D02*
X5742205Y-13440674D01*
X5742205Y-13440674D02*
X5742205Y-13488293D01*
X5742205Y-13488293D02*
X5732682Y-13526388D01*
X5732682Y-13526388D02*
X5723158Y-13545436D01*
X5723158Y-13545436D02*
X5713634Y-13554960D01*
X5713634Y-13554960D02*
X5694586Y-13564484D01*
X5694586Y-13564484D02*
X5675539Y-13564484D01*
X5675539Y-13564484D02*
X5656491Y-13554960D01*
X5656491Y-13554960D02*
X5646967Y-13545436D01*
X5646967Y-13545436D02*
X5637443Y-13526388D01*
X5637443Y-13526388D02*
X5627920Y-13488293D01*
X5627920Y-13488293D02*
X5627920Y-13440674D01*
X5627920Y-13440674D02*
X5637443Y-13402579D01*
X5637443Y-13402579D02*
X5646967Y-13383531D01*
X5646967Y-13383531D02*
X5656491Y-13374008D01*
X5656491Y-13374008D02*
X5675539Y-13364484D01*
X5827920Y-13564484D02*
X5827920Y-13431150D01*
X5827920Y-13450198D02*
X5837443Y-13440674D01*
X5837443Y-13440674D02*
X5856491Y-13431150D01*
X5856491Y-13431150D02*
X5885063Y-13431150D01*
X5885063Y-13431150D02*
X5904110Y-13440674D01*
X5904110Y-13440674D02*
X5913634Y-13459722D01*
X5913634Y-13459722D02*
X5913634Y-13564484D01*
X5913634Y-13459722D02*
X5923158Y-13440674D01*
X5923158Y-13440674D02*
X5942205Y-13431150D01*
X5942205Y-13431150D02*
X5970777Y-13431150D01*
X5970777Y-13431150D02*
X5989824Y-13440674D01*
X5989824Y-13440674D02*
X5999348Y-13459722D01*
X5999348Y-13459722D02*
X5999348Y-13564484D01*
X6094586Y-13564484D02*
X6094586Y-13431150D01*
X6094586Y-13450198D02*
X6104110Y-13440674D01*
X6104110Y-13440674D02*
X6123158Y-13431150D01*
X6123158Y-13431150D02*
X6151729Y-13431150D01*
X6151729Y-13431150D02*
X6170777Y-13440674D01*
X6170777Y-13440674D02*
X6180301Y-13459722D01*
X6180301Y-13459722D02*
X6180301Y-13564484D01*
X6180301Y-13459722D02*
X6189824Y-13440674D01*
X6189824Y-13440674D02*
X6208872Y-13431150D01*
X6208872Y-13431150D02*
X6237443Y-13431150D01*
X6237443Y-13431150D02*
X6256491Y-13440674D01*
X6256491Y-13440674D02*
X6266015Y-13459722D01*
X6266015Y-13459722D02*
X6266015Y-13564484D01*
X6656491Y-13354960D02*
X6485063Y-13612103D01*
X6913634Y-13364484D02*
X6932682Y-13364484D01*
X6932682Y-13364484D02*
X6951729Y-13374008D01*
X6951729Y-13374008D02*
X6961253Y-13383531D01*
X6961253Y-13383531D02*
X6970777Y-13402579D01*
X6970777Y-13402579D02*
X6980301Y-13440674D01*
X6980301Y-13440674D02*
X6980301Y-13488293D01*
X6980301Y-13488293D02*
X6970777Y-13526388D01*
X6970777Y-13526388D02*
X6961253Y-13545436D01*
X6961253Y-13545436D02*
X6951729Y-13554960D01*
X6951729Y-13554960D02*
X6932682Y-13564484D01*
X6932682Y-13564484D02*
X6913634Y-13564484D01*
X6913634Y-13564484D02*
X6894586Y-13554960D01*
X6894586Y-13554960D02*
X6885063Y-13545436D01*
X6885063Y-13545436D02*
X6875539Y-13526388D01*
X6875539Y-13526388D02*
X6866015Y-13488293D01*
X6866015Y-13488293D02*
X6866015Y-13440674D01*
X6866015Y-13440674D02*
X6875539Y-13402579D01*
X6875539Y-13402579D02*
X6885063Y-13383531D01*
X6885063Y-13383531D02*
X6894586Y-13374008D01*
X6894586Y-13374008D02*
X6913634Y-13364484D01*
X7066015Y-13545436D02*
X7075539Y-13554960D01*
X7075539Y-13554960D02*
X7066015Y-13564484D01*
X7066015Y-13564484D02*
X7056491Y-13554960D01*
X7056491Y-13554960D02*
X7066015Y-13545436D01*
X7066015Y-13545436D02*
X7066015Y-13564484D01*
X7199348Y-13364484D02*
X7218396Y-13364484D01*
X7218396Y-13364484D02*
X7237444Y-13374008D01*
X7237444Y-13374008D02*
X7246967Y-13383531D01*
X7246967Y-13383531D02*
X7256491Y-13402579D01*
X7256491Y-13402579D02*
X7266015Y-13440674D01*
X7266015Y-13440674D02*
X7266015Y-13488293D01*
X7266015Y-13488293D02*
X7256491Y-13526388D01*
X7256491Y-13526388D02*
X7246967Y-13545436D01*
X7246967Y-13545436D02*
X7237444Y-13554960D01*
X7237444Y-13554960D02*
X7218396Y-13564484D01*
X7218396Y-13564484D02*
X7199348Y-13564484D01*
X7199348Y-13564484D02*
X7180301Y-13554960D01*
X7180301Y-13554960D02*
X7170777Y-13545436D01*
X7170777Y-13545436D02*
X7161253Y-13526388D01*
X7161253Y-13526388D02*
X7151729Y-13488293D01*
X7151729Y-13488293D02*
X7151729Y-13440674D01*
X7151729Y-13440674D02*
X7161253Y-13402579D01*
X7161253Y-13402579D02*
X7170777Y-13383531D01*
X7170777Y-13383531D02*
X7180301Y-13374008D01*
X7180301Y-13374008D02*
X7199348Y-13364484D01*
X7456491Y-13564484D02*
X7342206Y-13564484D01*
X7399348Y-13564484D02*
X7399348Y-13364484D01*
X7399348Y-13364484D02*
X7380301Y-13393055D01*
X7380301Y-13393055D02*
X7361253Y-13412103D01*
X7361253Y-13412103D02*
X7342206Y-13421627D01*
X7551729Y-13564484D02*
X7589825Y-13564484D01*
X7589825Y-13564484D02*
X7608872Y-13554960D01*
X7608872Y-13554960D02*
X7618396Y-13545436D01*
X7618396Y-13545436D02*
X7637444Y-13516865D01*
X7637444Y-13516865D02*
X7646967Y-13478769D01*
X7646967Y-13478769D02*
X7646967Y-13402579D01*
X7646967Y-13402579D02*
X7637444Y-13383531D01*
X7637444Y-13383531D02*
X7627920Y-13374008D01*
X7627920Y-13374008D02*
X7608872Y-13364484D01*
X7608872Y-13364484D02*
X7570777Y-13364484D01*
X7570777Y-13364484D02*
X7551729Y-13374008D01*
X7551729Y-13374008D02*
X7542206Y-13383531D01*
X7542206Y-13383531D02*
X7532682Y-13402579D01*
X7532682Y-13402579D02*
X7532682Y-13450198D01*
X7532682Y-13450198D02*
X7542206Y-13469246D01*
X7542206Y-13469246D02*
X7551729Y-13478769D01*
X7551729Y-13478769D02*
X7570777Y-13488293D01*
X7570777Y-13488293D02*
X7608872Y-13488293D01*
X7608872Y-13488293D02*
X7627920Y-13478769D01*
X7627920Y-13478769D02*
X7637444Y-13469246D01*
X7637444Y-13469246D02*
X7646967Y-13450198D01*
X7713634Y-13364484D02*
X7846967Y-13364484D01*
X7846967Y-13364484D02*
X7761253Y-13564484D01*
X7913634Y-13364484D02*
X7913634Y-13402579D01*
X7989825Y-13364484D02*
X7989825Y-13402579D01*
X8285063Y-13640674D02*
X8275539Y-13631150D01*
X8275539Y-13631150D02*
X8256491Y-13602579D01*
X8256491Y-13602579D02*
X8246968Y-13583531D01*
X8246968Y-13583531D02*
X8237444Y-13554960D01*
X8237444Y-13554960D02*
X8227920Y-13507341D01*
X8227920Y-13507341D02*
X8227920Y-13469246D01*
X8227920Y-13469246D02*
X8237444Y-13421627D01*
X8237444Y-13421627D02*
X8246968Y-13393055D01*
X8246968Y-13393055D02*
X8256491Y-13374008D01*
X8256491Y-13374008D02*
X8275539Y-13345436D01*
X8275539Y-13345436D02*
X8285063Y-13335912D01*
X8399349Y-13364484D02*
X8418396Y-13364484D01*
X8418396Y-13364484D02*
X8437444Y-13374008D01*
X8437444Y-13374008D02*
X8446968Y-13383531D01*
X8446968Y-13383531D02*
X8456491Y-13402579D01*
X8456491Y-13402579D02*
X8466015Y-13440674D01*
X8466015Y-13440674D02*
X8466015Y-13488293D01*
X8466015Y-13488293D02*
X8456491Y-13526388D01*
X8456491Y-13526388D02*
X8446968Y-13545436D01*
X8446968Y-13545436D02*
X8437444Y-13554960D01*
X8437444Y-13554960D02*
X8418396Y-13564484D01*
X8418396Y-13564484D02*
X8399349Y-13564484D01*
X8399349Y-13564484D02*
X8380301Y-13554960D01*
X8380301Y-13554960D02*
X8370777Y-13545436D01*
X8370777Y-13545436D02*
X8361253Y-13526388D01*
X8361253Y-13526388D02*
X8351729Y-13488293D01*
X8351729Y-13488293D02*
X8351729Y-13440674D01*
X8351729Y-13440674D02*
X8361253Y-13402579D01*
X8361253Y-13402579D02*
X8370777Y-13383531D01*
X8370777Y-13383531D02*
X8380301Y-13374008D01*
X8380301Y-13374008D02*
X8399349Y-13364484D01*
X8704111Y-13564484D02*
X8704111Y-13364484D01*
X8789825Y-13564484D02*
X8789825Y-13459722D01*
X8789825Y-13459722D02*
X8780301Y-13440674D01*
X8780301Y-13440674D02*
X8761253Y-13431150D01*
X8761253Y-13431150D02*
X8732682Y-13431150D01*
X8732682Y-13431150D02*
X8713634Y-13440674D01*
X8713634Y-13440674D02*
X8704111Y-13450198D01*
X8913634Y-13564484D02*
X8894587Y-13554960D01*
X8894587Y-13554960D02*
X8885063Y-13545436D01*
X8885063Y-13545436D02*
X8875539Y-13526388D01*
X8875539Y-13526388D02*
X8875539Y-13469246D01*
X8875539Y-13469246D02*
X8885063Y-13450198D01*
X8885063Y-13450198D02*
X8894587Y-13440674D01*
X8894587Y-13440674D02*
X8913634Y-13431150D01*
X8913634Y-13431150D02*
X8942206Y-13431150D01*
X8942206Y-13431150D02*
X8961253Y-13440674D01*
X8961253Y-13440674D02*
X8970777Y-13450198D01*
X8970777Y-13450198D02*
X8980301Y-13469246D01*
X8980301Y-13469246D02*
X8980301Y-13526388D01*
X8980301Y-13526388D02*
X8970777Y-13545436D01*
X8970777Y-13545436D02*
X8961253Y-13554960D01*
X8961253Y-13554960D02*
X8942206Y-13564484D01*
X8942206Y-13564484D02*
X8913634Y-13564484D01*
X9094587Y-13564484D02*
X9075539Y-13554960D01*
X9075539Y-13554960D02*
X9066015Y-13535912D01*
X9066015Y-13535912D02*
X9066015Y-13364484D01*
X9246968Y-13554960D02*
X9227920Y-13564484D01*
X9227920Y-13564484D02*
X9189825Y-13564484D01*
X9189825Y-13564484D02*
X9170777Y-13554960D01*
X9170777Y-13554960D02*
X9161253Y-13535912D01*
X9161253Y-13535912D02*
X9161253Y-13459722D01*
X9161253Y-13459722D02*
X9170777Y-13440674D01*
X9170777Y-13440674D02*
X9189825Y-13431150D01*
X9189825Y-13431150D02*
X9227920Y-13431150D01*
X9227920Y-13431150D02*
X9246968Y-13440674D01*
X9246968Y-13440674D02*
X9256492Y-13459722D01*
X9256492Y-13459722D02*
X9256492Y-13478769D01*
X9256492Y-13478769D02*
X9161253Y-13497817D01*
X9332682Y-13554960D02*
X9351730Y-13564484D01*
X9351730Y-13564484D02*
X9389825Y-13564484D01*
X9389825Y-13564484D02*
X9408873Y-13554960D01*
X9408873Y-13554960D02*
X9418396Y-13535912D01*
X9418396Y-13535912D02*
X9418396Y-13526388D01*
X9418396Y-13526388D02*
X9408873Y-13507341D01*
X9408873Y-13507341D02*
X9389825Y-13497817D01*
X9389825Y-13497817D02*
X9361253Y-13497817D01*
X9361253Y-13497817D02*
X9342206Y-13488293D01*
X9342206Y-13488293D02*
X9332682Y-13469246D01*
X9332682Y-13469246D02*
X9332682Y-13459722D01*
X9332682Y-13459722D02*
X9342206Y-13440674D01*
X9342206Y-13440674D02*
X9361253Y-13431150D01*
X9361253Y-13431150D02*
X9389825Y-13431150D01*
X9389825Y-13431150D02*
X9408873Y-13440674D01*
X9656492Y-13488293D02*
X9808873Y-13488293D01*
X9732682Y-13564484D02*
X9732682Y-13412103D01*
X10161254Y-13564484D02*
X10046968Y-13564484D01*
X10104111Y-13564484D02*
X10104111Y-13364484D01*
X10104111Y-13364484D02*
X10085063Y-13393055D01*
X10085063Y-13393055D02*
X10066015Y-13412103D01*
X10066015Y-13412103D02*
X10046968Y-13421627D01*
X10332682Y-13364484D02*
X10294587Y-13364484D01*
X10294587Y-13364484D02*
X10275539Y-13374008D01*
X10275539Y-13374008D02*
X10266015Y-13383531D01*
X10266015Y-13383531D02*
X10246968Y-13412103D01*
X10246968Y-13412103D02*
X10237444Y-13450198D01*
X10237444Y-13450198D02*
X10237444Y-13526388D01*
X10237444Y-13526388D02*
X10246968Y-13545436D01*
X10246968Y-13545436D02*
X10256492Y-13554960D01*
X10256492Y-13554960D02*
X10275539Y-13564484D01*
X10275539Y-13564484D02*
X10313635Y-13564484D01*
X10313635Y-13564484D02*
X10332682Y-13554960D01*
X10332682Y-13554960D02*
X10342206Y-13545436D01*
X10342206Y-13545436D02*
X10351730Y-13526388D01*
X10351730Y-13526388D02*
X10351730Y-13478769D01*
X10351730Y-13478769D02*
X10342206Y-13459722D01*
X10342206Y-13459722D02*
X10332682Y-13450198D01*
X10332682Y-13450198D02*
X10313635Y-13440674D01*
X10313635Y-13440674D02*
X10275539Y-13440674D01*
X10275539Y-13440674D02*
X10256492Y-13450198D01*
X10256492Y-13450198D02*
X10246968Y-13459722D01*
X10246968Y-13459722D02*
X10237444Y-13478769D01*
X10580301Y-13554960D02*
X10599349Y-13564484D01*
X10599349Y-13564484D02*
X10637444Y-13564484D01*
X10637444Y-13564484D02*
X10656492Y-13554960D01*
X10656492Y-13554960D02*
X10666016Y-13535912D01*
X10666016Y-13535912D02*
X10666016Y-13526388D01*
X10666016Y-13526388D02*
X10656492Y-13507341D01*
X10656492Y-13507341D02*
X10637444Y-13497817D01*
X10637444Y-13497817D02*
X10608873Y-13497817D01*
X10608873Y-13497817D02*
X10589825Y-13488293D01*
X10589825Y-13488293D02*
X10580301Y-13469246D01*
X10580301Y-13469246D02*
X10580301Y-13459722D01*
X10580301Y-13459722D02*
X10589825Y-13440674D01*
X10589825Y-13440674D02*
X10608873Y-13431150D01*
X10608873Y-13431150D02*
X10637444Y-13431150D01*
X10637444Y-13431150D02*
X10656492Y-13440674D01*
X10780301Y-13564484D02*
X10761254Y-13554960D01*
X10761254Y-13554960D02*
X10751730Y-13535912D01*
X10751730Y-13535912D02*
X10751730Y-13364484D01*
X10885063Y-13564484D02*
X10866016Y-13554960D01*
X10866016Y-13554960D02*
X10856492Y-13545436D01*
X10856492Y-13545436D02*
X10846968Y-13526388D01*
X10846968Y-13526388D02*
X10846968Y-13469246D01*
X10846968Y-13469246D02*
X10856492Y-13450198D01*
X10856492Y-13450198D02*
X10866016Y-13440674D01*
X10866016Y-13440674D02*
X10885063Y-13431150D01*
X10885063Y-13431150D02*
X10913635Y-13431150D01*
X10913635Y-13431150D02*
X10932682Y-13440674D01*
X10932682Y-13440674D02*
X10942206Y-13450198D01*
X10942206Y-13450198D02*
X10951730Y-13469246D01*
X10951730Y-13469246D02*
X10951730Y-13526388D01*
X10951730Y-13526388D02*
X10942206Y-13545436D01*
X10942206Y-13545436D02*
X10932682Y-13554960D01*
X10932682Y-13554960D02*
X10913635Y-13564484D01*
X10913635Y-13564484D02*
X10885063Y-13564484D01*
X11008873Y-13431150D02*
X11085063Y-13431150D01*
X11037444Y-13364484D02*
X11037444Y-13535912D01*
X11037444Y-13535912D02*
X11046968Y-13554960D01*
X11046968Y-13554960D02*
X11066016Y-13564484D01*
X11066016Y-13564484D02*
X11085063Y-13564484D01*
X11142206Y-13554960D02*
X11161254Y-13564484D01*
X11161254Y-13564484D02*
X11199349Y-13564484D01*
X11199349Y-13564484D02*
X11218396Y-13554960D01*
X11218396Y-13554960D02*
X11227920Y-13535912D01*
X11227920Y-13535912D02*
X11227920Y-13526388D01*
X11227920Y-13526388D02*
X11218396Y-13507341D01*
X11218396Y-13507341D02*
X11199349Y-13497817D01*
X11199349Y-13497817D02*
X11170777Y-13497817D01*
X11170777Y-13497817D02*
X11151730Y-13488293D01*
X11151730Y-13488293D02*
X11142206Y-13469246D01*
X11142206Y-13469246D02*
X11142206Y-13459722D01*
X11142206Y-13459722D02*
X11151730Y-13440674D01*
X11151730Y-13440674D02*
X11170777Y-13431150D01*
X11170777Y-13431150D02*
X11199349Y-13431150D01*
X11199349Y-13431150D02*
X11218396Y-13440674D01*
X11294587Y-13640674D02*
X11304111Y-13631150D01*
X11304111Y-13631150D02*
X11323158Y-13602579D01*
X11323158Y-13602579D02*
X11332682Y-13583531D01*
X11332682Y-13583531D02*
X11342206Y-13554960D01*
X11342206Y-13554960D02*
X11351730Y-13507341D01*
X11351730Y-13507341D02*
X11351730Y-13469246D01*
X11351730Y-13469246D02*
X11342206Y-13421627D01*
X11342206Y-13421627D02*
X11332682Y-13393055D01*
X11332682Y-13393055D02*
X11323158Y-13374008D01*
X11323158Y-13374008D02*
X11304111Y-13345436D01*
X11304111Y-13345436D02*
X11294587Y-13335912D01*
D15*
X4701213Y-13758213D02*
X4701213Y-13715787D01*
X4658787Y-13715787D01*
X4658787Y-13758213D01*
X4701213Y-13758213D01*
D11*
X5008872Y-13628484D02*
X5027920Y-13628484D01*
X5027920Y-13628484D02*
X5046967Y-13638008D01*
X5046967Y-13638008D02*
X5056491Y-13647531D01*
X5056491Y-13647531D02*
X5066015Y-13666579D01*
X5066015Y-13666579D02*
X5075539Y-13704674D01*
X5075539Y-13704674D02*
X5075539Y-13752293D01*
X5075539Y-13752293D02*
X5066015Y-13790388D01*
X5066015Y-13790388D02*
X5056491Y-13809436D01*
X5056491Y-13809436D02*
X5046967Y-13818960D01*
X5046967Y-13818960D02*
X5027920Y-13828484D01*
X5027920Y-13828484D02*
X5008872Y-13828484D01*
X5008872Y-13828484D02*
X4989824Y-13818960D01*
X4989824Y-13818960D02*
X4980301Y-13809436D01*
X4980301Y-13809436D02*
X4970777Y-13790388D01*
X4970777Y-13790388D02*
X4961253Y-13752293D01*
X4961253Y-13752293D02*
X4961253Y-13704674D01*
X4961253Y-13704674D02*
X4970777Y-13666579D01*
X4970777Y-13666579D02*
X4980301Y-13647531D01*
X4980301Y-13647531D02*
X4989824Y-13638008D01*
X4989824Y-13638008D02*
X5008872Y-13628484D01*
X5161253Y-13809436D02*
X5170777Y-13818960D01*
X5170777Y-13818960D02*
X5161253Y-13828484D01*
X5161253Y-13828484D02*
X5151729Y-13818960D01*
X5151729Y-13818960D02*
X5161253Y-13809436D01*
X5161253Y-13809436D02*
X5161253Y-13828484D01*
X5342205Y-13628484D02*
X5304110Y-13628484D01*
X5304110Y-13628484D02*
X5285063Y-13638008D01*
X5285063Y-13638008D02*
X5275539Y-13647531D01*
X5275539Y-13647531D02*
X5256491Y-13676103D01*
X5256491Y-13676103D02*
X5246967Y-13714198D01*
X5246967Y-13714198D02*
X5246967Y-13790388D01*
X5246967Y-13790388D02*
X5256491Y-13809436D01*
X5256491Y-13809436D02*
X5266015Y-13818960D01*
X5266015Y-13818960D02*
X5285063Y-13828484D01*
X5285063Y-13828484D02*
X5323158Y-13828484D01*
X5323158Y-13828484D02*
X5342205Y-13818960D01*
X5342205Y-13818960D02*
X5351729Y-13809436D01*
X5351729Y-13809436D02*
X5361253Y-13790388D01*
X5361253Y-13790388D02*
X5361253Y-13742769D01*
X5361253Y-13742769D02*
X5351729Y-13723722D01*
X5351729Y-13723722D02*
X5342205Y-13714198D01*
X5342205Y-13714198D02*
X5323158Y-13704674D01*
X5323158Y-13704674D02*
X5285063Y-13704674D01*
X5285063Y-13704674D02*
X5266015Y-13714198D01*
X5266015Y-13714198D02*
X5256491Y-13723722D01*
X5256491Y-13723722D02*
X5246967Y-13742769D01*
X5485063Y-13628484D02*
X5504110Y-13628484D01*
X5504110Y-13628484D02*
X5523158Y-13638008D01*
X5523158Y-13638008D02*
X5532682Y-13647531D01*
X5532682Y-13647531D02*
X5542205Y-13666579D01*
X5542205Y-13666579D02*
X5551729Y-13704674D01*
X5551729Y-13704674D02*
X5551729Y-13752293D01*
X5551729Y-13752293D02*
X5542205Y-13790388D01*
X5542205Y-13790388D02*
X5532682Y-13809436D01*
X5532682Y-13809436D02*
X5523158Y-13818960D01*
X5523158Y-13818960D02*
X5504110Y-13828484D01*
X5504110Y-13828484D02*
X5485063Y-13828484D01*
X5485063Y-13828484D02*
X5466015Y-13818960D01*
X5466015Y-13818960D02*
X5456491Y-13809436D01*
X5456491Y-13809436D02*
X5446967Y-13790388D01*
X5446967Y-13790388D02*
X5437444Y-13752293D01*
X5437444Y-13752293D02*
X5437444Y-13704674D01*
X5437444Y-13704674D02*
X5446967Y-13666579D01*
X5446967Y-13666579D02*
X5456491Y-13647531D01*
X5456491Y-13647531D02*
X5466015Y-13638008D01*
X5466015Y-13638008D02*
X5485063Y-13628484D01*
X5675539Y-13628484D02*
X5694586Y-13628484D01*
X5694586Y-13628484D02*
X5713634Y-13638008D01*
X5713634Y-13638008D02*
X5723158Y-13647531D01*
X5723158Y-13647531D02*
X5732682Y-13666579D01*
X5732682Y-13666579D02*
X5742205Y-13704674D01*
X5742205Y-13704674D02*
X5742205Y-13752293D01*
X5742205Y-13752293D02*
X5732682Y-13790388D01*
X5732682Y-13790388D02*
X5723158Y-13809436D01*
X5723158Y-13809436D02*
X5713634Y-13818960D01*
X5713634Y-13818960D02*
X5694586Y-13828484D01*
X5694586Y-13828484D02*
X5675539Y-13828484D01*
X5675539Y-13828484D02*
X5656491Y-13818960D01*
X5656491Y-13818960D02*
X5646967Y-13809436D01*
X5646967Y-13809436D02*
X5637443Y-13790388D01*
X5637443Y-13790388D02*
X5627920Y-13752293D01*
X5627920Y-13752293D02*
X5627920Y-13704674D01*
X5627920Y-13704674D02*
X5637443Y-13666579D01*
X5637443Y-13666579D02*
X5646967Y-13647531D01*
X5646967Y-13647531D02*
X5656491Y-13638008D01*
X5656491Y-13638008D02*
X5675539Y-13628484D01*
X5827920Y-13828484D02*
X5827920Y-13695150D01*
X5827920Y-13714198D02*
X5837443Y-13704674D01*
X5837443Y-13704674D02*
X5856491Y-13695150D01*
X5856491Y-13695150D02*
X5885063Y-13695150D01*
X5885063Y-13695150D02*
X5904110Y-13704674D01*
X5904110Y-13704674D02*
X5913634Y-13723722D01*
X5913634Y-13723722D02*
X5913634Y-13828484D01*
X5913634Y-13723722D02*
X5923158Y-13704674D01*
X5923158Y-13704674D02*
X5942205Y-13695150D01*
X5942205Y-13695150D02*
X5970777Y-13695150D01*
X5970777Y-13695150D02*
X5989824Y-13704674D01*
X5989824Y-13704674D02*
X5999348Y-13723722D01*
X5999348Y-13723722D02*
X5999348Y-13828484D01*
X6094586Y-13828484D02*
X6094586Y-13695150D01*
X6094586Y-13714198D02*
X6104110Y-13704674D01*
X6104110Y-13704674D02*
X6123158Y-13695150D01*
X6123158Y-13695150D02*
X6151729Y-13695150D01*
X6151729Y-13695150D02*
X6170777Y-13704674D01*
X6170777Y-13704674D02*
X6180301Y-13723722D01*
X6180301Y-13723722D02*
X6180301Y-13828484D01*
X6180301Y-13723722D02*
X6189824Y-13704674D01*
X6189824Y-13704674D02*
X6208872Y-13695150D01*
X6208872Y-13695150D02*
X6237443Y-13695150D01*
X6237443Y-13695150D02*
X6256491Y-13704674D01*
X6256491Y-13704674D02*
X6266015Y-13723722D01*
X6266015Y-13723722D02*
X6266015Y-13828484D01*
X6656491Y-13618960D02*
X6485063Y-13876103D01*
X6913634Y-13628484D02*
X6932682Y-13628484D01*
X6932682Y-13628484D02*
X6951729Y-13638008D01*
X6951729Y-13638008D02*
X6961253Y-13647531D01*
X6961253Y-13647531D02*
X6970777Y-13666579D01*
X6970777Y-13666579D02*
X6980301Y-13704674D01*
X6980301Y-13704674D02*
X6980301Y-13752293D01*
X6980301Y-13752293D02*
X6970777Y-13790388D01*
X6970777Y-13790388D02*
X6961253Y-13809436D01*
X6961253Y-13809436D02*
X6951729Y-13818960D01*
X6951729Y-13818960D02*
X6932682Y-13828484D01*
X6932682Y-13828484D02*
X6913634Y-13828484D01*
X6913634Y-13828484D02*
X6894586Y-13818960D01*
X6894586Y-13818960D02*
X6885063Y-13809436D01*
X6885063Y-13809436D02*
X6875539Y-13790388D01*
X6875539Y-13790388D02*
X6866015Y-13752293D01*
X6866015Y-13752293D02*
X6866015Y-13704674D01*
X6866015Y-13704674D02*
X6875539Y-13666579D01*
X6875539Y-13666579D02*
X6885063Y-13647531D01*
X6885063Y-13647531D02*
X6894586Y-13638008D01*
X6894586Y-13638008D02*
X6913634Y-13628484D01*
X7066015Y-13809436D02*
X7075539Y-13818960D01*
X7075539Y-13818960D02*
X7066015Y-13828484D01*
X7066015Y-13828484D02*
X7056491Y-13818960D01*
X7056491Y-13818960D02*
X7066015Y-13809436D01*
X7066015Y-13809436D02*
X7066015Y-13828484D01*
X7199348Y-13628484D02*
X7218396Y-13628484D01*
X7218396Y-13628484D02*
X7237444Y-13638008D01*
X7237444Y-13638008D02*
X7246967Y-13647531D01*
X7246967Y-13647531D02*
X7256491Y-13666579D01*
X7256491Y-13666579D02*
X7266015Y-13704674D01*
X7266015Y-13704674D02*
X7266015Y-13752293D01*
X7266015Y-13752293D02*
X7256491Y-13790388D01*
X7256491Y-13790388D02*
X7246967Y-13809436D01*
X7246967Y-13809436D02*
X7237444Y-13818960D01*
X7237444Y-13818960D02*
X7218396Y-13828484D01*
X7218396Y-13828484D02*
X7199348Y-13828484D01*
X7199348Y-13828484D02*
X7180301Y-13818960D01*
X7180301Y-13818960D02*
X7170777Y-13809436D01*
X7170777Y-13809436D02*
X7161253Y-13790388D01*
X7161253Y-13790388D02*
X7151729Y-13752293D01*
X7151729Y-13752293D02*
X7151729Y-13704674D01*
X7151729Y-13704674D02*
X7161253Y-13666579D01*
X7161253Y-13666579D02*
X7170777Y-13647531D01*
X7170777Y-13647531D02*
X7180301Y-13638008D01*
X7180301Y-13638008D02*
X7199348Y-13628484D01*
X7342206Y-13647531D02*
X7351729Y-13638008D01*
X7351729Y-13638008D02*
X7370777Y-13628484D01*
X7370777Y-13628484D02*
X7418396Y-13628484D01*
X7418396Y-13628484D02*
X7437444Y-13638008D01*
X7437444Y-13638008D02*
X7446967Y-13647531D01*
X7446967Y-13647531D02*
X7456491Y-13666579D01*
X7456491Y-13666579D02*
X7456491Y-13685627D01*
X7456491Y-13685627D02*
X7446967Y-13714198D01*
X7446967Y-13714198D02*
X7332682Y-13828484D01*
X7332682Y-13828484D02*
X7456491Y-13828484D01*
X7523158Y-13628484D02*
X7646967Y-13628484D01*
X7646967Y-13628484D02*
X7580301Y-13704674D01*
X7580301Y-13704674D02*
X7608872Y-13704674D01*
X7608872Y-13704674D02*
X7627920Y-13714198D01*
X7627920Y-13714198D02*
X7637444Y-13723722D01*
X7637444Y-13723722D02*
X7646967Y-13742769D01*
X7646967Y-13742769D02*
X7646967Y-13790388D01*
X7646967Y-13790388D02*
X7637444Y-13809436D01*
X7637444Y-13809436D02*
X7627920Y-13818960D01*
X7627920Y-13818960D02*
X7608872Y-13828484D01*
X7608872Y-13828484D02*
X7551729Y-13828484D01*
X7551729Y-13828484D02*
X7532682Y-13818960D01*
X7532682Y-13818960D02*
X7523158Y-13809436D01*
X7818396Y-13628484D02*
X7780301Y-13628484D01*
X7780301Y-13628484D02*
X7761253Y-13638008D01*
X7761253Y-13638008D02*
X7751729Y-13647531D01*
X7751729Y-13647531D02*
X7732682Y-13676103D01*
X7732682Y-13676103D02*
X7723158Y-13714198D01*
X7723158Y-13714198D02*
X7723158Y-13790388D01*
X7723158Y-13790388D02*
X7732682Y-13809436D01*
X7732682Y-13809436D02*
X7742206Y-13818960D01*
X7742206Y-13818960D02*
X7761253Y-13828484D01*
X7761253Y-13828484D02*
X7799348Y-13828484D01*
X7799348Y-13828484D02*
X7818396Y-13818960D01*
X7818396Y-13818960D02*
X7827920Y-13809436D01*
X7827920Y-13809436D02*
X7837444Y-13790388D01*
X7837444Y-13790388D02*
X7837444Y-13742769D01*
X7837444Y-13742769D02*
X7827920Y-13723722D01*
X7827920Y-13723722D02*
X7818396Y-13714198D01*
X7818396Y-13714198D02*
X7799348Y-13704674D01*
X7799348Y-13704674D02*
X7761253Y-13704674D01*
X7761253Y-13704674D02*
X7742206Y-13714198D01*
X7742206Y-13714198D02*
X7732682Y-13723722D01*
X7732682Y-13723722D02*
X7723158Y-13742769D01*
X7913634Y-13628484D02*
X7913634Y-13666579D01*
X7989825Y-13628484D02*
X7989825Y-13666579D01*
X8285063Y-13904674D02*
X8275539Y-13895150D01*
X8275539Y-13895150D02*
X8256491Y-13866579D01*
X8256491Y-13866579D02*
X8246968Y-13847531D01*
X8246968Y-13847531D02*
X8237444Y-13818960D01*
X8237444Y-13818960D02*
X8227920Y-13771341D01*
X8227920Y-13771341D02*
X8227920Y-13733246D01*
X8227920Y-13733246D02*
X8237444Y-13685627D01*
X8237444Y-13685627D02*
X8246968Y-13657055D01*
X8246968Y-13657055D02*
X8256491Y-13638008D01*
X8256491Y-13638008D02*
X8275539Y-13609436D01*
X8275539Y-13609436D02*
X8285063Y-13599912D01*
X8399349Y-13628484D02*
X8418396Y-13628484D01*
X8418396Y-13628484D02*
X8437444Y-13638008D01*
X8437444Y-13638008D02*
X8446968Y-13647531D01*
X8446968Y-13647531D02*
X8456491Y-13666579D01*
X8456491Y-13666579D02*
X8466015Y-13704674D01*
X8466015Y-13704674D02*
X8466015Y-13752293D01*
X8466015Y-13752293D02*
X8456491Y-13790388D01*
X8456491Y-13790388D02*
X8446968Y-13809436D01*
X8446968Y-13809436D02*
X8437444Y-13818960D01*
X8437444Y-13818960D02*
X8418396Y-13828484D01*
X8418396Y-13828484D02*
X8399349Y-13828484D01*
X8399349Y-13828484D02*
X8380301Y-13818960D01*
X8380301Y-13818960D02*
X8370777Y-13809436D01*
X8370777Y-13809436D02*
X8361253Y-13790388D01*
X8361253Y-13790388D02*
X8351729Y-13752293D01*
X8351729Y-13752293D02*
X8351729Y-13704674D01*
X8351729Y-13704674D02*
X8361253Y-13666579D01*
X8361253Y-13666579D02*
X8370777Y-13647531D01*
X8370777Y-13647531D02*
X8380301Y-13638008D01*
X8380301Y-13638008D02*
X8399349Y-13628484D01*
X8704111Y-13828484D02*
X8704111Y-13628484D01*
X8789825Y-13828484D02*
X8789825Y-13723722D01*
X8789825Y-13723722D02*
X8780301Y-13704674D01*
X8780301Y-13704674D02*
X8761253Y-13695150D01*
X8761253Y-13695150D02*
X8732682Y-13695150D01*
X8732682Y-13695150D02*
X8713634Y-13704674D01*
X8713634Y-13704674D02*
X8704111Y-13714198D01*
X8913634Y-13828484D02*
X8894587Y-13818960D01*
X8894587Y-13818960D02*
X8885063Y-13809436D01*
X8885063Y-13809436D02*
X8875539Y-13790388D01*
X8875539Y-13790388D02*
X8875539Y-13733246D01*
X8875539Y-13733246D02*
X8885063Y-13714198D01*
X8885063Y-13714198D02*
X8894587Y-13704674D01*
X8894587Y-13704674D02*
X8913634Y-13695150D01*
X8913634Y-13695150D02*
X8942206Y-13695150D01*
X8942206Y-13695150D02*
X8961253Y-13704674D01*
X8961253Y-13704674D02*
X8970777Y-13714198D01*
X8970777Y-13714198D02*
X8980301Y-13733246D01*
X8980301Y-13733246D02*
X8980301Y-13790388D01*
X8980301Y-13790388D02*
X8970777Y-13809436D01*
X8970777Y-13809436D02*
X8961253Y-13818960D01*
X8961253Y-13818960D02*
X8942206Y-13828484D01*
X8942206Y-13828484D02*
X8913634Y-13828484D01*
X9094587Y-13828484D02*
X9075539Y-13818960D01*
X9075539Y-13818960D02*
X9066015Y-13799912D01*
X9066015Y-13799912D02*
X9066015Y-13628484D01*
X9246968Y-13818960D02*
X9227920Y-13828484D01*
X9227920Y-13828484D02*
X9189825Y-13828484D01*
X9189825Y-13828484D02*
X9170777Y-13818960D01*
X9170777Y-13818960D02*
X9161253Y-13799912D01*
X9161253Y-13799912D02*
X9161253Y-13723722D01*
X9161253Y-13723722D02*
X9170777Y-13704674D01*
X9170777Y-13704674D02*
X9189825Y-13695150D01*
X9189825Y-13695150D02*
X9227920Y-13695150D01*
X9227920Y-13695150D02*
X9246968Y-13704674D01*
X9246968Y-13704674D02*
X9256492Y-13723722D01*
X9256492Y-13723722D02*
X9256492Y-13742769D01*
X9256492Y-13742769D02*
X9161253Y-13761817D01*
X9332682Y-13818960D02*
X9351730Y-13828484D01*
X9351730Y-13828484D02*
X9389825Y-13828484D01*
X9389825Y-13828484D02*
X9408873Y-13818960D01*
X9408873Y-13818960D02*
X9418396Y-13799912D01*
X9418396Y-13799912D02*
X9418396Y-13790388D01*
X9418396Y-13790388D02*
X9408873Y-13771341D01*
X9408873Y-13771341D02*
X9389825Y-13761817D01*
X9389825Y-13761817D02*
X9361253Y-13761817D01*
X9361253Y-13761817D02*
X9342206Y-13752293D01*
X9342206Y-13752293D02*
X9332682Y-13733246D01*
X9332682Y-13733246D02*
X9332682Y-13723722D01*
X9332682Y-13723722D02*
X9342206Y-13704674D01*
X9342206Y-13704674D02*
X9361253Y-13695150D01*
X9361253Y-13695150D02*
X9389825Y-13695150D01*
X9389825Y-13695150D02*
X9408873Y-13704674D01*
X9656492Y-13752293D02*
X9808873Y-13752293D01*
X9732682Y-13828484D02*
X9732682Y-13676103D01*
X10161254Y-13828484D02*
X10046968Y-13828484D01*
X10104111Y-13828484D02*
X10104111Y-13628484D01*
X10104111Y-13628484D02*
X10085063Y-13657055D01*
X10085063Y-13657055D02*
X10066015Y-13676103D01*
X10066015Y-13676103D02*
X10046968Y-13685627D01*
X10227920Y-13628484D02*
X10361254Y-13628484D01*
X10361254Y-13628484D02*
X10275539Y-13828484D01*
X10580301Y-13818960D02*
X10599349Y-13828484D01*
X10599349Y-13828484D02*
X10637444Y-13828484D01*
X10637444Y-13828484D02*
X10656492Y-13818960D01*
X10656492Y-13818960D02*
X10666016Y-13799912D01*
X10666016Y-13799912D02*
X10666016Y-13790388D01*
X10666016Y-13790388D02*
X10656492Y-13771341D01*
X10656492Y-13771341D02*
X10637444Y-13761817D01*
X10637444Y-13761817D02*
X10608873Y-13761817D01*
X10608873Y-13761817D02*
X10589825Y-13752293D01*
X10589825Y-13752293D02*
X10580301Y-13733246D01*
X10580301Y-13733246D02*
X10580301Y-13723722D01*
X10580301Y-13723722D02*
X10589825Y-13704674D01*
X10589825Y-13704674D02*
X10608873Y-13695150D01*
X10608873Y-13695150D02*
X10637444Y-13695150D01*
X10637444Y-13695150D02*
X10656492Y-13704674D01*
X10780301Y-13828484D02*
X10761254Y-13818960D01*
X10761254Y-13818960D02*
X10751730Y-13799912D01*
X10751730Y-13799912D02*
X10751730Y-13628484D01*
X10885063Y-13828484D02*
X10866016Y-13818960D01*
X10866016Y-13818960D02*
X10856492Y-13809436D01*
X10856492Y-13809436D02*
X10846968Y-13790388D01*
X10846968Y-13790388D02*
X10846968Y-13733246D01*
X10846968Y-13733246D02*
X10856492Y-13714198D01*
X10856492Y-13714198D02*
X10866016Y-13704674D01*
X10866016Y-13704674D02*
X10885063Y-13695150D01*
X10885063Y-13695150D02*
X10913635Y-13695150D01*
X10913635Y-13695150D02*
X10932682Y-13704674D01*
X10932682Y-13704674D02*
X10942206Y-13714198D01*
X10942206Y-13714198D02*
X10951730Y-13733246D01*
X10951730Y-13733246D02*
X10951730Y-13790388D01*
X10951730Y-13790388D02*
X10942206Y-13809436D01*
X10942206Y-13809436D02*
X10932682Y-13818960D01*
X10932682Y-13818960D02*
X10913635Y-13828484D01*
X10913635Y-13828484D02*
X10885063Y-13828484D01*
X11008873Y-13695150D02*
X11085063Y-13695150D01*
X11037444Y-13628484D02*
X11037444Y-13799912D01*
X11037444Y-13799912D02*
X11046968Y-13818960D01*
X11046968Y-13818960D02*
X11066016Y-13828484D01*
X11066016Y-13828484D02*
X11085063Y-13828484D01*
X11142206Y-13818960D02*
X11161254Y-13828484D01*
X11161254Y-13828484D02*
X11199349Y-13828484D01*
X11199349Y-13828484D02*
X11218396Y-13818960D01*
X11218396Y-13818960D02*
X11227920Y-13799912D01*
X11227920Y-13799912D02*
X11227920Y-13790388D01*
X11227920Y-13790388D02*
X11218396Y-13771341D01*
X11218396Y-13771341D02*
X11199349Y-13761817D01*
X11199349Y-13761817D02*
X11170777Y-13761817D01*
X11170777Y-13761817D02*
X11151730Y-13752293D01*
X11151730Y-13752293D02*
X11142206Y-13733246D01*
X11142206Y-13733246D02*
X11142206Y-13723722D01*
X11142206Y-13723722D02*
X11151730Y-13704674D01*
X11151730Y-13704674D02*
X11170777Y-13695150D01*
X11170777Y-13695150D02*
X11199349Y-13695150D01*
X11199349Y-13695150D02*
X11218396Y-13704674D01*
X11294587Y-13904674D02*
X11304111Y-13895150D01*
X11304111Y-13895150D02*
X11323158Y-13866579D01*
X11323158Y-13866579D02*
X11332682Y-13847531D01*
X11332682Y-13847531D02*
X11342206Y-13818960D01*
X11342206Y-13818960D02*
X11351730Y-13771341D01*
X11351730Y-13771341D02*
X11351730Y-13733246D01*
X11351730Y-13733246D02*
X11342206Y-13685627D01*
X11342206Y-13685627D02*
X11332682Y-13657055D01*
X11332682Y-13657055D02*
X11323158Y-13638008D01*
X11323158Y-13638008D02*
X11304111Y-13609436D01*
X11304111Y-13609436D02*
X11294587Y-13599912D01*
D16*
X4669360Y-14041640D02*
X4710000Y-14001000D01*
X4669360Y-13960360D01*
X4628720Y-14001000D01*
X4669360Y-14041640D01*
D11*
X5008872Y-13892484D02*
X5027920Y-13892484D01*
X5027920Y-13892484D02*
X5046967Y-13902008D01*
X5046967Y-13902008D02*
X5056491Y-13911531D01*
X5056491Y-13911531D02*
X5066015Y-13930579D01*
X5066015Y-13930579D02*
X5075539Y-13968674D01*
X5075539Y-13968674D02*
X5075539Y-14016293D01*
X5075539Y-14016293D02*
X5066015Y-14054388D01*
X5066015Y-14054388D02*
X5056491Y-14073436D01*
X5056491Y-14073436D02*
X5046967Y-14082960D01*
X5046967Y-14082960D02*
X5027920Y-14092484D01*
X5027920Y-14092484D02*
X5008872Y-14092484D01*
X5008872Y-14092484D02*
X4989824Y-14082960D01*
X4989824Y-14082960D02*
X4980301Y-14073436D01*
X4980301Y-14073436D02*
X4970777Y-14054388D01*
X4970777Y-14054388D02*
X4961253Y-14016293D01*
X4961253Y-14016293D02*
X4961253Y-13968674D01*
X4961253Y-13968674D02*
X4970777Y-13930579D01*
X4970777Y-13930579D02*
X4980301Y-13911531D01*
X4980301Y-13911531D02*
X4989824Y-13902008D01*
X4989824Y-13902008D02*
X5008872Y-13892484D01*
X5161253Y-14073436D02*
X5170777Y-14082960D01*
X5170777Y-14082960D02*
X5161253Y-14092484D01*
X5161253Y-14092484D02*
X5151729Y-14082960D01*
X5151729Y-14082960D02*
X5161253Y-14073436D01*
X5161253Y-14073436D02*
X5161253Y-14092484D01*
X5285063Y-13978198D02*
X5266015Y-13968674D01*
X5266015Y-13968674D02*
X5256491Y-13959150D01*
X5256491Y-13959150D02*
X5246967Y-13940103D01*
X5246967Y-13940103D02*
X5246967Y-13930579D01*
X5246967Y-13930579D02*
X5256491Y-13911531D01*
X5256491Y-13911531D02*
X5266015Y-13902008D01*
X5266015Y-13902008D02*
X5285063Y-13892484D01*
X5285063Y-13892484D02*
X5323158Y-13892484D01*
X5323158Y-13892484D02*
X5342205Y-13902008D01*
X5342205Y-13902008D02*
X5351729Y-13911531D01*
X5351729Y-13911531D02*
X5361253Y-13930579D01*
X5361253Y-13930579D02*
X5361253Y-13940103D01*
X5361253Y-13940103D02*
X5351729Y-13959150D01*
X5351729Y-13959150D02*
X5342205Y-13968674D01*
X5342205Y-13968674D02*
X5323158Y-13978198D01*
X5323158Y-13978198D02*
X5285063Y-13978198D01*
X5285063Y-13978198D02*
X5266015Y-13987722D01*
X5266015Y-13987722D02*
X5256491Y-13997246D01*
X5256491Y-13997246D02*
X5246967Y-14016293D01*
X5246967Y-14016293D02*
X5246967Y-14054388D01*
X5246967Y-14054388D02*
X5256491Y-14073436D01*
X5256491Y-14073436D02*
X5266015Y-14082960D01*
X5266015Y-14082960D02*
X5285063Y-14092484D01*
X5285063Y-14092484D02*
X5323158Y-14092484D01*
X5323158Y-14092484D02*
X5342205Y-14082960D01*
X5342205Y-14082960D02*
X5351729Y-14073436D01*
X5351729Y-14073436D02*
X5361253Y-14054388D01*
X5361253Y-14054388D02*
X5361253Y-14016293D01*
X5361253Y-14016293D02*
X5351729Y-13997246D01*
X5351729Y-13997246D02*
X5342205Y-13987722D01*
X5342205Y-13987722D02*
X5323158Y-13978198D01*
X5551729Y-14092484D02*
X5437444Y-14092484D01*
X5494586Y-14092484D02*
X5494586Y-13892484D01*
X5494586Y-13892484D02*
X5475539Y-13921055D01*
X5475539Y-13921055D02*
X5456491Y-13940103D01*
X5456491Y-13940103D02*
X5437444Y-13949627D01*
X5618396Y-13892484D02*
X5742205Y-13892484D01*
X5742205Y-13892484D02*
X5675539Y-13968674D01*
X5675539Y-13968674D02*
X5704110Y-13968674D01*
X5704110Y-13968674D02*
X5723158Y-13978198D01*
X5723158Y-13978198D02*
X5732682Y-13987722D01*
X5732682Y-13987722D02*
X5742205Y-14006769D01*
X5742205Y-14006769D02*
X5742205Y-14054388D01*
X5742205Y-14054388D02*
X5732682Y-14073436D01*
X5732682Y-14073436D02*
X5723158Y-14082960D01*
X5723158Y-14082960D02*
X5704110Y-14092484D01*
X5704110Y-14092484D02*
X5646967Y-14092484D01*
X5646967Y-14092484D02*
X5627920Y-14082960D01*
X5627920Y-14082960D02*
X5618396Y-14073436D01*
X5827920Y-14092484D02*
X5827920Y-13959150D01*
X5827920Y-13978198D02*
X5837443Y-13968674D01*
X5837443Y-13968674D02*
X5856491Y-13959150D01*
X5856491Y-13959150D02*
X5885063Y-13959150D01*
X5885063Y-13959150D02*
X5904110Y-13968674D01*
X5904110Y-13968674D02*
X5913634Y-13987722D01*
X5913634Y-13987722D02*
X5913634Y-14092484D01*
X5913634Y-13987722D02*
X5923158Y-13968674D01*
X5923158Y-13968674D02*
X5942205Y-13959150D01*
X5942205Y-13959150D02*
X5970777Y-13959150D01*
X5970777Y-13959150D02*
X5989824Y-13968674D01*
X5989824Y-13968674D02*
X5999348Y-13987722D01*
X5999348Y-13987722D02*
X5999348Y-14092484D01*
X6094586Y-14092484D02*
X6094586Y-13959150D01*
X6094586Y-13978198D02*
X6104110Y-13968674D01*
X6104110Y-13968674D02*
X6123158Y-13959150D01*
X6123158Y-13959150D02*
X6151729Y-13959150D01*
X6151729Y-13959150D02*
X6170777Y-13968674D01*
X6170777Y-13968674D02*
X6180301Y-13987722D01*
X6180301Y-13987722D02*
X6180301Y-14092484D01*
X6180301Y-13987722D02*
X6189824Y-13968674D01*
X6189824Y-13968674D02*
X6208872Y-13959150D01*
X6208872Y-13959150D02*
X6237443Y-13959150D01*
X6237443Y-13959150D02*
X6256491Y-13968674D01*
X6256491Y-13968674D02*
X6266015Y-13987722D01*
X6266015Y-13987722D02*
X6266015Y-14092484D01*
X6656491Y-13882960D02*
X6485063Y-14140103D01*
X6913634Y-13892484D02*
X6932682Y-13892484D01*
X6932682Y-13892484D02*
X6951729Y-13902008D01*
X6951729Y-13902008D02*
X6961253Y-13911531D01*
X6961253Y-13911531D02*
X6970777Y-13930579D01*
X6970777Y-13930579D02*
X6980301Y-13968674D01*
X6980301Y-13968674D02*
X6980301Y-14016293D01*
X6980301Y-14016293D02*
X6970777Y-14054388D01*
X6970777Y-14054388D02*
X6961253Y-14073436D01*
X6961253Y-14073436D02*
X6951729Y-14082960D01*
X6951729Y-14082960D02*
X6932682Y-14092484D01*
X6932682Y-14092484D02*
X6913634Y-14092484D01*
X6913634Y-14092484D02*
X6894586Y-14082960D01*
X6894586Y-14082960D02*
X6885063Y-14073436D01*
X6885063Y-14073436D02*
X6875539Y-14054388D01*
X6875539Y-14054388D02*
X6866015Y-14016293D01*
X6866015Y-14016293D02*
X6866015Y-13968674D01*
X6866015Y-13968674D02*
X6875539Y-13930579D01*
X6875539Y-13930579D02*
X6885063Y-13911531D01*
X6885063Y-13911531D02*
X6894586Y-13902008D01*
X6894586Y-13902008D02*
X6913634Y-13892484D01*
X7066015Y-14073436D02*
X7075539Y-14082960D01*
X7075539Y-14082960D02*
X7066015Y-14092484D01*
X7066015Y-14092484D02*
X7056491Y-14082960D01*
X7056491Y-14082960D02*
X7066015Y-14073436D01*
X7066015Y-14073436D02*
X7066015Y-14092484D01*
X7199348Y-13892484D02*
X7218396Y-13892484D01*
X7218396Y-13892484D02*
X7237444Y-13902008D01*
X7237444Y-13902008D02*
X7246967Y-13911531D01*
X7246967Y-13911531D02*
X7256491Y-13930579D01*
X7256491Y-13930579D02*
X7266015Y-13968674D01*
X7266015Y-13968674D02*
X7266015Y-14016293D01*
X7266015Y-14016293D02*
X7256491Y-14054388D01*
X7256491Y-14054388D02*
X7246967Y-14073436D01*
X7246967Y-14073436D02*
X7237444Y-14082960D01*
X7237444Y-14082960D02*
X7218396Y-14092484D01*
X7218396Y-14092484D02*
X7199348Y-14092484D01*
X7199348Y-14092484D02*
X7180301Y-14082960D01*
X7180301Y-14082960D02*
X7170777Y-14073436D01*
X7170777Y-14073436D02*
X7161253Y-14054388D01*
X7161253Y-14054388D02*
X7151729Y-14016293D01*
X7151729Y-14016293D02*
X7151729Y-13968674D01*
X7151729Y-13968674D02*
X7161253Y-13930579D01*
X7161253Y-13930579D02*
X7170777Y-13911531D01*
X7170777Y-13911531D02*
X7180301Y-13902008D01*
X7180301Y-13902008D02*
X7199348Y-13892484D01*
X7332682Y-13892484D02*
X7456491Y-13892484D01*
X7456491Y-13892484D02*
X7389825Y-13968674D01*
X7389825Y-13968674D02*
X7418396Y-13968674D01*
X7418396Y-13968674D02*
X7437444Y-13978198D01*
X7437444Y-13978198D02*
X7446967Y-13987722D01*
X7446967Y-13987722D02*
X7456491Y-14006769D01*
X7456491Y-14006769D02*
X7456491Y-14054388D01*
X7456491Y-14054388D02*
X7446967Y-14073436D01*
X7446967Y-14073436D02*
X7437444Y-14082960D01*
X7437444Y-14082960D02*
X7418396Y-14092484D01*
X7418396Y-14092484D02*
X7361253Y-14092484D01*
X7361253Y-14092484D02*
X7342206Y-14082960D01*
X7342206Y-14082960D02*
X7332682Y-14073436D01*
X7532682Y-13911531D02*
X7542206Y-13902008D01*
X7542206Y-13902008D02*
X7561253Y-13892484D01*
X7561253Y-13892484D02*
X7608872Y-13892484D01*
X7608872Y-13892484D02*
X7627920Y-13902008D01*
X7627920Y-13902008D02*
X7637444Y-13911531D01*
X7637444Y-13911531D02*
X7646967Y-13930579D01*
X7646967Y-13930579D02*
X7646967Y-13949627D01*
X7646967Y-13949627D02*
X7637444Y-13978198D01*
X7637444Y-13978198D02*
X7523158Y-14092484D01*
X7523158Y-14092484D02*
X7646967Y-14092484D01*
X7770777Y-13892484D02*
X7789825Y-13892484D01*
X7789825Y-13892484D02*
X7808872Y-13902008D01*
X7808872Y-13902008D02*
X7818396Y-13911531D01*
X7818396Y-13911531D02*
X7827920Y-13930579D01*
X7827920Y-13930579D02*
X7837444Y-13968674D01*
X7837444Y-13968674D02*
X7837444Y-14016293D01*
X7837444Y-14016293D02*
X7827920Y-14054388D01*
X7827920Y-14054388D02*
X7818396Y-14073436D01*
X7818396Y-14073436D02*
X7808872Y-14082960D01*
X7808872Y-14082960D02*
X7789825Y-14092484D01*
X7789825Y-14092484D02*
X7770777Y-14092484D01*
X7770777Y-14092484D02*
X7751729Y-14082960D01*
X7751729Y-14082960D02*
X7742206Y-14073436D01*
X7742206Y-14073436D02*
X7732682Y-14054388D01*
X7732682Y-14054388D02*
X7723158Y-14016293D01*
X7723158Y-14016293D02*
X7723158Y-13968674D01*
X7723158Y-13968674D02*
X7732682Y-13930579D01*
X7732682Y-13930579D02*
X7742206Y-13911531D01*
X7742206Y-13911531D02*
X7751729Y-13902008D01*
X7751729Y-13902008D02*
X7770777Y-13892484D01*
X7913634Y-13892484D02*
X7913634Y-13930579D01*
X7989825Y-13892484D02*
X7989825Y-13930579D01*
X8285063Y-14168674D02*
X8275539Y-14159150D01*
X8275539Y-14159150D02*
X8256491Y-14130579D01*
X8256491Y-14130579D02*
X8246968Y-14111531D01*
X8246968Y-14111531D02*
X8237444Y-14082960D01*
X8237444Y-14082960D02*
X8227920Y-14035341D01*
X8227920Y-14035341D02*
X8227920Y-13997246D01*
X8227920Y-13997246D02*
X8237444Y-13949627D01*
X8237444Y-13949627D02*
X8246968Y-13921055D01*
X8246968Y-13921055D02*
X8256491Y-13902008D01*
X8256491Y-13902008D02*
X8275539Y-13873436D01*
X8275539Y-13873436D02*
X8285063Y-13863912D01*
X8351729Y-13911531D02*
X8361253Y-13902008D01*
X8361253Y-13902008D02*
X8380301Y-13892484D01*
X8380301Y-13892484D02*
X8427920Y-13892484D01*
X8427920Y-13892484D02*
X8446968Y-13902008D01*
X8446968Y-13902008D02*
X8456491Y-13911531D01*
X8456491Y-13911531D02*
X8466015Y-13930579D01*
X8466015Y-13930579D02*
X8466015Y-13949627D01*
X8466015Y-13949627D02*
X8456491Y-13978198D01*
X8456491Y-13978198D02*
X8342206Y-14092484D01*
X8342206Y-14092484D02*
X8466015Y-14092484D01*
X8704111Y-14092484D02*
X8704111Y-13892484D01*
X8789825Y-14092484D02*
X8789825Y-13987722D01*
X8789825Y-13987722D02*
X8780301Y-13968674D01*
X8780301Y-13968674D02*
X8761253Y-13959150D01*
X8761253Y-13959150D02*
X8732682Y-13959150D01*
X8732682Y-13959150D02*
X8713634Y-13968674D01*
X8713634Y-13968674D02*
X8704111Y-13978198D01*
X8913634Y-14092484D02*
X8894587Y-14082960D01*
X8894587Y-14082960D02*
X8885063Y-14073436D01*
X8885063Y-14073436D02*
X8875539Y-14054388D01*
X8875539Y-14054388D02*
X8875539Y-13997246D01*
X8875539Y-13997246D02*
X8885063Y-13978198D01*
X8885063Y-13978198D02*
X8894587Y-13968674D01*
X8894587Y-13968674D02*
X8913634Y-13959150D01*
X8913634Y-13959150D02*
X8942206Y-13959150D01*
X8942206Y-13959150D02*
X8961253Y-13968674D01*
X8961253Y-13968674D02*
X8970777Y-13978198D01*
X8970777Y-13978198D02*
X8980301Y-13997246D01*
X8980301Y-13997246D02*
X8980301Y-14054388D01*
X8980301Y-14054388D02*
X8970777Y-14073436D01*
X8970777Y-14073436D02*
X8961253Y-14082960D01*
X8961253Y-14082960D02*
X8942206Y-14092484D01*
X8942206Y-14092484D02*
X8913634Y-14092484D01*
X9094587Y-14092484D02*
X9075539Y-14082960D01*
X9075539Y-14082960D02*
X9066015Y-14063912D01*
X9066015Y-14063912D02*
X9066015Y-13892484D01*
X9246968Y-14082960D02*
X9227920Y-14092484D01*
X9227920Y-14092484D02*
X9189825Y-14092484D01*
X9189825Y-14092484D02*
X9170777Y-14082960D01*
X9170777Y-14082960D02*
X9161253Y-14063912D01*
X9161253Y-14063912D02*
X9161253Y-13987722D01*
X9161253Y-13987722D02*
X9170777Y-13968674D01*
X9170777Y-13968674D02*
X9189825Y-13959150D01*
X9189825Y-13959150D02*
X9227920Y-13959150D01*
X9227920Y-13959150D02*
X9246968Y-13968674D01*
X9246968Y-13968674D02*
X9256492Y-13987722D01*
X9256492Y-13987722D02*
X9256492Y-14006769D01*
X9256492Y-14006769D02*
X9161253Y-14025817D01*
X9332682Y-14082960D02*
X9351730Y-14092484D01*
X9351730Y-14092484D02*
X9389825Y-14092484D01*
X9389825Y-14092484D02*
X9408873Y-14082960D01*
X9408873Y-14082960D02*
X9418396Y-14063912D01*
X9418396Y-14063912D02*
X9418396Y-14054388D01*
X9418396Y-14054388D02*
X9408873Y-14035341D01*
X9408873Y-14035341D02*
X9389825Y-14025817D01*
X9389825Y-14025817D02*
X9361253Y-14025817D01*
X9361253Y-14025817D02*
X9342206Y-14016293D01*
X9342206Y-14016293D02*
X9332682Y-13997246D01*
X9332682Y-13997246D02*
X9332682Y-13987722D01*
X9332682Y-13987722D02*
X9342206Y-13968674D01*
X9342206Y-13968674D02*
X9361253Y-13959150D01*
X9361253Y-13959150D02*
X9389825Y-13959150D01*
X9389825Y-13959150D02*
X9408873Y-13968674D01*
X9485063Y-14168674D02*
X9494587Y-14159150D01*
X9494587Y-14159150D02*
X9513634Y-14130579D01*
X9513634Y-14130579D02*
X9523158Y-14111531D01*
X9523158Y-14111531D02*
X9532682Y-14082960D01*
X9532682Y-14082960D02*
X9542206Y-14035341D01*
X9542206Y-14035341D02*
X9542206Y-13997246D01*
X9542206Y-13997246D02*
X9532682Y-13949627D01*
X9532682Y-13949627D02*
X9523158Y-13921055D01*
X9523158Y-13921055D02*
X9513634Y-13902008D01*
X9513634Y-13902008D02*
X9494587Y-13873436D01*
X9494587Y-13873436D02*
X9485063Y-13863912D01*
D17*
X4625000Y-14222500D02*
X4710000Y-14307500D01*
X4710000Y-14222500D02*
X4625000Y-14307500D01*
X4710000Y-14265000D02*
G75*
G03*
X4710000Y-14265000I-42500J0D01*
G01*
D11*
X5008872Y-14156484D02*
X5027920Y-14156484D01*
X5027920Y-14156484D02*
X5046967Y-14166008D01*
X5046967Y-14166008D02*
X5056491Y-14175531D01*
X5056491Y-14175531D02*
X5066015Y-14194579D01*
X5066015Y-14194579D02*
X5075539Y-14232674D01*
X5075539Y-14232674D02*
X5075539Y-14280293D01*
X5075539Y-14280293D02*
X5066015Y-14318388D01*
X5066015Y-14318388D02*
X5056491Y-14337436D01*
X5056491Y-14337436D02*
X5046967Y-14346960D01*
X5046967Y-14346960D02*
X5027920Y-14356484D01*
X5027920Y-14356484D02*
X5008872Y-14356484D01*
X5008872Y-14356484D02*
X4989824Y-14346960D01*
X4989824Y-14346960D02*
X4980301Y-14337436D01*
X4980301Y-14337436D02*
X4970777Y-14318388D01*
X4970777Y-14318388D02*
X4961253Y-14280293D01*
X4961253Y-14280293D02*
X4961253Y-14232674D01*
X4961253Y-14232674D02*
X4970777Y-14194579D01*
X4970777Y-14194579D02*
X4980301Y-14175531D01*
X4980301Y-14175531D02*
X4989824Y-14166008D01*
X4989824Y-14166008D02*
X5008872Y-14156484D01*
X5161253Y-14337436D02*
X5170777Y-14346960D01*
X5170777Y-14346960D02*
X5161253Y-14356484D01*
X5161253Y-14356484D02*
X5151729Y-14346960D01*
X5151729Y-14346960D02*
X5161253Y-14337436D01*
X5161253Y-14337436D02*
X5161253Y-14356484D01*
X5285063Y-14242198D02*
X5266015Y-14232674D01*
X5266015Y-14232674D02*
X5256491Y-14223150D01*
X5256491Y-14223150D02*
X5246967Y-14204103D01*
X5246967Y-14204103D02*
X5246967Y-14194579D01*
X5246967Y-14194579D02*
X5256491Y-14175531D01*
X5256491Y-14175531D02*
X5266015Y-14166008D01*
X5266015Y-14166008D02*
X5285063Y-14156484D01*
X5285063Y-14156484D02*
X5323158Y-14156484D01*
X5323158Y-14156484D02*
X5342205Y-14166008D01*
X5342205Y-14166008D02*
X5351729Y-14175531D01*
X5351729Y-14175531D02*
X5361253Y-14194579D01*
X5361253Y-14194579D02*
X5361253Y-14204103D01*
X5361253Y-14204103D02*
X5351729Y-14223150D01*
X5351729Y-14223150D02*
X5342205Y-14232674D01*
X5342205Y-14232674D02*
X5323158Y-14242198D01*
X5323158Y-14242198D02*
X5285063Y-14242198D01*
X5285063Y-14242198D02*
X5266015Y-14251722D01*
X5266015Y-14251722D02*
X5256491Y-14261246D01*
X5256491Y-14261246D02*
X5246967Y-14280293D01*
X5246967Y-14280293D02*
X5246967Y-14318388D01*
X5246967Y-14318388D02*
X5256491Y-14337436D01*
X5256491Y-14337436D02*
X5266015Y-14346960D01*
X5266015Y-14346960D02*
X5285063Y-14356484D01*
X5285063Y-14356484D02*
X5323158Y-14356484D01*
X5323158Y-14356484D02*
X5342205Y-14346960D01*
X5342205Y-14346960D02*
X5351729Y-14337436D01*
X5351729Y-14337436D02*
X5361253Y-14318388D01*
X5361253Y-14318388D02*
X5361253Y-14280293D01*
X5361253Y-14280293D02*
X5351729Y-14261246D01*
X5351729Y-14261246D02*
X5342205Y-14251722D01*
X5342205Y-14251722D02*
X5323158Y-14242198D01*
X5542205Y-14156484D02*
X5446967Y-14156484D01*
X5446967Y-14156484D02*
X5437444Y-14251722D01*
X5437444Y-14251722D02*
X5446967Y-14242198D01*
X5446967Y-14242198D02*
X5466015Y-14232674D01*
X5466015Y-14232674D02*
X5513634Y-14232674D01*
X5513634Y-14232674D02*
X5532682Y-14242198D01*
X5532682Y-14242198D02*
X5542205Y-14251722D01*
X5542205Y-14251722D02*
X5551729Y-14270769D01*
X5551729Y-14270769D02*
X5551729Y-14318388D01*
X5551729Y-14318388D02*
X5542205Y-14337436D01*
X5542205Y-14337436D02*
X5532682Y-14346960D01*
X5532682Y-14346960D02*
X5513634Y-14356484D01*
X5513634Y-14356484D02*
X5466015Y-14356484D01*
X5466015Y-14356484D02*
X5446967Y-14346960D01*
X5446967Y-14346960D02*
X5437444Y-14337436D01*
X5675539Y-14156484D02*
X5694586Y-14156484D01*
X5694586Y-14156484D02*
X5713634Y-14166008D01*
X5713634Y-14166008D02*
X5723158Y-14175531D01*
X5723158Y-14175531D02*
X5732682Y-14194579D01*
X5732682Y-14194579D02*
X5742205Y-14232674D01*
X5742205Y-14232674D02*
X5742205Y-14280293D01*
X5742205Y-14280293D02*
X5732682Y-14318388D01*
X5732682Y-14318388D02*
X5723158Y-14337436D01*
X5723158Y-14337436D02*
X5713634Y-14346960D01*
X5713634Y-14346960D02*
X5694586Y-14356484D01*
X5694586Y-14356484D02*
X5675539Y-14356484D01*
X5675539Y-14356484D02*
X5656491Y-14346960D01*
X5656491Y-14346960D02*
X5646967Y-14337436D01*
X5646967Y-14337436D02*
X5637443Y-14318388D01*
X5637443Y-14318388D02*
X5627920Y-14280293D01*
X5627920Y-14280293D02*
X5627920Y-14232674D01*
X5627920Y-14232674D02*
X5637443Y-14194579D01*
X5637443Y-14194579D02*
X5646967Y-14175531D01*
X5646967Y-14175531D02*
X5656491Y-14166008D01*
X5656491Y-14166008D02*
X5675539Y-14156484D01*
X5827920Y-14356484D02*
X5827920Y-14223150D01*
X5827920Y-14242198D02*
X5837443Y-14232674D01*
X5837443Y-14232674D02*
X5856491Y-14223150D01*
X5856491Y-14223150D02*
X5885063Y-14223150D01*
X5885063Y-14223150D02*
X5904110Y-14232674D01*
X5904110Y-14232674D02*
X5913634Y-14251722D01*
X5913634Y-14251722D02*
X5913634Y-14356484D01*
X5913634Y-14251722D02*
X5923158Y-14232674D01*
X5923158Y-14232674D02*
X5942205Y-14223150D01*
X5942205Y-14223150D02*
X5970777Y-14223150D01*
X5970777Y-14223150D02*
X5989824Y-14232674D01*
X5989824Y-14232674D02*
X5999348Y-14251722D01*
X5999348Y-14251722D02*
X5999348Y-14356484D01*
X6094586Y-14356484D02*
X6094586Y-14223150D01*
X6094586Y-14242198D02*
X6104110Y-14232674D01*
X6104110Y-14232674D02*
X6123158Y-14223150D01*
X6123158Y-14223150D02*
X6151729Y-14223150D01*
X6151729Y-14223150D02*
X6170777Y-14232674D01*
X6170777Y-14232674D02*
X6180301Y-14251722D01*
X6180301Y-14251722D02*
X6180301Y-14356484D01*
X6180301Y-14251722D02*
X6189824Y-14232674D01*
X6189824Y-14232674D02*
X6208872Y-14223150D01*
X6208872Y-14223150D02*
X6237443Y-14223150D01*
X6237443Y-14223150D02*
X6256491Y-14232674D01*
X6256491Y-14232674D02*
X6266015Y-14251722D01*
X6266015Y-14251722D02*
X6266015Y-14356484D01*
X6656491Y-14146960D02*
X6485063Y-14404103D01*
X6913634Y-14156484D02*
X6932682Y-14156484D01*
X6932682Y-14156484D02*
X6951729Y-14166008D01*
X6951729Y-14166008D02*
X6961253Y-14175531D01*
X6961253Y-14175531D02*
X6970777Y-14194579D01*
X6970777Y-14194579D02*
X6980301Y-14232674D01*
X6980301Y-14232674D02*
X6980301Y-14280293D01*
X6980301Y-14280293D02*
X6970777Y-14318388D01*
X6970777Y-14318388D02*
X6961253Y-14337436D01*
X6961253Y-14337436D02*
X6951729Y-14346960D01*
X6951729Y-14346960D02*
X6932682Y-14356484D01*
X6932682Y-14356484D02*
X6913634Y-14356484D01*
X6913634Y-14356484D02*
X6894586Y-14346960D01*
X6894586Y-14346960D02*
X6885063Y-14337436D01*
X6885063Y-14337436D02*
X6875539Y-14318388D01*
X6875539Y-14318388D02*
X6866015Y-14280293D01*
X6866015Y-14280293D02*
X6866015Y-14232674D01*
X6866015Y-14232674D02*
X6875539Y-14194579D01*
X6875539Y-14194579D02*
X6885063Y-14175531D01*
X6885063Y-14175531D02*
X6894586Y-14166008D01*
X6894586Y-14166008D02*
X6913634Y-14156484D01*
X7066015Y-14337436D02*
X7075539Y-14346960D01*
X7075539Y-14346960D02*
X7066015Y-14356484D01*
X7066015Y-14356484D02*
X7056491Y-14346960D01*
X7056491Y-14346960D02*
X7066015Y-14337436D01*
X7066015Y-14337436D02*
X7066015Y-14356484D01*
X7199348Y-14156484D02*
X7218396Y-14156484D01*
X7218396Y-14156484D02*
X7237444Y-14166008D01*
X7237444Y-14166008D02*
X7246967Y-14175531D01*
X7246967Y-14175531D02*
X7256491Y-14194579D01*
X7256491Y-14194579D02*
X7266015Y-14232674D01*
X7266015Y-14232674D02*
X7266015Y-14280293D01*
X7266015Y-14280293D02*
X7256491Y-14318388D01*
X7256491Y-14318388D02*
X7246967Y-14337436D01*
X7246967Y-14337436D02*
X7237444Y-14346960D01*
X7237444Y-14346960D02*
X7218396Y-14356484D01*
X7218396Y-14356484D02*
X7199348Y-14356484D01*
X7199348Y-14356484D02*
X7180301Y-14346960D01*
X7180301Y-14346960D02*
X7170777Y-14337436D01*
X7170777Y-14337436D02*
X7161253Y-14318388D01*
X7161253Y-14318388D02*
X7151729Y-14280293D01*
X7151729Y-14280293D02*
X7151729Y-14232674D01*
X7151729Y-14232674D02*
X7161253Y-14194579D01*
X7161253Y-14194579D02*
X7170777Y-14175531D01*
X7170777Y-14175531D02*
X7180301Y-14166008D01*
X7180301Y-14166008D02*
X7199348Y-14156484D01*
X7332682Y-14156484D02*
X7456491Y-14156484D01*
X7456491Y-14156484D02*
X7389825Y-14232674D01*
X7389825Y-14232674D02*
X7418396Y-14232674D01*
X7418396Y-14232674D02*
X7437444Y-14242198D01*
X7437444Y-14242198D02*
X7446967Y-14251722D01*
X7446967Y-14251722D02*
X7456491Y-14270769D01*
X7456491Y-14270769D02*
X7456491Y-14318388D01*
X7456491Y-14318388D02*
X7446967Y-14337436D01*
X7446967Y-14337436D02*
X7437444Y-14346960D01*
X7437444Y-14346960D02*
X7418396Y-14356484D01*
X7418396Y-14356484D02*
X7361253Y-14356484D01*
X7361253Y-14356484D02*
X7342206Y-14346960D01*
X7342206Y-14346960D02*
X7332682Y-14337436D01*
X7523158Y-14156484D02*
X7646967Y-14156484D01*
X7646967Y-14156484D02*
X7580301Y-14232674D01*
X7580301Y-14232674D02*
X7608872Y-14232674D01*
X7608872Y-14232674D02*
X7627920Y-14242198D01*
X7627920Y-14242198D02*
X7637444Y-14251722D01*
X7637444Y-14251722D02*
X7646967Y-14270769D01*
X7646967Y-14270769D02*
X7646967Y-14318388D01*
X7646967Y-14318388D02*
X7637444Y-14337436D01*
X7637444Y-14337436D02*
X7627920Y-14346960D01*
X7627920Y-14346960D02*
X7608872Y-14356484D01*
X7608872Y-14356484D02*
X7551729Y-14356484D01*
X7551729Y-14356484D02*
X7532682Y-14346960D01*
X7532682Y-14346960D02*
X7523158Y-14337436D01*
X7827920Y-14156484D02*
X7732682Y-14156484D01*
X7732682Y-14156484D02*
X7723158Y-14251722D01*
X7723158Y-14251722D02*
X7732682Y-14242198D01*
X7732682Y-14242198D02*
X7751729Y-14232674D01*
X7751729Y-14232674D02*
X7799348Y-14232674D01*
X7799348Y-14232674D02*
X7818396Y-14242198D01*
X7818396Y-14242198D02*
X7827920Y-14251722D01*
X7827920Y-14251722D02*
X7837444Y-14270769D01*
X7837444Y-14270769D02*
X7837444Y-14318388D01*
X7837444Y-14318388D02*
X7827920Y-14337436D01*
X7827920Y-14337436D02*
X7818396Y-14346960D01*
X7818396Y-14346960D02*
X7799348Y-14356484D01*
X7799348Y-14356484D02*
X7751729Y-14356484D01*
X7751729Y-14356484D02*
X7732682Y-14346960D01*
X7732682Y-14346960D02*
X7723158Y-14337436D01*
X7913634Y-14156484D02*
X7913634Y-14194579D01*
X7989825Y-14156484D02*
X7989825Y-14194579D01*
X8285063Y-14432674D02*
X8275539Y-14423150D01*
X8275539Y-14423150D02*
X8256491Y-14394579D01*
X8256491Y-14394579D02*
X8246968Y-14375531D01*
X8246968Y-14375531D02*
X8237444Y-14346960D01*
X8237444Y-14346960D02*
X8227920Y-14299341D01*
X8227920Y-14299341D02*
X8227920Y-14261246D01*
X8227920Y-14261246D02*
X8237444Y-14213627D01*
X8237444Y-14213627D02*
X8246968Y-14185055D01*
X8246968Y-14185055D02*
X8256491Y-14166008D01*
X8256491Y-14166008D02*
X8275539Y-14137436D01*
X8275539Y-14137436D02*
X8285063Y-14127912D01*
X8351729Y-14175531D02*
X8361253Y-14166008D01*
X8361253Y-14166008D02*
X8380301Y-14156484D01*
X8380301Y-14156484D02*
X8427920Y-14156484D01*
X8427920Y-14156484D02*
X8446968Y-14166008D01*
X8446968Y-14166008D02*
X8456491Y-14175531D01*
X8456491Y-14175531D02*
X8466015Y-14194579D01*
X8466015Y-14194579D02*
X8466015Y-14213627D01*
X8466015Y-14213627D02*
X8456491Y-14242198D01*
X8456491Y-14242198D02*
X8342206Y-14356484D01*
X8342206Y-14356484D02*
X8466015Y-14356484D01*
X8704111Y-14356484D02*
X8704111Y-14156484D01*
X8789825Y-14356484D02*
X8789825Y-14251722D01*
X8789825Y-14251722D02*
X8780301Y-14232674D01*
X8780301Y-14232674D02*
X8761253Y-14223150D01*
X8761253Y-14223150D02*
X8732682Y-14223150D01*
X8732682Y-14223150D02*
X8713634Y-14232674D01*
X8713634Y-14232674D02*
X8704111Y-14242198D01*
X8913634Y-14356484D02*
X8894587Y-14346960D01*
X8894587Y-14346960D02*
X8885063Y-14337436D01*
X8885063Y-14337436D02*
X8875539Y-14318388D01*
X8875539Y-14318388D02*
X8875539Y-14261246D01*
X8875539Y-14261246D02*
X8885063Y-14242198D01*
X8885063Y-14242198D02*
X8894587Y-14232674D01*
X8894587Y-14232674D02*
X8913634Y-14223150D01*
X8913634Y-14223150D02*
X8942206Y-14223150D01*
X8942206Y-14223150D02*
X8961253Y-14232674D01*
X8961253Y-14232674D02*
X8970777Y-14242198D01*
X8970777Y-14242198D02*
X8980301Y-14261246D01*
X8980301Y-14261246D02*
X8980301Y-14318388D01*
X8980301Y-14318388D02*
X8970777Y-14337436D01*
X8970777Y-14337436D02*
X8961253Y-14346960D01*
X8961253Y-14346960D02*
X8942206Y-14356484D01*
X8942206Y-14356484D02*
X8913634Y-14356484D01*
X9094587Y-14356484D02*
X9075539Y-14346960D01*
X9075539Y-14346960D02*
X9066015Y-14327912D01*
X9066015Y-14327912D02*
X9066015Y-14156484D01*
X9246968Y-14346960D02*
X9227920Y-14356484D01*
X9227920Y-14356484D02*
X9189825Y-14356484D01*
X9189825Y-14356484D02*
X9170777Y-14346960D01*
X9170777Y-14346960D02*
X9161253Y-14327912D01*
X9161253Y-14327912D02*
X9161253Y-14251722D01*
X9161253Y-14251722D02*
X9170777Y-14232674D01*
X9170777Y-14232674D02*
X9189825Y-14223150D01*
X9189825Y-14223150D02*
X9227920Y-14223150D01*
X9227920Y-14223150D02*
X9246968Y-14232674D01*
X9246968Y-14232674D02*
X9256492Y-14251722D01*
X9256492Y-14251722D02*
X9256492Y-14270769D01*
X9256492Y-14270769D02*
X9161253Y-14289817D01*
X9332682Y-14346960D02*
X9351730Y-14356484D01*
X9351730Y-14356484D02*
X9389825Y-14356484D01*
X9389825Y-14356484D02*
X9408873Y-14346960D01*
X9408873Y-14346960D02*
X9418396Y-14327912D01*
X9418396Y-14327912D02*
X9418396Y-14318388D01*
X9418396Y-14318388D02*
X9408873Y-14299341D01*
X9408873Y-14299341D02*
X9389825Y-14289817D01*
X9389825Y-14289817D02*
X9361253Y-14289817D01*
X9361253Y-14289817D02*
X9342206Y-14280293D01*
X9342206Y-14280293D02*
X9332682Y-14261246D01*
X9332682Y-14261246D02*
X9332682Y-14251722D01*
X9332682Y-14251722D02*
X9342206Y-14232674D01*
X9342206Y-14232674D02*
X9361253Y-14223150D01*
X9361253Y-14223150D02*
X9389825Y-14223150D01*
X9389825Y-14223150D02*
X9408873Y-14232674D01*
X9485063Y-14432674D02*
X9494587Y-14423150D01*
X9494587Y-14423150D02*
X9513634Y-14394579D01*
X9513634Y-14394579D02*
X9523158Y-14375531D01*
X9523158Y-14375531D02*
X9532682Y-14346960D01*
X9532682Y-14346960D02*
X9542206Y-14299341D01*
X9542206Y-14299341D02*
X9542206Y-14261246D01*
X9542206Y-14261246D02*
X9532682Y-14213627D01*
X9532682Y-14213627D02*
X9523158Y-14185055D01*
X9523158Y-14185055D02*
X9513634Y-14166008D01*
X9513634Y-14166008D02*
X9494587Y-14137436D01*
X9494587Y-14137436D02*
X9485063Y-14127912D01*
D18*
X4620000Y-14484000D02*
X4710000Y-14574000D01*
X4710000Y-14484000D02*
X4620000Y-14574000D01*
X4665000Y-14484000D02*
X4665000Y-14574000D01*
X4620000Y-14529000D02*
X4710000Y-14529000D01*
D11*
X5008872Y-14420484D02*
X5027920Y-14420484D01*
X5027920Y-14420484D02*
X5046967Y-14430008D01*
X5046967Y-14430008D02*
X5056491Y-14439531D01*
X5056491Y-14439531D02*
X5066015Y-14458579D01*
X5066015Y-14458579D02*
X5075539Y-14496674D01*
X5075539Y-14496674D02*
X5075539Y-14544293D01*
X5075539Y-14544293D02*
X5066015Y-14582388D01*
X5066015Y-14582388D02*
X5056491Y-14601436D01*
X5056491Y-14601436D02*
X5046967Y-14610960D01*
X5046967Y-14610960D02*
X5027920Y-14620484D01*
X5027920Y-14620484D02*
X5008872Y-14620484D01*
X5008872Y-14620484D02*
X4989824Y-14610960D01*
X4989824Y-14610960D02*
X4980301Y-14601436D01*
X4980301Y-14601436D02*
X4970777Y-14582388D01*
X4970777Y-14582388D02*
X4961253Y-14544293D01*
X4961253Y-14544293D02*
X4961253Y-14496674D01*
X4961253Y-14496674D02*
X4970777Y-14458579D01*
X4970777Y-14458579D02*
X4980301Y-14439531D01*
X4980301Y-14439531D02*
X4989824Y-14430008D01*
X4989824Y-14430008D02*
X5008872Y-14420484D01*
X5161253Y-14601436D02*
X5170777Y-14610960D01*
X5170777Y-14610960D02*
X5161253Y-14620484D01*
X5161253Y-14620484D02*
X5151729Y-14610960D01*
X5151729Y-14610960D02*
X5161253Y-14601436D01*
X5161253Y-14601436D02*
X5161253Y-14620484D01*
X5266015Y-14620484D02*
X5304110Y-14620484D01*
X5304110Y-14620484D02*
X5323158Y-14610960D01*
X5323158Y-14610960D02*
X5332682Y-14601436D01*
X5332682Y-14601436D02*
X5351729Y-14572865D01*
X5351729Y-14572865D02*
X5361253Y-14534769D01*
X5361253Y-14534769D02*
X5361253Y-14458579D01*
X5361253Y-14458579D02*
X5351729Y-14439531D01*
X5351729Y-14439531D02*
X5342205Y-14430008D01*
X5342205Y-14430008D02*
X5323158Y-14420484D01*
X5323158Y-14420484D02*
X5285063Y-14420484D01*
X5285063Y-14420484D02*
X5266015Y-14430008D01*
X5266015Y-14430008D02*
X5256491Y-14439531D01*
X5256491Y-14439531D02*
X5246967Y-14458579D01*
X5246967Y-14458579D02*
X5246967Y-14506198D01*
X5246967Y-14506198D02*
X5256491Y-14525246D01*
X5256491Y-14525246D02*
X5266015Y-14534769D01*
X5266015Y-14534769D02*
X5285063Y-14544293D01*
X5285063Y-14544293D02*
X5323158Y-14544293D01*
X5323158Y-14544293D02*
X5342205Y-14534769D01*
X5342205Y-14534769D02*
X5351729Y-14525246D01*
X5351729Y-14525246D02*
X5361253Y-14506198D01*
X5485063Y-14420484D02*
X5504110Y-14420484D01*
X5504110Y-14420484D02*
X5523158Y-14430008D01*
X5523158Y-14430008D02*
X5532682Y-14439531D01*
X5532682Y-14439531D02*
X5542205Y-14458579D01*
X5542205Y-14458579D02*
X5551729Y-14496674D01*
X5551729Y-14496674D02*
X5551729Y-14544293D01*
X5551729Y-14544293D02*
X5542205Y-14582388D01*
X5542205Y-14582388D02*
X5532682Y-14601436D01*
X5532682Y-14601436D02*
X5523158Y-14610960D01*
X5523158Y-14610960D02*
X5504110Y-14620484D01*
X5504110Y-14620484D02*
X5485063Y-14620484D01*
X5485063Y-14620484D02*
X5466015Y-14610960D01*
X5466015Y-14610960D02*
X5456491Y-14601436D01*
X5456491Y-14601436D02*
X5446967Y-14582388D01*
X5446967Y-14582388D02*
X5437444Y-14544293D01*
X5437444Y-14544293D02*
X5437444Y-14496674D01*
X5437444Y-14496674D02*
X5446967Y-14458579D01*
X5446967Y-14458579D02*
X5456491Y-14439531D01*
X5456491Y-14439531D02*
X5466015Y-14430008D01*
X5466015Y-14430008D02*
X5485063Y-14420484D01*
X5675539Y-14420484D02*
X5694586Y-14420484D01*
X5694586Y-14420484D02*
X5713634Y-14430008D01*
X5713634Y-14430008D02*
X5723158Y-14439531D01*
X5723158Y-14439531D02*
X5732682Y-14458579D01*
X5732682Y-14458579D02*
X5742205Y-14496674D01*
X5742205Y-14496674D02*
X5742205Y-14544293D01*
X5742205Y-14544293D02*
X5732682Y-14582388D01*
X5732682Y-14582388D02*
X5723158Y-14601436D01*
X5723158Y-14601436D02*
X5713634Y-14610960D01*
X5713634Y-14610960D02*
X5694586Y-14620484D01*
X5694586Y-14620484D02*
X5675539Y-14620484D01*
X5675539Y-14620484D02*
X5656491Y-14610960D01*
X5656491Y-14610960D02*
X5646967Y-14601436D01*
X5646967Y-14601436D02*
X5637443Y-14582388D01*
X5637443Y-14582388D02*
X5627920Y-14544293D01*
X5627920Y-14544293D02*
X5627920Y-14496674D01*
X5627920Y-14496674D02*
X5637443Y-14458579D01*
X5637443Y-14458579D02*
X5646967Y-14439531D01*
X5646967Y-14439531D02*
X5656491Y-14430008D01*
X5656491Y-14430008D02*
X5675539Y-14420484D01*
X5827920Y-14620484D02*
X5827920Y-14487150D01*
X5827920Y-14506198D02*
X5837443Y-14496674D01*
X5837443Y-14496674D02*
X5856491Y-14487150D01*
X5856491Y-14487150D02*
X5885063Y-14487150D01*
X5885063Y-14487150D02*
X5904110Y-14496674D01*
X5904110Y-14496674D02*
X5913634Y-14515722D01*
X5913634Y-14515722D02*
X5913634Y-14620484D01*
X5913634Y-14515722D02*
X5923158Y-14496674D01*
X5923158Y-14496674D02*
X5942205Y-14487150D01*
X5942205Y-14487150D02*
X5970777Y-14487150D01*
X5970777Y-14487150D02*
X5989824Y-14496674D01*
X5989824Y-14496674D02*
X5999348Y-14515722D01*
X5999348Y-14515722D02*
X5999348Y-14620484D01*
X6094586Y-14620484D02*
X6094586Y-14487150D01*
X6094586Y-14506198D02*
X6104110Y-14496674D01*
X6104110Y-14496674D02*
X6123158Y-14487150D01*
X6123158Y-14487150D02*
X6151729Y-14487150D01*
X6151729Y-14487150D02*
X6170777Y-14496674D01*
X6170777Y-14496674D02*
X6180301Y-14515722D01*
X6180301Y-14515722D02*
X6180301Y-14620484D01*
X6180301Y-14515722D02*
X6189824Y-14496674D01*
X6189824Y-14496674D02*
X6208872Y-14487150D01*
X6208872Y-14487150D02*
X6237443Y-14487150D01*
X6237443Y-14487150D02*
X6256491Y-14496674D01*
X6256491Y-14496674D02*
X6266015Y-14515722D01*
X6266015Y-14515722D02*
X6266015Y-14620484D01*
X6656491Y-14410960D02*
X6485063Y-14668103D01*
X6913634Y-14420484D02*
X6932682Y-14420484D01*
X6932682Y-14420484D02*
X6951729Y-14430008D01*
X6951729Y-14430008D02*
X6961253Y-14439531D01*
X6961253Y-14439531D02*
X6970777Y-14458579D01*
X6970777Y-14458579D02*
X6980301Y-14496674D01*
X6980301Y-14496674D02*
X6980301Y-14544293D01*
X6980301Y-14544293D02*
X6970777Y-14582388D01*
X6970777Y-14582388D02*
X6961253Y-14601436D01*
X6961253Y-14601436D02*
X6951729Y-14610960D01*
X6951729Y-14610960D02*
X6932682Y-14620484D01*
X6932682Y-14620484D02*
X6913634Y-14620484D01*
X6913634Y-14620484D02*
X6894586Y-14610960D01*
X6894586Y-14610960D02*
X6885063Y-14601436D01*
X6885063Y-14601436D02*
X6875539Y-14582388D01*
X6875539Y-14582388D02*
X6866015Y-14544293D01*
X6866015Y-14544293D02*
X6866015Y-14496674D01*
X6866015Y-14496674D02*
X6875539Y-14458579D01*
X6875539Y-14458579D02*
X6885063Y-14439531D01*
X6885063Y-14439531D02*
X6894586Y-14430008D01*
X6894586Y-14430008D02*
X6913634Y-14420484D01*
X7066015Y-14601436D02*
X7075539Y-14610960D01*
X7075539Y-14610960D02*
X7066015Y-14620484D01*
X7066015Y-14620484D02*
X7056491Y-14610960D01*
X7056491Y-14610960D02*
X7066015Y-14601436D01*
X7066015Y-14601436D02*
X7066015Y-14620484D01*
X7199348Y-14420484D02*
X7218396Y-14420484D01*
X7218396Y-14420484D02*
X7237444Y-14430008D01*
X7237444Y-14430008D02*
X7246967Y-14439531D01*
X7246967Y-14439531D02*
X7256491Y-14458579D01*
X7256491Y-14458579D02*
X7266015Y-14496674D01*
X7266015Y-14496674D02*
X7266015Y-14544293D01*
X7266015Y-14544293D02*
X7256491Y-14582388D01*
X7256491Y-14582388D02*
X7246967Y-14601436D01*
X7246967Y-14601436D02*
X7237444Y-14610960D01*
X7237444Y-14610960D02*
X7218396Y-14620484D01*
X7218396Y-14620484D02*
X7199348Y-14620484D01*
X7199348Y-14620484D02*
X7180301Y-14610960D01*
X7180301Y-14610960D02*
X7170777Y-14601436D01*
X7170777Y-14601436D02*
X7161253Y-14582388D01*
X7161253Y-14582388D02*
X7151729Y-14544293D01*
X7151729Y-14544293D02*
X7151729Y-14496674D01*
X7151729Y-14496674D02*
X7161253Y-14458579D01*
X7161253Y-14458579D02*
X7170777Y-14439531D01*
X7170777Y-14439531D02*
X7180301Y-14430008D01*
X7180301Y-14430008D02*
X7199348Y-14420484D01*
X7332682Y-14420484D02*
X7456491Y-14420484D01*
X7456491Y-14420484D02*
X7389825Y-14496674D01*
X7389825Y-14496674D02*
X7418396Y-14496674D01*
X7418396Y-14496674D02*
X7437444Y-14506198D01*
X7437444Y-14506198D02*
X7446967Y-14515722D01*
X7446967Y-14515722D02*
X7456491Y-14534769D01*
X7456491Y-14534769D02*
X7456491Y-14582388D01*
X7456491Y-14582388D02*
X7446967Y-14601436D01*
X7446967Y-14601436D02*
X7437444Y-14610960D01*
X7437444Y-14610960D02*
X7418396Y-14620484D01*
X7418396Y-14620484D02*
X7361253Y-14620484D01*
X7361253Y-14620484D02*
X7342206Y-14610960D01*
X7342206Y-14610960D02*
X7332682Y-14601436D01*
X7637444Y-14420484D02*
X7542206Y-14420484D01*
X7542206Y-14420484D02*
X7532682Y-14515722D01*
X7532682Y-14515722D02*
X7542206Y-14506198D01*
X7542206Y-14506198D02*
X7561253Y-14496674D01*
X7561253Y-14496674D02*
X7608872Y-14496674D01*
X7608872Y-14496674D02*
X7627920Y-14506198D01*
X7627920Y-14506198D02*
X7637444Y-14515722D01*
X7637444Y-14515722D02*
X7646967Y-14534769D01*
X7646967Y-14534769D02*
X7646967Y-14582388D01*
X7646967Y-14582388D02*
X7637444Y-14601436D01*
X7637444Y-14601436D02*
X7627920Y-14610960D01*
X7627920Y-14610960D02*
X7608872Y-14620484D01*
X7608872Y-14620484D02*
X7561253Y-14620484D01*
X7561253Y-14620484D02*
X7542206Y-14610960D01*
X7542206Y-14610960D02*
X7532682Y-14601436D01*
X7818396Y-14487150D02*
X7818396Y-14620484D01*
X7770777Y-14410960D02*
X7723158Y-14553817D01*
X7723158Y-14553817D02*
X7846967Y-14553817D01*
X7913634Y-14420484D02*
X7913634Y-14458579D01*
X7989825Y-14420484D02*
X7989825Y-14458579D01*
X8285063Y-14696674D02*
X8275539Y-14687150D01*
X8275539Y-14687150D02*
X8256491Y-14658579D01*
X8256491Y-14658579D02*
X8246968Y-14639531D01*
X8246968Y-14639531D02*
X8237444Y-14610960D01*
X8237444Y-14610960D02*
X8227920Y-14563341D01*
X8227920Y-14563341D02*
X8227920Y-14525246D01*
X8227920Y-14525246D02*
X8237444Y-14477627D01*
X8237444Y-14477627D02*
X8246968Y-14449055D01*
X8246968Y-14449055D02*
X8256491Y-14430008D01*
X8256491Y-14430008D02*
X8275539Y-14401436D01*
X8275539Y-14401436D02*
X8285063Y-14391912D01*
X8342206Y-14420484D02*
X8466015Y-14420484D01*
X8466015Y-14420484D02*
X8399349Y-14496674D01*
X8399349Y-14496674D02*
X8427920Y-14496674D01*
X8427920Y-14496674D02*
X8446968Y-14506198D01*
X8446968Y-14506198D02*
X8456491Y-14515722D01*
X8456491Y-14515722D02*
X8466015Y-14534769D01*
X8466015Y-14534769D02*
X8466015Y-14582388D01*
X8466015Y-14582388D02*
X8456491Y-14601436D01*
X8456491Y-14601436D02*
X8446968Y-14610960D01*
X8446968Y-14610960D02*
X8427920Y-14620484D01*
X8427920Y-14620484D02*
X8370777Y-14620484D01*
X8370777Y-14620484D02*
X8351729Y-14610960D01*
X8351729Y-14610960D02*
X8342206Y-14601436D01*
X8704111Y-14620484D02*
X8704111Y-14420484D01*
X8789825Y-14620484D02*
X8789825Y-14515722D01*
X8789825Y-14515722D02*
X8780301Y-14496674D01*
X8780301Y-14496674D02*
X8761253Y-14487150D01*
X8761253Y-14487150D02*
X8732682Y-14487150D01*
X8732682Y-14487150D02*
X8713634Y-14496674D01*
X8713634Y-14496674D02*
X8704111Y-14506198D01*
X8913634Y-14620484D02*
X8894587Y-14610960D01*
X8894587Y-14610960D02*
X8885063Y-14601436D01*
X8885063Y-14601436D02*
X8875539Y-14582388D01*
X8875539Y-14582388D02*
X8875539Y-14525246D01*
X8875539Y-14525246D02*
X8885063Y-14506198D01*
X8885063Y-14506198D02*
X8894587Y-14496674D01*
X8894587Y-14496674D02*
X8913634Y-14487150D01*
X8913634Y-14487150D02*
X8942206Y-14487150D01*
X8942206Y-14487150D02*
X8961253Y-14496674D01*
X8961253Y-14496674D02*
X8970777Y-14506198D01*
X8970777Y-14506198D02*
X8980301Y-14525246D01*
X8980301Y-14525246D02*
X8980301Y-14582388D01*
X8980301Y-14582388D02*
X8970777Y-14601436D01*
X8970777Y-14601436D02*
X8961253Y-14610960D01*
X8961253Y-14610960D02*
X8942206Y-14620484D01*
X8942206Y-14620484D02*
X8913634Y-14620484D01*
X9094587Y-14620484D02*
X9075539Y-14610960D01*
X9075539Y-14610960D02*
X9066015Y-14591912D01*
X9066015Y-14591912D02*
X9066015Y-14420484D01*
X9246968Y-14610960D02*
X9227920Y-14620484D01*
X9227920Y-14620484D02*
X9189825Y-14620484D01*
X9189825Y-14620484D02*
X9170777Y-14610960D01*
X9170777Y-14610960D02*
X9161253Y-14591912D01*
X9161253Y-14591912D02*
X9161253Y-14515722D01*
X9161253Y-14515722D02*
X9170777Y-14496674D01*
X9170777Y-14496674D02*
X9189825Y-14487150D01*
X9189825Y-14487150D02*
X9227920Y-14487150D01*
X9227920Y-14487150D02*
X9246968Y-14496674D01*
X9246968Y-14496674D02*
X9256492Y-14515722D01*
X9256492Y-14515722D02*
X9256492Y-14534769D01*
X9256492Y-14534769D02*
X9161253Y-14553817D01*
X9332682Y-14610960D02*
X9351730Y-14620484D01*
X9351730Y-14620484D02*
X9389825Y-14620484D01*
X9389825Y-14620484D02*
X9408873Y-14610960D01*
X9408873Y-14610960D02*
X9418396Y-14591912D01*
X9418396Y-14591912D02*
X9418396Y-14582388D01*
X9418396Y-14582388D02*
X9408873Y-14563341D01*
X9408873Y-14563341D02*
X9389825Y-14553817D01*
X9389825Y-14553817D02*
X9361253Y-14553817D01*
X9361253Y-14553817D02*
X9342206Y-14544293D01*
X9342206Y-14544293D02*
X9332682Y-14525246D01*
X9332682Y-14525246D02*
X9332682Y-14515722D01*
X9332682Y-14515722D02*
X9342206Y-14496674D01*
X9342206Y-14496674D02*
X9361253Y-14487150D01*
X9361253Y-14487150D02*
X9389825Y-14487150D01*
X9389825Y-14487150D02*
X9408873Y-14496674D01*
X9485063Y-14696674D02*
X9494587Y-14687150D01*
X9494587Y-14687150D02*
X9513634Y-14658579D01*
X9513634Y-14658579D02*
X9523158Y-14639531D01*
X9523158Y-14639531D02*
X9532682Y-14610960D01*
X9532682Y-14610960D02*
X9542206Y-14563341D01*
X9542206Y-14563341D02*
X9542206Y-14525246D01*
X9542206Y-14525246D02*
X9532682Y-14477627D01*
X9532682Y-14477627D02*
X9523158Y-14449055D01*
X9523158Y-14449055D02*
X9513634Y-14430008D01*
X9513634Y-14430008D02*
X9494587Y-14401436D01*
X9494587Y-14401436D02*
X9485063Y-14391912D01*
D10*
X4610000Y-14743000D02*
X4710000Y-14843000D01*
X4710000Y-14743000D02*
X4610000Y-14843000D01*
X4695356Y-14828356D02*
X4695356Y-14757644D01*
X4624644Y-14757644D01*
X4624644Y-14828356D01*
X4695356Y-14828356D01*
D11*
X5075539Y-14884484D02*
X4961253Y-14884484D01*
X5018396Y-14884484D02*
X5018396Y-14684484D01*
X5018396Y-14684484D02*
X4999348Y-14713055D01*
X4999348Y-14713055D02*
X4980301Y-14732103D01*
X4980301Y-14732103D02*
X4961253Y-14741627D01*
X5161253Y-14865436D02*
X5170777Y-14874960D01*
X5170777Y-14874960D02*
X5161253Y-14884484D01*
X5161253Y-14884484D02*
X5151729Y-14874960D01*
X5151729Y-14874960D02*
X5161253Y-14865436D01*
X5161253Y-14865436D02*
X5161253Y-14884484D01*
X5294586Y-14684484D02*
X5313634Y-14684484D01*
X5313634Y-14684484D02*
X5332682Y-14694008D01*
X5332682Y-14694008D02*
X5342205Y-14703531D01*
X5342205Y-14703531D02*
X5351729Y-14722579D01*
X5351729Y-14722579D02*
X5361253Y-14760674D01*
X5361253Y-14760674D02*
X5361253Y-14808293D01*
X5361253Y-14808293D02*
X5351729Y-14846388D01*
X5351729Y-14846388D02*
X5342205Y-14865436D01*
X5342205Y-14865436D02*
X5332682Y-14874960D01*
X5332682Y-14874960D02*
X5313634Y-14884484D01*
X5313634Y-14884484D02*
X5294586Y-14884484D01*
X5294586Y-14884484D02*
X5275539Y-14874960D01*
X5275539Y-14874960D02*
X5266015Y-14865436D01*
X5266015Y-14865436D02*
X5256491Y-14846388D01*
X5256491Y-14846388D02*
X5246967Y-14808293D01*
X5246967Y-14808293D02*
X5246967Y-14760674D01*
X5246967Y-14760674D02*
X5256491Y-14722579D01*
X5256491Y-14722579D02*
X5266015Y-14703531D01*
X5266015Y-14703531D02*
X5275539Y-14694008D01*
X5275539Y-14694008D02*
X5294586Y-14684484D01*
X5485063Y-14684484D02*
X5504110Y-14684484D01*
X5504110Y-14684484D02*
X5523158Y-14694008D01*
X5523158Y-14694008D02*
X5532682Y-14703531D01*
X5532682Y-14703531D02*
X5542205Y-14722579D01*
X5542205Y-14722579D02*
X5551729Y-14760674D01*
X5551729Y-14760674D02*
X5551729Y-14808293D01*
X5551729Y-14808293D02*
X5542205Y-14846388D01*
X5542205Y-14846388D02*
X5532682Y-14865436D01*
X5532682Y-14865436D02*
X5523158Y-14874960D01*
X5523158Y-14874960D02*
X5504110Y-14884484D01*
X5504110Y-14884484D02*
X5485063Y-14884484D01*
X5485063Y-14884484D02*
X5466015Y-14874960D01*
X5466015Y-14874960D02*
X5456491Y-14865436D01*
X5456491Y-14865436D02*
X5446967Y-14846388D01*
X5446967Y-14846388D02*
X5437444Y-14808293D01*
X5437444Y-14808293D02*
X5437444Y-14760674D01*
X5437444Y-14760674D02*
X5446967Y-14722579D01*
X5446967Y-14722579D02*
X5456491Y-14703531D01*
X5456491Y-14703531D02*
X5466015Y-14694008D01*
X5466015Y-14694008D02*
X5485063Y-14684484D01*
X5675539Y-14684484D02*
X5694586Y-14684484D01*
X5694586Y-14684484D02*
X5713634Y-14694008D01*
X5713634Y-14694008D02*
X5723158Y-14703531D01*
X5723158Y-14703531D02*
X5732682Y-14722579D01*
X5732682Y-14722579D02*
X5742205Y-14760674D01*
X5742205Y-14760674D02*
X5742205Y-14808293D01*
X5742205Y-14808293D02*
X5732682Y-14846388D01*
X5732682Y-14846388D02*
X5723158Y-14865436D01*
X5723158Y-14865436D02*
X5713634Y-14874960D01*
X5713634Y-14874960D02*
X5694586Y-14884484D01*
X5694586Y-14884484D02*
X5675539Y-14884484D01*
X5675539Y-14884484D02*
X5656491Y-14874960D01*
X5656491Y-14874960D02*
X5646967Y-14865436D01*
X5646967Y-14865436D02*
X5637443Y-14846388D01*
X5637443Y-14846388D02*
X5627920Y-14808293D01*
X5627920Y-14808293D02*
X5627920Y-14760674D01*
X5627920Y-14760674D02*
X5637443Y-14722579D01*
X5637443Y-14722579D02*
X5646967Y-14703531D01*
X5646967Y-14703531D02*
X5656491Y-14694008D01*
X5656491Y-14694008D02*
X5675539Y-14684484D01*
X5827920Y-14884484D02*
X5827920Y-14751150D01*
X5827920Y-14770198D02*
X5837443Y-14760674D01*
X5837443Y-14760674D02*
X5856491Y-14751150D01*
X5856491Y-14751150D02*
X5885063Y-14751150D01*
X5885063Y-14751150D02*
X5904110Y-14760674D01*
X5904110Y-14760674D02*
X5913634Y-14779722D01*
X5913634Y-14779722D02*
X5913634Y-14884484D01*
X5913634Y-14779722D02*
X5923158Y-14760674D01*
X5923158Y-14760674D02*
X5942205Y-14751150D01*
X5942205Y-14751150D02*
X5970777Y-14751150D01*
X5970777Y-14751150D02*
X5989824Y-14760674D01*
X5989824Y-14760674D02*
X5999348Y-14779722D01*
X5999348Y-14779722D02*
X5999348Y-14884484D01*
X6094586Y-14884484D02*
X6094586Y-14751150D01*
X6094586Y-14770198D02*
X6104110Y-14760674D01*
X6104110Y-14760674D02*
X6123158Y-14751150D01*
X6123158Y-14751150D02*
X6151729Y-14751150D01*
X6151729Y-14751150D02*
X6170777Y-14760674D01*
X6170777Y-14760674D02*
X6180301Y-14779722D01*
X6180301Y-14779722D02*
X6180301Y-14884484D01*
X6180301Y-14779722D02*
X6189824Y-14760674D01*
X6189824Y-14760674D02*
X6208872Y-14751150D01*
X6208872Y-14751150D02*
X6237443Y-14751150D01*
X6237443Y-14751150D02*
X6256491Y-14760674D01*
X6256491Y-14760674D02*
X6266015Y-14779722D01*
X6266015Y-14779722D02*
X6266015Y-14884484D01*
X6656491Y-14674960D02*
X6485063Y-14932103D01*
X6913634Y-14684484D02*
X6932682Y-14684484D01*
X6932682Y-14684484D02*
X6951729Y-14694008D01*
X6951729Y-14694008D02*
X6961253Y-14703531D01*
X6961253Y-14703531D02*
X6970777Y-14722579D01*
X6970777Y-14722579D02*
X6980301Y-14760674D01*
X6980301Y-14760674D02*
X6980301Y-14808293D01*
X6980301Y-14808293D02*
X6970777Y-14846388D01*
X6970777Y-14846388D02*
X6961253Y-14865436D01*
X6961253Y-14865436D02*
X6951729Y-14874960D01*
X6951729Y-14874960D02*
X6932682Y-14884484D01*
X6932682Y-14884484D02*
X6913634Y-14884484D01*
X6913634Y-14884484D02*
X6894586Y-14874960D01*
X6894586Y-14874960D02*
X6885063Y-14865436D01*
X6885063Y-14865436D02*
X6875539Y-14846388D01*
X6875539Y-14846388D02*
X6866015Y-14808293D01*
X6866015Y-14808293D02*
X6866015Y-14760674D01*
X6866015Y-14760674D02*
X6875539Y-14722579D01*
X6875539Y-14722579D02*
X6885063Y-14703531D01*
X6885063Y-14703531D02*
X6894586Y-14694008D01*
X6894586Y-14694008D02*
X6913634Y-14684484D01*
X7066015Y-14865436D02*
X7075539Y-14874960D01*
X7075539Y-14874960D02*
X7066015Y-14884484D01*
X7066015Y-14884484D02*
X7056491Y-14874960D01*
X7056491Y-14874960D02*
X7066015Y-14865436D01*
X7066015Y-14865436D02*
X7066015Y-14884484D01*
X7199348Y-14684484D02*
X7218396Y-14684484D01*
X7218396Y-14684484D02*
X7237444Y-14694008D01*
X7237444Y-14694008D02*
X7246967Y-14703531D01*
X7246967Y-14703531D02*
X7256491Y-14722579D01*
X7256491Y-14722579D02*
X7266015Y-14760674D01*
X7266015Y-14760674D02*
X7266015Y-14808293D01*
X7266015Y-14808293D02*
X7256491Y-14846388D01*
X7256491Y-14846388D02*
X7246967Y-14865436D01*
X7246967Y-14865436D02*
X7237444Y-14874960D01*
X7237444Y-14874960D02*
X7218396Y-14884484D01*
X7218396Y-14884484D02*
X7199348Y-14884484D01*
X7199348Y-14884484D02*
X7180301Y-14874960D01*
X7180301Y-14874960D02*
X7170777Y-14865436D01*
X7170777Y-14865436D02*
X7161253Y-14846388D01*
X7161253Y-14846388D02*
X7151729Y-14808293D01*
X7151729Y-14808293D02*
X7151729Y-14760674D01*
X7151729Y-14760674D02*
X7161253Y-14722579D01*
X7161253Y-14722579D02*
X7170777Y-14703531D01*
X7170777Y-14703531D02*
X7180301Y-14694008D01*
X7180301Y-14694008D02*
X7199348Y-14684484D01*
X7332682Y-14684484D02*
X7456491Y-14684484D01*
X7456491Y-14684484D02*
X7389825Y-14760674D01*
X7389825Y-14760674D02*
X7418396Y-14760674D01*
X7418396Y-14760674D02*
X7437444Y-14770198D01*
X7437444Y-14770198D02*
X7446967Y-14779722D01*
X7446967Y-14779722D02*
X7456491Y-14798769D01*
X7456491Y-14798769D02*
X7456491Y-14846388D01*
X7456491Y-14846388D02*
X7446967Y-14865436D01*
X7446967Y-14865436D02*
X7437444Y-14874960D01*
X7437444Y-14874960D02*
X7418396Y-14884484D01*
X7418396Y-14884484D02*
X7361253Y-14884484D01*
X7361253Y-14884484D02*
X7342206Y-14874960D01*
X7342206Y-14874960D02*
X7332682Y-14865436D01*
X7551729Y-14884484D02*
X7589825Y-14884484D01*
X7589825Y-14884484D02*
X7608872Y-14874960D01*
X7608872Y-14874960D02*
X7618396Y-14865436D01*
X7618396Y-14865436D02*
X7637444Y-14836865D01*
X7637444Y-14836865D02*
X7646967Y-14798769D01*
X7646967Y-14798769D02*
X7646967Y-14722579D01*
X7646967Y-14722579D02*
X7637444Y-14703531D01*
X7637444Y-14703531D02*
X7627920Y-14694008D01*
X7627920Y-14694008D02*
X7608872Y-14684484D01*
X7608872Y-14684484D02*
X7570777Y-14684484D01*
X7570777Y-14684484D02*
X7551729Y-14694008D01*
X7551729Y-14694008D02*
X7542206Y-14703531D01*
X7542206Y-14703531D02*
X7532682Y-14722579D01*
X7532682Y-14722579D02*
X7532682Y-14770198D01*
X7532682Y-14770198D02*
X7542206Y-14789246D01*
X7542206Y-14789246D02*
X7551729Y-14798769D01*
X7551729Y-14798769D02*
X7570777Y-14808293D01*
X7570777Y-14808293D02*
X7608872Y-14808293D01*
X7608872Y-14808293D02*
X7627920Y-14798769D01*
X7627920Y-14798769D02*
X7637444Y-14789246D01*
X7637444Y-14789246D02*
X7646967Y-14770198D01*
X7818396Y-14751150D02*
X7818396Y-14884484D01*
X7770777Y-14674960D02*
X7723158Y-14817817D01*
X7723158Y-14817817D02*
X7846967Y-14817817D01*
X7913634Y-14684484D02*
X7913634Y-14722579D01*
X7989825Y-14684484D02*
X7989825Y-14722579D01*
X8285063Y-14960674D02*
X8275539Y-14951150D01*
X8275539Y-14951150D02*
X8256491Y-14922579D01*
X8256491Y-14922579D02*
X8246968Y-14903531D01*
X8246968Y-14903531D02*
X8237444Y-14874960D01*
X8237444Y-14874960D02*
X8227920Y-14827341D01*
X8227920Y-14827341D02*
X8227920Y-14789246D01*
X8227920Y-14789246D02*
X8237444Y-14741627D01*
X8237444Y-14741627D02*
X8246968Y-14713055D01*
X8246968Y-14713055D02*
X8256491Y-14694008D01*
X8256491Y-14694008D02*
X8275539Y-14665436D01*
X8275539Y-14665436D02*
X8285063Y-14655912D01*
X8466015Y-14884484D02*
X8351729Y-14884484D01*
X8408872Y-14884484D02*
X8408872Y-14684484D01*
X8408872Y-14684484D02*
X8389825Y-14713055D01*
X8389825Y-14713055D02*
X8370777Y-14732103D01*
X8370777Y-14732103D02*
X8351729Y-14741627D01*
X8656491Y-14884484D02*
X8542206Y-14884484D01*
X8599349Y-14884484D02*
X8599349Y-14684484D01*
X8599349Y-14684484D02*
X8580301Y-14713055D01*
X8580301Y-14713055D02*
X8561253Y-14732103D01*
X8561253Y-14732103D02*
X8542206Y-14741627D01*
X8894587Y-14884484D02*
X8894587Y-14684484D01*
X8980301Y-14884484D02*
X8980301Y-14779722D01*
X8980301Y-14779722D02*
X8970777Y-14760674D01*
X8970777Y-14760674D02*
X8951730Y-14751150D01*
X8951730Y-14751150D02*
X8923158Y-14751150D01*
X8923158Y-14751150D02*
X8904111Y-14760674D01*
X8904111Y-14760674D02*
X8894587Y-14770198D01*
X9104111Y-14884484D02*
X9085063Y-14874960D01*
X9085063Y-14874960D02*
X9075539Y-14865436D01*
X9075539Y-14865436D02*
X9066015Y-14846388D01*
X9066015Y-14846388D02*
X9066015Y-14789246D01*
X9066015Y-14789246D02*
X9075539Y-14770198D01*
X9075539Y-14770198D02*
X9085063Y-14760674D01*
X9085063Y-14760674D02*
X9104111Y-14751150D01*
X9104111Y-14751150D02*
X9132682Y-14751150D01*
X9132682Y-14751150D02*
X9151730Y-14760674D01*
X9151730Y-14760674D02*
X9161253Y-14770198D01*
X9161253Y-14770198D02*
X9170777Y-14789246D01*
X9170777Y-14789246D02*
X9170777Y-14846388D01*
X9170777Y-14846388D02*
X9161253Y-14865436D01*
X9161253Y-14865436D02*
X9151730Y-14874960D01*
X9151730Y-14874960D02*
X9132682Y-14884484D01*
X9132682Y-14884484D02*
X9104111Y-14884484D01*
X9285063Y-14884484D02*
X9266015Y-14874960D01*
X9266015Y-14874960D02*
X9256492Y-14855912D01*
X9256492Y-14855912D02*
X9256492Y-14684484D01*
X9437444Y-14874960D02*
X9418396Y-14884484D01*
X9418396Y-14884484D02*
X9380301Y-14884484D01*
X9380301Y-14884484D02*
X9361253Y-14874960D01*
X9361253Y-14874960D02*
X9351730Y-14855912D01*
X9351730Y-14855912D02*
X9351730Y-14779722D01*
X9351730Y-14779722D02*
X9361253Y-14760674D01*
X9361253Y-14760674D02*
X9380301Y-14751150D01*
X9380301Y-14751150D02*
X9418396Y-14751150D01*
X9418396Y-14751150D02*
X9437444Y-14760674D01*
X9437444Y-14760674D02*
X9446968Y-14779722D01*
X9446968Y-14779722D02*
X9446968Y-14798769D01*
X9446968Y-14798769D02*
X9351730Y-14817817D01*
X9523158Y-14874960D02*
X9542206Y-14884484D01*
X9542206Y-14884484D02*
X9580301Y-14884484D01*
X9580301Y-14884484D02*
X9599349Y-14874960D01*
X9599349Y-14874960D02*
X9608873Y-14855912D01*
X9608873Y-14855912D02*
X9608873Y-14846388D01*
X9608873Y-14846388D02*
X9599349Y-14827341D01*
X9599349Y-14827341D02*
X9580301Y-14817817D01*
X9580301Y-14817817D02*
X9551730Y-14817817D01*
X9551730Y-14817817D02*
X9532682Y-14808293D01*
X9532682Y-14808293D02*
X9523158Y-14789246D01*
X9523158Y-14789246D02*
X9523158Y-14779722D01*
X9523158Y-14779722D02*
X9532682Y-14760674D01*
X9532682Y-14760674D02*
X9551730Y-14751150D01*
X9551730Y-14751150D02*
X9580301Y-14751150D01*
X9580301Y-14751150D02*
X9599349Y-14760674D01*
X9675539Y-14960674D02*
X9685063Y-14951150D01*
X9685063Y-14951150D02*
X9704111Y-14922579D01*
X9704111Y-14922579D02*
X9713634Y-14903531D01*
X9713634Y-14903531D02*
X9723158Y-14874960D01*
X9723158Y-14874960D02*
X9732682Y-14827341D01*
X9732682Y-14827341D02*
X9732682Y-14789246D01*
X9732682Y-14789246D02*
X9723158Y-14741627D01*
X9723158Y-14741627D02*
X9713634Y-14713055D01*
X9713634Y-14713055D02*
X9704111Y-14694008D01*
X9704111Y-14694008D02*
X9685063Y-14665436D01*
X9685063Y-14665436D02*
X9675539Y-14655912D01*
D19*
X4590620Y-14997310D02*
X4710000Y-15116690D01*
X4710000Y-14997310D02*
X4590620Y-15116690D01*
X4650310Y-15116690D02*
X4710000Y-15057000D01*
X4650310Y-14997310D01*
X4590620Y-15057000D01*
X4650310Y-15116690D01*
D11*
X5075539Y-15148484D02*
X4961253Y-15148484D01*
X5018396Y-15148484D02*
X5018396Y-14948484D01*
X5018396Y-14948484D02*
X4999348Y-14977055D01*
X4999348Y-14977055D02*
X4980301Y-14996103D01*
X4980301Y-14996103D02*
X4961253Y-15005627D01*
X5161253Y-15129436D02*
X5170777Y-15138960D01*
X5170777Y-15138960D02*
X5161253Y-15148484D01*
X5161253Y-15148484D02*
X5151729Y-15138960D01*
X5151729Y-15138960D02*
X5161253Y-15129436D01*
X5161253Y-15129436D02*
X5161253Y-15148484D01*
X5361253Y-15148484D02*
X5246967Y-15148484D01*
X5304110Y-15148484D02*
X5304110Y-14948484D01*
X5304110Y-14948484D02*
X5285063Y-14977055D01*
X5285063Y-14977055D02*
X5266015Y-14996103D01*
X5266015Y-14996103D02*
X5246967Y-15005627D01*
X5456491Y-15148484D02*
X5494586Y-15148484D01*
X5494586Y-15148484D02*
X5513634Y-15138960D01*
X5513634Y-15138960D02*
X5523158Y-15129436D01*
X5523158Y-15129436D02*
X5542205Y-15100865D01*
X5542205Y-15100865D02*
X5551729Y-15062769D01*
X5551729Y-15062769D02*
X5551729Y-14986579D01*
X5551729Y-14986579D02*
X5542205Y-14967531D01*
X5542205Y-14967531D02*
X5532682Y-14958008D01*
X5532682Y-14958008D02*
X5513634Y-14948484D01*
X5513634Y-14948484D02*
X5475539Y-14948484D01*
X5475539Y-14948484D02*
X5456491Y-14958008D01*
X5456491Y-14958008D02*
X5446967Y-14967531D01*
X5446967Y-14967531D02*
X5437444Y-14986579D01*
X5437444Y-14986579D02*
X5437444Y-15034198D01*
X5437444Y-15034198D02*
X5446967Y-15053246D01*
X5446967Y-15053246D02*
X5456491Y-15062769D01*
X5456491Y-15062769D02*
X5475539Y-15072293D01*
X5475539Y-15072293D02*
X5513634Y-15072293D01*
X5513634Y-15072293D02*
X5532682Y-15062769D01*
X5532682Y-15062769D02*
X5542205Y-15053246D01*
X5542205Y-15053246D02*
X5551729Y-15034198D01*
X5723158Y-15015150D02*
X5723158Y-15148484D01*
X5675539Y-14938960D02*
X5627920Y-15081817D01*
X5627920Y-15081817D02*
X5751729Y-15081817D01*
X5827920Y-15148484D02*
X5827920Y-15015150D01*
X5827920Y-15034198D02*
X5837443Y-15024674D01*
X5837443Y-15024674D02*
X5856491Y-15015150D01*
X5856491Y-15015150D02*
X5885063Y-15015150D01*
X5885063Y-15015150D02*
X5904110Y-15024674D01*
X5904110Y-15024674D02*
X5913634Y-15043722D01*
X5913634Y-15043722D02*
X5913634Y-15148484D01*
X5913634Y-15043722D02*
X5923158Y-15024674D01*
X5923158Y-15024674D02*
X5942205Y-15015150D01*
X5942205Y-15015150D02*
X5970777Y-15015150D01*
X5970777Y-15015150D02*
X5989824Y-15024674D01*
X5989824Y-15024674D02*
X5999348Y-15043722D01*
X5999348Y-15043722D02*
X5999348Y-15148484D01*
X6094586Y-15148484D02*
X6094586Y-15015150D01*
X6094586Y-15034198D02*
X6104110Y-15024674D01*
X6104110Y-15024674D02*
X6123158Y-15015150D01*
X6123158Y-15015150D02*
X6151729Y-15015150D01*
X6151729Y-15015150D02*
X6170777Y-15024674D01*
X6170777Y-15024674D02*
X6180301Y-15043722D01*
X6180301Y-15043722D02*
X6180301Y-15148484D01*
X6180301Y-15043722D02*
X6189824Y-15024674D01*
X6189824Y-15024674D02*
X6208872Y-15015150D01*
X6208872Y-15015150D02*
X6237443Y-15015150D01*
X6237443Y-15015150D02*
X6256491Y-15024674D01*
X6256491Y-15024674D02*
X6266015Y-15043722D01*
X6266015Y-15043722D02*
X6266015Y-15148484D01*
X6656491Y-14938960D02*
X6485063Y-15196103D01*
X6913634Y-14948484D02*
X6932682Y-14948484D01*
X6932682Y-14948484D02*
X6951729Y-14958008D01*
X6951729Y-14958008D02*
X6961253Y-14967531D01*
X6961253Y-14967531D02*
X6970777Y-14986579D01*
X6970777Y-14986579D02*
X6980301Y-15024674D01*
X6980301Y-15024674D02*
X6980301Y-15072293D01*
X6980301Y-15072293D02*
X6970777Y-15110388D01*
X6970777Y-15110388D02*
X6961253Y-15129436D01*
X6961253Y-15129436D02*
X6951729Y-15138960D01*
X6951729Y-15138960D02*
X6932682Y-15148484D01*
X6932682Y-15148484D02*
X6913634Y-15148484D01*
X6913634Y-15148484D02*
X6894586Y-15138960D01*
X6894586Y-15138960D02*
X6885063Y-15129436D01*
X6885063Y-15129436D02*
X6875539Y-15110388D01*
X6875539Y-15110388D02*
X6866015Y-15072293D01*
X6866015Y-15072293D02*
X6866015Y-15024674D01*
X6866015Y-15024674D02*
X6875539Y-14986579D01*
X6875539Y-14986579D02*
X6885063Y-14967531D01*
X6885063Y-14967531D02*
X6894586Y-14958008D01*
X6894586Y-14958008D02*
X6913634Y-14948484D01*
X7066015Y-15129436D02*
X7075539Y-15138960D01*
X7075539Y-15138960D02*
X7066015Y-15148484D01*
X7066015Y-15148484D02*
X7056491Y-15138960D01*
X7056491Y-15138960D02*
X7066015Y-15129436D01*
X7066015Y-15129436D02*
X7066015Y-15148484D01*
X7199348Y-14948484D02*
X7218396Y-14948484D01*
X7218396Y-14948484D02*
X7237444Y-14958008D01*
X7237444Y-14958008D02*
X7246967Y-14967531D01*
X7246967Y-14967531D02*
X7256491Y-14986579D01*
X7256491Y-14986579D02*
X7266015Y-15024674D01*
X7266015Y-15024674D02*
X7266015Y-15072293D01*
X7266015Y-15072293D02*
X7256491Y-15110388D01*
X7256491Y-15110388D02*
X7246967Y-15129436D01*
X7246967Y-15129436D02*
X7237444Y-15138960D01*
X7237444Y-15138960D02*
X7218396Y-15148484D01*
X7218396Y-15148484D02*
X7199348Y-15148484D01*
X7199348Y-15148484D02*
X7180301Y-15138960D01*
X7180301Y-15138960D02*
X7170777Y-15129436D01*
X7170777Y-15129436D02*
X7161253Y-15110388D01*
X7161253Y-15110388D02*
X7151729Y-15072293D01*
X7151729Y-15072293D02*
X7151729Y-15024674D01*
X7151729Y-15024674D02*
X7161253Y-14986579D01*
X7161253Y-14986579D02*
X7170777Y-14967531D01*
X7170777Y-14967531D02*
X7180301Y-14958008D01*
X7180301Y-14958008D02*
X7199348Y-14948484D01*
X7437444Y-15015150D02*
X7437444Y-15148484D01*
X7389825Y-14938960D02*
X7342206Y-15081817D01*
X7342206Y-15081817D02*
X7466015Y-15081817D01*
X7523158Y-14948484D02*
X7656491Y-14948484D01*
X7656491Y-14948484D02*
X7570777Y-15148484D01*
X7770777Y-14948484D02*
X7789825Y-14948484D01*
X7789825Y-14948484D02*
X7808872Y-14958008D01*
X7808872Y-14958008D02*
X7818396Y-14967531D01*
X7818396Y-14967531D02*
X7827920Y-14986579D01*
X7827920Y-14986579D02*
X7837444Y-15024674D01*
X7837444Y-15024674D02*
X7837444Y-15072293D01*
X7837444Y-15072293D02*
X7827920Y-15110388D01*
X7827920Y-15110388D02*
X7818396Y-15129436D01*
X7818396Y-15129436D02*
X7808872Y-15138960D01*
X7808872Y-15138960D02*
X7789825Y-15148484D01*
X7789825Y-15148484D02*
X7770777Y-15148484D01*
X7770777Y-15148484D02*
X7751729Y-15138960D01*
X7751729Y-15138960D02*
X7742206Y-15129436D01*
X7742206Y-15129436D02*
X7732682Y-15110388D01*
X7732682Y-15110388D02*
X7723158Y-15072293D01*
X7723158Y-15072293D02*
X7723158Y-15024674D01*
X7723158Y-15024674D02*
X7732682Y-14986579D01*
X7732682Y-14986579D02*
X7742206Y-14967531D01*
X7742206Y-14967531D02*
X7751729Y-14958008D01*
X7751729Y-14958008D02*
X7770777Y-14948484D01*
X7913634Y-14948484D02*
X7913634Y-14986579D01*
X7989825Y-14948484D02*
X7989825Y-14986579D01*
X8285063Y-15224674D02*
X8275539Y-15215150D01*
X8275539Y-15215150D02*
X8256491Y-15186579D01*
X8256491Y-15186579D02*
X8246968Y-15167531D01*
X8246968Y-15167531D02*
X8237444Y-15138960D01*
X8237444Y-15138960D02*
X8227920Y-15091341D01*
X8227920Y-15091341D02*
X8227920Y-15053246D01*
X8227920Y-15053246D02*
X8237444Y-15005627D01*
X8237444Y-15005627D02*
X8246968Y-14977055D01*
X8246968Y-14977055D02*
X8256491Y-14958008D01*
X8256491Y-14958008D02*
X8275539Y-14929436D01*
X8275539Y-14929436D02*
X8285063Y-14919912D01*
X8466015Y-15148484D02*
X8351729Y-15148484D01*
X8408872Y-15148484D02*
X8408872Y-14948484D01*
X8408872Y-14948484D02*
X8389825Y-14977055D01*
X8389825Y-14977055D02*
X8370777Y-14996103D01*
X8370777Y-14996103D02*
X8351729Y-15005627D01*
X8704111Y-15148484D02*
X8704111Y-14948484D01*
X8789825Y-15148484D02*
X8789825Y-15043722D01*
X8789825Y-15043722D02*
X8780301Y-15024674D01*
X8780301Y-15024674D02*
X8761253Y-15015150D01*
X8761253Y-15015150D02*
X8732682Y-15015150D01*
X8732682Y-15015150D02*
X8713634Y-15024674D01*
X8713634Y-15024674D02*
X8704111Y-15034198D01*
X8913634Y-15148484D02*
X8894587Y-15138960D01*
X8894587Y-15138960D02*
X8885063Y-15129436D01*
X8885063Y-15129436D02*
X8875539Y-15110388D01*
X8875539Y-15110388D02*
X8875539Y-15053246D01*
X8875539Y-15053246D02*
X8885063Y-15034198D01*
X8885063Y-15034198D02*
X8894587Y-15024674D01*
X8894587Y-15024674D02*
X8913634Y-15015150D01*
X8913634Y-15015150D02*
X8942206Y-15015150D01*
X8942206Y-15015150D02*
X8961253Y-15024674D01*
X8961253Y-15024674D02*
X8970777Y-15034198D01*
X8970777Y-15034198D02*
X8980301Y-15053246D01*
X8980301Y-15053246D02*
X8980301Y-15110388D01*
X8980301Y-15110388D02*
X8970777Y-15129436D01*
X8970777Y-15129436D02*
X8961253Y-15138960D01*
X8961253Y-15138960D02*
X8942206Y-15148484D01*
X8942206Y-15148484D02*
X8913634Y-15148484D01*
X9094587Y-15148484D02*
X9075539Y-15138960D01*
X9075539Y-15138960D02*
X9066015Y-15119912D01*
X9066015Y-15119912D02*
X9066015Y-14948484D01*
X9246968Y-15138960D02*
X9227920Y-15148484D01*
X9227920Y-15148484D02*
X9189825Y-15148484D01*
X9189825Y-15148484D02*
X9170777Y-15138960D01*
X9170777Y-15138960D02*
X9161253Y-15119912D01*
X9161253Y-15119912D02*
X9161253Y-15043722D01*
X9161253Y-15043722D02*
X9170777Y-15024674D01*
X9170777Y-15024674D02*
X9189825Y-15015150D01*
X9189825Y-15015150D02*
X9227920Y-15015150D01*
X9227920Y-15015150D02*
X9246968Y-15024674D01*
X9246968Y-15024674D02*
X9256492Y-15043722D01*
X9256492Y-15043722D02*
X9256492Y-15062769D01*
X9256492Y-15062769D02*
X9161253Y-15081817D01*
X9323158Y-15224674D02*
X9332682Y-15215150D01*
X9332682Y-15215150D02*
X9351730Y-15186579D01*
X9351730Y-15186579D02*
X9361253Y-15167531D01*
X9361253Y-15167531D02*
X9370777Y-15138960D01*
X9370777Y-15138960D02*
X9380301Y-15091341D01*
X9380301Y-15091341D02*
X9380301Y-15053246D01*
X9380301Y-15053246D02*
X9370777Y-15005627D01*
X9370777Y-15005627D02*
X9361253Y-14977055D01*
X9361253Y-14977055D02*
X9351730Y-14958008D01*
X9351730Y-14958008D02*
X9332682Y-14929436D01*
X9332682Y-14929436D02*
X9323158Y-14919912D01*
M02*
