%TF.GenerationSoftware,KiCad,Pcbnew,7.0.7*%
%TF.CreationDate,2023-11-24T19:36:33-07:00*%
%TF.ProjectId,mouse,6d6f7573-652e-46b6-9963-61645f706362,rev?*%
%TF.SameCoordinates,Original*%
%TF.FileFunction,Profile,NP*%
%FSLAX46Y46*%
G04 Gerber Fmt 4.6, Leading zero omitted, Abs format (unit mm)*
G04 Created by KiCad (PCBNEW 7.0.7) date 2023-11-24 19:36:33*
%MOMM*%
%LPD*%
G01*
G04 APERTURE LIST*
%TA.AperFunction,Profile*%
%ADD10C,0.100000*%
%TD*%
%TA.AperFunction,Profile*%
%ADD11C,0.200000*%
%TD*%
%TA.AperFunction,Profile*%
%ADD12C,0.050000*%
%TD*%
G04 APERTURE END LIST*
D10*
X71200000Y-31950000D02*
X81200000Y-31950000D01*
X81200000Y-41950000D01*
X71200000Y-41950000D01*
X71200000Y-31950000D01*
D11*
X102700000Y-105950000D02*
X77700000Y-105950000D01*
X77700000Y-119950000D01*
X74700000Y-119950000D01*
X74700000Y-105950000D01*
X50200000Y-105950000D01*
X50200000Y-104950000D01*
X73700000Y-104950000D01*
X102700000Y-104950000D01*
X102700000Y-105950000D01*
X47200000Y-20450000D02*
X105200000Y-20450000D01*
X105200000Y-122950000D01*
X47200000Y-122950000D01*
X47200000Y-20450000D01*
D12*
%TO.C,ENC1*%
X82200000Y-42350000D02*
X84300000Y-42350000D01*
X84300000Y-42350000D02*
X84300000Y-40550000D01*
X84300000Y-40550000D02*
X82200000Y-40550000D01*
X82200000Y-40550000D02*
X82200000Y-42350000D01*
X82200000Y-33350000D02*
X84300000Y-33350000D01*
X84300000Y-33350000D02*
X84300000Y-31550000D01*
X84300000Y-31550000D02*
X82200000Y-31550000D01*
X82200000Y-31550000D02*
X82200000Y-33350000D01*
%TO.C,PAW1*%
X80500000Y-49820000D02*
X71900000Y-49820000D01*
X71900000Y-49820000D02*
X71900000Y-67080000D01*
X71900000Y-67080000D02*
X80500000Y-67080000D01*
X80500000Y-67080000D02*
X80500000Y-49820000D01*
%TD*%
M02*
