%TF.GenerationSoftware,KiCad,Pcbnew,7.0.7*%
%TF.CreationDate,2023-11-24T19:36:33-07:00*%
%TF.ProjectId,mouse,6d6f7573-652e-46b6-9963-61645f706362,rev?*%
%TF.SameCoordinates,Original*%
%TF.FileFunction,Copper,L1,Top*%
%TF.FilePolarity,Positive*%
%FSLAX46Y46*%
G04 Gerber Fmt 4.6, Leading zero omitted, Abs format (unit mm)*
G04 Created by KiCad (PCBNEW 7.0.7) date 2023-11-24 19:36:33*
%MOMM*%
%LPD*%
G01*
G04 APERTURE LIST*
G04 Aperture macros list*
%AMRoundRect*
0 Rectangle with rounded corners*
0 $1 Rounding radius*
0 $2 $3 $4 $5 $6 $7 $8 $9 X,Y pos of 4 corners*
0 Add a 4 corners polygon primitive as box body*
4,1,4,$2,$3,$4,$5,$6,$7,$8,$9,$2,$3,0*
0 Add four circle primitives for the rounded corners*
1,1,$1+$1,$2,$3*
1,1,$1+$1,$4,$5*
1,1,$1+$1,$6,$7*
1,1,$1+$1,$8,$9*
0 Add four rect primitives between the rounded corners*
20,1,$1+$1,$2,$3,$4,$5,0*
20,1,$1+$1,$4,$5,$6,$7,0*
20,1,$1+$1,$6,$7,$8,$9,0*
20,1,$1+$1,$8,$9,$2,$3,0*%
G04 Aperture macros list end*
%TA.AperFunction,EtchedComponent*%
%ADD10C,0.010000*%
%TD*%
%TA.AperFunction,SMDPad,CuDef*%
%ADD11R,0.299999X0.670001*%
%TD*%
%TA.AperFunction,SMDPad,CuDef*%
%ADD12R,1.320800X0.508000*%
%TD*%
%TA.AperFunction,ComponentPad*%
%ADD13O,1.200000X1.900000*%
%TD*%
%TA.AperFunction,SMDPad,CuDef*%
%ADD14R,1.500000X1.900000*%
%TD*%
%TA.AperFunction,ComponentPad*%
%ADD15C,1.450000*%
%TD*%
%TA.AperFunction,SMDPad,CuDef*%
%ADD16R,0.400000X1.350000*%
%TD*%
%TA.AperFunction,SMDPad,CuDef*%
%ADD17R,1.000000X0.300000*%
%TD*%
%TA.AperFunction,SMDPad,CuDef*%
%ADD18R,1.300000X2.000000*%
%TD*%
%TA.AperFunction,SMDPad,CuDef*%
%ADD19RoundRect,0.100000X-0.130000X-0.100000X0.130000X-0.100000X0.130000X0.100000X-0.130000X0.100000X0*%
%TD*%
%TA.AperFunction,SMDPad,CuDef*%
%ADD20RoundRect,0.100000X-0.100000X0.130000X-0.100000X-0.130000X0.100000X-0.130000X0.100000X0.130000X0*%
%TD*%
%TA.AperFunction,SMDPad,CuDef*%
%ADD21RoundRect,0.150000X-0.512500X-0.150000X0.512500X-0.150000X0.512500X0.150000X-0.512500X0.150000X0*%
%TD*%
%TA.AperFunction,ComponentPad*%
%ADD22C,1.500000*%
%TD*%
%TA.AperFunction,ComponentPad*%
%ADD23O,1.000000X1.500000*%
%TD*%
%TA.AperFunction,SMDPad,CuDef*%
%ADD24RoundRect,0.100000X0.130000X0.100000X-0.130000X0.100000X-0.130000X-0.100000X0.130000X-0.100000X0*%
%TD*%
%TA.AperFunction,SMDPad,CuDef*%
%ADD25RoundRect,0.100000X0.100000X-0.130000X0.100000X0.130000X-0.100000X0.130000X-0.100000X-0.130000X0*%
%TD*%
%TA.AperFunction,SMDPad,CuDef*%
%ADD26R,1.300000X0.600000*%
%TD*%
%TA.AperFunction,SMDPad,CuDef*%
%ADD27R,1.397000X1.422400*%
%TD*%
%TA.AperFunction,ComponentPad*%
%ADD28O,1.500000X1.200000*%
%TD*%
%TA.AperFunction,SMDPad,CuDef*%
%ADD29R,0.977900X0.508000*%
%TD*%
%TA.AperFunction,SMDPad,CuDef*%
%ADD30R,1.500000X0.900000*%
%TD*%
%TA.AperFunction,SMDPad,CuDef*%
%ADD31R,0.900000X1.500000*%
%TD*%
%TA.AperFunction,SMDPad,CuDef*%
%ADD32R,0.900000X0.900000*%
%TD*%
%TA.AperFunction,ComponentPad*%
%ADD33C,0.400000*%
%TD*%
%TA.AperFunction,SMDPad,CuDef*%
%ADD34R,1.003300X0.508000*%
%TD*%
%TA.AperFunction,ComponentPad*%
%ADD35C,1.320800*%
%TD*%
%TA.AperFunction,ComponentPad*%
%ADD36C,1.701800*%
%TD*%
%TA.AperFunction,ComponentPad*%
%ADD37R,1.900000X1.900000*%
%TD*%
%TA.AperFunction,ComponentPad*%
%ADD38C,1.900000*%
%TD*%
%TA.AperFunction,ViaPad*%
%ADD39C,0.800000*%
%TD*%
%TA.AperFunction,Conductor*%
%ADD40C,0.250000*%
%TD*%
%TA.AperFunction,Conductor*%
%ADD41C,0.200000*%
%TD*%
G04 APERTURE END LIST*
%TO.C,J5*%
D10*
X73900000Y-22850000D02*
X72600000Y-22850000D01*
X72574000Y-22849000D01*
X72548000Y-22847000D01*
X72522000Y-22844000D01*
X72496000Y-22839000D01*
X72471000Y-22833000D01*
X72445000Y-22826000D01*
X72421000Y-22817000D01*
X72397000Y-22807000D01*
X72373000Y-22796000D01*
X72350000Y-22783000D01*
X72328000Y-22769000D01*
X72306000Y-22755000D01*
X72285000Y-22739000D01*
X72265000Y-22722000D01*
X72246000Y-22704000D01*
X72228000Y-22685000D01*
X72211000Y-22665000D01*
X72195000Y-22644000D01*
X72181000Y-22622000D01*
X72167000Y-22600000D01*
X72154000Y-22577000D01*
X72143000Y-22553000D01*
X72133000Y-22529000D01*
X72124000Y-22505000D01*
X72117000Y-22479000D01*
X72111000Y-22454000D01*
X72106000Y-22428000D01*
X72103000Y-22402000D01*
X72101000Y-22376000D01*
X72100000Y-22350000D01*
X72100000Y-21450000D01*
X72101000Y-21424000D01*
X72103000Y-21398000D01*
X72106000Y-21372000D01*
X72111000Y-21346000D01*
X72117000Y-21321000D01*
X72124000Y-21295000D01*
X72133000Y-21271000D01*
X72143000Y-21247000D01*
X72154000Y-21223000D01*
X72167000Y-21200000D01*
X72181000Y-21178000D01*
X72195000Y-21156000D01*
X72211000Y-21135000D01*
X72228000Y-21115000D01*
X72246000Y-21096000D01*
X72265000Y-21078000D01*
X72285000Y-21061000D01*
X72306000Y-21045000D01*
X72328000Y-21031000D01*
X72350000Y-21017000D01*
X72373000Y-21004000D01*
X72397000Y-20993000D01*
X72421000Y-20983000D01*
X72445000Y-20974000D01*
X72471000Y-20967000D01*
X72496000Y-20961000D01*
X72522000Y-20956000D01*
X72548000Y-20953000D01*
X72574000Y-20951000D01*
X72600000Y-20950000D01*
X73900000Y-20950000D01*
X73900000Y-22850000D01*
%TA.AperFunction,EtchedComponent*%
G36*
X73900000Y-22850000D02*
G01*
X72600000Y-22850000D01*
X72574000Y-22849000D01*
X72548000Y-22847000D01*
X72522000Y-22844000D01*
X72496000Y-22839000D01*
X72471000Y-22833000D01*
X72445000Y-22826000D01*
X72421000Y-22817000D01*
X72397000Y-22807000D01*
X72373000Y-22796000D01*
X72350000Y-22783000D01*
X72328000Y-22769000D01*
X72306000Y-22755000D01*
X72285000Y-22739000D01*
X72265000Y-22722000D01*
X72246000Y-22704000D01*
X72228000Y-22685000D01*
X72211000Y-22665000D01*
X72195000Y-22644000D01*
X72181000Y-22622000D01*
X72167000Y-22600000D01*
X72154000Y-22577000D01*
X72143000Y-22553000D01*
X72133000Y-22529000D01*
X72124000Y-22505000D01*
X72117000Y-22479000D01*
X72111000Y-22454000D01*
X72106000Y-22428000D01*
X72103000Y-22402000D01*
X72101000Y-22376000D01*
X72100000Y-22350000D01*
X72100000Y-21450000D01*
X72101000Y-21424000D01*
X72103000Y-21398000D01*
X72106000Y-21372000D01*
X72111000Y-21346000D01*
X72117000Y-21321000D01*
X72124000Y-21295000D01*
X72133000Y-21271000D01*
X72143000Y-21247000D01*
X72154000Y-21223000D01*
X72167000Y-21200000D01*
X72181000Y-21178000D01*
X72195000Y-21156000D01*
X72211000Y-21135000D01*
X72228000Y-21115000D01*
X72246000Y-21096000D01*
X72265000Y-21078000D01*
X72285000Y-21061000D01*
X72306000Y-21045000D01*
X72328000Y-21031000D01*
X72350000Y-21017000D01*
X72373000Y-21004000D01*
X72397000Y-20993000D01*
X72421000Y-20983000D01*
X72445000Y-20974000D01*
X72471000Y-20967000D01*
X72496000Y-20961000D01*
X72522000Y-20956000D01*
X72548000Y-20953000D01*
X72574000Y-20951000D01*
X72600000Y-20950000D01*
X73900000Y-20950000D01*
X73900000Y-22850000D01*
G37*
%TD.AperFunction*%
X79826000Y-20951000D02*
X79852000Y-20953000D01*
X79878000Y-20956000D01*
X79904000Y-20961000D01*
X79929000Y-20967000D01*
X79955000Y-20974000D01*
X79979000Y-20983000D01*
X80003000Y-20993000D01*
X80027000Y-21004000D01*
X80050000Y-21017000D01*
X80072000Y-21031000D01*
X80094000Y-21045000D01*
X80115000Y-21061000D01*
X80135000Y-21078000D01*
X80154000Y-21096000D01*
X80172000Y-21115000D01*
X80189000Y-21135000D01*
X80205000Y-21156000D01*
X80219000Y-21178000D01*
X80233000Y-21200000D01*
X80246000Y-21223000D01*
X80257000Y-21247000D01*
X80267000Y-21271000D01*
X80276000Y-21295000D01*
X80283000Y-21321000D01*
X80289000Y-21346000D01*
X80294000Y-21372000D01*
X80297000Y-21398000D01*
X80299000Y-21424000D01*
X80300000Y-21450000D01*
X80300000Y-22350000D01*
X80299000Y-22376000D01*
X80297000Y-22402000D01*
X80294000Y-22428000D01*
X80289000Y-22454000D01*
X80283000Y-22479000D01*
X80276000Y-22505000D01*
X80267000Y-22529000D01*
X80257000Y-22553000D01*
X80246000Y-22577000D01*
X80233000Y-22600000D01*
X80219000Y-22622000D01*
X80205000Y-22644000D01*
X80189000Y-22665000D01*
X80172000Y-22685000D01*
X80154000Y-22704000D01*
X80135000Y-22722000D01*
X80115000Y-22739000D01*
X80094000Y-22755000D01*
X80072000Y-22769000D01*
X80050000Y-22783000D01*
X80027000Y-22796000D01*
X80003000Y-22807000D01*
X79979000Y-22817000D01*
X79955000Y-22826000D01*
X79929000Y-22833000D01*
X79904000Y-22839000D01*
X79878000Y-22844000D01*
X79852000Y-22847000D01*
X79826000Y-22849000D01*
X79800000Y-22850000D01*
X78500000Y-22850000D01*
X78500000Y-20950000D01*
X79800000Y-20950000D01*
X79826000Y-20951000D01*
%TA.AperFunction,EtchedComponent*%
G36*
X79826000Y-20951000D02*
G01*
X79852000Y-20953000D01*
X79878000Y-20956000D01*
X79904000Y-20961000D01*
X79929000Y-20967000D01*
X79955000Y-20974000D01*
X79979000Y-20983000D01*
X80003000Y-20993000D01*
X80027000Y-21004000D01*
X80050000Y-21017000D01*
X80072000Y-21031000D01*
X80094000Y-21045000D01*
X80115000Y-21061000D01*
X80135000Y-21078000D01*
X80154000Y-21096000D01*
X80172000Y-21115000D01*
X80189000Y-21135000D01*
X80205000Y-21156000D01*
X80219000Y-21178000D01*
X80233000Y-21200000D01*
X80246000Y-21223000D01*
X80257000Y-21247000D01*
X80267000Y-21271000D01*
X80276000Y-21295000D01*
X80283000Y-21321000D01*
X80289000Y-21346000D01*
X80294000Y-21372000D01*
X80297000Y-21398000D01*
X80299000Y-21424000D01*
X80300000Y-21450000D01*
X80300000Y-22350000D01*
X80299000Y-22376000D01*
X80297000Y-22402000D01*
X80294000Y-22428000D01*
X80289000Y-22454000D01*
X80283000Y-22479000D01*
X80276000Y-22505000D01*
X80267000Y-22529000D01*
X80257000Y-22553000D01*
X80246000Y-22577000D01*
X80233000Y-22600000D01*
X80219000Y-22622000D01*
X80205000Y-22644000D01*
X80189000Y-22665000D01*
X80172000Y-22685000D01*
X80154000Y-22704000D01*
X80135000Y-22722000D01*
X80115000Y-22739000D01*
X80094000Y-22755000D01*
X80072000Y-22769000D01*
X80050000Y-22783000D01*
X80027000Y-22796000D01*
X80003000Y-22807000D01*
X79979000Y-22817000D01*
X79955000Y-22826000D01*
X79929000Y-22833000D01*
X79904000Y-22839000D01*
X79878000Y-22844000D01*
X79852000Y-22847000D01*
X79826000Y-22849000D01*
X79800000Y-22850000D01*
X78500000Y-22850000D01*
X78500000Y-20950000D01*
X79800000Y-20950000D01*
X79826000Y-20951000D01*
G37*
%TD.AperFunction*%
%TD*%
D11*
%TO.P,PWRSW1,1,GND*%
%TO.N,GND*%
X54950001Y-61209999D03*
%TO.P,PWRSW1,2,VOUT*%
%TO.N,PWR_OUT*%
X54450000Y-61209999D03*
%TO.P,PWRSW1,3,VIN1*%
%TO.N,VBUS*%
X53950000Y-61209999D03*
%TO.P,PWRSW1,4,PR1*%
%TO.N,Net-(PWRSW1-PR1)*%
X53449999Y-61209999D03*
%TO.P,PWRSW1,5,MODE*%
%TO.N,VBUS*%
X53449999Y-62690001D03*
%TO.P,PWRSW1,6,VIN2*%
%TO.N,+BATT*%
X53950000Y-62690001D03*
%TO.P,PWRSW1,7,VOUT*%
%TO.N,PWR_OUT*%
X54450000Y-62690001D03*
%TO.P,PWRSW1,8,ST*%
%TO.N,PWRSTAT*%
X54950001Y-62690001D03*
%TD*%
D12*
%TO.P,CHGR1,1,STAT*%
%TO.N,Net-(CHGR1-STAT)*%
X53404600Y-78999999D03*
%TO.P,CHGR1,2,VSS*%
%TO.N,Net-(CHGR1-VSS)*%
X53404600Y-79950000D03*
%TO.P,CHGR1,3,VBAT*%
%TO.N,+BATT*%
X53404600Y-80900001D03*
%TO.P,CHGR1,4,VDD*%
%TO.N,VBUS*%
X55995400Y-80900001D03*
%TO.P,CHGR1,5,PROG*%
%TO.N,GND*%
X55995400Y-78999999D03*
%TD*%
D13*
%TO.P,J5,SH6,SHIELD6*%
%TO.N,unconnected-(J5-SHIELD6-PadSH6)*%
X72700000Y-21900000D03*
D14*
%TO.P,J5,SH5,SHIELD5*%
%TO.N,GND*%
X75200000Y-21900000D03*
%TO.P,J5,SH4,SHIELD4*%
X77200000Y-21900000D03*
D13*
%TO.P,J5,SH3,SHIELD3*%
%TO.N,unconnected-(J5-SHIELD3-PadSH3)*%
X79700000Y-21900000D03*
D15*
%TO.P,J5,SH2,SHIELD2*%
%TO.N,GND*%
X73700000Y-24600000D03*
%TO.P,J5,SH1,SHIELD1*%
X78700000Y-24600000D03*
D16*
%TO.P,J5,5,GND*%
X74900000Y-24575000D03*
%TO.P,J5,4,ID*%
%TO.N,unconnected-(J5-ID-Pad4)*%
X75550000Y-24575000D03*
%TO.P,J5,3,D+*%
%TO.N,Net-(J5-D+)*%
X76200000Y-24575000D03*
%TO.P,J5,2,D-*%
%TO.N,Net-(J5-D-)*%
X76850000Y-24575000D03*
%TO.P,J5,1,VBUS*%
%TO.N,VBUS*%
X77500000Y-24575000D03*
%TD*%
D17*
%TO.P,J6,1,1*%
%TO.N,SW3_COM*%
X55200000Y-46449999D03*
%TO.P,J6,2,2*%
%TO.N,SW4_COM*%
X55200000Y-46950000D03*
%TO.P,J6,3,3*%
%TO.N,unconnected-(J6-Pad3)*%
X55200000Y-47450000D03*
%TO.P,J6,4,4*%
%TO.N,unconnected-(J6-Pad4)*%
X55200000Y-47950001D03*
D18*
%TO.P,J6,P1,P1*%
%TO.N,GND*%
X52500001Y-44150001D03*
%TO.P,J6,P2,P2*%
%TO.N,PWR_3.3V*%
X52500001Y-50249999D03*
%TD*%
%TO.P,J4,P2,P2*%
%TO.N,PWR_3.3V_OFF*%
X67949999Y-109900001D03*
%TO.P,J4,P1,P1*%
%TO.N,GND_OFF*%
X67949999Y-115999999D03*
D17*
%TO.P,J4,4,4*%
%TO.N,unconnected-(J4-Pad4)*%
X65250000Y-112199999D03*
%TO.P,J4,3,3*%
%TO.N,unconnected-(J4-Pad3)*%
X65250000Y-112700000D03*
%TO.P,J4,2,2*%
%TO.N,SW4_COM_OFF*%
X65250000Y-113200000D03*
%TO.P,J4,1,1*%
%TO.N,SW3_COM_OFF*%
X65250000Y-113700001D03*
%TD*%
D19*
%TO.P,C8,1*%
%TO.N,GND*%
X60380000Y-63950000D03*
%TO.P,C8,2*%
%TO.N,+BATT*%
X61020000Y-63950000D03*
%TD*%
D20*
%TO.P,R18,2*%
%TO.N,Net-(J5-D-)*%
X80200000Y-29925000D03*
%TO.P,R18,1*%
%TO.N,USB_D-*%
X80200000Y-29285000D03*
%TD*%
%TO.P,R7,1*%
%TO.N,Net-(C12-Pad2)*%
X57200000Y-86630000D03*
%TO.P,R7,2*%
%TO.N,Net-(C13-Pad2)*%
X57200000Y-87270000D03*
%TD*%
D21*
%TO.P,U1,1,VIN*%
%TO.N,PWR_OUT*%
X53682500Y-73000000D03*
%TO.P,U1,2,GND*%
%TO.N,GND*%
X53682500Y-73950000D03*
%TO.P,U1,3,EN*%
%TO.N,PWR_EN*%
X53682500Y-74900000D03*
%TO.P,U1,4,NC*%
%TO.N,unconnected-(U1-NC-Pad4)*%
X55957500Y-74900000D03*
%TO.P,U1,5,VOUT*%
%TO.N,PWR_3.3V*%
X55957500Y-73000000D03*
%TD*%
D19*
%TO.P,C18,1*%
%TO.N,Net-(D6-A)*%
X61380000Y-99450000D03*
%TO.P,C18,2*%
%TO.N,GND*%
X62020000Y-99450000D03*
%TD*%
D22*
%TO.P,J3,1*%
%TO.N,TMS*%
X90700000Y-78780000D03*
%TO.P,J3,2*%
%TO.N,TDI*%
X92700000Y-78780000D03*
%TO.P,J3,3*%
%TO.N,TCK*%
X94700000Y-78780000D03*
%TO.P,J3,4*%
%TO.N,TDO*%
X96700000Y-78780000D03*
%TD*%
D23*
%TO.P,MMB1,1,COM*%
%TO.N,SCROLL_CLICK*%
X65200000Y-33370000D03*
%TO.P,MMB1,2,NO*%
%TO.N,PWR_3.3V*%
X65200000Y-38450000D03*
%TO.P,MMB1,3,NC*%
%TO.N,GND*%
X65200000Y-43530000D03*
%TD*%
D19*
%TO.P,D8,1,K*%
%TO.N,Net-(D8-K)*%
X81380000Y-95950000D03*
%TO.P,D8,2,A*%
%TO.N,Net-(D8-A)*%
X82020000Y-95950000D03*
%TD*%
D24*
%TO.P,R2,1*%
%TO.N,Net-(D2-K)*%
X53520000Y-77450000D03*
%TO.P,R2,2*%
%TO.N,Net-(CHGR1-STAT)*%
X52880000Y-77450000D03*
%TD*%
%TO.P,R10,1*%
%TO.N,XTAL2*%
X59020000Y-88450000D03*
%TO.P,R10,2*%
%TO.N,Net-(C13-Pad2)*%
X58380000Y-88450000D03*
%TD*%
D25*
%TO.P,C9,1*%
%TO.N,GND*%
X56700000Y-56590000D03*
%TO.P,C9,2*%
%TO.N,VBUS*%
X56700000Y-55950000D03*
%TD*%
D19*
%TO.P,C5,1*%
%TO.N,PWR_3.3V*%
X65560000Y-59450000D03*
%TO.P,C5,2*%
%TO.N,GND1*%
X66200000Y-59450000D03*
%TD*%
D26*
%TO.P,Q8,1,B*%
%TO.N,LED_G*%
X69600000Y-95000000D03*
%TO.P,Q8,2,E*%
%TO.N,GND*%
X69600000Y-96900000D03*
%TO.P,Q8,3,C*%
%TO.N,Net-(D7-K)*%
X71700000Y-95950000D03*
%TD*%
D20*
%TO.P,R17,1*%
%TO.N,USB_D+*%
X81200000Y-30130000D03*
%TO.P,R17,2*%
%TO.N,Net-(J5-D+)*%
X81200000Y-30770000D03*
%TD*%
D19*
%TO.P,C11,1*%
%TO.N,GND*%
X65380000Y-66950000D03*
%TO.P,C11,2*%
%TO.N,PWR_3.3V*%
X66020000Y-66950000D03*
%TD*%
%TO.P,C15,1*%
%TO.N,GND*%
X52380000Y-91450000D03*
%TO.P,C15,2*%
%TO.N,PWR_5V*%
X53020000Y-91450000D03*
%TD*%
D24*
%TO.P,R9,1*%
%TO.N,XTAL1*%
X59020000Y-85450000D03*
%TO.P,R9,2*%
%TO.N,Net-(C12-Pad2)*%
X58380000Y-85450000D03*
%TD*%
D19*
%TO.P,R24,1*%
%TO.N,PWR_5V*%
X82380000Y-99450000D03*
%TO.P,R24,2*%
%TO.N,Net-(D8-A)*%
X83020000Y-99450000D03*
%TD*%
%TO.P,C19,1*%
%TO.N,Net-(D7-A)*%
X69380000Y-99450000D03*
%TO.P,C19,2*%
%TO.N,GND*%
X70020000Y-99450000D03*
%TD*%
%TO.P,C14,1*%
%TO.N,GND*%
X60380000Y-66950000D03*
%TO.P,C14,2*%
%TO.N,EN*%
X61020000Y-66950000D03*
%TD*%
%TO.P,R11,1*%
%TO.N,LED_P*%
X88700000Y-55950000D03*
%TO.P,R11,2*%
%TO.N,Net-(D1-A)*%
X89340000Y-55950000D03*
%TD*%
D22*
%TO.P,ENC1,1,A*%
%TO.N,SCROLL_UP*%
X85200000Y-39450000D03*
%TO.P,ENC1,2,B*%
%TO.N,SCROLL_DOWN*%
X85200000Y-36950000D03*
%TO.P,ENC1,3,COM*%
%TO.N,GND*%
X85200000Y-34450000D03*
%TD*%
D26*
%TO.P,Q7,1,B*%
%TO.N,LED_R*%
X61600000Y-95000000D03*
%TO.P,Q7,2,E*%
%TO.N,GND*%
X61600000Y-96900000D03*
%TO.P,Q7,3,C*%
%TO.N,Net-(D6-K)*%
X63700000Y-95950000D03*
%TD*%
D24*
%TO.P,R8,1*%
%TO.N,PWR_3.3V*%
X63200000Y-66950000D03*
%TO.P,R8,2*%
%TO.N,EN*%
X62560000Y-66950000D03*
%TD*%
D23*
%TO.P,LMB1,1,COM*%
%TO.N,SW1_COM*%
X58700000Y-27870000D03*
%TO.P,LMB1,2,NO*%
%TO.N,PWR_3.3V*%
X58700000Y-32950000D03*
%TO.P,LMB1,3,NC*%
%TO.N,GND*%
X58700000Y-38030000D03*
%TD*%
D27*
%TO.P,XTAL1,1,1*%
%TO.N,Net-(C12-Pad2)*%
X54700000Y-85857800D03*
%TO.P,XTAL1,2,2*%
%TO.N,Net-(C13-Pad2)*%
X54700000Y-88042200D03*
%TD*%
D19*
%TO.P,C20,1*%
%TO.N,Net-(D8-A)*%
X77380000Y-99450000D03*
%TO.P,C20,2*%
%TO.N,GND*%
X78020000Y-99450000D03*
%TD*%
D26*
%TO.P,Q9,1,B*%
%TO.N,LED_B*%
X77600000Y-95000000D03*
%TO.P,Q9,2,E*%
%TO.N,GND*%
X77600000Y-96900000D03*
%TO.P,Q9,3,C*%
%TO.N,Net-(D8-K)*%
X79700000Y-95950000D03*
%TD*%
D19*
%TO.P,D6,1,K*%
%TO.N,Net-(D6-K)*%
X65380000Y-95950000D03*
%TO.P,D6,2,A*%
%TO.N,Net-(D6-A)*%
X66020000Y-95950000D03*
%TD*%
%TO.P,C7,1*%
%TO.N,Net-(D1-A)*%
X92225000Y-58450000D03*
%TO.P,C7,2*%
%TO.N,GND*%
X92865000Y-58450000D03*
%TD*%
D23*
%TO.P,RMB1,1,COM*%
%TO.N,SW2_COM*%
X94200000Y-27940000D03*
%TO.P,RMB1,2,NO*%
%TO.N,PWR_3.3V*%
X94200000Y-33020000D03*
%TO.P,RMB1,3,NC*%
%TO.N,GND*%
X94200000Y-38100000D03*
%TD*%
D22*
%TO.P,J1,1*%
%TO.N,GND*%
X90700000Y-72430000D03*
%TO.P,J1,2*%
%TO.N,RXD0*%
X92700000Y-72430000D03*
%TO.P,J1,3*%
%TO.N,TXD0*%
X94700000Y-72430000D03*
%TO.P,J1,4*%
%TO.N,PWR_3.3V*%
X96700000Y-72430000D03*
%TD*%
D19*
%TO.P,C10,1*%
%TO.N,GND*%
X65380000Y-63950000D03*
%TO.P,C10,2*%
%TO.N,PWR_3.3V*%
X66020000Y-63950000D03*
%TD*%
%TO.P,D2,1,K*%
%TO.N,Net-(D2-K)*%
X56035000Y-77450000D03*
%TO.P,D2,2,A*%
%TO.N,VBUS*%
X56675000Y-77450000D03*
%TD*%
D28*
%TO.P,PAW1,1,NC1*%
%TO.N,unconnected-(PAW1-NC1-Pad1)*%
X70850000Y-50950000D03*
%TO.P,PAW1,2,NC2*%
%TO.N,unconnected-(PAW1-NC2-Pad2)*%
X70850000Y-52730000D03*
%TO.P,PAW1,3,GND*%
%TO.N,GND*%
X70850000Y-54510000D03*
%TO.P,PAW1,4,VDD*%
%TO.N,PWR_1.9V*%
X70850000Y-56290000D03*
%TO.P,PAW1,5,VDDREG*%
%TO.N,VDDREG*%
X70850000Y-58070000D03*
%TO.P,PAW1,6,NC6*%
%TO.N,unconnected-(PAW1-NC6-Pad6)*%
X70850000Y-59850000D03*
%TO.P,PAW1,7,VDDIO*%
%TO.N,PWR_3.3V*%
X70850000Y-61630000D03*
%TO.P,PAW1,8,GNDIO*%
%TO.N,GND1*%
X70850000Y-63410000D03*
%TO.P,PAW1,9,MOTION*%
%TO.N,MOTION*%
X81550000Y-64300000D03*
%TO.P,PAW1,10,SCLK*%
%TO.N,SCLK*%
X81550000Y-62520000D03*
%TO.P,PAW1,11,MOSI*%
%TO.N,MOSI*%
X81550000Y-60740000D03*
%TO.P,PAW1,12,MISO*%
%TO.N,MISO*%
X81550000Y-58960000D03*
%TO.P,PAW1,13,NCS*%
%TO.N,NCS*%
X81550000Y-57180000D03*
%TO.P,PAW1,14,NRESET*%
%TO.N,NRESET*%
X81550000Y-55400000D03*
%TO.P,PAW1,15,LED_P*%
%TO.N,LED_P*%
X81550000Y-53620000D03*
%TO.P,PAW1,16,NC16*%
%TO.N,unconnected-(PAW1-NC16-Pad16)*%
X81550000Y-51840000D03*
%TD*%
D20*
%TO.P,R4,1*%
%TO.N,VBUS*%
X55700000Y-59630000D03*
%TO.P,R4,2*%
%TO.N,Net-(PWRSW1-PR1)*%
X55700000Y-60270000D03*
%TD*%
D19*
%TO.P,R15,1*%
%TO.N,SCROLL_UP*%
X88380000Y-39450000D03*
%TO.P,R15,2*%
%TO.N,PWR_3.3V*%
X89020000Y-39450000D03*
%TD*%
D29*
%TO.P,U2,1,VIN*%
%TO.N,PWR_OUT*%
X53200000Y-95549998D03*
%TO.P,U2,2,GND*%
%TO.N,GND*%
X53200000Y-96499999D03*
%TO.P,U2,3,EN*%
%TO.N,PWR_5V_EN*%
X53200000Y-97450000D03*
%TO.P,U2,4,BYP*%
%TO.N,GND*%
X55930500Y-97450000D03*
%TO.P,U2,5,VOUT*%
%TO.N,PWR_5V*%
X55930500Y-95549998D03*
%TD*%
D19*
%TO.P,R16,1*%
%TO.N,SCROLL_DOWN*%
X88380000Y-36950000D03*
%TO.P,R16,2*%
%TO.N,PWR_3.3V*%
X89020000Y-36950000D03*
%TD*%
D23*
%TO.P,SMB5,1,COM*%
%TO.N,SW4_COM_OFF*%
X53200000Y-109370000D03*
%TO.P,SMB5,2,NO*%
%TO.N,PWR_3.3V_OFF*%
X53200000Y-114450000D03*
%TO.P,SMB5,3,NC*%
%TO.N,GND_OFF*%
X53200000Y-119530000D03*
%TD*%
%TO.P,SMB4,3,NC*%
%TO.N,GND_OFF*%
X60200000Y-119530000D03*
%TO.P,SMB4,2,NO*%
%TO.N,PWR_3.3V_OFF*%
X60200000Y-114450000D03*
%TO.P,SMB4,1,COM*%
%TO.N,SW3_COM_OFF*%
X60200000Y-109370000D03*
%TD*%
D19*
%TO.P,C4,1*%
%TO.N,GND1*%
X62200000Y-57450000D03*
%TO.P,C4,2*%
%TO.N,VDDREG*%
X62840000Y-57450000D03*
%TD*%
D30*
%TO.P,ESP1,1,GND*%
%TO.N,GND*%
X63550000Y-72430000D03*
%TO.P,ESP1,2,3V3*%
%TO.N,PWR_3.3V*%
X63550000Y-73700000D03*
%TO.P,ESP1,3,EN*%
%TO.N,EN*%
X63550000Y-74970000D03*
%TO.P,ESP1,4,IO4*%
%TO.N,SW1_COM*%
X63550000Y-76240000D03*
%TO.P,ESP1,5,IO5*%
%TO.N,SW2_COM*%
X63550000Y-77510000D03*
%TO.P,ESP1,6,IO6*%
%TO.N,SW3_COM*%
X63550000Y-78780000D03*
%TO.P,ESP1,7,IO7*%
%TO.N,SW4_COM*%
X63550000Y-80050000D03*
%TO.P,ESP1,8,XTALP*%
%TO.N,XTAL1*%
X63550000Y-81320000D03*
%TO.P,ESP1,9,XTALN*%
%TO.N,XTAL2*%
X63550000Y-82590000D03*
%TO.P,ESP1,10,IO17*%
%TO.N,SCROLL_CLICK*%
X63550000Y-83860000D03*
%TO.P,ESP1,11,IO18*%
%TO.N,SCROLL_UP*%
X63550000Y-85130000D03*
%TO.P,ESP1,12,IO8*%
%TO.N,SCROLL_DOWN*%
X63550000Y-86400000D03*
%TO.P,ESP1,13,USB_D-*%
%TO.N,USB_D-*%
X63550000Y-87670000D03*
%TO.P,ESP1,14,USB_D+*%
%TO.N,USB_D+*%
X63550000Y-88940000D03*
D31*
%TO.P,ESP1,15,IO3*%
%TO.N,LED_R*%
X65315000Y-90190000D03*
%TO.P,ESP1,16,IO46*%
%TO.N,LED_G*%
X66585000Y-90190000D03*
%TO.P,ESP1,17,IO9*%
%TO.N,LED_B*%
X67855000Y-90190000D03*
%TO.P,ESP1,18,IO10*%
%TO.N,PWR_5V_EN*%
X69125000Y-90190000D03*
%TO.P,ESP1,19,IO11*%
%TO.N,unconnected-(ESP1-IO11-Pad19)*%
X70395000Y-90190000D03*
%TO.P,ESP1,20,IO12*%
%TO.N,unconnected-(ESP1-IO12-Pad20)*%
X71665000Y-90190000D03*
%TO.P,ESP1,21,IO13*%
%TO.N,unconnected-(ESP1-IO13-Pad21)*%
X72935000Y-90190000D03*
%TO.P,ESP1,22,IO14*%
%TO.N,unconnected-(ESP1-IO14-Pad22)*%
X74205000Y-90190000D03*
%TO.P,ESP1,23,IO21*%
%TO.N,unconnected-(ESP1-IO21-Pad23)*%
X75475000Y-90190000D03*
%TO.P,ESP1,24,IO47*%
%TO.N,unconnected-(ESP1-IO47-Pad24)*%
X76745000Y-90190000D03*
%TO.P,ESP1,25,IO48*%
%TO.N,unconnected-(ESP1-IO48-Pad25)*%
X78015000Y-90190000D03*
%TO.P,ESP1,26,IO45*%
%TO.N,unconnected-(ESP1-IO45-Pad26)*%
X79285000Y-90190000D03*
D30*
%TO.P,ESP1,27,NCS*%
%TO.N,NCS*%
X81050000Y-88940000D03*
%TO.P,ESP1,28,MOSI*%
%TO.N,MOSI*%
X81050000Y-87670000D03*
%TO.P,ESP1,29,SCLK*%
%TO.N,SCLK*%
X81050000Y-86400000D03*
%TO.P,ESP1,30,MISO*%
%TO.N,MISO*%
X81050000Y-85130000D03*
%TO.P,ESP1,31,NRESET*%
%TO.N,NRESET*%
X81050000Y-83860000D03*
%TO.P,ESP1,32,MTCK*%
%TO.N,TCK*%
X81050000Y-82590000D03*
%TO.P,ESP1,33,MTDO*%
%TO.N,TDO*%
X81050000Y-81320000D03*
%TO.P,ESP1,34,MTDI*%
%TO.N,TDI*%
X81050000Y-80050000D03*
%TO.P,ESP1,35,MTMS*%
%TO.N,TMS*%
X81050000Y-78780000D03*
%TO.P,ESP1,36,RXD0*%
%TO.N,RXD0*%
X81050000Y-77510000D03*
%TO.P,ESP1,37,TXD0*%
%TO.N,TXD0*%
X81050000Y-76240000D03*
%TO.P,ESP1,38,IO2*%
%TO.N,MOTION*%
X81050000Y-74970000D03*
%TO.P,ESP1,39,IO1*%
%TO.N,unconnected-(ESP1-IO1-Pad39)*%
X81050000Y-73700000D03*
%TO.P,ESP1,40,GND*%
%TO.N,GND*%
X81050000Y-72430000D03*
D32*
%TO.P,ESP1,41_1,GND*%
X69400000Y-78750000D03*
%TO.P,ESP1,41_2,GND*%
X70800000Y-78750000D03*
%TO.P,ESP1,41_3,GND*%
X72200000Y-78750000D03*
%TO.P,ESP1,41_4,GND*%
X69400000Y-80150000D03*
%TO.P,ESP1,41_5,GND*%
X70800000Y-80150000D03*
%TO.P,ESP1,41_6,GND*%
X72200000Y-80150000D03*
%TO.P,ESP1,41_7,GND*%
X69400000Y-81550000D03*
%TO.P,ESP1,41_8,GND*%
X70800000Y-81550000D03*
%TO.P,ESP1,41_9,GND*%
X72200000Y-81550000D03*
D33*
%TO.P,ESP1,41_10*%
%TO.N,N/C*%
X70100000Y-78750000D03*
%TO.P,ESP1,41_11*%
X71500000Y-78750000D03*
%TO.P,ESP1,41_12*%
X69400000Y-79450000D03*
%TO.P,ESP1,41_13*%
X70800000Y-79450000D03*
%TO.P,ESP1,41_14*%
X72200000Y-79450000D03*
%TO.P,ESP1,41_15*%
X70100000Y-80150000D03*
%TO.P,ESP1,41_16*%
X71500000Y-80150000D03*
%TO.P,ESP1,41_17*%
X69400000Y-80850000D03*
%TO.P,ESP1,41_18*%
X70800000Y-80850000D03*
%TO.P,ESP1,41_19*%
X72200000Y-80850000D03*
%TO.P,ESP1,41_20*%
X70100000Y-81550000D03*
%TO.P,ESP1,41_21*%
X71500000Y-81550000D03*
%TD*%
D19*
%TO.P,C6,1*%
%TO.N,GND1*%
X62200000Y-59450000D03*
%TO.P,C6,2*%
%TO.N,PWR_3.3V*%
X62840000Y-59450000D03*
%TD*%
D20*
%TO.P,C1,1*%
%TO.N,GND*%
X65700000Y-55650000D03*
%TO.P,C1,2*%
%TO.N,PWR_1.9V*%
X65700000Y-56290000D03*
%TD*%
D19*
%TO.P,D7,1,K*%
%TO.N,Net-(D7-K)*%
X73380000Y-95950000D03*
%TO.P,D7,2,A*%
%TO.N,Net-(D7-A)*%
X74020000Y-95950000D03*
%TD*%
%TO.P,C16,1*%
%TO.N,GND*%
X52380000Y-92950000D03*
%TO.P,C16,2*%
%TO.N,PWR_5V*%
X53020000Y-92950000D03*
%TD*%
%TO.P,C12,1*%
%TO.N,GND*%
X52380000Y-83950000D03*
%TO.P,C12,2*%
%TO.N,Net-(C12-Pad2)*%
X53020000Y-83950000D03*
%TD*%
%TO.P,R1,1*%
%TO.N,MISO*%
X88687701Y-58450000D03*
%TO.P,R1,2*%
%TO.N,PWR_3.3V*%
X89327701Y-58450000D03*
%TD*%
%TO.P,R22,1*%
%TO.N,PWR_5V*%
X66380000Y-99450000D03*
%TO.P,R22,2*%
%TO.N,Net-(D6-A)*%
X67020000Y-99450000D03*
%TD*%
D34*
%TO.P,U3,1,VIN*%
%TO.N,PWR_OUT*%
X53442050Y-66999999D03*
%TO.P,U3,2,GND*%
%TO.N,GND*%
X53442050Y-67950000D03*
%TO.P,U3,3,EN*%
%TO.N,PWR_EN*%
X53442050Y-68900001D03*
%TO.P,U3,4,GND*%
%TO.N,GND*%
X56197950Y-68900001D03*
%TO.P,U3,5,VOUT*%
%TO.N,PWR_1.9V*%
X56197950Y-66999999D03*
%TD*%
D25*
%TO.P,C2,1*%
%TO.N,PWR_1.9V*%
X63200000Y-56290000D03*
%TO.P,C2,2*%
%TO.N,GND*%
X63200000Y-55650000D03*
%TD*%
D24*
%TO.P,D1,1,K*%
%TO.N,GND*%
X92865000Y-55950000D03*
%TO.P,D1,2,A*%
%TO.N,Net-(D1-A)*%
X92225000Y-55950000D03*
%TD*%
D25*
%TO.P,R6,1*%
%TO.N,PWR_OUT*%
X54950001Y-65450000D03*
%TO.P,R6,2*%
%TO.N,PWRSTAT*%
X54950001Y-64810000D03*
%TD*%
D35*
%TO.P,J2,1,1*%
%TO.N,+BATT*%
X96200002Y-62950000D03*
%TO.P,J2,2,2*%
%TO.N,GND*%
X94200000Y-62950000D03*
D36*
%TO.P,J2,3*%
%TO.N,N/C*%
X97700001Y-61250000D03*
%TD*%
D19*
%TO.P,C3,1*%
%TO.N,VDDREG*%
X65560000Y-57450000D03*
%TO.P,C3,2*%
%TO.N,GND1*%
X66200000Y-57450000D03*
%TD*%
D20*
%TO.P,R5,1*%
%TO.N,GND*%
X56700000Y-59630000D03*
%TO.P,R5,2*%
%TO.N,Net-(PWRSW1-PR1)*%
X56700000Y-60270000D03*
%TD*%
D37*
%TO.P,S4,1*%
%TO.N,PWR_EN*%
X96200000Y-85950000D03*
D38*
%TO.P,S4,2*%
%TO.N,PWR_OUT*%
X93700000Y-85950000D03*
%TO.P,S4,3*%
%TO.N,GND*%
X91200000Y-85950000D03*
%TD*%
D19*
%TO.P,R3,1*%
%TO.N,GND*%
X62880000Y-63950000D03*
%TO.P,R3,2*%
%TO.N,Net-(CHGR1-VSS)*%
X63520000Y-63950000D03*
%TD*%
%TO.P,R23,1*%
%TO.N,PWR_5V*%
X74380000Y-99450000D03*
%TO.P,R23,2*%
%TO.N,Net-(D7-A)*%
X75020000Y-99450000D03*
%TD*%
%TO.P,C13,1*%
%TO.N,GND*%
X52380000Y-89950000D03*
%TO.P,C13,2*%
%TO.N,Net-(C13-Pad2)*%
X53020000Y-89950000D03*
%TD*%
D39*
%TO.N,SW3_COM_OFF*%
X63200000Y-113700001D03*
%TO.N,SW4_COM*%
X57700000Y-75450000D03*
X57200000Y-47950000D03*
%TO.N,SW3_COM*%
X58200000Y-49450000D03*
%TO.N,GND*%
X59200000Y-76450000D03*
%TO.N,SW3_COM*%
X61200000Y-78780000D03*
%TO.N,VBUS*%
X55995400Y-81950000D03*
%TO.N,+BATT*%
X78700000Y-68950000D03*
%TO.N,SCROLL_DOWN*%
X89200000Y-46950000D03*
X86200000Y-46950000D03*
X89200000Y-43450000D03*
X76200000Y-86400000D03*
%TO.N,SCROLL_UP*%
X74700000Y-85130000D03*
%TO.N,SCROLL_DOWN*%
X86200000Y-64950000D03*
%TO.N,SCROLL_UP*%
X88380000Y-40950000D03*
%TO.N,SCROLL_DOWN*%
X88380000Y-35450000D03*
%TO.N,SCROLL_UP*%
X85200000Y-62950000D03*
%TO.N,GND*%
X87200000Y-69950000D03*
%TO.N,SW1_COM*%
X66200000Y-80450000D03*
%TO.N,SCROLL_CLICK*%
X67200000Y-83950000D03*
X65200000Y-27950000D03*
%TO.N,SW2_COM*%
X66760000Y-77510000D03*
X101200000Y-91950000D03*
%TO.N,USB_D-*%
X69700000Y-87670000D03*
X100200000Y-90950000D03*
%TO.N,USB_D+*%
X71200000Y-87950000D03*
X99200000Y-89950000D03*
%TO.N,PWR_1.9V*%
X61200000Y-61450000D03*
X61200000Y-56290000D03*
X56200000Y-62450000D03*
%TO.N,VDDREG*%
X64200000Y-53450000D03*
X68200000Y-53450000D03*
X64200000Y-57450000D03*
%TO.N,GND1*%
X62200000Y-58450000D03*
X68200000Y-58450000D03*
X66200000Y-58450000D03*
%TO.N,+BATT*%
X51924500Y-80900001D03*
X68200000Y-68950000D03*
X96200000Y-68950000D03*
X61020000Y-64950000D03*
X52200000Y-63950000D03*
%TO.N,VBUS*%
X49200000Y-62690001D03*
X52200000Y-62690001D03*
X56700000Y-76450000D03*
X51924500Y-81950000D03*
X49200000Y-76450000D03*
X52450000Y-57200000D03*
X53700000Y-55950000D03*
X49200000Y-81950000D03*
X78700000Y-28950000D03*
X55700000Y-55950000D03*
%TO.N,Net-(C12-Pad2)*%
X57200000Y-85450000D03*
X54700000Y-83950000D03*
%TO.N,Net-(C13-Pad2)*%
X54700000Y-89950000D03*
X57200000Y-88450000D03*
%TO.N,EN*%
X61700000Y-73450000D03*
X61020000Y-71450000D03*
%TO.N,Net-(D6-A)*%
X67020000Y-98450000D03*
X67020000Y-95950000D03*
%TO.N,Net-(D7-A)*%
X75020000Y-95950000D03*
X75020000Y-98450000D03*
%TO.N,Net-(D8-A)*%
X83020000Y-95950000D03*
X83020000Y-98450000D03*
%TO.N,Net-(CHGR1-STAT)*%
X51924500Y-78999999D03*
X51924500Y-77450000D03*
%TO.N,Net-(CHGR1-VSS)*%
X64550500Y-63950000D03*
X64550500Y-69950000D03*
X60200000Y-73450000D03*
X60200000Y-77450000D03*
X60200000Y-69950000D03*
X57700000Y-79950000D03*
%TO.N,XTAL1*%
X60700000Y-81320000D03*
%TO.N,XTAL2*%
X61700000Y-82590000D03*
%TO.N,PWR_5V_EN*%
X51924500Y-98950000D03*
X59700000Y-98950000D03*
X69125000Y-92950000D03*
X51924500Y-97450000D03*
X59712299Y-92950000D03*
%TO.N,NCS*%
X89700000Y-66450000D03*
X89700000Y-60950000D03*
X85200000Y-88950000D03*
X85200000Y-69950000D03*
X85200000Y-67450000D03*
%TO.N,MOSI*%
X84200000Y-87670000D03*
X84200000Y-70450000D03*
X84200000Y-60740000D03*
%TO.N,SCLK*%
X83200000Y-86400000D03*
X83200000Y-62520000D03*
X83200000Y-69950000D03*
%TO.N,MISO*%
X88687701Y-60962299D03*
X88687701Y-66437701D03*
X86200000Y-85130000D03*
X86200000Y-66450000D03*
X86200000Y-70450000D03*
%TO.N,NRESET*%
X79200000Y-71450000D03*
X79200000Y-83860000D03*
X90700000Y-66450000D03*
X90700000Y-60950000D03*
%TO.N,TCK*%
X94700000Y-82590000D03*
%TO.N,RXD0*%
X89200000Y-77510000D03*
%TO.N,MOTION*%
X77700000Y-74970000D03*
X81550000Y-69950000D03*
%TO.N,LED_P*%
X88700000Y-53620000D03*
%TO.N,PWR_OUT*%
X51200000Y-66999999D03*
X51200000Y-95549998D03*
X51200000Y-101950000D03*
X93700000Y-101950000D03*
X51200000Y-73000000D03*
X53700000Y-65450000D03*
X51200000Y-65450000D03*
%TO.N,Net-(PWRSW1-PR1)*%
X52200000Y-61209999D03*
X56700000Y-61209999D03*
%TO.N,PWR_EN*%
X96200000Y-102950000D03*
X52200000Y-68900001D03*
X50200000Y-74900000D03*
X50200000Y-102950000D03*
X52200000Y-74900000D03*
X50200000Y-68900001D03*
%TO.N,GND*%
X78020000Y-100950000D03*
X52380000Y-94450000D03*
X87200000Y-34450000D03*
X70020000Y-100950000D03*
X68700000Y-30450000D03*
X59200000Y-66950000D03*
X69400000Y-72430000D03*
X58700000Y-46450000D03*
X59200000Y-72450000D03*
X59200000Y-73950000D03*
X74900000Y-30450000D03*
X52380000Y-82950000D03*
X87200000Y-100950000D03*
X58200000Y-78999999D03*
X59200000Y-82950000D03*
X94200000Y-58450000D03*
X62880000Y-62450000D03*
X87200000Y-49450000D03*
X56700000Y-58450000D03*
X68700000Y-46450000D03*
X58200000Y-94450000D03*
X59200000Y-62450000D03*
X94200000Y-49450000D03*
X59200000Y-58450000D03*
X65700000Y-54510000D03*
X65380000Y-62450000D03*
X62020000Y-100950000D03*
X87200000Y-85950000D03*
X87200000Y-62950000D03*
X87200000Y-96950000D03*
X87200000Y-30450000D03*
X54950001Y-58450000D03*
X65380000Y-68900001D03*
X59200000Y-63950000D03*
X59200000Y-54510000D03*
X63200000Y-54510000D03*
X87200000Y-72430000D03*
X65200000Y-46450000D03*
X59200000Y-67950000D03*
X94200000Y-55950000D03*
X58200000Y-97450000D03*
X58200000Y-96450000D03*
X59200000Y-68900001D03*
%TO.N,PWR_3.3V*%
X90700000Y-36950000D03*
X64200000Y-59450000D03*
X58200000Y-60450000D03*
X58200000Y-65950000D03*
X90700000Y-39450000D03*
X64200000Y-60450000D03*
X67200000Y-61630000D03*
X67200000Y-60450000D03*
X92200000Y-67950000D03*
X67200000Y-73700000D03*
X58200000Y-73000000D03*
X57200000Y-40950000D03*
X63200000Y-65950000D03*
X67200000Y-65950000D03*
X90700000Y-58450000D03*
X67200000Y-44950000D03*
X65200000Y-40950000D03*
X66020000Y-65950000D03*
X90700000Y-44950000D03*
X67200000Y-40950000D03*
%TO.N,PWR_5V*%
X81200000Y-99450000D03*
X73200000Y-99450000D03*
X55930500Y-92950000D03*
X65200000Y-99450000D03*
%TD*%
D40*
%TO.N,LED_P*%
X88700000Y-53620000D02*
X88700000Y-55950000D01*
%TO.N,Net-(D1-A)*%
X92225000Y-55950000D02*
X89340000Y-55950000D01*
%TO.N,GND*%
X78700000Y-23574696D02*
X77200000Y-22074696D01*
X78700000Y-24600000D02*
X78700000Y-23574696D01*
X77200000Y-22074696D02*
X77200000Y-21900000D01*
X74875000Y-24600000D02*
X74900000Y-24575000D01*
X73700000Y-24600000D02*
X74875000Y-24600000D01*
X74900000Y-22200000D02*
X75200000Y-21900000D01*
X74900000Y-24575000D02*
X74900000Y-22200000D01*
X77200000Y-21900000D02*
X75200000Y-21900000D01*
X74900000Y-24575000D02*
X74900000Y-30450000D01*
%TO.N,Net-(J5-D+)*%
X77520000Y-30770000D02*
X81200000Y-30770000D01*
X76200000Y-24575000D02*
X76200000Y-29450000D01*
X76200000Y-29450000D02*
X77520000Y-30770000D01*
%TO.N,Net-(J5-D-)*%
X77700000Y-29950000D02*
X80200000Y-29950000D01*
X76850000Y-29100000D02*
X77700000Y-29950000D01*
X76850000Y-24575000D02*
X76850000Y-29100000D01*
%TO.N,VBUS*%
X77500000Y-27750000D02*
X77500000Y-24575000D01*
X78700000Y-28950000D02*
X77500000Y-27750000D01*
%TO.N,SW4_COM_OFF*%
X53200000Y-111450000D02*
X53200000Y-109370000D01*
X51700000Y-114950000D02*
X51700000Y-112950000D01*
X52700000Y-115950000D02*
X51700000Y-114950000D01*
X66700000Y-114950000D02*
X65700000Y-115950000D01*
X66700000Y-113850001D02*
X66700000Y-114950000D01*
X66049999Y-113200000D02*
X66700000Y-113850001D01*
X65700000Y-115950000D02*
X52700000Y-115950000D01*
X65250000Y-113200000D02*
X66049999Y-113200000D01*
X51700000Y-112950000D02*
X53200000Y-111450000D01*
%TO.N,GND_OFF*%
X60200000Y-119530000D02*
X53200000Y-119530000D01*
X64419998Y-119530000D02*
X60200000Y-119530000D01*
X67949999Y-115999999D02*
X64419998Y-119530000D01*
%TO.N,SW3_COM_OFF*%
X65250000Y-113700001D02*
X63200000Y-113700001D01*
%TO.N,PWR_3.3V_OFF*%
X60200000Y-114450000D02*
X53200000Y-114450000D01*
X67949999Y-109900001D02*
X64749999Y-109900001D01*
X64749999Y-109900001D02*
X60200000Y-114450000D01*
%TO.N,SW4_COM*%
X60800000Y-80050000D02*
X63550000Y-80050000D01*
X57700000Y-76950000D02*
X60800000Y-80050000D01*
X57700000Y-75450000D02*
X57700000Y-76950000D01*
X56200000Y-46950000D02*
X57200000Y-47950000D01*
X55200000Y-46950000D02*
X56200000Y-46950000D01*
%TO.N,SW3_COM*%
X58200000Y-47450000D02*
X58200000Y-49450000D01*
X57200000Y-46450000D02*
X58200000Y-47450000D01*
X55999999Y-46449999D02*
X57200000Y-46450000D01*
X55200000Y-46449999D02*
X55999999Y-46449999D01*
%TO.N,GND*%
X59200000Y-76450000D02*
X59200000Y-73950000D01*
X58200000Y-78999999D02*
X55995400Y-78999999D01*
X59200000Y-82950000D02*
X59200000Y-79999999D01*
X59200000Y-79999999D02*
X58200000Y-78999999D01*
%TO.N,SW3_COM*%
X63550000Y-78780000D02*
X61200000Y-78780000D01*
%TO.N,Net-(CHGR1-VSS)*%
X60200000Y-77450000D02*
X60200000Y-73450000D01*
%TO.N,GND*%
X59200000Y-72450000D02*
X59200000Y-73950000D01*
%TO.N,VBUS*%
X51924500Y-81950000D02*
X55995400Y-81950000D01*
X55995400Y-81950000D02*
X55995400Y-80900001D01*
%TO.N,SCROLL_CLICK*%
X67110000Y-83860000D02*
X63550000Y-83860000D01*
X67200000Y-83950000D02*
X67110000Y-83860000D01*
%TO.N,SW1_COM*%
X66990000Y-76240000D02*
X63550000Y-76240000D01*
X67700000Y-78950000D02*
X67700000Y-76950000D01*
X66200000Y-80450000D02*
X67700000Y-78950000D01*
X67700000Y-76950000D02*
X66990000Y-76240000D01*
%TO.N,EN*%
X62220000Y-74970000D02*
X63550000Y-74970000D01*
X61700000Y-74450000D02*
X62220000Y-74970000D01*
X61700000Y-73450000D02*
X61700000Y-74450000D01*
%TO.N,PWR_3.3V*%
X50499999Y-50249999D02*
X52500001Y-50249999D01*
X49700000Y-49450000D02*
X50499999Y-50249999D01*
X49700000Y-42450000D02*
X49700000Y-49450000D01*
X51200000Y-40950000D02*
X49700000Y-42450000D01*
X57200000Y-40950000D02*
X51200000Y-40950000D01*
%TO.N,GND*%
X56400001Y-44150001D02*
X52500001Y-44150001D01*
X58700000Y-46450000D02*
X56400001Y-44150001D01*
%TO.N,SCROLL_DOWN*%
X76200000Y-86400000D02*
X63550000Y-86400000D01*
D41*
%TO.N,USB_D-*%
X69700000Y-87670000D02*
X63550000Y-87670000D01*
%TO.N,USB_D+*%
X70210000Y-88940000D02*
X63550000Y-88940000D01*
X71200000Y-87950000D02*
X70210000Y-88940000D01*
D40*
%TO.N,SCROLL_UP*%
X74700000Y-85130000D02*
X63550000Y-85130000D01*
%TO.N,+BATT*%
X78700000Y-68950000D02*
X68200000Y-68950000D01*
%TO.N,MOSI*%
X84200000Y-60740000D02*
X84200000Y-70450000D01*
%TO.N,MISO*%
X86200000Y-70450000D02*
X86200000Y-66450000D01*
%TO.N,GND*%
X87200000Y-62950000D02*
X87200000Y-69950000D01*
%TO.N,NCS*%
X85200000Y-67450000D02*
X85200000Y-69950000D01*
%TO.N,SCLK*%
X83200000Y-69950000D02*
X83200000Y-62520000D01*
%TO.N,SCROLL_DOWN*%
X86200000Y-46950000D02*
X86200000Y-64950000D01*
X89200000Y-43450000D02*
X89200000Y-46950000D01*
%TO.N,SCROLL_UP*%
X88380000Y-40950000D02*
X88380000Y-39450000D01*
%TO.N,SCROLL_DOWN*%
X88380000Y-35450000D02*
X88380000Y-36950000D01*
%TO.N,SCROLL_UP*%
X85200000Y-39450000D02*
X85200000Y-62950000D01*
%TO.N,NRESET*%
X87700000Y-71450000D02*
X79200000Y-71450000D01*
X90700000Y-66450000D02*
X90700000Y-68450000D01*
X90700000Y-68450000D02*
X87700000Y-71450000D01*
D41*
%TO.N,USB_D+*%
X99200000Y-35950000D02*
X99200000Y-89950000D01*
X93000000Y-29750000D02*
X99200000Y-35950000D01*
X81580000Y-29750000D02*
X93000000Y-29750000D01*
X81200000Y-30130000D02*
X81580000Y-29750000D01*
%TO.N,USB_D-*%
X94035000Y-29285000D02*
X100200000Y-35450000D01*
X80200000Y-29285000D02*
X94035000Y-29285000D01*
X100200000Y-35450000D02*
X100200000Y-90950000D01*
D40*
%TO.N,SW2_COM*%
X101200000Y-34950000D02*
X101200000Y-91950000D01*
X94200000Y-27950000D02*
X101200000Y-34950000D01*
X94200000Y-27940000D02*
X94200000Y-27950000D01*
X66760000Y-77510000D02*
X63550000Y-77510000D01*
%TO.N,PWR_5V_EN*%
X69125000Y-92950000D02*
X69125000Y-90190000D01*
%TO.N,LED_B*%
X68674923Y-93950000D02*
X67855000Y-93130077D01*
X73200000Y-93950000D02*
X68674923Y-93950000D01*
X74200000Y-94950000D02*
X73200000Y-93950000D01*
X77550000Y-94950000D02*
X74200000Y-94950000D01*
X77600000Y-95000000D02*
X77550000Y-94950000D01*
X67855000Y-93130077D02*
X67855000Y-90190000D01*
%TO.N,PWR_5V_EN*%
X59700000Y-92962299D02*
X59700000Y-98950000D01*
X59712299Y-92950000D02*
X59700000Y-92962299D01*
%TO.N,SCROLL_CLICK*%
X65200000Y-33370000D02*
X65200000Y-27950000D01*
%TO.N,GND*%
X87200000Y-30450000D02*
X87200000Y-34450000D01*
X68700000Y-46450000D02*
X68700000Y-30450000D01*
%TO.N,PWR_1.9V*%
X70850000Y-56290000D02*
X65700000Y-56290000D01*
X65700000Y-56290000D02*
X63200000Y-56290000D01*
X56197950Y-62452050D02*
X56197950Y-66999999D01*
X61200000Y-56290000D02*
X61200000Y-61450000D01*
X63200000Y-56290000D02*
X61200000Y-56290000D01*
X56200000Y-62450000D02*
X56197950Y-62452050D01*
%TO.N,VDDREG*%
X64200000Y-53450000D02*
X68200000Y-53450000D01*
X64200000Y-57450000D02*
X62840000Y-57450000D01*
X65560000Y-57450000D02*
X64200000Y-57450000D01*
%TO.N,GND1*%
X66200000Y-58450000D02*
X66200000Y-57450000D01*
X66200000Y-58450000D02*
X68200000Y-58450000D01*
X66200000Y-59450000D02*
X66200000Y-58450000D01*
X62200000Y-58450000D02*
X62200000Y-57450000D01*
X62200000Y-59450000D02*
X62200000Y-58450000D01*
%TO.N,Net-(D1-A)*%
X92225000Y-58450000D02*
X92225000Y-55950000D01*
%TO.N,+BATT*%
X53950000Y-63324999D02*
X53324999Y-63950000D01*
X53324999Y-63950000D02*
X52200000Y-63950000D01*
X53404600Y-80900001D02*
X51974499Y-80900001D01*
X53950000Y-62690001D02*
X53950000Y-63324999D01*
X51924500Y-80900001D02*
X52200000Y-80900001D01*
X61020000Y-64950000D02*
X61020000Y-63950000D01*
%TO.N,VBUS*%
X52450000Y-57200000D02*
X49200000Y-60450000D01*
X56675000Y-77450000D02*
X56675000Y-76475000D01*
X49200000Y-60450000D02*
X49200000Y-62690001D01*
X49200000Y-76450000D02*
X49200000Y-62690001D01*
X53700000Y-55950000D02*
X52450000Y-57200000D01*
X51940001Y-62690001D02*
X49200000Y-62690001D01*
X53950000Y-61209999D02*
X53950000Y-58700000D01*
X56700000Y-55950000D02*
X55700000Y-55950000D01*
X56675000Y-76475000D02*
X56700000Y-76450000D01*
X53449999Y-62690001D02*
X52200000Y-62690001D01*
X53950000Y-58700000D02*
X52450000Y-57200000D01*
X55700000Y-59630000D02*
X55700000Y-55950000D01*
X55700000Y-55950000D02*
X53700000Y-55950000D01*
%TO.N,Net-(C12-Pad2)*%
X54700000Y-83950000D02*
X55700000Y-83950000D01*
X57200000Y-85450000D02*
X58380000Y-85450000D01*
X54700000Y-83950000D02*
X54700000Y-85857800D01*
X54700000Y-83950000D02*
X53020000Y-83950000D01*
X57200000Y-86630000D02*
X57200000Y-85450000D01*
X55700000Y-83950000D02*
X57200000Y-85450000D01*
%TO.N,Net-(C13-Pad2)*%
X57200000Y-88450000D02*
X58380000Y-88450000D01*
X55700000Y-89950000D02*
X57200000Y-88450000D01*
X54700000Y-89950000D02*
X55700000Y-89950000D01*
X54700000Y-89950000D02*
X54700000Y-88042200D01*
X57200000Y-88450000D02*
X57200000Y-87270000D01*
X53020000Y-89950000D02*
X54700000Y-89950000D01*
%TO.N,EN*%
X62560000Y-66950000D02*
X61020000Y-66950000D01*
X61020000Y-66950000D02*
X61020000Y-71450000D01*
%TO.N,Net-(D6-A)*%
X67020000Y-95950000D02*
X66020000Y-95950000D01*
X61944479Y-98450000D02*
X67020000Y-98450000D01*
X67020000Y-99450000D02*
X67020000Y-98450000D01*
X61380000Y-99014479D02*
X61944479Y-98450000D01*
X61380000Y-99450000D02*
X61380000Y-99014479D01*
%TO.N,Net-(D7-A)*%
X69380000Y-99014479D02*
X69944479Y-98450000D01*
X69380000Y-99450000D02*
X69380000Y-99014479D01*
X75020000Y-95950000D02*
X74020000Y-95950000D01*
X75020000Y-99450000D02*
X75020000Y-98450000D01*
X69944479Y-98450000D02*
X75020000Y-98450000D01*
%TO.N,Net-(D8-A)*%
X77380000Y-98950000D02*
X77880000Y-98450000D01*
X83020000Y-95950000D02*
X82020000Y-95950000D01*
X83020000Y-99450000D02*
X83020000Y-98450000D01*
X77880000Y-98450000D02*
X83020000Y-98450000D01*
X77380000Y-99450000D02*
X77380000Y-98950000D01*
%TO.N,Net-(CHGR1-STAT)*%
X51924500Y-78999999D02*
X51924500Y-77450000D01*
X51924500Y-77450000D02*
X52880000Y-77450000D01*
X53404600Y-78999999D02*
X51924500Y-78999999D01*
%TO.N,Net-(CHGR1-VSS)*%
X64550500Y-63950000D02*
X64550500Y-69950000D01*
X63520000Y-63950000D02*
X64550500Y-63950000D01*
X53404600Y-79950000D02*
X57700000Y-79950000D01*
%TO.N,Net-(D2-K)*%
X56035000Y-77450000D02*
X53520000Y-77450000D01*
%TO.N,Net-(D6-K)*%
X65380000Y-95950000D02*
X63700000Y-95950000D01*
%TO.N,Net-(D7-K)*%
X73380000Y-95950000D02*
X71700000Y-95950000D01*
%TO.N,Net-(D8-K)*%
X81380000Y-95950000D02*
X79700000Y-95950000D01*
%TO.N,XTAL1*%
X59020000Y-85450000D02*
X60700000Y-83770000D01*
X60700000Y-81320000D02*
X63550000Y-81320000D01*
X60700000Y-83770000D02*
X60700000Y-81320000D01*
%TO.N,XTAL2*%
X63550000Y-82590000D02*
X61700000Y-82590000D01*
X61700000Y-85770000D02*
X61700000Y-82590000D01*
X59020000Y-88450000D02*
X61700000Y-85770000D01*
%TO.N,LED_R*%
X61600000Y-95000000D02*
X64150000Y-95000000D01*
X64150000Y-95000000D02*
X65315000Y-93835000D01*
X65315000Y-93835000D02*
X65315000Y-90190000D01*
%TO.N,LED_G*%
X69600000Y-95000000D02*
X67750000Y-95000000D01*
X67750000Y-95000000D02*
X66585000Y-93835000D01*
X66585000Y-93835000D02*
X66585000Y-90190000D01*
%TO.N,PWR_5V_EN*%
X51924500Y-98950000D02*
X59700000Y-98950000D01*
X53200000Y-97450000D02*
X51924500Y-97450000D01*
X51924500Y-97450000D02*
X51924500Y-98950000D01*
%TO.N,NCS*%
X85200000Y-88950000D02*
X81060000Y-88950000D01*
X81060000Y-88950000D02*
X81050000Y-88940000D01*
%TO.N,MOSI*%
X84200000Y-87670000D02*
X81050000Y-87670000D01*
X81550000Y-60740000D02*
X84200000Y-60740000D01*
%TO.N,SCLK*%
X83200000Y-86400000D02*
X81050000Y-86400000D01*
X83200000Y-62520000D02*
X81550000Y-62520000D01*
%TO.N,MISO*%
X88700000Y-58462299D02*
X88687701Y-58450000D01*
X88687701Y-60962299D02*
X88687701Y-58450000D01*
X86200000Y-85130000D02*
X81050000Y-85130000D01*
%TO.N,NRESET*%
X79200000Y-83860000D02*
X81050000Y-83860000D01*
%TO.N,TCK*%
X81050000Y-82590000D02*
X94700000Y-82590000D01*
%TO.N,TDO*%
X94160000Y-81320000D02*
X81050000Y-81320000D01*
X96700000Y-78780000D02*
X94160000Y-81320000D01*
%TO.N,TDI*%
X91430000Y-80050000D02*
X81050000Y-80050000D01*
X92700000Y-78780000D02*
X91430000Y-80050000D01*
%TO.N,TMS*%
X81050000Y-78780000D02*
X90700000Y-78780000D01*
%TO.N,RXD0*%
X89200000Y-77510000D02*
X81050000Y-77510000D01*
%TO.N,TXD0*%
X90890000Y-76240000D02*
X81050000Y-76240000D01*
X94700000Y-72430000D02*
X90890000Y-76240000D01*
%TO.N,MOTION*%
X77700000Y-74970000D02*
X81050000Y-74970000D01*
X81550000Y-69950000D02*
X81550000Y-64300000D01*
%TO.N,PWR_OUT*%
X54450000Y-62690001D02*
X54450000Y-61209999D01*
X51200000Y-73000000D02*
X51200000Y-66999999D01*
X53700000Y-64450000D02*
X54450000Y-63700000D01*
X53200000Y-95549998D02*
X51200000Y-95549998D01*
X53700000Y-65450000D02*
X53700000Y-64450000D01*
X93700000Y-101950000D02*
X93700000Y-85950000D01*
X51200000Y-95549998D02*
X51200000Y-73000000D01*
X51200000Y-66999999D02*
X53442050Y-66999999D01*
X51200000Y-101950000D02*
X93700000Y-101950000D01*
X54450000Y-63700000D02*
X54450000Y-62690001D01*
X51200000Y-101950000D02*
X51200000Y-95549998D01*
X53700000Y-65450000D02*
X54950001Y-65450000D01*
X51200000Y-65450000D02*
X53700000Y-65450000D01*
X53682500Y-73000000D02*
X51200000Y-73000000D01*
X51200000Y-66999999D02*
X51200000Y-65450000D01*
%TO.N,Net-(PWRSW1-PR1)*%
X56700000Y-60270000D02*
X56700000Y-61209999D01*
X52200000Y-61209999D02*
X53449999Y-61209999D01*
X56700000Y-60270000D02*
X55700000Y-60270000D01*
%TO.N,PWRSTAT*%
X54950001Y-62690001D02*
X54950001Y-64810000D01*
%TO.N,PWR_EN*%
X96200000Y-102950000D02*
X50200000Y-102950000D01*
X52200000Y-74900000D02*
X53682500Y-74900000D01*
X50200000Y-102950000D02*
X50200000Y-74900000D01*
X52200000Y-68900001D02*
X53392051Y-68900001D01*
X50200000Y-74900000D02*
X50200000Y-68900001D01*
X96200000Y-85950000D02*
X96200000Y-102950000D01*
%TO.N,GND*%
X78020000Y-100950000D02*
X78020000Y-99450000D01*
X65700000Y-54510000D02*
X70850000Y-54510000D01*
X70020000Y-100950000D02*
X70020000Y-99450000D01*
X52380000Y-94450000D02*
X52380000Y-92950000D01*
X59200000Y-63950000D02*
X60380000Y-63950000D01*
X58200000Y-96450000D02*
X58150001Y-96499999D01*
X54950001Y-61209999D02*
X54950001Y-58450000D01*
X58700000Y-46450000D02*
X65200000Y-46450000D01*
X59200000Y-73950000D02*
X53682500Y-73950000D01*
X59200000Y-58450000D02*
X59200000Y-54450000D01*
X65700000Y-55650000D02*
X65700000Y-54510000D01*
X69600000Y-96900000D02*
X77600000Y-96900000D01*
X65380000Y-62450000D02*
X65380000Y-63950000D01*
X52380000Y-83950000D02*
X52380000Y-89950000D01*
X52380000Y-89950000D02*
X52380000Y-91450000D01*
X62880000Y-62630000D02*
X62880000Y-63950000D01*
X69400000Y-72430000D02*
X63550000Y-72430000D01*
X85200000Y-34450000D02*
X87200000Y-34450000D01*
X90700000Y-72430000D02*
X87200000Y-72430000D01*
X56700000Y-56590000D02*
X56700000Y-58450000D01*
X94200000Y-47450000D02*
X94200000Y-38100000D01*
X52380000Y-82950000D02*
X52380000Y-83950000D01*
X59200000Y-62450000D02*
X59200000Y-63950000D01*
X63200000Y-55650000D02*
X63200000Y-54510000D01*
X70020000Y-100950000D02*
X78020000Y-100950000D01*
X94200000Y-58450000D02*
X94200000Y-55950000D01*
X87200000Y-72430000D02*
X81050000Y-72430000D01*
X62020000Y-99450000D02*
X62020000Y-100950000D01*
X59200000Y-54510000D02*
X63200000Y-54510000D01*
X94200000Y-58450000D02*
X92865000Y-58450000D01*
X59200000Y-67950000D02*
X53442050Y-67950000D01*
X58200000Y-96450000D02*
X58200000Y-97450000D01*
X87200000Y-47450000D02*
X87200000Y-34450000D01*
X70020000Y-100950000D02*
X62020000Y-100950000D01*
X65380000Y-62450000D02*
X62880000Y-62450000D01*
X87200000Y-85950000D02*
X87200000Y-97400000D01*
X58200000Y-94450000D02*
X58200000Y-96450000D01*
X58150001Y-96499999D02*
X53200000Y-96499999D01*
X52380000Y-91450000D02*
X52380000Y-92950000D01*
X59200000Y-72450000D02*
X59200000Y-66950000D01*
X68700000Y-46450000D02*
X65200000Y-46450000D01*
X87200000Y-96900000D02*
X77600000Y-96900000D01*
X59200000Y-63950000D02*
X59200000Y-66950000D01*
X87200000Y-85950000D02*
X91200000Y-85950000D01*
X59200000Y-58450000D02*
X56700000Y-58450000D01*
X87200000Y-47450000D02*
X87200000Y-62950000D01*
X59200000Y-66950000D02*
X60380000Y-66950000D01*
X59220000Y-72430000D02*
X63550000Y-72430000D01*
X78020000Y-100950000D02*
X87200000Y-100950000D01*
X69400000Y-72430000D02*
X69220000Y-72430000D01*
X58200000Y-97450000D02*
X55930500Y-97450000D01*
X94200000Y-62950000D02*
X87200000Y-62950000D01*
X69400000Y-72430000D02*
X69400000Y-78750000D01*
X61600000Y-96900000D02*
X69600000Y-96900000D01*
X94200000Y-55950000D02*
X94200000Y-47450000D01*
X59200000Y-62450000D02*
X59200000Y-58450000D01*
X65380000Y-66950000D02*
X65380000Y-68900001D01*
X62700000Y-62450000D02*
X62880000Y-62630000D01*
X65700000Y-54510000D02*
X63200000Y-54510000D01*
X87200000Y-100950000D02*
X87200000Y-97450000D01*
X69400000Y-72430000D02*
X81050000Y-72430000D01*
X94200000Y-55950000D02*
X92865000Y-55950000D01*
X65200000Y-46450000D02*
X65200000Y-43530000D01*
X52380000Y-82950000D02*
X59200000Y-82950000D01*
X56700000Y-59630000D02*
X56700000Y-58450000D01*
X94200000Y-49450000D02*
X87200000Y-49450000D01*
X59150001Y-68900001D02*
X56197950Y-68900001D01*
%TO.N,PWR_3.3V*%
X63200000Y-66950000D02*
X63200000Y-65950000D01*
X65200000Y-38450000D02*
X65200000Y-40950000D01*
X58200000Y-65950000D02*
X58200000Y-60450000D01*
X55957500Y-73000000D02*
X58200000Y-73000000D01*
X70850000Y-61630000D02*
X67200000Y-61630000D01*
X64200000Y-59450000D02*
X64200000Y-60450000D01*
X66020000Y-63950000D02*
X66020000Y-65950000D01*
X67200000Y-60450000D02*
X67200000Y-61630000D01*
X67200000Y-73700000D02*
X63550000Y-73700000D01*
X64200000Y-59450000D02*
X62840000Y-59450000D01*
X90700000Y-36950000D02*
X90700000Y-33950000D01*
X96700000Y-72430000D02*
X92220000Y-67950000D01*
X90700000Y-39450000D02*
X89020000Y-39450000D01*
X90700000Y-58450000D02*
X89327701Y-58450000D01*
X57200000Y-40950000D02*
X65200000Y-40950000D01*
X57200000Y-40950000D02*
X57200000Y-34450000D01*
X90700000Y-36950000D02*
X90700000Y-39450000D01*
X66020000Y-65950000D02*
X66020000Y-66950000D01*
X66020000Y-65950000D02*
X67200000Y-65950000D01*
X57200000Y-34450000D02*
X58700000Y-32950000D01*
X90700000Y-33950000D02*
X91630000Y-33020000D01*
X92220000Y-67950000D02*
X92200000Y-67950000D01*
X65200000Y-40950000D02*
X67200000Y-40950000D01*
X91630000Y-33020000D02*
X94200000Y-33020000D01*
X65560000Y-59450000D02*
X64200000Y-59450000D01*
X90700000Y-36950000D02*
X89020000Y-36950000D01*
%TO.N,PWR_5V*%
X81200000Y-99450000D02*
X82380000Y-99450000D01*
X55930500Y-92950000D02*
X53020000Y-92950000D01*
X73200000Y-99450000D02*
X74380000Y-99450000D01*
X65200000Y-99450000D02*
X66380000Y-99450000D01*
X53020000Y-92950000D02*
X53020000Y-91450000D01*
X55930500Y-95549998D02*
X55930500Y-92950000D01*
%TD*%
M02*
