%TF.GenerationSoftware,KiCad,Pcbnew,7.0.7*%
%TF.CreationDate,2023-11-24T19:36:33-07:00*%
%TF.ProjectId,mouse,6d6f7573-652e-46b6-9963-61645f706362,rev?*%
%TF.SameCoordinates,Original*%
%TF.FileFunction,Paste,Top*%
%TF.FilePolarity,Positive*%
%FSLAX46Y46*%
G04 Gerber Fmt 4.6, Leading zero omitted, Abs format (unit mm)*
G04 Created by KiCad (PCBNEW 7.0.7) date 2023-11-24 19:36:33*
%MOMM*%
%LPD*%
G01*
G04 APERTURE LIST*
G04 Aperture macros list*
%AMRoundRect*
0 Rectangle with rounded corners*
0 $1 Rounding radius*
0 $2 $3 $4 $5 $6 $7 $8 $9 X,Y pos of 4 corners*
0 Add a 4 corners polygon primitive as box body*
4,1,4,$2,$3,$4,$5,$6,$7,$8,$9,$2,$3,0*
0 Add four circle primitives for the rounded corners*
1,1,$1+$1,$2,$3*
1,1,$1+$1,$4,$5*
1,1,$1+$1,$6,$7*
1,1,$1+$1,$8,$9*
0 Add four rect primitives between the rounded corners*
20,1,$1+$1,$2,$3,$4,$5,0*
20,1,$1+$1,$4,$5,$6,$7,0*
20,1,$1+$1,$6,$7,$8,$9,0*
20,1,$1+$1,$8,$9,$2,$3,0*%
G04 Aperture macros list end*
%ADD10R,0.299999X0.670001*%
%ADD11R,1.320800X0.508000*%
%ADD12R,1.500000X1.900000*%
%ADD13R,0.400000X1.350000*%
%ADD14R,1.000000X0.300000*%
%ADD15R,1.300000X2.000000*%
%ADD16RoundRect,0.079500X-0.079500X-0.100500X0.079500X-0.100500X0.079500X0.100500X-0.079500X0.100500X0*%
%ADD17RoundRect,0.079500X-0.100500X0.079500X-0.100500X-0.079500X0.100500X-0.079500X0.100500X0.079500X0*%
%ADD18RoundRect,0.150000X-0.512500X-0.150000X0.512500X-0.150000X0.512500X0.150000X-0.512500X0.150000X0*%
%ADD19RoundRect,0.079500X0.079500X0.100500X-0.079500X0.100500X-0.079500X-0.100500X0.079500X-0.100500X0*%
%ADD20RoundRect,0.079500X0.100500X-0.079500X0.100500X0.079500X-0.100500X0.079500X-0.100500X-0.079500X0*%
%ADD21R,1.300000X0.600000*%
%ADD22R,1.397000X1.422400*%
%ADD23R,0.977900X0.508000*%
%ADD24R,1.500000X0.900000*%
%ADD25R,0.900000X1.500000*%
%ADD26R,0.900000X0.900000*%
%ADD27R,1.003300X0.508000*%
G04 APERTURE END LIST*
D10*
%TO.C,PWRSW1*%
X54950001Y-61209999D03*
X54450000Y-61209999D03*
X53950000Y-61209999D03*
X53449999Y-61209999D03*
X53449999Y-62690001D03*
X53950000Y-62690001D03*
X54450000Y-62690001D03*
X54950001Y-62690001D03*
%TD*%
D11*
%TO.C,CHGR1*%
X53404600Y-78999999D03*
X53404600Y-79950000D03*
X53404600Y-80900001D03*
X55995400Y-80900001D03*
X55995400Y-78999999D03*
%TD*%
D12*
%TO.C,J5*%
X75200000Y-21900000D03*
X77200000Y-21900000D03*
D13*
X74900000Y-24575000D03*
X75550000Y-24575000D03*
X76200000Y-24575000D03*
X76850000Y-24575000D03*
X77500000Y-24575000D03*
%TD*%
D14*
%TO.C,J6*%
X55200000Y-46449999D03*
X55200000Y-46950000D03*
X55200000Y-47450000D03*
X55200000Y-47950001D03*
D15*
X52500001Y-44150001D03*
X52500001Y-50249999D03*
%TD*%
%TO.C,J4*%
X67949999Y-109900001D03*
X67949999Y-115999999D03*
D14*
X65250000Y-112199999D03*
X65250000Y-112700000D03*
X65250000Y-113200000D03*
X65250000Y-113700001D03*
%TD*%
D16*
%TO.C,C8*%
X60355000Y-63950000D03*
X61045000Y-63950000D03*
%TD*%
D17*
%TO.C,R18*%
X80200000Y-29950000D03*
X80200000Y-29260000D03*
%TD*%
%TO.C,R7*%
X57200000Y-86605000D03*
X57200000Y-87295000D03*
%TD*%
D18*
%TO.C,U1*%
X53682500Y-73000000D03*
X53682500Y-73950000D03*
X53682500Y-74900000D03*
X55957500Y-74900000D03*
X55957500Y-73000000D03*
%TD*%
D16*
%TO.C,C18*%
X61355000Y-99450000D03*
X62045000Y-99450000D03*
%TD*%
%TO.C,D8*%
X81355000Y-95950000D03*
X82045000Y-95950000D03*
%TD*%
D19*
%TO.C,R2*%
X53545000Y-77450000D03*
X52855000Y-77450000D03*
%TD*%
%TO.C,R10*%
X59045000Y-88450000D03*
X58355000Y-88450000D03*
%TD*%
D20*
%TO.C,C9*%
X56700000Y-56615000D03*
X56700000Y-55925000D03*
%TD*%
D16*
%TO.C,C5*%
X65535000Y-59450000D03*
X66225000Y-59450000D03*
%TD*%
D21*
%TO.C,Q8*%
X69600000Y-95000000D03*
X69600000Y-96900000D03*
X71700000Y-95950000D03*
%TD*%
D17*
%TO.C,R17*%
X81200000Y-30105000D03*
X81200000Y-30795000D03*
%TD*%
D16*
%TO.C,C11*%
X65355000Y-66950000D03*
X66045000Y-66950000D03*
%TD*%
%TO.C,C15*%
X52355000Y-91450000D03*
X53045000Y-91450000D03*
%TD*%
D19*
%TO.C,R9*%
X59045000Y-85450000D03*
X58355000Y-85450000D03*
%TD*%
D16*
%TO.C,R24*%
X82355000Y-99450000D03*
X83045000Y-99450000D03*
%TD*%
%TO.C,C19*%
X69355000Y-99450000D03*
X70045000Y-99450000D03*
%TD*%
%TO.C,C14*%
X60355000Y-66950000D03*
X61045000Y-66950000D03*
%TD*%
%TO.C,R11*%
X88675000Y-55950000D03*
X89365000Y-55950000D03*
%TD*%
D21*
%TO.C,Q7*%
X61600000Y-95000000D03*
X61600000Y-96900000D03*
X63700000Y-95950000D03*
%TD*%
D19*
%TO.C,R8*%
X63225000Y-66950000D03*
X62535000Y-66950000D03*
%TD*%
D22*
%TO.C,XTAL1*%
X54700000Y-85857800D03*
X54700000Y-88042200D03*
%TD*%
D16*
%TO.C,C20*%
X77355000Y-99450000D03*
X78045000Y-99450000D03*
%TD*%
D21*
%TO.C,Q9*%
X77600000Y-95000000D03*
X77600000Y-96900000D03*
X79700000Y-95950000D03*
%TD*%
D16*
%TO.C,D6*%
X65355000Y-95950000D03*
X66045000Y-95950000D03*
%TD*%
%TO.C,C7*%
X92200000Y-58450000D03*
X92890000Y-58450000D03*
%TD*%
%TO.C,C10*%
X65355000Y-63950000D03*
X66045000Y-63950000D03*
%TD*%
%TO.C,D2*%
X56010000Y-77450000D03*
X56700000Y-77450000D03*
%TD*%
D17*
%TO.C,R4*%
X55700000Y-59605000D03*
X55700000Y-60295000D03*
%TD*%
D16*
%TO.C,R15*%
X88355000Y-39450000D03*
X89045000Y-39450000D03*
%TD*%
D23*
%TO.C,U2*%
X53200000Y-95549998D03*
X53200000Y-96499999D03*
X53200000Y-97450000D03*
X55930500Y-97450000D03*
X55930500Y-95549998D03*
%TD*%
D16*
%TO.C,R16*%
X88355000Y-36950000D03*
X89045000Y-36950000D03*
%TD*%
%TO.C,C4*%
X62175000Y-57450000D03*
X62865000Y-57450000D03*
%TD*%
D24*
%TO.C,ESP1*%
X63550000Y-72430000D03*
X63550000Y-73700000D03*
X63550000Y-74970000D03*
X63550000Y-76240000D03*
X63550000Y-77510000D03*
X63550000Y-78780000D03*
X63550000Y-80050000D03*
X63550000Y-81320000D03*
X63550000Y-82590000D03*
X63550000Y-83860000D03*
X63550000Y-85130000D03*
X63550000Y-86400000D03*
X63550000Y-87670000D03*
X63550000Y-88940000D03*
D25*
X65315000Y-90190000D03*
X66585000Y-90190000D03*
X67855000Y-90190000D03*
X69125000Y-90190000D03*
X70395000Y-90190000D03*
X71665000Y-90190000D03*
X72935000Y-90190000D03*
X74205000Y-90190000D03*
X75475000Y-90190000D03*
X76745000Y-90190000D03*
X78015000Y-90190000D03*
X79285000Y-90190000D03*
D24*
X81050000Y-88940000D03*
X81050000Y-87670000D03*
X81050000Y-86400000D03*
X81050000Y-85130000D03*
X81050000Y-83860000D03*
X81050000Y-82590000D03*
X81050000Y-81320000D03*
X81050000Y-80050000D03*
X81050000Y-78780000D03*
X81050000Y-77510000D03*
X81050000Y-76240000D03*
X81050000Y-74970000D03*
X81050000Y-73700000D03*
X81050000Y-72430000D03*
D26*
X69400000Y-78750000D03*
X70800000Y-78750000D03*
X72200000Y-78750000D03*
X69400000Y-80150000D03*
X70800000Y-80150000D03*
X72200000Y-80150000D03*
X69400000Y-81550000D03*
X70800000Y-81550000D03*
X72200000Y-81550000D03*
%TD*%
D16*
%TO.C,C6*%
X62175000Y-59450000D03*
X62865000Y-59450000D03*
%TD*%
D17*
%TO.C,C1*%
X65700000Y-55625000D03*
X65700000Y-56315000D03*
%TD*%
D16*
%TO.C,D7*%
X73355000Y-95950000D03*
X74045000Y-95950000D03*
%TD*%
%TO.C,C16*%
X52355000Y-92950000D03*
X53045000Y-92950000D03*
%TD*%
%TO.C,C12*%
X52355000Y-83950000D03*
X53045000Y-83950000D03*
%TD*%
%TO.C,R1*%
X88662701Y-58450000D03*
X89352701Y-58450000D03*
%TD*%
%TO.C,R22*%
X66355000Y-99450000D03*
X67045000Y-99450000D03*
%TD*%
D27*
%TO.C,U3*%
X53442050Y-66999999D03*
X53442050Y-67950000D03*
X53442050Y-68900001D03*
X56197950Y-68900001D03*
X56197950Y-66999999D03*
%TD*%
D20*
%TO.C,C2*%
X63200000Y-56315000D03*
X63200000Y-55625000D03*
%TD*%
D19*
%TO.C,D1*%
X92890000Y-55950000D03*
X92200000Y-55950000D03*
%TD*%
D20*
%TO.C,R6*%
X54950001Y-65475000D03*
X54950001Y-64785000D03*
%TD*%
D16*
%TO.C,C3*%
X65535000Y-57450000D03*
X66225000Y-57450000D03*
%TD*%
D17*
%TO.C,R5*%
X56700000Y-59605000D03*
X56700000Y-60295000D03*
%TD*%
D16*
%TO.C,R3*%
X62855000Y-63950000D03*
X63545000Y-63950000D03*
%TD*%
%TO.C,R23*%
X74355000Y-99450000D03*
X75045000Y-99450000D03*
%TD*%
%TO.C,C13*%
X52355000Y-89950000D03*
X53045000Y-89950000D03*
%TD*%
M02*
