%TF.GenerationSoftware,KiCad,Pcbnew,7.0.7*%
%TF.CreationDate,2023-11-24T19:35:50-07:00*%
%TF.ProjectId,mouse,6d6f7573-652e-46b6-9963-61645f706362,rev?*%
%TF.SameCoordinates,Original*%
%TF.FileFunction,Plated,1,2,PTH,Mixed*%
%TF.FilePolarity,Positive*%
%FSLAX46Y46*%
G04 Gerber Fmt 4.6, Leading zero omitted, Abs format (unit mm)*
G04 Created by KiCad (PCBNEW 7.0.7) date 2023-11-24 19:35:50*
%MOMM*%
%LPD*%
G01*
G04 APERTURE LIST*
%TA.AperFunction,ComponentDrill*%
%ADD10C,0.200000*%
%TD*%
%TA.AperFunction,ViaDrill*%
%ADD11C,0.400000*%
%TD*%
G04 aperture for slot hole*
%TA.AperFunction,ComponentDrill*%
%ADD12O,0.500000X0.700000*%
%TD*%
G04 aperture for slot hole*
%TA.AperFunction,ComponentDrill*%
%ADD13O,0.600000X1.100000*%
%TD*%
G04 aperture for slot hole*
%TA.AperFunction,ComponentDrill*%
%ADD14O,0.600000X1.300000*%
%TD*%
%TA.AperFunction,ComponentDrill*%
%ADD15C,0.812800*%
%TD*%
%TA.AperFunction,ComponentDrill*%
%ADD16C,0.850000*%
%TD*%
%TA.AperFunction,ComponentDrill*%
%ADD17C,0.900000*%
%TD*%
%TA.AperFunction,ComponentDrill*%
%ADD18C,1.000000*%
%TD*%
%TA.AperFunction,ComponentDrill*%
%ADD19C,1.193800*%
%TD*%
G04 APERTURE END LIST*
D10*
%TO.C,ESP1*%
X69400000Y-79450000D03*
X69400000Y-80850000D03*
X70100000Y-78750000D03*
X70100000Y-80150000D03*
X70100000Y-81550000D03*
X70800000Y-79450000D03*
X70800000Y-80850000D03*
X71500000Y-78750000D03*
X71500000Y-80150000D03*
X71500000Y-81550000D03*
X72200000Y-79450000D03*
X72200000Y-80850000D03*
%TD*%
D11*
X49200000Y-62690001D03*
X49200000Y-76450000D03*
X49200000Y-81950000D03*
X50200000Y-68900001D03*
X50200000Y-74900000D03*
X50200000Y-102950000D03*
X51200000Y-65450000D03*
X51200000Y-66999999D03*
X51200000Y-73000000D03*
X51200000Y-95549998D03*
X51200000Y-101950000D03*
X51924500Y-77450000D03*
X51924500Y-78999999D03*
X51924500Y-80900001D03*
X51924500Y-81950000D03*
X51924500Y-97450000D03*
X51924500Y-98950000D03*
X52200000Y-61209999D03*
X52200000Y-62690001D03*
X52200000Y-63950000D03*
X52200000Y-68900001D03*
X52200000Y-74900000D03*
X52380000Y-82950000D03*
X52380000Y-94450000D03*
X52450000Y-57200000D03*
X53700000Y-55950000D03*
X53700000Y-65450000D03*
X54700000Y-83950000D03*
X54700000Y-89950000D03*
X54950001Y-58450000D03*
X55700000Y-55950000D03*
X55930500Y-92950000D03*
X55995400Y-81950000D03*
X56200000Y-62450000D03*
X56700000Y-58450000D03*
X56700000Y-61209999D03*
X56700000Y-76450000D03*
X57200000Y-40950000D03*
X57200000Y-47950000D03*
X57200000Y-85450000D03*
X57200000Y-88450000D03*
X57700000Y-75450000D03*
X57700000Y-79950000D03*
X58200000Y-49450000D03*
X58200000Y-60450000D03*
X58200000Y-65950000D03*
X58200000Y-73000000D03*
X58200000Y-78999999D03*
X58200000Y-94450000D03*
X58200000Y-96450000D03*
X58200000Y-97450000D03*
X58700000Y-46450000D03*
X59200000Y-54510000D03*
X59200000Y-58450000D03*
X59200000Y-62450000D03*
X59200000Y-63950000D03*
X59200000Y-66950000D03*
X59200000Y-67950000D03*
X59200000Y-68900001D03*
X59200000Y-72450000D03*
X59200000Y-73950000D03*
X59200000Y-76450000D03*
X59200000Y-82950000D03*
X59700000Y-98950000D03*
X59712299Y-92950000D03*
X60200000Y-69950000D03*
X60200000Y-73450000D03*
X60200000Y-77450000D03*
X60700000Y-81320000D03*
X61020000Y-64950000D03*
X61020000Y-71450000D03*
X61200000Y-56290000D03*
X61200000Y-61450000D03*
X61200000Y-78780000D03*
X61700000Y-73450000D03*
X61700000Y-82590000D03*
X62020000Y-100950000D03*
X62200000Y-58450000D03*
X62880000Y-62450000D03*
X63200000Y-54510000D03*
X63200000Y-65950000D03*
X63200000Y-113700001D03*
X64200000Y-53450000D03*
X64200000Y-57450000D03*
X64200000Y-59450000D03*
X64200000Y-60450000D03*
X64550500Y-63950000D03*
X64550500Y-69950000D03*
X65200000Y-27950000D03*
X65200000Y-40950000D03*
X65200000Y-46450000D03*
X65200000Y-99450000D03*
X65380000Y-62450000D03*
X65380000Y-68900001D03*
X65700000Y-54510000D03*
X66020000Y-65950000D03*
X66200000Y-58450000D03*
X66200000Y-80450000D03*
X66760000Y-77510000D03*
X67020000Y-95950000D03*
X67020000Y-98450000D03*
X67200000Y-40950000D03*
X67200000Y-44950000D03*
X67200000Y-60450000D03*
X67200000Y-61630000D03*
X67200000Y-65950000D03*
X67200000Y-73700000D03*
X67200000Y-83950000D03*
X68200000Y-53450000D03*
X68200000Y-58450000D03*
X68200000Y-68950000D03*
X68700000Y-30450000D03*
X68700000Y-46450000D03*
X69125000Y-92950000D03*
X69400000Y-72430000D03*
X69700000Y-87670000D03*
X70020000Y-100950000D03*
X71200000Y-87950000D03*
X73200000Y-99450000D03*
X74700000Y-85130000D03*
X74900000Y-30450000D03*
X75020000Y-95950000D03*
X75020000Y-98450000D03*
X76200000Y-86400000D03*
X77700000Y-74970000D03*
X78020000Y-100950000D03*
X78700000Y-28950000D03*
X78700000Y-68950000D03*
X79200000Y-71450000D03*
X79200000Y-83860000D03*
X81200000Y-99450000D03*
X81550000Y-69950000D03*
X83020000Y-95950000D03*
X83020000Y-98450000D03*
X83200000Y-62520000D03*
X83200000Y-69950000D03*
X83200000Y-86400000D03*
X84200000Y-60740000D03*
X84200000Y-70450000D03*
X84200000Y-87670000D03*
X85200000Y-62950000D03*
X85200000Y-67450000D03*
X85200000Y-69950000D03*
X85200000Y-88950000D03*
X86200000Y-46950000D03*
X86200000Y-64950000D03*
X86200000Y-66450000D03*
X86200000Y-70450000D03*
X86200000Y-85130000D03*
X87200000Y-30450000D03*
X87200000Y-34450000D03*
X87200000Y-49450000D03*
X87200000Y-62950000D03*
X87200000Y-69950000D03*
X87200000Y-72430000D03*
X87200000Y-85950000D03*
X87200000Y-96950000D03*
X87200000Y-100950000D03*
X88380000Y-35450000D03*
X88380000Y-40950000D03*
X88687701Y-60962299D03*
X88687701Y-66437701D03*
X88700000Y-53620000D03*
X89200000Y-43450000D03*
X89200000Y-46950000D03*
X89200000Y-77510000D03*
X89700000Y-60950000D03*
X89700000Y-66450000D03*
X90700000Y-36950000D03*
X90700000Y-39450000D03*
X90700000Y-44950000D03*
X90700000Y-58450000D03*
X90700000Y-60950000D03*
X90700000Y-66450000D03*
X92200000Y-67950000D03*
X93700000Y-101950000D03*
X94200000Y-49450000D03*
X94200000Y-55950000D03*
X94200000Y-58450000D03*
X94700000Y-82590000D03*
X96200000Y-68950000D03*
X96200000Y-102950000D03*
X99200000Y-89950000D03*
X100200000Y-90950000D03*
X101200000Y-91950000D03*
D12*
%TO.C,PAW1*%
X70850000Y-50950000D03*
X70850000Y-52730000D03*
X70850000Y-54510000D03*
X70850000Y-56290000D03*
X70850000Y-58070000D03*
X70850000Y-59850000D03*
X70850000Y-61630000D03*
X70850000Y-63410000D03*
X81550000Y-51840000D03*
X81550000Y-53620000D03*
X81550000Y-55400000D03*
X81550000Y-57180000D03*
X81550000Y-58960000D03*
X81550000Y-60740000D03*
X81550000Y-62520000D03*
X81550000Y-64300000D03*
D13*
%TO.C,SMB5*%
X53200000Y-109370000D03*
X53200000Y-114450000D03*
X53200000Y-119530000D03*
%TO.C,LMB1*%
X58700000Y-27870000D03*
X58700000Y-32950000D03*
X58700000Y-38030000D03*
%TO.C,SMB4*%
X60200000Y-109370000D03*
X60200000Y-114450000D03*
X60200000Y-119530000D03*
%TO.C,MMB1*%
X65200000Y-33370000D03*
X65200000Y-38450000D03*
X65200000Y-43530000D03*
D14*
%TO.C,J5*%
X72700000Y-21900000D03*
X79700000Y-21900000D03*
D13*
%TO.C,RMB1*%
X94200000Y-27940000D03*
X94200000Y-33020000D03*
X94200000Y-38100000D03*
D15*
%TO.C,J2*%
X94200000Y-62950000D03*
X96200002Y-62950000D03*
D16*
%TO.C,J5*%
X73700000Y-24600000D03*
X78700000Y-24600000D03*
D17*
%TO.C,S4*%
X91200000Y-85950000D03*
X93700000Y-85950000D03*
X96200000Y-85950000D03*
D18*
%TO.C,ENC1*%
X85200000Y-34450000D03*
X85200000Y-36950000D03*
X85200000Y-39450000D03*
%TO.C,J1*%
X90700000Y-72430000D03*
%TO.C,J3*%
X90700000Y-78780000D03*
%TO.C,J1*%
X92700000Y-72430000D03*
%TO.C,J3*%
X92700000Y-78780000D03*
%TO.C,J1*%
X94700000Y-72430000D03*
%TO.C,J3*%
X94700000Y-78780000D03*
%TO.C,J1*%
X96700000Y-72430000D03*
%TO.C,J3*%
X96700000Y-78780000D03*
D19*
%TO.C,J2*%
X97700001Y-61250000D03*
M02*
