%TF.GenerationSoftware,KiCad,Pcbnew,7.0.7*%
%TF.CreationDate,2023-11-24T19:36:33-07:00*%
%TF.ProjectId,mouse,6d6f7573-652e-46b6-9963-61645f706362,rev?*%
%TF.SameCoordinates,Original*%
%TF.FileFunction,Legend,Top*%
%TF.FilePolarity,Positive*%
%FSLAX46Y46*%
G04 Gerber Fmt 4.6, Leading zero omitted, Abs format (unit mm)*
G04 Created by KiCad (PCBNEW 7.0.7) date 2023-11-24 19:36:33*
%MOMM*%
%LPD*%
G01*
G04 APERTURE LIST*
%ADD10C,0.150000*%
%ADD11C,0.100000*%
%ADD12C,0.200000*%
%ADD13C,0.250000*%
%ADD14C,0.152400*%
%ADD15C,0.120000*%
%ADD16C,0.127000*%
%ADD17C,0.508000*%
G04 APERTURE END LIST*
D10*
X50245180Y-59092857D02*
X51245180Y-59092857D01*
X51245180Y-59092857D02*
X51245180Y-59473809D01*
X51245180Y-59473809D02*
X51197561Y-59569047D01*
X51197561Y-59569047D02*
X51149942Y-59616666D01*
X51149942Y-59616666D02*
X51054704Y-59664285D01*
X51054704Y-59664285D02*
X50911847Y-59664285D01*
X50911847Y-59664285D02*
X50816609Y-59616666D01*
X50816609Y-59616666D02*
X50768990Y-59569047D01*
X50768990Y-59569047D02*
X50721371Y-59473809D01*
X50721371Y-59473809D02*
X50721371Y-59092857D01*
X51245180Y-59997619D02*
X50245180Y-60235714D01*
X50245180Y-60235714D02*
X50959466Y-60426190D01*
X50959466Y-60426190D02*
X50245180Y-60616666D01*
X50245180Y-60616666D02*
X51245180Y-60854762D01*
X50245180Y-61807142D02*
X50721371Y-61473809D01*
X50245180Y-61235714D02*
X51245180Y-61235714D01*
X51245180Y-61235714D02*
X51245180Y-61616666D01*
X51245180Y-61616666D02*
X51197561Y-61711904D01*
X51197561Y-61711904D02*
X51149942Y-61759523D01*
X51149942Y-61759523D02*
X51054704Y-61807142D01*
X51054704Y-61807142D02*
X50911847Y-61807142D01*
X50911847Y-61807142D02*
X50816609Y-61759523D01*
X50816609Y-61759523D02*
X50768990Y-61711904D01*
X50768990Y-61711904D02*
X50721371Y-61616666D01*
X50721371Y-61616666D02*
X50721371Y-61235714D01*
X50292800Y-62188095D02*
X50245180Y-62330952D01*
X50245180Y-62330952D02*
X50245180Y-62569047D01*
X50245180Y-62569047D02*
X50292800Y-62664285D01*
X50292800Y-62664285D02*
X50340419Y-62711904D01*
X50340419Y-62711904D02*
X50435657Y-62759523D01*
X50435657Y-62759523D02*
X50530895Y-62759523D01*
X50530895Y-62759523D02*
X50626133Y-62711904D01*
X50626133Y-62711904D02*
X50673752Y-62664285D01*
X50673752Y-62664285D02*
X50721371Y-62569047D01*
X50721371Y-62569047D02*
X50768990Y-62378571D01*
X50768990Y-62378571D02*
X50816609Y-62283333D01*
X50816609Y-62283333D02*
X50864228Y-62235714D01*
X50864228Y-62235714D02*
X50959466Y-62188095D01*
X50959466Y-62188095D02*
X51054704Y-62188095D01*
X51054704Y-62188095D02*
X51149942Y-62235714D01*
X51149942Y-62235714D02*
X51197561Y-62283333D01*
X51197561Y-62283333D02*
X51245180Y-62378571D01*
X51245180Y-62378571D02*
X51245180Y-62616666D01*
X51245180Y-62616666D02*
X51197561Y-62759523D01*
X51245180Y-63092857D02*
X50245180Y-63330952D01*
X50245180Y-63330952D02*
X50959466Y-63521428D01*
X50959466Y-63521428D02*
X50245180Y-63711904D01*
X50245180Y-63711904D02*
X51245180Y-63950000D01*
X50245180Y-64854761D02*
X50245180Y-64283333D01*
X50245180Y-64569047D02*
X51245180Y-64569047D01*
X51245180Y-64569047D02*
X51102323Y-64473809D01*
X51102323Y-64473809D02*
X51007085Y-64378571D01*
X51007085Y-64378571D02*
X50959466Y-64283333D01*
X58009523Y-80809580D02*
X57961904Y-80857200D01*
X57961904Y-80857200D02*
X57819047Y-80904819D01*
X57819047Y-80904819D02*
X57723809Y-80904819D01*
X57723809Y-80904819D02*
X57580952Y-80857200D01*
X57580952Y-80857200D02*
X57485714Y-80761961D01*
X57485714Y-80761961D02*
X57438095Y-80666723D01*
X57438095Y-80666723D02*
X57390476Y-80476247D01*
X57390476Y-80476247D02*
X57390476Y-80333390D01*
X57390476Y-80333390D02*
X57438095Y-80142914D01*
X57438095Y-80142914D02*
X57485714Y-80047676D01*
X57485714Y-80047676D02*
X57580952Y-79952438D01*
X57580952Y-79952438D02*
X57723809Y-79904819D01*
X57723809Y-79904819D02*
X57819047Y-79904819D01*
X57819047Y-79904819D02*
X57961904Y-79952438D01*
X57961904Y-79952438D02*
X58009523Y-80000057D01*
X58438095Y-80904819D02*
X58438095Y-79904819D01*
X58438095Y-80381009D02*
X59009523Y-80381009D01*
X59009523Y-80904819D02*
X59009523Y-79904819D01*
X60009523Y-79952438D02*
X59914285Y-79904819D01*
X59914285Y-79904819D02*
X59771428Y-79904819D01*
X59771428Y-79904819D02*
X59628571Y-79952438D01*
X59628571Y-79952438D02*
X59533333Y-80047676D01*
X59533333Y-80047676D02*
X59485714Y-80142914D01*
X59485714Y-80142914D02*
X59438095Y-80333390D01*
X59438095Y-80333390D02*
X59438095Y-80476247D01*
X59438095Y-80476247D02*
X59485714Y-80666723D01*
X59485714Y-80666723D02*
X59533333Y-80761961D01*
X59533333Y-80761961D02*
X59628571Y-80857200D01*
X59628571Y-80857200D02*
X59771428Y-80904819D01*
X59771428Y-80904819D02*
X59866666Y-80904819D01*
X59866666Y-80904819D02*
X60009523Y-80857200D01*
X60009523Y-80857200D02*
X60057142Y-80809580D01*
X60057142Y-80809580D02*
X60057142Y-80476247D01*
X60057142Y-80476247D02*
X59866666Y-80476247D01*
X61057142Y-80904819D02*
X60723809Y-80428628D01*
X60485714Y-80904819D02*
X60485714Y-79904819D01*
X60485714Y-79904819D02*
X60866666Y-79904819D01*
X60866666Y-79904819D02*
X60961904Y-79952438D01*
X60961904Y-79952438D02*
X61009523Y-80000057D01*
X61009523Y-80000057D02*
X61057142Y-80095295D01*
X61057142Y-80095295D02*
X61057142Y-80238152D01*
X61057142Y-80238152D02*
X61009523Y-80333390D01*
X61009523Y-80333390D02*
X60961904Y-80381009D01*
X60961904Y-80381009D02*
X60866666Y-80428628D01*
X60866666Y-80428628D02*
X60485714Y-80428628D01*
X62009523Y-80904819D02*
X61438095Y-80904819D01*
X61723809Y-80904819D02*
X61723809Y-79904819D01*
X61723809Y-79904819D02*
X61628571Y-80047676D01*
X61628571Y-80047676D02*
X61533333Y-80142914D01*
X61533333Y-80142914D02*
X61438095Y-80190533D01*
X73136666Y-25927319D02*
X73136666Y-26641604D01*
X73136666Y-26641604D02*
X73089047Y-26784461D01*
X73089047Y-26784461D02*
X72993809Y-26879700D01*
X72993809Y-26879700D02*
X72850952Y-26927319D01*
X72850952Y-26927319D02*
X72755714Y-26927319D01*
X74089047Y-25927319D02*
X73612857Y-25927319D01*
X73612857Y-25927319D02*
X73565238Y-26403509D01*
X73565238Y-26403509D02*
X73612857Y-26355890D01*
X73612857Y-26355890D02*
X73708095Y-26308271D01*
X73708095Y-26308271D02*
X73946190Y-26308271D01*
X73946190Y-26308271D02*
X74041428Y-26355890D01*
X74041428Y-26355890D02*
X74089047Y-26403509D01*
X74089047Y-26403509D02*
X74136666Y-26498747D01*
X74136666Y-26498747D02*
X74136666Y-26736842D01*
X74136666Y-26736842D02*
X74089047Y-26832080D01*
X74089047Y-26832080D02*
X74041428Y-26879700D01*
X74041428Y-26879700D02*
X73946190Y-26927319D01*
X73946190Y-26927319D02*
X73708095Y-26927319D01*
X73708095Y-26927319D02*
X73612857Y-26879700D01*
X73612857Y-26879700D02*
X73565238Y-26832080D01*
X58545181Y-42916665D02*
X57830896Y-42916665D01*
X57830896Y-42916665D02*
X57688039Y-42869046D01*
X57688039Y-42869046D02*
X57592801Y-42773808D01*
X57592801Y-42773808D02*
X57545181Y-42630951D01*
X57545181Y-42630951D02*
X57545181Y-42535713D01*
X58545181Y-43821427D02*
X58545181Y-43630951D01*
X58545181Y-43630951D02*
X58497562Y-43535713D01*
X58497562Y-43535713D02*
X58449943Y-43488094D01*
X58449943Y-43488094D02*
X58307086Y-43392856D01*
X58307086Y-43392856D02*
X58116610Y-43345237D01*
X58116610Y-43345237D02*
X57735658Y-43345237D01*
X57735658Y-43345237D02*
X57640420Y-43392856D01*
X57640420Y-43392856D02*
X57592801Y-43440475D01*
X57592801Y-43440475D02*
X57545181Y-43535713D01*
X57545181Y-43535713D02*
X57545181Y-43726189D01*
X57545181Y-43726189D02*
X57592801Y-43821427D01*
X57592801Y-43821427D02*
X57640420Y-43869046D01*
X57640420Y-43869046D02*
X57735658Y-43916665D01*
X57735658Y-43916665D02*
X57973753Y-43916665D01*
X57973753Y-43916665D02*
X58068991Y-43869046D01*
X58068991Y-43869046D02*
X58116610Y-43821427D01*
X58116610Y-43821427D02*
X58164229Y-43726189D01*
X58164229Y-43726189D02*
X58164229Y-43535713D01*
X58164229Y-43535713D02*
X58116610Y-43440475D01*
X58116610Y-43440475D02*
X58068991Y-43392856D01*
X58068991Y-43392856D02*
X57973753Y-43345237D01*
X67366666Y-106904819D02*
X67366666Y-107619104D01*
X67366666Y-107619104D02*
X67319047Y-107761961D01*
X67319047Y-107761961D02*
X67223809Y-107857200D01*
X67223809Y-107857200D02*
X67080952Y-107904819D01*
X67080952Y-107904819D02*
X66985714Y-107904819D01*
X68271428Y-107238152D02*
X68271428Y-107904819D01*
X68033333Y-106857200D02*
X67795238Y-107571485D01*
X67795238Y-107571485D02*
X68414285Y-107571485D01*
X60533333Y-63259580D02*
X60485714Y-63307200D01*
X60485714Y-63307200D02*
X60342857Y-63354819D01*
X60342857Y-63354819D02*
X60247619Y-63354819D01*
X60247619Y-63354819D02*
X60104762Y-63307200D01*
X60104762Y-63307200D02*
X60009524Y-63211961D01*
X60009524Y-63211961D02*
X59961905Y-63116723D01*
X59961905Y-63116723D02*
X59914286Y-62926247D01*
X59914286Y-62926247D02*
X59914286Y-62783390D01*
X59914286Y-62783390D02*
X59961905Y-62592914D01*
X59961905Y-62592914D02*
X60009524Y-62497676D01*
X60009524Y-62497676D02*
X60104762Y-62402438D01*
X60104762Y-62402438D02*
X60247619Y-62354819D01*
X60247619Y-62354819D02*
X60342857Y-62354819D01*
X60342857Y-62354819D02*
X60485714Y-62402438D01*
X60485714Y-62402438D02*
X60533333Y-62450057D01*
X61104762Y-62783390D02*
X61009524Y-62735771D01*
X61009524Y-62735771D02*
X60961905Y-62688152D01*
X60961905Y-62688152D02*
X60914286Y-62592914D01*
X60914286Y-62592914D02*
X60914286Y-62545295D01*
X60914286Y-62545295D02*
X60961905Y-62450057D01*
X60961905Y-62450057D02*
X61009524Y-62402438D01*
X61009524Y-62402438D02*
X61104762Y-62354819D01*
X61104762Y-62354819D02*
X61295238Y-62354819D01*
X61295238Y-62354819D02*
X61390476Y-62402438D01*
X61390476Y-62402438D02*
X61438095Y-62450057D01*
X61438095Y-62450057D02*
X61485714Y-62545295D01*
X61485714Y-62545295D02*
X61485714Y-62592914D01*
X61485714Y-62592914D02*
X61438095Y-62688152D01*
X61438095Y-62688152D02*
X61390476Y-62735771D01*
X61390476Y-62735771D02*
X61295238Y-62783390D01*
X61295238Y-62783390D02*
X61104762Y-62783390D01*
X61104762Y-62783390D02*
X61009524Y-62831009D01*
X61009524Y-62831009D02*
X60961905Y-62878628D01*
X60961905Y-62878628D02*
X60914286Y-62973866D01*
X60914286Y-62973866D02*
X60914286Y-63164342D01*
X60914286Y-63164342D02*
X60961905Y-63259580D01*
X60961905Y-63259580D02*
X61009524Y-63307200D01*
X61009524Y-63307200D02*
X61104762Y-63354819D01*
X61104762Y-63354819D02*
X61295238Y-63354819D01*
X61295238Y-63354819D02*
X61390476Y-63307200D01*
X61390476Y-63307200D02*
X61438095Y-63259580D01*
X61438095Y-63259580D02*
X61485714Y-63164342D01*
X61485714Y-63164342D02*
X61485714Y-62973866D01*
X61485714Y-62973866D02*
X61438095Y-62878628D01*
X61438095Y-62878628D02*
X61390476Y-62831009D01*
X61390476Y-62831009D02*
X61295238Y-62783390D01*
X79154819Y-30747857D02*
X78678628Y-31081190D01*
X79154819Y-31319285D02*
X78154819Y-31319285D01*
X78154819Y-31319285D02*
X78154819Y-30938333D01*
X78154819Y-30938333D02*
X78202438Y-30843095D01*
X78202438Y-30843095D02*
X78250057Y-30795476D01*
X78250057Y-30795476D02*
X78345295Y-30747857D01*
X78345295Y-30747857D02*
X78488152Y-30747857D01*
X78488152Y-30747857D02*
X78583390Y-30795476D01*
X78583390Y-30795476D02*
X78631009Y-30843095D01*
X78631009Y-30843095D02*
X78678628Y-30938333D01*
X78678628Y-30938333D02*
X78678628Y-31319285D01*
X79154819Y-29795476D02*
X79154819Y-30366904D01*
X79154819Y-30081190D02*
X78154819Y-30081190D01*
X78154819Y-30081190D02*
X78297676Y-30176428D01*
X78297676Y-30176428D02*
X78392914Y-30271666D01*
X78392914Y-30271666D02*
X78440533Y-30366904D01*
X78583390Y-29224047D02*
X78535771Y-29319285D01*
X78535771Y-29319285D02*
X78488152Y-29366904D01*
X78488152Y-29366904D02*
X78392914Y-29414523D01*
X78392914Y-29414523D02*
X78345295Y-29414523D01*
X78345295Y-29414523D02*
X78250057Y-29366904D01*
X78250057Y-29366904D02*
X78202438Y-29319285D01*
X78202438Y-29319285D02*
X78154819Y-29224047D01*
X78154819Y-29224047D02*
X78154819Y-29033571D01*
X78154819Y-29033571D02*
X78202438Y-28938333D01*
X78202438Y-28938333D02*
X78250057Y-28890714D01*
X78250057Y-28890714D02*
X78345295Y-28843095D01*
X78345295Y-28843095D02*
X78392914Y-28843095D01*
X78392914Y-28843095D02*
X78488152Y-28890714D01*
X78488152Y-28890714D02*
X78535771Y-28938333D01*
X78535771Y-28938333D02*
X78583390Y-29033571D01*
X78583390Y-29033571D02*
X78583390Y-29224047D01*
X78583390Y-29224047D02*
X78631009Y-29319285D01*
X78631009Y-29319285D02*
X78678628Y-29366904D01*
X78678628Y-29366904D02*
X78773866Y-29414523D01*
X78773866Y-29414523D02*
X78964342Y-29414523D01*
X78964342Y-29414523D02*
X79059580Y-29366904D01*
X79059580Y-29366904D02*
X79107200Y-29319285D01*
X79107200Y-29319285D02*
X79154819Y-29224047D01*
X79154819Y-29224047D02*
X79154819Y-29033571D01*
X79154819Y-29033571D02*
X79107200Y-28938333D01*
X79107200Y-28938333D02*
X79059580Y-28890714D01*
X79059580Y-28890714D02*
X78964342Y-28843095D01*
X78964342Y-28843095D02*
X78773866Y-28843095D01*
X78773866Y-28843095D02*
X78678628Y-28890714D01*
X78678628Y-28890714D02*
X78631009Y-28938333D01*
X78631009Y-28938333D02*
X78583390Y-29033571D01*
X59154819Y-87116666D02*
X58678628Y-87449999D01*
X59154819Y-87688094D02*
X58154819Y-87688094D01*
X58154819Y-87688094D02*
X58154819Y-87307142D01*
X58154819Y-87307142D02*
X58202438Y-87211904D01*
X58202438Y-87211904D02*
X58250057Y-87164285D01*
X58250057Y-87164285D02*
X58345295Y-87116666D01*
X58345295Y-87116666D02*
X58488152Y-87116666D01*
X58488152Y-87116666D02*
X58583390Y-87164285D01*
X58583390Y-87164285D02*
X58631009Y-87211904D01*
X58631009Y-87211904D02*
X58678628Y-87307142D01*
X58678628Y-87307142D02*
X58678628Y-87688094D01*
X58154819Y-86783332D02*
X58154819Y-86116666D01*
X58154819Y-86116666D02*
X59154819Y-86545237D01*
X54058095Y-76404819D02*
X54058095Y-77214342D01*
X54058095Y-77214342D02*
X54105714Y-77309580D01*
X54105714Y-77309580D02*
X54153333Y-77357200D01*
X54153333Y-77357200D02*
X54248571Y-77404819D01*
X54248571Y-77404819D02*
X54439047Y-77404819D01*
X54439047Y-77404819D02*
X54534285Y-77357200D01*
X54534285Y-77357200D02*
X54581904Y-77309580D01*
X54581904Y-77309580D02*
X54629523Y-77214342D01*
X54629523Y-77214342D02*
X54629523Y-76404819D01*
X55629523Y-77404819D02*
X55058095Y-77404819D01*
X55343809Y-77404819D02*
X55343809Y-76404819D01*
X55343809Y-76404819D02*
X55248571Y-76547676D01*
X55248571Y-76547676D02*
X55153333Y-76642914D01*
X55153333Y-76642914D02*
X55058095Y-76690533D01*
X63557142Y-99809580D02*
X63509523Y-99857200D01*
X63509523Y-99857200D02*
X63366666Y-99904819D01*
X63366666Y-99904819D02*
X63271428Y-99904819D01*
X63271428Y-99904819D02*
X63128571Y-99857200D01*
X63128571Y-99857200D02*
X63033333Y-99761961D01*
X63033333Y-99761961D02*
X62985714Y-99666723D01*
X62985714Y-99666723D02*
X62938095Y-99476247D01*
X62938095Y-99476247D02*
X62938095Y-99333390D01*
X62938095Y-99333390D02*
X62985714Y-99142914D01*
X62985714Y-99142914D02*
X63033333Y-99047676D01*
X63033333Y-99047676D02*
X63128571Y-98952438D01*
X63128571Y-98952438D02*
X63271428Y-98904819D01*
X63271428Y-98904819D02*
X63366666Y-98904819D01*
X63366666Y-98904819D02*
X63509523Y-98952438D01*
X63509523Y-98952438D02*
X63557142Y-99000057D01*
X64509523Y-99904819D02*
X63938095Y-99904819D01*
X64223809Y-99904819D02*
X64223809Y-98904819D01*
X64223809Y-98904819D02*
X64128571Y-99047676D01*
X64128571Y-99047676D02*
X64033333Y-99142914D01*
X64033333Y-99142914D02*
X63938095Y-99190533D01*
X65080952Y-99333390D02*
X64985714Y-99285771D01*
X64985714Y-99285771D02*
X64938095Y-99238152D01*
X64938095Y-99238152D02*
X64890476Y-99142914D01*
X64890476Y-99142914D02*
X64890476Y-99095295D01*
X64890476Y-99095295D02*
X64938095Y-99000057D01*
X64938095Y-99000057D02*
X64985714Y-98952438D01*
X64985714Y-98952438D02*
X65080952Y-98904819D01*
X65080952Y-98904819D02*
X65271428Y-98904819D01*
X65271428Y-98904819D02*
X65366666Y-98952438D01*
X65366666Y-98952438D02*
X65414285Y-99000057D01*
X65414285Y-99000057D02*
X65461904Y-99095295D01*
X65461904Y-99095295D02*
X65461904Y-99142914D01*
X65461904Y-99142914D02*
X65414285Y-99238152D01*
X65414285Y-99238152D02*
X65366666Y-99285771D01*
X65366666Y-99285771D02*
X65271428Y-99333390D01*
X65271428Y-99333390D02*
X65080952Y-99333390D01*
X65080952Y-99333390D02*
X64985714Y-99381009D01*
X64985714Y-99381009D02*
X64938095Y-99428628D01*
X64938095Y-99428628D02*
X64890476Y-99523866D01*
X64890476Y-99523866D02*
X64890476Y-99714342D01*
X64890476Y-99714342D02*
X64938095Y-99809580D01*
X64938095Y-99809580D02*
X64985714Y-99857200D01*
X64985714Y-99857200D02*
X65080952Y-99904819D01*
X65080952Y-99904819D02*
X65271428Y-99904819D01*
X65271428Y-99904819D02*
X65366666Y-99857200D01*
X65366666Y-99857200D02*
X65414285Y-99809580D01*
X65414285Y-99809580D02*
X65461904Y-99714342D01*
X65461904Y-99714342D02*
X65461904Y-99523866D01*
X65461904Y-99523866D02*
X65414285Y-99428628D01*
X65414285Y-99428628D02*
X65366666Y-99381009D01*
X65366666Y-99381009D02*
X65271428Y-99333390D01*
X93666666Y-74834819D02*
X93666666Y-75549104D01*
X93666666Y-75549104D02*
X93619047Y-75691961D01*
X93619047Y-75691961D02*
X93523809Y-75787200D01*
X93523809Y-75787200D02*
X93380952Y-75834819D01*
X93380952Y-75834819D02*
X93285714Y-75834819D01*
X94047619Y-74834819D02*
X94666666Y-74834819D01*
X94666666Y-74834819D02*
X94333333Y-75215771D01*
X94333333Y-75215771D02*
X94476190Y-75215771D01*
X94476190Y-75215771D02*
X94571428Y-75263390D01*
X94571428Y-75263390D02*
X94619047Y-75311009D01*
X94619047Y-75311009D02*
X94666666Y-75406247D01*
X94666666Y-75406247D02*
X94666666Y-75644342D01*
X94666666Y-75644342D02*
X94619047Y-75739580D01*
X94619047Y-75739580D02*
X94571428Y-75787200D01*
X94571428Y-75787200D02*
X94476190Y-75834819D01*
X94476190Y-75834819D02*
X94190476Y-75834819D01*
X94190476Y-75834819D02*
X94095238Y-75787200D01*
X94095238Y-75787200D02*
X94047619Y-75739580D01*
X63319048Y-31324819D02*
X63319048Y-30324819D01*
X63319048Y-30324819D02*
X63652381Y-31039104D01*
X63652381Y-31039104D02*
X63985714Y-30324819D01*
X63985714Y-30324819D02*
X63985714Y-31324819D01*
X64461905Y-31324819D02*
X64461905Y-30324819D01*
X64461905Y-30324819D02*
X64795238Y-31039104D01*
X64795238Y-31039104D02*
X65128571Y-30324819D01*
X65128571Y-30324819D02*
X65128571Y-31324819D01*
X65938095Y-30801009D02*
X66080952Y-30848628D01*
X66080952Y-30848628D02*
X66128571Y-30896247D01*
X66128571Y-30896247D02*
X66176190Y-30991485D01*
X66176190Y-30991485D02*
X66176190Y-31134342D01*
X66176190Y-31134342D02*
X66128571Y-31229580D01*
X66128571Y-31229580D02*
X66080952Y-31277200D01*
X66080952Y-31277200D02*
X65985714Y-31324819D01*
X65985714Y-31324819D02*
X65604762Y-31324819D01*
X65604762Y-31324819D02*
X65604762Y-30324819D01*
X65604762Y-30324819D02*
X65938095Y-30324819D01*
X65938095Y-30324819D02*
X66033333Y-30372438D01*
X66033333Y-30372438D02*
X66080952Y-30420057D01*
X66080952Y-30420057D02*
X66128571Y-30515295D01*
X66128571Y-30515295D02*
X66128571Y-30610533D01*
X66128571Y-30610533D02*
X66080952Y-30705771D01*
X66080952Y-30705771D02*
X66033333Y-30753390D01*
X66033333Y-30753390D02*
X65938095Y-30801009D01*
X65938095Y-30801009D02*
X65604762Y-30801009D01*
X67128571Y-31324819D02*
X66557143Y-31324819D01*
X66842857Y-31324819D02*
X66842857Y-30324819D01*
X66842857Y-30324819D02*
X66747619Y-30467676D01*
X66747619Y-30467676D02*
X66652381Y-30562914D01*
X66652381Y-30562914D02*
X66557143Y-30610533D01*
X83461905Y-94904819D02*
X83461905Y-93904819D01*
X83461905Y-93904819D02*
X83700000Y-93904819D01*
X83700000Y-93904819D02*
X83842857Y-93952438D01*
X83842857Y-93952438D02*
X83938095Y-94047676D01*
X83938095Y-94047676D02*
X83985714Y-94142914D01*
X83985714Y-94142914D02*
X84033333Y-94333390D01*
X84033333Y-94333390D02*
X84033333Y-94476247D01*
X84033333Y-94476247D02*
X83985714Y-94666723D01*
X83985714Y-94666723D02*
X83938095Y-94761961D01*
X83938095Y-94761961D02*
X83842857Y-94857200D01*
X83842857Y-94857200D02*
X83700000Y-94904819D01*
X83700000Y-94904819D02*
X83461905Y-94904819D01*
X84604762Y-94333390D02*
X84509524Y-94285771D01*
X84509524Y-94285771D02*
X84461905Y-94238152D01*
X84461905Y-94238152D02*
X84414286Y-94142914D01*
X84414286Y-94142914D02*
X84414286Y-94095295D01*
X84414286Y-94095295D02*
X84461905Y-94000057D01*
X84461905Y-94000057D02*
X84509524Y-93952438D01*
X84509524Y-93952438D02*
X84604762Y-93904819D01*
X84604762Y-93904819D02*
X84795238Y-93904819D01*
X84795238Y-93904819D02*
X84890476Y-93952438D01*
X84890476Y-93952438D02*
X84938095Y-94000057D01*
X84938095Y-94000057D02*
X84985714Y-94095295D01*
X84985714Y-94095295D02*
X84985714Y-94142914D01*
X84985714Y-94142914D02*
X84938095Y-94238152D01*
X84938095Y-94238152D02*
X84890476Y-94285771D01*
X84890476Y-94285771D02*
X84795238Y-94333390D01*
X84795238Y-94333390D02*
X84604762Y-94333390D01*
X84604762Y-94333390D02*
X84509524Y-94381009D01*
X84509524Y-94381009D02*
X84461905Y-94428628D01*
X84461905Y-94428628D02*
X84414286Y-94523866D01*
X84414286Y-94523866D02*
X84414286Y-94714342D01*
X84414286Y-94714342D02*
X84461905Y-94809580D01*
X84461905Y-94809580D02*
X84509524Y-94857200D01*
X84509524Y-94857200D02*
X84604762Y-94904819D01*
X84604762Y-94904819D02*
X84795238Y-94904819D01*
X84795238Y-94904819D02*
X84890476Y-94857200D01*
X84890476Y-94857200D02*
X84938095Y-94809580D01*
X84938095Y-94809580D02*
X84985714Y-94714342D01*
X84985714Y-94714342D02*
X84985714Y-94523866D01*
X84985714Y-94523866D02*
X84938095Y-94428628D01*
X84938095Y-94428628D02*
X84890476Y-94381009D01*
X84890476Y-94381009D02*
X84795238Y-94333390D01*
X52533333Y-76854819D02*
X52200000Y-76378628D01*
X51961905Y-76854819D02*
X51961905Y-75854819D01*
X51961905Y-75854819D02*
X52342857Y-75854819D01*
X52342857Y-75854819D02*
X52438095Y-75902438D01*
X52438095Y-75902438D02*
X52485714Y-75950057D01*
X52485714Y-75950057D02*
X52533333Y-76045295D01*
X52533333Y-76045295D02*
X52533333Y-76188152D01*
X52533333Y-76188152D02*
X52485714Y-76283390D01*
X52485714Y-76283390D02*
X52438095Y-76331009D01*
X52438095Y-76331009D02*
X52342857Y-76378628D01*
X52342857Y-76378628D02*
X51961905Y-76378628D01*
X52914286Y-75950057D02*
X52961905Y-75902438D01*
X52961905Y-75902438D02*
X53057143Y-75854819D01*
X53057143Y-75854819D02*
X53295238Y-75854819D01*
X53295238Y-75854819D02*
X53390476Y-75902438D01*
X53390476Y-75902438D02*
X53438095Y-75950057D01*
X53438095Y-75950057D02*
X53485714Y-76045295D01*
X53485714Y-76045295D02*
X53485714Y-76140533D01*
X53485714Y-76140533D02*
X53438095Y-76283390D01*
X53438095Y-76283390D02*
X52866667Y-76854819D01*
X52866667Y-76854819D02*
X53485714Y-76854819D01*
X58057142Y-90404819D02*
X57723809Y-89928628D01*
X57485714Y-90404819D02*
X57485714Y-89404819D01*
X57485714Y-89404819D02*
X57866666Y-89404819D01*
X57866666Y-89404819D02*
X57961904Y-89452438D01*
X57961904Y-89452438D02*
X58009523Y-89500057D01*
X58009523Y-89500057D02*
X58057142Y-89595295D01*
X58057142Y-89595295D02*
X58057142Y-89738152D01*
X58057142Y-89738152D02*
X58009523Y-89833390D01*
X58009523Y-89833390D02*
X57961904Y-89881009D01*
X57961904Y-89881009D02*
X57866666Y-89928628D01*
X57866666Y-89928628D02*
X57485714Y-89928628D01*
X59009523Y-90404819D02*
X58438095Y-90404819D01*
X58723809Y-90404819D02*
X58723809Y-89404819D01*
X58723809Y-89404819D02*
X58628571Y-89547676D01*
X58628571Y-89547676D02*
X58533333Y-89642914D01*
X58533333Y-89642914D02*
X58438095Y-89690533D01*
X59628571Y-89404819D02*
X59723809Y-89404819D01*
X59723809Y-89404819D02*
X59819047Y-89452438D01*
X59819047Y-89452438D02*
X59866666Y-89500057D01*
X59866666Y-89500057D02*
X59914285Y-89595295D01*
X59914285Y-89595295D02*
X59961904Y-89785771D01*
X59961904Y-89785771D02*
X59961904Y-90023866D01*
X59961904Y-90023866D02*
X59914285Y-90214342D01*
X59914285Y-90214342D02*
X59866666Y-90309580D01*
X59866666Y-90309580D02*
X59819047Y-90357200D01*
X59819047Y-90357200D02*
X59723809Y-90404819D01*
X59723809Y-90404819D02*
X59628571Y-90404819D01*
X59628571Y-90404819D02*
X59533333Y-90357200D01*
X59533333Y-90357200D02*
X59485714Y-90309580D01*
X59485714Y-90309580D02*
X59438095Y-90214342D01*
X59438095Y-90214342D02*
X59390476Y-90023866D01*
X59390476Y-90023866D02*
X59390476Y-89785771D01*
X59390476Y-89785771D02*
X59438095Y-89595295D01*
X59438095Y-89595295D02*
X59485714Y-89500057D01*
X59485714Y-89500057D02*
X59533333Y-89452438D01*
X59533333Y-89452438D02*
X59628571Y-89404819D01*
X58059580Y-56436666D02*
X58107200Y-56484285D01*
X58107200Y-56484285D02*
X58154819Y-56627142D01*
X58154819Y-56627142D02*
X58154819Y-56722380D01*
X58154819Y-56722380D02*
X58107200Y-56865237D01*
X58107200Y-56865237D02*
X58011961Y-56960475D01*
X58011961Y-56960475D02*
X57916723Y-57008094D01*
X57916723Y-57008094D02*
X57726247Y-57055713D01*
X57726247Y-57055713D02*
X57583390Y-57055713D01*
X57583390Y-57055713D02*
X57392914Y-57008094D01*
X57392914Y-57008094D02*
X57297676Y-56960475D01*
X57297676Y-56960475D02*
X57202438Y-56865237D01*
X57202438Y-56865237D02*
X57154819Y-56722380D01*
X57154819Y-56722380D02*
X57154819Y-56627142D01*
X57154819Y-56627142D02*
X57202438Y-56484285D01*
X57202438Y-56484285D02*
X57250057Y-56436666D01*
X58154819Y-55960475D02*
X58154819Y-55769999D01*
X58154819Y-55769999D02*
X58107200Y-55674761D01*
X58107200Y-55674761D02*
X58059580Y-55627142D01*
X58059580Y-55627142D02*
X57916723Y-55531904D01*
X57916723Y-55531904D02*
X57726247Y-55484285D01*
X57726247Y-55484285D02*
X57345295Y-55484285D01*
X57345295Y-55484285D02*
X57250057Y-55531904D01*
X57250057Y-55531904D02*
X57202438Y-55579523D01*
X57202438Y-55579523D02*
X57154819Y-55674761D01*
X57154819Y-55674761D02*
X57154819Y-55865237D01*
X57154819Y-55865237D02*
X57202438Y-55960475D01*
X57202438Y-55960475D02*
X57250057Y-56008094D01*
X57250057Y-56008094D02*
X57345295Y-56055713D01*
X57345295Y-56055713D02*
X57583390Y-56055713D01*
X57583390Y-56055713D02*
X57678628Y-56008094D01*
X57678628Y-56008094D02*
X57726247Y-55960475D01*
X57726247Y-55960475D02*
X57773866Y-55865237D01*
X57773866Y-55865237D02*
X57773866Y-55674761D01*
X57773866Y-55674761D02*
X57726247Y-55579523D01*
X57726247Y-55579523D02*
X57678628Y-55531904D01*
X57678628Y-55531904D02*
X57583390Y-55484285D01*
X67713333Y-59809580D02*
X67665714Y-59857200D01*
X67665714Y-59857200D02*
X67522857Y-59904819D01*
X67522857Y-59904819D02*
X67427619Y-59904819D01*
X67427619Y-59904819D02*
X67284762Y-59857200D01*
X67284762Y-59857200D02*
X67189524Y-59761961D01*
X67189524Y-59761961D02*
X67141905Y-59666723D01*
X67141905Y-59666723D02*
X67094286Y-59476247D01*
X67094286Y-59476247D02*
X67094286Y-59333390D01*
X67094286Y-59333390D02*
X67141905Y-59142914D01*
X67141905Y-59142914D02*
X67189524Y-59047676D01*
X67189524Y-59047676D02*
X67284762Y-58952438D01*
X67284762Y-58952438D02*
X67427619Y-58904819D01*
X67427619Y-58904819D02*
X67522857Y-58904819D01*
X67522857Y-58904819D02*
X67665714Y-58952438D01*
X67665714Y-58952438D02*
X67713333Y-59000057D01*
X68618095Y-58904819D02*
X68141905Y-58904819D01*
X68141905Y-58904819D02*
X68094286Y-59381009D01*
X68094286Y-59381009D02*
X68141905Y-59333390D01*
X68141905Y-59333390D02*
X68237143Y-59285771D01*
X68237143Y-59285771D02*
X68475238Y-59285771D01*
X68475238Y-59285771D02*
X68570476Y-59333390D01*
X68570476Y-59333390D02*
X68618095Y-59381009D01*
X68618095Y-59381009D02*
X68665714Y-59476247D01*
X68665714Y-59476247D02*
X68665714Y-59714342D01*
X68665714Y-59714342D02*
X68618095Y-59809580D01*
X68618095Y-59809580D02*
X68570476Y-59857200D01*
X68570476Y-59857200D02*
X68475238Y-59904819D01*
X68475238Y-59904819D02*
X68237143Y-59904819D01*
X68237143Y-59904819D02*
X68141905Y-59857200D01*
X68141905Y-59857200D02*
X68094286Y-59809580D01*
X70579761Y-93125057D02*
X70484523Y-93077438D01*
X70484523Y-93077438D02*
X70389285Y-92982200D01*
X70389285Y-92982200D02*
X70246428Y-92839342D01*
X70246428Y-92839342D02*
X70151190Y-92791723D01*
X70151190Y-92791723D02*
X70055952Y-92791723D01*
X70103571Y-93029819D02*
X70008333Y-92982200D01*
X70008333Y-92982200D02*
X69913095Y-92886961D01*
X69913095Y-92886961D02*
X69865476Y-92696485D01*
X69865476Y-92696485D02*
X69865476Y-92363152D01*
X69865476Y-92363152D02*
X69913095Y-92172676D01*
X69913095Y-92172676D02*
X70008333Y-92077438D01*
X70008333Y-92077438D02*
X70103571Y-92029819D01*
X70103571Y-92029819D02*
X70294047Y-92029819D01*
X70294047Y-92029819D02*
X70389285Y-92077438D01*
X70389285Y-92077438D02*
X70484523Y-92172676D01*
X70484523Y-92172676D02*
X70532142Y-92363152D01*
X70532142Y-92363152D02*
X70532142Y-92696485D01*
X70532142Y-92696485D02*
X70484523Y-92886961D01*
X70484523Y-92886961D02*
X70389285Y-92982200D01*
X70389285Y-92982200D02*
X70294047Y-93029819D01*
X70294047Y-93029819D02*
X70103571Y-93029819D01*
X71103571Y-92458390D02*
X71008333Y-92410771D01*
X71008333Y-92410771D02*
X70960714Y-92363152D01*
X70960714Y-92363152D02*
X70913095Y-92267914D01*
X70913095Y-92267914D02*
X70913095Y-92220295D01*
X70913095Y-92220295D02*
X70960714Y-92125057D01*
X70960714Y-92125057D02*
X71008333Y-92077438D01*
X71008333Y-92077438D02*
X71103571Y-92029819D01*
X71103571Y-92029819D02*
X71294047Y-92029819D01*
X71294047Y-92029819D02*
X71389285Y-92077438D01*
X71389285Y-92077438D02*
X71436904Y-92125057D01*
X71436904Y-92125057D02*
X71484523Y-92220295D01*
X71484523Y-92220295D02*
X71484523Y-92267914D01*
X71484523Y-92267914D02*
X71436904Y-92363152D01*
X71436904Y-92363152D02*
X71389285Y-92410771D01*
X71389285Y-92410771D02*
X71294047Y-92458390D01*
X71294047Y-92458390D02*
X71103571Y-92458390D01*
X71103571Y-92458390D02*
X71008333Y-92506009D01*
X71008333Y-92506009D02*
X70960714Y-92553628D01*
X70960714Y-92553628D02*
X70913095Y-92648866D01*
X70913095Y-92648866D02*
X70913095Y-92839342D01*
X70913095Y-92839342D02*
X70960714Y-92934580D01*
X70960714Y-92934580D02*
X71008333Y-92982200D01*
X71008333Y-92982200D02*
X71103571Y-93029819D01*
X71103571Y-93029819D02*
X71294047Y-93029819D01*
X71294047Y-93029819D02*
X71389285Y-92982200D01*
X71389285Y-92982200D02*
X71436904Y-92934580D01*
X71436904Y-92934580D02*
X71484523Y-92839342D01*
X71484523Y-92839342D02*
X71484523Y-92648866D01*
X71484523Y-92648866D02*
X71436904Y-92553628D01*
X71436904Y-92553628D02*
X71389285Y-92506009D01*
X71389285Y-92506009D02*
X71294047Y-92458390D01*
X83154819Y-31592857D02*
X82678628Y-31926190D01*
X83154819Y-32164285D02*
X82154819Y-32164285D01*
X82154819Y-32164285D02*
X82154819Y-31783333D01*
X82154819Y-31783333D02*
X82202438Y-31688095D01*
X82202438Y-31688095D02*
X82250057Y-31640476D01*
X82250057Y-31640476D02*
X82345295Y-31592857D01*
X82345295Y-31592857D02*
X82488152Y-31592857D01*
X82488152Y-31592857D02*
X82583390Y-31640476D01*
X82583390Y-31640476D02*
X82631009Y-31688095D01*
X82631009Y-31688095D02*
X82678628Y-31783333D01*
X82678628Y-31783333D02*
X82678628Y-32164285D01*
X83154819Y-30640476D02*
X83154819Y-31211904D01*
X83154819Y-30926190D02*
X82154819Y-30926190D01*
X82154819Y-30926190D02*
X82297676Y-31021428D01*
X82297676Y-31021428D02*
X82392914Y-31116666D01*
X82392914Y-31116666D02*
X82440533Y-31211904D01*
X82154819Y-30307142D02*
X82154819Y-29640476D01*
X82154819Y-29640476D02*
X83154819Y-30069047D01*
X65057142Y-66259580D02*
X65009523Y-66307200D01*
X65009523Y-66307200D02*
X64866666Y-66354819D01*
X64866666Y-66354819D02*
X64771428Y-66354819D01*
X64771428Y-66354819D02*
X64628571Y-66307200D01*
X64628571Y-66307200D02*
X64533333Y-66211961D01*
X64533333Y-66211961D02*
X64485714Y-66116723D01*
X64485714Y-66116723D02*
X64438095Y-65926247D01*
X64438095Y-65926247D02*
X64438095Y-65783390D01*
X64438095Y-65783390D02*
X64485714Y-65592914D01*
X64485714Y-65592914D02*
X64533333Y-65497676D01*
X64533333Y-65497676D02*
X64628571Y-65402438D01*
X64628571Y-65402438D02*
X64771428Y-65354819D01*
X64771428Y-65354819D02*
X64866666Y-65354819D01*
X64866666Y-65354819D02*
X65009523Y-65402438D01*
X65009523Y-65402438D02*
X65057142Y-65450057D01*
X66009523Y-66354819D02*
X65438095Y-66354819D01*
X65723809Y-66354819D02*
X65723809Y-65354819D01*
X65723809Y-65354819D02*
X65628571Y-65497676D01*
X65628571Y-65497676D02*
X65533333Y-65592914D01*
X65533333Y-65592914D02*
X65438095Y-65640533D01*
X66961904Y-66354819D02*
X66390476Y-66354819D01*
X66676190Y-66354819D02*
X66676190Y-65354819D01*
X66676190Y-65354819D02*
X66580952Y-65497676D01*
X66580952Y-65497676D02*
X66485714Y-65592914D01*
X66485714Y-65592914D02*
X66390476Y-65640533D01*
X54712142Y-91809580D02*
X54664523Y-91857200D01*
X54664523Y-91857200D02*
X54521666Y-91904819D01*
X54521666Y-91904819D02*
X54426428Y-91904819D01*
X54426428Y-91904819D02*
X54283571Y-91857200D01*
X54283571Y-91857200D02*
X54188333Y-91761961D01*
X54188333Y-91761961D02*
X54140714Y-91666723D01*
X54140714Y-91666723D02*
X54093095Y-91476247D01*
X54093095Y-91476247D02*
X54093095Y-91333390D01*
X54093095Y-91333390D02*
X54140714Y-91142914D01*
X54140714Y-91142914D02*
X54188333Y-91047676D01*
X54188333Y-91047676D02*
X54283571Y-90952438D01*
X54283571Y-90952438D02*
X54426428Y-90904819D01*
X54426428Y-90904819D02*
X54521666Y-90904819D01*
X54521666Y-90904819D02*
X54664523Y-90952438D01*
X54664523Y-90952438D02*
X54712142Y-91000057D01*
X55664523Y-91904819D02*
X55093095Y-91904819D01*
X55378809Y-91904819D02*
X55378809Y-90904819D01*
X55378809Y-90904819D02*
X55283571Y-91047676D01*
X55283571Y-91047676D02*
X55188333Y-91142914D01*
X55188333Y-91142914D02*
X55093095Y-91190533D01*
X56569285Y-90904819D02*
X56093095Y-90904819D01*
X56093095Y-90904819D02*
X56045476Y-91381009D01*
X56045476Y-91381009D02*
X56093095Y-91333390D01*
X56093095Y-91333390D02*
X56188333Y-91285771D01*
X56188333Y-91285771D02*
X56426428Y-91285771D01*
X56426428Y-91285771D02*
X56521666Y-91333390D01*
X56521666Y-91333390D02*
X56569285Y-91381009D01*
X56569285Y-91381009D02*
X56616904Y-91476247D01*
X56616904Y-91476247D02*
X56616904Y-91714342D01*
X56616904Y-91714342D02*
X56569285Y-91809580D01*
X56569285Y-91809580D02*
X56521666Y-91857200D01*
X56521666Y-91857200D02*
X56426428Y-91904819D01*
X56426428Y-91904819D02*
X56188333Y-91904819D01*
X56188333Y-91904819D02*
X56093095Y-91857200D01*
X56093095Y-91857200D02*
X56045476Y-91809580D01*
X58533333Y-84404819D02*
X58200000Y-83928628D01*
X57961905Y-84404819D02*
X57961905Y-83404819D01*
X57961905Y-83404819D02*
X58342857Y-83404819D01*
X58342857Y-83404819D02*
X58438095Y-83452438D01*
X58438095Y-83452438D02*
X58485714Y-83500057D01*
X58485714Y-83500057D02*
X58533333Y-83595295D01*
X58533333Y-83595295D02*
X58533333Y-83738152D01*
X58533333Y-83738152D02*
X58485714Y-83833390D01*
X58485714Y-83833390D02*
X58438095Y-83881009D01*
X58438095Y-83881009D02*
X58342857Y-83928628D01*
X58342857Y-83928628D02*
X57961905Y-83928628D01*
X59009524Y-84404819D02*
X59200000Y-84404819D01*
X59200000Y-84404819D02*
X59295238Y-84357200D01*
X59295238Y-84357200D02*
X59342857Y-84309580D01*
X59342857Y-84309580D02*
X59438095Y-84166723D01*
X59438095Y-84166723D02*
X59485714Y-83976247D01*
X59485714Y-83976247D02*
X59485714Y-83595295D01*
X59485714Y-83595295D02*
X59438095Y-83500057D01*
X59438095Y-83500057D02*
X59390476Y-83452438D01*
X59390476Y-83452438D02*
X59295238Y-83404819D01*
X59295238Y-83404819D02*
X59104762Y-83404819D01*
X59104762Y-83404819D02*
X59009524Y-83452438D01*
X59009524Y-83452438D02*
X58961905Y-83500057D01*
X58961905Y-83500057D02*
X58914286Y-83595295D01*
X58914286Y-83595295D02*
X58914286Y-83833390D01*
X58914286Y-83833390D02*
X58961905Y-83928628D01*
X58961905Y-83928628D02*
X59009524Y-83976247D01*
X59009524Y-83976247D02*
X59104762Y-84023866D01*
X59104762Y-84023866D02*
X59295238Y-84023866D01*
X59295238Y-84023866D02*
X59390476Y-83976247D01*
X59390476Y-83976247D02*
X59438095Y-83928628D01*
X59438095Y-83928628D02*
X59485714Y-83833390D01*
X82057142Y-98404819D02*
X81723809Y-97928628D01*
X81485714Y-98404819D02*
X81485714Y-97404819D01*
X81485714Y-97404819D02*
X81866666Y-97404819D01*
X81866666Y-97404819D02*
X81961904Y-97452438D01*
X81961904Y-97452438D02*
X82009523Y-97500057D01*
X82009523Y-97500057D02*
X82057142Y-97595295D01*
X82057142Y-97595295D02*
X82057142Y-97738152D01*
X82057142Y-97738152D02*
X82009523Y-97833390D01*
X82009523Y-97833390D02*
X81961904Y-97881009D01*
X81961904Y-97881009D02*
X81866666Y-97928628D01*
X81866666Y-97928628D02*
X81485714Y-97928628D01*
X82438095Y-97500057D02*
X82485714Y-97452438D01*
X82485714Y-97452438D02*
X82580952Y-97404819D01*
X82580952Y-97404819D02*
X82819047Y-97404819D01*
X82819047Y-97404819D02*
X82914285Y-97452438D01*
X82914285Y-97452438D02*
X82961904Y-97500057D01*
X82961904Y-97500057D02*
X83009523Y-97595295D01*
X83009523Y-97595295D02*
X83009523Y-97690533D01*
X83009523Y-97690533D02*
X82961904Y-97833390D01*
X82961904Y-97833390D02*
X82390476Y-98404819D01*
X82390476Y-98404819D02*
X83009523Y-98404819D01*
X83866666Y-97738152D02*
X83866666Y-98404819D01*
X83628571Y-97357200D02*
X83390476Y-98071485D01*
X83390476Y-98071485D02*
X84009523Y-98071485D01*
X71557142Y-99809580D02*
X71509523Y-99857200D01*
X71509523Y-99857200D02*
X71366666Y-99904819D01*
X71366666Y-99904819D02*
X71271428Y-99904819D01*
X71271428Y-99904819D02*
X71128571Y-99857200D01*
X71128571Y-99857200D02*
X71033333Y-99761961D01*
X71033333Y-99761961D02*
X70985714Y-99666723D01*
X70985714Y-99666723D02*
X70938095Y-99476247D01*
X70938095Y-99476247D02*
X70938095Y-99333390D01*
X70938095Y-99333390D02*
X70985714Y-99142914D01*
X70985714Y-99142914D02*
X71033333Y-99047676D01*
X71033333Y-99047676D02*
X71128571Y-98952438D01*
X71128571Y-98952438D02*
X71271428Y-98904819D01*
X71271428Y-98904819D02*
X71366666Y-98904819D01*
X71366666Y-98904819D02*
X71509523Y-98952438D01*
X71509523Y-98952438D02*
X71557142Y-99000057D01*
X72509523Y-99904819D02*
X71938095Y-99904819D01*
X72223809Y-99904819D02*
X72223809Y-98904819D01*
X72223809Y-98904819D02*
X72128571Y-99047676D01*
X72128571Y-99047676D02*
X72033333Y-99142914D01*
X72033333Y-99142914D02*
X71938095Y-99190533D01*
X72985714Y-99904819D02*
X73176190Y-99904819D01*
X73176190Y-99904819D02*
X73271428Y-99857200D01*
X73271428Y-99857200D02*
X73319047Y-99809580D01*
X73319047Y-99809580D02*
X73414285Y-99666723D01*
X73414285Y-99666723D02*
X73461904Y-99476247D01*
X73461904Y-99476247D02*
X73461904Y-99095295D01*
X73461904Y-99095295D02*
X73414285Y-99000057D01*
X73414285Y-99000057D02*
X73366666Y-98952438D01*
X73366666Y-98952438D02*
X73271428Y-98904819D01*
X73271428Y-98904819D02*
X73080952Y-98904819D01*
X73080952Y-98904819D02*
X72985714Y-98952438D01*
X72985714Y-98952438D02*
X72938095Y-99000057D01*
X72938095Y-99000057D02*
X72890476Y-99095295D01*
X72890476Y-99095295D02*
X72890476Y-99333390D01*
X72890476Y-99333390D02*
X72938095Y-99428628D01*
X72938095Y-99428628D02*
X72985714Y-99476247D01*
X72985714Y-99476247D02*
X73080952Y-99523866D01*
X73080952Y-99523866D02*
X73271428Y-99523866D01*
X73271428Y-99523866D02*
X73366666Y-99476247D01*
X73366666Y-99476247D02*
X73414285Y-99428628D01*
X73414285Y-99428628D02*
X73461904Y-99333390D01*
X60057142Y-66259580D02*
X60009523Y-66307200D01*
X60009523Y-66307200D02*
X59866666Y-66354819D01*
X59866666Y-66354819D02*
X59771428Y-66354819D01*
X59771428Y-66354819D02*
X59628571Y-66307200D01*
X59628571Y-66307200D02*
X59533333Y-66211961D01*
X59533333Y-66211961D02*
X59485714Y-66116723D01*
X59485714Y-66116723D02*
X59438095Y-65926247D01*
X59438095Y-65926247D02*
X59438095Y-65783390D01*
X59438095Y-65783390D02*
X59485714Y-65592914D01*
X59485714Y-65592914D02*
X59533333Y-65497676D01*
X59533333Y-65497676D02*
X59628571Y-65402438D01*
X59628571Y-65402438D02*
X59771428Y-65354819D01*
X59771428Y-65354819D02*
X59866666Y-65354819D01*
X59866666Y-65354819D02*
X60009523Y-65402438D01*
X60009523Y-65402438D02*
X60057142Y-65450057D01*
X61009523Y-66354819D02*
X60438095Y-66354819D01*
X60723809Y-66354819D02*
X60723809Y-65354819D01*
X60723809Y-65354819D02*
X60628571Y-65497676D01*
X60628571Y-65497676D02*
X60533333Y-65592914D01*
X60533333Y-65592914D02*
X60438095Y-65640533D01*
X61866666Y-65688152D02*
X61866666Y-66354819D01*
X61628571Y-65307200D02*
X61390476Y-66021485D01*
X61390476Y-66021485D02*
X62009523Y-66021485D01*
X88197142Y-55404819D02*
X87863809Y-54928628D01*
X87625714Y-55404819D02*
X87625714Y-54404819D01*
X87625714Y-54404819D02*
X88006666Y-54404819D01*
X88006666Y-54404819D02*
X88101904Y-54452438D01*
X88101904Y-54452438D02*
X88149523Y-54500057D01*
X88149523Y-54500057D02*
X88197142Y-54595295D01*
X88197142Y-54595295D02*
X88197142Y-54738152D01*
X88197142Y-54738152D02*
X88149523Y-54833390D01*
X88149523Y-54833390D02*
X88101904Y-54881009D01*
X88101904Y-54881009D02*
X88006666Y-54928628D01*
X88006666Y-54928628D02*
X87625714Y-54928628D01*
X89149523Y-55404819D02*
X88578095Y-55404819D01*
X88863809Y-55404819D02*
X88863809Y-54404819D01*
X88863809Y-54404819D02*
X88768571Y-54547676D01*
X88768571Y-54547676D02*
X88673333Y-54642914D01*
X88673333Y-54642914D02*
X88578095Y-54690533D01*
X90101904Y-55404819D02*
X89530476Y-55404819D01*
X89816190Y-55404819D02*
X89816190Y-54404819D01*
X89816190Y-54404819D02*
X89720952Y-54547676D01*
X89720952Y-54547676D02*
X89625714Y-54642914D01*
X89625714Y-54642914D02*
X89530476Y-54690533D01*
D11*
X82633609Y-38664285D02*
X82633609Y-38330952D01*
X83157419Y-38188095D02*
X83157419Y-38664285D01*
X83157419Y-38664285D02*
X82157419Y-38664285D01*
X82157419Y-38664285D02*
X82157419Y-38188095D01*
X83157419Y-37759523D02*
X82157419Y-37759523D01*
X82157419Y-37759523D02*
X83157419Y-37188095D01*
X83157419Y-37188095D02*
X82157419Y-37188095D01*
X83062180Y-36140476D02*
X83109800Y-36188095D01*
X83109800Y-36188095D02*
X83157419Y-36330952D01*
X83157419Y-36330952D02*
X83157419Y-36426190D01*
X83157419Y-36426190D02*
X83109800Y-36569047D01*
X83109800Y-36569047D02*
X83014561Y-36664285D01*
X83014561Y-36664285D02*
X82919323Y-36711904D01*
X82919323Y-36711904D02*
X82728847Y-36759523D01*
X82728847Y-36759523D02*
X82585990Y-36759523D01*
X82585990Y-36759523D02*
X82395514Y-36711904D01*
X82395514Y-36711904D02*
X82300276Y-36664285D01*
X82300276Y-36664285D02*
X82205038Y-36569047D01*
X82205038Y-36569047D02*
X82157419Y-36426190D01*
X82157419Y-36426190D02*
X82157419Y-36330952D01*
X82157419Y-36330952D02*
X82205038Y-36188095D01*
X82205038Y-36188095D02*
X82252657Y-36140476D01*
X83157419Y-35188095D02*
X83157419Y-35759523D01*
X83157419Y-35473809D02*
X82157419Y-35473809D01*
X82157419Y-35473809D02*
X82300276Y-35569047D01*
X82300276Y-35569047D02*
X82395514Y-35664285D01*
X82395514Y-35664285D02*
X82443133Y-35759523D01*
D10*
X62579761Y-93125057D02*
X62484523Y-93077438D01*
X62484523Y-93077438D02*
X62389285Y-92982200D01*
X62389285Y-92982200D02*
X62246428Y-92839342D01*
X62246428Y-92839342D02*
X62151190Y-92791723D01*
X62151190Y-92791723D02*
X62055952Y-92791723D01*
X62103571Y-93029819D02*
X62008333Y-92982200D01*
X62008333Y-92982200D02*
X61913095Y-92886961D01*
X61913095Y-92886961D02*
X61865476Y-92696485D01*
X61865476Y-92696485D02*
X61865476Y-92363152D01*
X61865476Y-92363152D02*
X61913095Y-92172676D01*
X61913095Y-92172676D02*
X62008333Y-92077438D01*
X62008333Y-92077438D02*
X62103571Y-92029819D01*
X62103571Y-92029819D02*
X62294047Y-92029819D01*
X62294047Y-92029819D02*
X62389285Y-92077438D01*
X62389285Y-92077438D02*
X62484523Y-92172676D01*
X62484523Y-92172676D02*
X62532142Y-92363152D01*
X62532142Y-92363152D02*
X62532142Y-92696485D01*
X62532142Y-92696485D02*
X62484523Y-92886961D01*
X62484523Y-92886961D02*
X62389285Y-92982200D01*
X62389285Y-92982200D02*
X62294047Y-93029819D01*
X62294047Y-93029819D02*
X62103571Y-93029819D01*
X62865476Y-92029819D02*
X63532142Y-92029819D01*
X63532142Y-92029819D02*
X63103571Y-93029819D01*
X62713333Y-68454819D02*
X62380000Y-67978628D01*
X62141905Y-68454819D02*
X62141905Y-67454819D01*
X62141905Y-67454819D02*
X62522857Y-67454819D01*
X62522857Y-67454819D02*
X62618095Y-67502438D01*
X62618095Y-67502438D02*
X62665714Y-67550057D01*
X62665714Y-67550057D02*
X62713333Y-67645295D01*
X62713333Y-67645295D02*
X62713333Y-67788152D01*
X62713333Y-67788152D02*
X62665714Y-67883390D01*
X62665714Y-67883390D02*
X62618095Y-67931009D01*
X62618095Y-67931009D02*
X62522857Y-67978628D01*
X62522857Y-67978628D02*
X62141905Y-67978628D01*
X63284762Y-67883390D02*
X63189524Y-67835771D01*
X63189524Y-67835771D02*
X63141905Y-67788152D01*
X63141905Y-67788152D02*
X63094286Y-67692914D01*
X63094286Y-67692914D02*
X63094286Y-67645295D01*
X63094286Y-67645295D02*
X63141905Y-67550057D01*
X63141905Y-67550057D02*
X63189524Y-67502438D01*
X63189524Y-67502438D02*
X63284762Y-67454819D01*
X63284762Y-67454819D02*
X63475238Y-67454819D01*
X63475238Y-67454819D02*
X63570476Y-67502438D01*
X63570476Y-67502438D02*
X63618095Y-67550057D01*
X63618095Y-67550057D02*
X63665714Y-67645295D01*
X63665714Y-67645295D02*
X63665714Y-67692914D01*
X63665714Y-67692914D02*
X63618095Y-67788152D01*
X63618095Y-67788152D02*
X63570476Y-67835771D01*
X63570476Y-67835771D02*
X63475238Y-67883390D01*
X63475238Y-67883390D02*
X63284762Y-67883390D01*
X63284762Y-67883390D02*
X63189524Y-67931009D01*
X63189524Y-67931009D02*
X63141905Y-67978628D01*
X63141905Y-67978628D02*
X63094286Y-68073866D01*
X63094286Y-68073866D02*
X63094286Y-68264342D01*
X63094286Y-68264342D02*
X63141905Y-68359580D01*
X63141905Y-68359580D02*
X63189524Y-68407200D01*
X63189524Y-68407200D02*
X63284762Y-68454819D01*
X63284762Y-68454819D02*
X63475238Y-68454819D01*
X63475238Y-68454819D02*
X63570476Y-68407200D01*
X63570476Y-68407200D02*
X63618095Y-68359580D01*
X63618095Y-68359580D02*
X63665714Y-68264342D01*
X63665714Y-68264342D02*
X63665714Y-68073866D01*
X63665714Y-68073866D02*
X63618095Y-67978628D01*
X63618095Y-67978628D02*
X63570476Y-67931009D01*
X63570476Y-67931009D02*
X63475238Y-67883390D01*
X57461904Y-25824819D02*
X56985714Y-25824819D01*
X56985714Y-25824819D02*
X56985714Y-24824819D01*
X57795238Y-25824819D02*
X57795238Y-24824819D01*
X57795238Y-24824819D02*
X58128571Y-25539104D01*
X58128571Y-25539104D02*
X58461904Y-24824819D01*
X58461904Y-24824819D02*
X58461904Y-25824819D01*
X59271428Y-25301009D02*
X59414285Y-25348628D01*
X59414285Y-25348628D02*
X59461904Y-25396247D01*
X59461904Y-25396247D02*
X59509523Y-25491485D01*
X59509523Y-25491485D02*
X59509523Y-25634342D01*
X59509523Y-25634342D02*
X59461904Y-25729580D01*
X59461904Y-25729580D02*
X59414285Y-25777200D01*
X59414285Y-25777200D02*
X59319047Y-25824819D01*
X59319047Y-25824819D02*
X58938095Y-25824819D01*
X58938095Y-25824819D02*
X58938095Y-24824819D01*
X58938095Y-24824819D02*
X59271428Y-24824819D01*
X59271428Y-24824819D02*
X59366666Y-24872438D01*
X59366666Y-24872438D02*
X59414285Y-24920057D01*
X59414285Y-24920057D02*
X59461904Y-25015295D01*
X59461904Y-25015295D02*
X59461904Y-25110533D01*
X59461904Y-25110533D02*
X59414285Y-25205771D01*
X59414285Y-25205771D02*
X59366666Y-25253390D01*
X59366666Y-25253390D02*
X59271428Y-25301009D01*
X59271428Y-25301009D02*
X58938095Y-25301009D01*
X60461904Y-25824819D02*
X59890476Y-25824819D01*
X60176190Y-25824819D02*
X60176190Y-24824819D01*
X60176190Y-24824819D02*
X60080952Y-24967676D01*
X60080952Y-24967676D02*
X59985714Y-25062914D01*
X59985714Y-25062914D02*
X59890476Y-25110533D01*
X53245180Y-84833990D02*
X52245180Y-85500656D01*
X53245180Y-85500656D02*
X52245180Y-84833990D01*
X53245180Y-85738752D02*
X53245180Y-86310180D01*
X52245180Y-86024466D02*
X53245180Y-86024466D01*
X52530895Y-86595895D02*
X52530895Y-87072085D01*
X52245180Y-86500657D02*
X53245180Y-86833990D01*
X53245180Y-86833990D02*
X52245180Y-87167323D01*
X52245180Y-87976847D02*
X52245180Y-87500657D01*
X52245180Y-87500657D02*
X53245180Y-87500657D01*
X52245180Y-88833990D02*
X52245180Y-88262562D01*
X52245180Y-88548276D02*
X53245180Y-88548276D01*
X53245180Y-88548276D02*
X53102323Y-88453038D01*
X53102323Y-88453038D02*
X53007085Y-88357800D01*
X53007085Y-88357800D02*
X52959466Y-88262562D01*
X79557142Y-99809580D02*
X79509523Y-99857200D01*
X79509523Y-99857200D02*
X79366666Y-99904819D01*
X79366666Y-99904819D02*
X79271428Y-99904819D01*
X79271428Y-99904819D02*
X79128571Y-99857200D01*
X79128571Y-99857200D02*
X79033333Y-99761961D01*
X79033333Y-99761961D02*
X78985714Y-99666723D01*
X78985714Y-99666723D02*
X78938095Y-99476247D01*
X78938095Y-99476247D02*
X78938095Y-99333390D01*
X78938095Y-99333390D02*
X78985714Y-99142914D01*
X78985714Y-99142914D02*
X79033333Y-99047676D01*
X79033333Y-99047676D02*
X79128571Y-98952438D01*
X79128571Y-98952438D02*
X79271428Y-98904819D01*
X79271428Y-98904819D02*
X79366666Y-98904819D01*
X79366666Y-98904819D02*
X79509523Y-98952438D01*
X79509523Y-98952438D02*
X79557142Y-99000057D01*
X79938095Y-99000057D02*
X79985714Y-98952438D01*
X79985714Y-98952438D02*
X80080952Y-98904819D01*
X80080952Y-98904819D02*
X80319047Y-98904819D01*
X80319047Y-98904819D02*
X80414285Y-98952438D01*
X80414285Y-98952438D02*
X80461904Y-99000057D01*
X80461904Y-99000057D02*
X80509523Y-99095295D01*
X80509523Y-99095295D02*
X80509523Y-99190533D01*
X80509523Y-99190533D02*
X80461904Y-99333390D01*
X80461904Y-99333390D02*
X79890476Y-99904819D01*
X79890476Y-99904819D02*
X80509523Y-99904819D01*
X81128571Y-98904819D02*
X81223809Y-98904819D01*
X81223809Y-98904819D02*
X81319047Y-98952438D01*
X81319047Y-98952438D02*
X81366666Y-99000057D01*
X81366666Y-99000057D02*
X81414285Y-99095295D01*
X81414285Y-99095295D02*
X81461904Y-99285771D01*
X81461904Y-99285771D02*
X81461904Y-99523866D01*
X81461904Y-99523866D02*
X81414285Y-99714342D01*
X81414285Y-99714342D02*
X81366666Y-99809580D01*
X81366666Y-99809580D02*
X81319047Y-99857200D01*
X81319047Y-99857200D02*
X81223809Y-99904819D01*
X81223809Y-99904819D02*
X81128571Y-99904819D01*
X81128571Y-99904819D02*
X81033333Y-99857200D01*
X81033333Y-99857200D02*
X80985714Y-99809580D01*
X80985714Y-99809580D02*
X80938095Y-99714342D01*
X80938095Y-99714342D02*
X80890476Y-99523866D01*
X80890476Y-99523866D02*
X80890476Y-99285771D01*
X80890476Y-99285771D02*
X80938095Y-99095295D01*
X80938095Y-99095295D02*
X80985714Y-99000057D01*
X80985714Y-99000057D02*
X81033333Y-98952438D01*
X81033333Y-98952438D02*
X81128571Y-98904819D01*
X78579761Y-93125057D02*
X78484523Y-93077438D01*
X78484523Y-93077438D02*
X78389285Y-92982200D01*
X78389285Y-92982200D02*
X78246428Y-92839342D01*
X78246428Y-92839342D02*
X78151190Y-92791723D01*
X78151190Y-92791723D02*
X78055952Y-92791723D01*
X78103571Y-93029819D02*
X78008333Y-92982200D01*
X78008333Y-92982200D02*
X77913095Y-92886961D01*
X77913095Y-92886961D02*
X77865476Y-92696485D01*
X77865476Y-92696485D02*
X77865476Y-92363152D01*
X77865476Y-92363152D02*
X77913095Y-92172676D01*
X77913095Y-92172676D02*
X78008333Y-92077438D01*
X78008333Y-92077438D02*
X78103571Y-92029819D01*
X78103571Y-92029819D02*
X78294047Y-92029819D01*
X78294047Y-92029819D02*
X78389285Y-92077438D01*
X78389285Y-92077438D02*
X78484523Y-92172676D01*
X78484523Y-92172676D02*
X78532142Y-92363152D01*
X78532142Y-92363152D02*
X78532142Y-92696485D01*
X78532142Y-92696485D02*
X78484523Y-92886961D01*
X78484523Y-92886961D02*
X78389285Y-92982200D01*
X78389285Y-92982200D02*
X78294047Y-93029819D01*
X78294047Y-93029819D02*
X78103571Y-93029819D01*
X79008333Y-93029819D02*
X79198809Y-93029819D01*
X79198809Y-93029819D02*
X79294047Y-92982200D01*
X79294047Y-92982200D02*
X79341666Y-92934580D01*
X79341666Y-92934580D02*
X79436904Y-92791723D01*
X79436904Y-92791723D02*
X79484523Y-92601247D01*
X79484523Y-92601247D02*
X79484523Y-92220295D01*
X79484523Y-92220295D02*
X79436904Y-92125057D01*
X79436904Y-92125057D02*
X79389285Y-92077438D01*
X79389285Y-92077438D02*
X79294047Y-92029819D01*
X79294047Y-92029819D02*
X79103571Y-92029819D01*
X79103571Y-92029819D02*
X79008333Y-92077438D01*
X79008333Y-92077438D02*
X78960714Y-92125057D01*
X78960714Y-92125057D02*
X78913095Y-92220295D01*
X78913095Y-92220295D02*
X78913095Y-92458390D01*
X78913095Y-92458390D02*
X78960714Y-92553628D01*
X78960714Y-92553628D02*
X79008333Y-92601247D01*
X79008333Y-92601247D02*
X79103571Y-92648866D01*
X79103571Y-92648866D02*
X79294047Y-92648866D01*
X79294047Y-92648866D02*
X79389285Y-92601247D01*
X79389285Y-92601247D02*
X79436904Y-92553628D01*
X79436904Y-92553628D02*
X79484523Y-92458390D01*
X64961905Y-94904819D02*
X64961905Y-93904819D01*
X64961905Y-93904819D02*
X65200000Y-93904819D01*
X65200000Y-93904819D02*
X65342857Y-93952438D01*
X65342857Y-93952438D02*
X65438095Y-94047676D01*
X65438095Y-94047676D02*
X65485714Y-94142914D01*
X65485714Y-94142914D02*
X65533333Y-94333390D01*
X65533333Y-94333390D02*
X65533333Y-94476247D01*
X65533333Y-94476247D02*
X65485714Y-94666723D01*
X65485714Y-94666723D02*
X65438095Y-94761961D01*
X65438095Y-94761961D02*
X65342857Y-94857200D01*
X65342857Y-94857200D02*
X65200000Y-94904819D01*
X65200000Y-94904819D02*
X64961905Y-94904819D01*
X66390476Y-93904819D02*
X66200000Y-93904819D01*
X66200000Y-93904819D02*
X66104762Y-93952438D01*
X66104762Y-93952438D02*
X66057143Y-94000057D01*
X66057143Y-94000057D02*
X65961905Y-94142914D01*
X65961905Y-94142914D02*
X65914286Y-94333390D01*
X65914286Y-94333390D02*
X65914286Y-94714342D01*
X65914286Y-94714342D02*
X65961905Y-94809580D01*
X65961905Y-94809580D02*
X66009524Y-94857200D01*
X66009524Y-94857200D02*
X66104762Y-94904819D01*
X66104762Y-94904819D02*
X66295238Y-94904819D01*
X66295238Y-94904819D02*
X66390476Y-94857200D01*
X66390476Y-94857200D02*
X66438095Y-94809580D01*
X66438095Y-94809580D02*
X66485714Y-94714342D01*
X66485714Y-94714342D02*
X66485714Y-94476247D01*
X66485714Y-94476247D02*
X66438095Y-94381009D01*
X66438095Y-94381009D02*
X66390476Y-94333390D01*
X66390476Y-94333390D02*
X66295238Y-94285771D01*
X66295238Y-94285771D02*
X66104762Y-94285771D01*
X66104762Y-94285771D02*
X66009524Y-94333390D01*
X66009524Y-94333390D02*
X65961905Y-94381009D01*
X65961905Y-94381009D02*
X65914286Y-94476247D01*
X92378333Y-57809580D02*
X92330714Y-57857200D01*
X92330714Y-57857200D02*
X92187857Y-57904819D01*
X92187857Y-57904819D02*
X92092619Y-57904819D01*
X92092619Y-57904819D02*
X91949762Y-57857200D01*
X91949762Y-57857200D02*
X91854524Y-57761961D01*
X91854524Y-57761961D02*
X91806905Y-57666723D01*
X91806905Y-57666723D02*
X91759286Y-57476247D01*
X91759286Y-57476247D02*
X91759286Y-57333390D01*
X91759286Y-57333390D02*
X91806905Y-57142914D01*
X91806905Y-57142914D02*
X91854524Y-57047676D01*
X91854524Y-57047676D02*
X91949762Y-56952438D01*
X91949762Y-56952438D02*
X92092619Y-56904819D01*
X92092619Y-56904819D02*
X92187857Y-56904819D01*
X92187857Y-56904819D02*
X92330714Y-56952438D01*
X92330714Y-56952438D02*
X92378333Y-57000057D01*
X92711667Y-56904819D02*
X93378333Y-56904819D01*
X93378333Y-56904819D02*
X92949762Y-57904819D01*
X92961904Y-25894819D02*
X92628571Y-25418628D01*
X92390476Y-25894819D02*
X92390476Y-24894819D01*
X92390476Y-24894819D02*
X92771428Y-24894819D01*
X92771428Y-24894819D02*
X92866666Y-24942438D01*
X92866666Y-24942438D02*
X92914285Y-24990057D01*
X92914285Y-24990057D02*
X92961904Y-25085295D01*
X92961904Y-25085295D02*
X92961904Y-25228152D01*
X92961904Y-25228152D02*
X92914285Y-25323390D01*
X92914285Y-25323390D02*
X92866666Y-25371009D01*
X92866666Y-25371009D02*
X92771428Y-25418628D01*
X92771428Y-25418628D02*
X92390476Y-25418628D01*
X93390476Y-25894819D02*
X93390476Y-24894819D01*
X93390476Y-24894819D02*
X93723809Y-25609104D01*
X93723809Y-25609104D02*
X94057142Y-24894819D01*
X94057142Y-24894819D02*
X94057142Y-25894819D01*
X94866666Y-25371009D02*
X95009523Y-25418628D01*
X95009523Y-25418628D02*
X95057142Y-25466247D01*
X95057142Y-25466247D02*
X95104761Y-25561485D01*
X95104761Y-25561485D02*
X95104761Y-25704342D01*
X95104761Y-25704342D02*
X95057142Y-25799580D01*
X95057142Y-25799580D02*
X95009523Y-25847200D01*
X95009523Y-25847200D02*
X94914285Y-25894819D01*
X94914285Y-25894819D02*
X94533333Y-25894819D01*
X94533333Y-25894819D02*
X94533333Y-24894819D01*
X94533333Y-24894819D02*
X94866666Y-24894819D01*
X94866666Y-24894819D02*
X94961904Y-24942438D01*
X94961904Y-24942438D02*
X95009523Y-24990057D01*
X95009523Y-24990057D02*
X95057142Y-25085295D01*
X95057142Y-25085295D02*
X95057142Y-25180533D01*
X95057142Y-25180533D02*
X95009523Y-25275771D01*
X95009523Y-25275771D02*
X94961904Y-25323390D01*
X94961904Y-25323390D02*
X94866666Y-25371009D01*
X94866666Y-25371009D02*
X94533333Y-25371009D01*
X96057142Y-25894819D02*
X95485714Y-25894819D01*
X95771428Y-25894819D02*
X95771428Y-24894819D01*
X95771428Y-24894819D02*
X95676190Y-25037676D01*
X95676190Y-25037676D02*
X95580952Y-25132914D01*
X95580952Y-25132914D02*
X95485714Y-25180533D01*
X93666666Y-68484819D02*
X93666666Y-69199104D01*
X93666666Y-69199104D02*
X93619047Y-69341961D01*
X93619047Y-69341961D02*
X93523809Y-69437200D01*
X93523809Y-69437200D02*
X93380952Y-69484819D01*
X93380952Y-69484819D02*
X93285714Y-69484819D01*
X94666666Y-69484819D02*
X94095238Y-69484819D01*
X94380952Y-69484819D02*
X94380952Y-68484819D01*
X94380952Y-68484819D02*
X94285714Y-68627676D01*
X94285714Y-68627676D02*
X94190476Y-68722914D01*
X94190476Y-68722914D02*
X94095238Y-68770533D01*
X65057142Y-63259580D02*
X65009523Y-63307200D01*
X65009523Y-63307200D02*
X64866666Y-63354819D01*
X64866666Y-63354819D02*
X64771428Y-63354819D01*
X64771428Y-63354819D02*
X64628571Y-63307200D01*
X64628571Y-63307200D02*
X64533333Y-63211961D01*
X64533333Y-63211961D02*
X64485714Y-63116723D01*
X64485714Y-63116723D02*
X64438095Y-62926247D01*
X64438095Y-62926247D02*
X64438095Y-62783390D01*
X64438095Y-62783390D02*
X64485714Y-62592914D01*
X64485714Y-62592914D02*
X64533333Y-62497676D01*
X64533333Y-62497676D02*
X64628571Y-62402438D01*
X64628571Y-62402438D02*
X64771428Y-62354819D01*
X64771428Y-62354819D02*
X64866666Y-62354819D01*
X64866666Y-62354819D02*
X65009523Y-62402438D01*
X65009523Y-62402438D02*
X65057142Y-62450057D01*
X66009523Y-63354819D02*
X65438095Y-63354819D01*
X65723809Y-63354819D02*
X65723809Y-62354819D01*
X65723809Y-62354819D02*
X65628571Y-62497676D01*
X65628571Y-62497676D02*
X65533333Y-62592914D01*
X65533333Y-62592914D02*
X65438095Y-62640533D01*
X66628571Y-62354819D02*
X66723809Y-62354819D01*
X66723809Y-62354819D02*
X66819047Y-62402438D01*
X66819047Y-62402438D02*
X66866666Y-62450057D01*
X66866666Y-62450057D02*
X66914285Y-62545295D01*
X66914285Y-62545295D02*
X66961904Y-62735771D01*
X66961904Y-62735771D02*
X66961904Y-62973866D01*
X66961904Y-62973866D02*
X66914285Y-63164342D01*
X66914285Y-63164342D02*
X66866666Y-63259580D01*
X66866666Y-63259580D02*
X66819047Y-63307200D01*
X66819047Y-63307200D02*
X66723809Y-63354819D01*
X66723809Y-63354819D02*
X66628571Y-63354819D01*
X66628571Y-63354819D02*
X66533333Y-63307200D01*
X66533333Y-63307200D02*
X66485714Y-63259580D01*
X66485714Y-63259580D02*
X66438095Y-63164342D01*
X66438095Y-63164342D02*
X66390476Y-62973866D01*
X66390476Y-62973866D02*
X66390476Y-62735771D01*
X66390476Y-62735771D02*
X66438095Y-62545295D01*
X66438095Y-62545295D02*
X66485714Y-62450057D01*
X66485714Y-62450057D02*
X66533333Y-62402438D01*
X66533333Y-62402438D02*
X66628571Y-62354819D01*
X55961905Y-76904819D02*
X55961905Y-75904819D01*
X55961905Y-75904819D02*
X56200000Y-75904819D01*
X56200000Y-75904819D02*
X56342857Y-75952438D01*
X56342857Y-75952438D02*
X56438095Y-76047676D01*
X56438095Y-76047676D02*
X56485714Y-76142914D01*
X56485714Y-76142914D02*
X56533333Y-76333390D01*
X56533333Y-76333390D02*
X56533333Y-76476247D01*
X56533333Y-76476247D02*
X56485714Y-76666723D01*
X56485714Y-76666723D02*
X56438095Y-76761961D01*
X56438095Y-76761961D02*
X56342857Y-76857200D01*
X56342857Y-76857200D02*
X56200000Y-76904819D01*
X56200000Y-76904819D02*
X55961905Y-76904819D01*
X56914286Y-76000057D02*
X56961905Y-75952438D01*
X56961905Y-75952438D02*
X57057143Y-75904819D01*
X57057143Y-75904819D02*
X57295238Y-75904819D01*
X57295238Y-75904819D02*
X57390476Y-75952438D01*
X57390476Y-75952438D02*
X57438095Y-76000057D01*
X57438095Y-76000057D02*
X57485714Y-76095295D01*
X57485714Y-76095295D02*
X57485714Y-76190533D01*
X57485714Y-76190533D02*
X57438095Y-76333390D01*
X57438095Y-76333390D02*
X56866667Y-76904819D01*
X56866667Y-76904819D02*
X57485714Y-76904819D01*
X74461905Y-48754819D02*
X74461905Y-47754819D01*
X74461905Y-47754819D02*
X74842857Y-47754819D01*
X74842857Y-47754819D02*
X74938095Y-47802438D01*
X74938095Y-47802438D02*
X74985714Y-47850057D01*
X74985714Y-47850057D02*
X75033333Y-47945295D01*
X75033333Y-47945295D02*
X75033333Y-48088152D01*
X75033333Y-48088152D02*
X74985714Y-48183390D01*
X74985714Y-48183390D02*
X74938095Y-48231009D01*
X74938095Y-48231009D02*
X74842857Y-48278628D01*
X74842857Y-48278628D02*
X74461905Y-48278628D01*
X75414286Y-48469104D02*
X75890476Y-48469104D01*
X75319048Y-48754819D02*
X75652381Y-47754819D01*
X75652381Y-47754819D02*
X75985714Y-48754819D01*
X76223810Y-47754819D02*
X76461905Y-48754819D01*
X76461905Y-48754819D02*
X76652381Y-48040533D01*
X76652381Y-48040533D02*
X76842857Y-48754819D01*
X76842857Y-48754819D02*
X77080953Y-47754819D01*
X77985714Y-48754819D02*
X77414286Y-48754819D01*
X77700000Y-48754819D02*
X77700000Y-47754819D01*
X77700000Y-47754819D02*
X77604762Y-47897676D01*
X77604762Y-47897676D02*
X77509524Y-47992914D01*
X77509524Y-47992914D02*
X77414286Y-48040533D01*
X54904819Y-59976668D02*
X54428628Y-60310001D01*
X54904819Y-60548096D02*
X53904819Y-60548096D01*
X53904819Y-60548096D02*
X53904819Y-60167144D01*
X53904819Y-60167144D02*
X53952438Y-60071906D01*
X53952438Y-60071906D02*
X54000057Y-60024287D01*
X54000057Y-60024287D02*
X54095295Y-59976668D01*
X54095295Y-59976668D02*
X54238152Y-59976668D01*
X54238152Y-59976668D02*
X54333390Y-60024287D01*
X54333390Y-60024287D02*
X54381009Y-60071906D01*
X54381009Y-60071906D02*
X54428628Y-60167144D01*
X54428628Y-60167144D02*
X54428628Y-60548096D01*
X54238152Y-59119525D02*
X54904819Y-59119525D01*
X53857200Y-59357620D02*
X54571485Y-59595715D01*
X54571485Y-59595715D02*
X54571485Y-58976668D01*
X88057142Y-38854819D02*
X87723809Y-38378628D01*
X87485714Y-38854819D02*
X87485714Y-37854819D01*
X87485714Y-37854819D02*
X87866666Y-37854819D01*
X87866666Y-37854819D02*
X87961904Y-37902438D01*
X87961904Y-37902438D02*
X88009523Y-37950057D01*
X88009523Y-37950057D02*
X88057142Y-38045295D01*
X88057142Y-38045295D02*
X88057142Y-38188152D01*
X88057142Y-38188152D02*
X88009523Y-38283390D01*
X88009523Y-38283390D02*
X87961904Y-38331009D01*
X87961904Y-38331009D02*
X87866666Y-38378628D01*
X87866666Y-38378628D02*
X87485714Y-38378628D01*
X89009523Y-38854819D02*
X88438095Y-38854819D01*
X88723809Y-38854819D02*
X88723809Y-37854819D01*
X88723809Y-37854819D02*
X88628571Y-37997676D01*
X88628571Y-37997676D02*
X88533333Y-38092914D01*
X88533333Y-38092914D02*
X88438095Y-38140533D01*
X89914285Y-37854819D02*
X89438095Y-37854819D01*
X89438095Y-37854819D02*
X89390476Y-38331009D01*
X89390476Y-38331009D02*
X89438095Y-38283390D01*
X89438095Y-38283390D02*
X89533333Y-38235771D01*
X89533333Y-38235771D02*
X89771428Y-38235771D01*
X89771428Y-38235771D02*
X89866666Y-38283390D01*
X89866666Y-38283390D02*
X89914285Y-38331009D01*
X89914285Y-38331009D02*
X89961904Y-38426247D01*
X89961904Y-38426247D02*
X89961904Y-38664342D01*
X89961904Y-38664342D02*
X89914285Y-38759580D01*
X89914285Y-38759580D02*
X89866666Y-38807200D01*
X89866666Y-38807200D02*
X89771428Y-38854819D01*
X89771428Y-38854819D02*
X89533333Y-38854819D01*
X89533333Y-38854819D02*
X89438095Y-38807200D01*
X89438095Y-38807200D02*
X89390476Y-38759580D01*
X53803345Y-98954818D02*
X53803345Y-99764341D01*
X53803345Y-99764341D02*
X53850964Y-99859579D01*
X53850964Y-99859579D02*
X53898583Y-99907199D01*
X53898583Y-99907199D02*
X53993821Y-99954818D01*
X53993821Y-99954818D02*
X54184297Y-99954818D01*
X54184297Y-99954818D02*
X54279535Y-99907199D01*
X54279535Y-99907199D02*
X54327154Y-99859579D01*
X54327154Y-99859579D02*
X54374773Y-99764341D01*
X54374773Y-99764341D02*
X54374773Y-98954818D01*
X54803345Y-99050056D02*
X54850964Y-99002437D01*
X54850964Y-99002437D02*
X54946202Y-98954818D01*
X54946202Y-98954818D02*
X55184297Y-98954818D01*
X55184297Y-98954818D02*
X55279535Y-99002437D01*
X55279535Y-99002437D02*
X55327154Y-99050056D01*
X55327154Y-99050056D02*
X55374773Y-99145294D01*
X55374773Y-99145294D02*
X55374773Y-99240532D01*
X55374773Y-99240532D02*
X55327154Y-99383389D01*
X55327154Y-99383389D02*
X54755726Y-99954818D01*
X54755726Y-99954818D02*
X55374773Y-99954818D01*
X88057142Y-36354819D02*
X87723809Y-35878628D01*
X87485714Y-36354819D02*
X87485714Y-35354819D01*
X87485714Y-35354819D02*
X87866666Y-35354819D01*
X87866666Y-35354819D02*
X87961904Y-35402438D01*
X87961904Y-35402438D02*
X88009523Y-35450057D01*
X88009523Y-35450057D02*
X88057142Y-35545295D01*
X88057142Y-35545295D02*
X88057142Y-35688152D01*
X88057142Y-35688152D02*
X88009523Y-35783390D01*
X88009523Y-35783390D02*
X87961904Y-35831009D01*
X87961904Y-35831009D02*
X87866666Y-35878628D01*
X87866666Y-35878628D02*
X87485714Y-35878628D01*
X89009523Y-36354819D02*
X88438095Y-36354819D01*
X88723809Y-36354819D02*
X88723809Y-35354819D01*
X88723809Y-35354819D02*
X88628571Y-35497676D01*
X88628571Y-35497676D02*
X88533333Y-35592914D01*
X88533333Y-35592914D02*
X88438095Y-35640533D01*
X89866666Y-35354819D02*
X89676190Y-35354819D01*
X89676190Y-35354819D02*
X89580952Y-35402438D01*
X89580952Y-35402438D02*
X89533333Y-35450057D01*
X89533333Y-35450057D02*
X89438095Y-35592914D01*
X89438095Y-35592914D02*
X89390476Y-35783390D01*
X89390476Y-35783390D02*
X89390476Y-36164342D01*
X89390476Y-36164342D02*
X89438095Y-36259580D01*
X89438095Y-36259580D02*
X89485714Y-36307200D01*
X89485714Y-36307200D02*
X89580952Y-36354819D01*
X89580952Y-36354819D02*
X89771428Y-36354819D01*
X89771428Y-36354819D02*
X89866666Y-36307200D01*
X89866666Y-36307200D02*
X89914285Y-36259580D01*
X89914285Y-36259580D02*
X89961904Y-36164342D01*
X89961904Y-36164342D02*
X89961904Y-35926247D01*
X89961904Y-35926247D02*
X89914285Y-35831009D01*
X89914285Y-35831009D02*
X89866666Y-35783390D01*
X89866666Y-35783390D02*
X89771428Y-35735771D01*
X89771428Y-35735771D02*
X89580952Y-35735771D01*
X89580952Y-35735771D02*
X89485714Y-35783390D01*
X89485714Y-35783390D02*
X89438095Y-35831009D01*
X89438095Y-35831009D02*
X89390476Y-35926247D01*
X51366667Y-107857200D02*
X51509524Y-107904819D01*
X51509524Y-107904819D02*
X51747619Y-107904819D01*
X51747619Y-107904819D02*
X51842857Y-107857200D01*
X51842857Y-107857200D02*
X51890476Y-107809580D01*
X51890476Y-107809580D02*
X51938095Y-107714342D01*
X51938095Y-107714342D02*
X51938095Y-107619104D01*
X51938095Y-107619104D02*
X51890476Y-107523866D01*
X51890476Y-107523866D02*
X51842857Y-107476247D01*
X51842857Y-107476247D02*
X51747619Y-107428628D01*
X51747619Y-107428628D02*
X51557143Y-107381009D01*
X51557143Y-107381009D02*
X51461905Y-107333390D01*
X51461905Y-107333390D02*
X51414286Y-107285771D01*
X51414286Y-107285771D02*
X51366667Y-107190533D01*
X51366667Y-107190533D02*
X51366667Y-107095295D01*
X51366667Y-107095295D02*
X51414286Y-107000057D01*
X51414286Y-107000057D02*
X51461905Y-106952438D01*
X51461905Y-106952438D02*
X51557143Y-106904819D01*
X51557143Y-106904819D02*
X51795238Y-106904819D01*
X51795238Y-106904819D02*
X51938095Y-106952438D01*
X52366667Y-107904819D02*
X52366667Y-106904819D01*
X52366667Y-106904819D02*
X52700000Y-107619104D01*
X52700000Y-107619104D02*
X53033333Y-106904819D01*
X53033333Y-106904819D02*
X53033333Y-107904819D01*
X53842857Y-107381009D02*
X53985714Y-107428628D01*
X53985714Y-107428628D02*
X54033333Y-107476247D01*
X54033333Y-107476247D02*
X54080952Y-107571485D01*
X54080952Y-107571485D02*
X54080952Y-107714342D01*
X54080952Y-107714342D02*
X54033333Y-107809580D01*
X54033333Y-107809580D02*
X53985714Y-107857200D01*
X53985714Y-107857200D02*
X53890476Y-107904819D01*
X53890476Y-107904819D02*
X53509524Y-107904819D01*
X53509524Y-107904819D02*
X53509524Y-106904819D01*
X53509524Y-106904819D02*
X53842857Y-106904819D01*
X53842857Y-106904819D02*
X53938095Y-106952438D01*
X53938095Y-106952438D02*
X53985714Y-107000057D01*
X53985714Y-107000057D02*
X54033333Y-107095295D01*
X54033333Y-107095295D02*
X54033333Y-107190533D01*
X54033333Y-107190533D02*
X53985714Y-107285771D01*
X53985714Y-107285771D02*
X53938095Y-107333390D01*
X53938095Y-107333390D02*
X53842857Y-107381009D01*
X53842857Y-107381009D02*
X53509524Y-107381009D01*
X54985714Y-106904819D02*
X54509524Y-106904819D01*
X54509524Y-106904819D02*
X54461905Y-107381009D01*
X54461905Y-107381009D02*
X54509524Y-107333390D01*
X54509524Y-107333390D02*
X54604762Y-107285771D01*
X54604762Y-107285771D02*
X54842857Y-107285771D01*
X54842857Y-107285771D02*
X54938095Y-107333390D01*
X54938095Y-107333390D02*
X54985714Y-107381009D01*
X54985714Y-107381009D02*
X55033333Y-107476247D01*
X55033333Y-107476247D02*
X55033333Y-107714342D01*
X55033333Y-107714342D02*
X54985714Y-107809580D01*
X54985714Y-107809580D02*
X54938095Y-107857200D01*
X54938095Y-107857200D02*
X54842857Y-107904819D01*
X54842857Y-107904819D02*
X54604762Y-107904819D01*
X54604762Y-107904819D02*
X54509524Y-107857200D01*
X54509524Y-107857200D02*
X54461905Y-107809580D01*
X58366667Y-107857200D02*
X58509524Y-107904819D01*
X58509524Y-107904819D02*
X58747619Y-107904819D01*
X58747619Y-107904819D02*
X58842857Y-107857200D01*
X58842857Y-107857200D02*
X58890476Y-107809580D01*
X58890476Y-107809580D02*
X58938095Y-107714342D01*
X58938095Y-107714342D02*
X58938095Y-107619104D01*
X58938095Y-107619104D02*
X58890476Y-107523866D01*
X58890476Y-107523866D02*
X58842857Y-107476247D01*
X58842857Y-107476247D02*
X58747619Y-107428628D01*
X58747619Y-107428628D02*
X58557143Y-107381009D01*
X58557143Y-107381009D02*
X58461905Y-107333390D01*
X58461905Y-107333390D02*
X58414286Y-107285771D01*
X58414286Y-107285771D02*
X58366667Y-107190533D01*
X58366667Y-107190533D02*
X58366667Y-107095295D01*
X58366667Y-107095295D02*
X58414286Y-107000057D01*
X58414286Y-107000057D02*
X58461905Y-106952438D01*
X58461905Y-106952438D02*
X58557143Y-106904819D01*
X58557143Y-106904819D02*
X58795238Y-106904819D01*
X58795238Y-106904819D02*
X58938095Y-106952438D01*
X59366667Y-107904819D02*
X59366667Y-106904819D01*
X59366667Y-106904819D02*
X59700000Y-107619104D01*
X59700000Y-107619104D02*
X60033333Y-106904819D01*
X60033333Y-106904819D02*
X60033333Y-107904819D01*
X60842857Y-107381009D02*
X60985714Y-107428628D01*
X60985714Y-107428628D02*
X61033333Y-107476247D01*
X61033333Y-107476247D02*
X61080952Y-107571485D01*
X61080952Y-107571485D02*
X61080952Y-107714342D01*
X61080952Y-107714342D02*
X61033333Y-107809580D01*
X61033333Y-107809580D02*
X60985714Y-107857200D01*
X60985714Y-107857200D02*
X60890476Y-107904819D01*
X60890476Y-107904819D02*
X60509524Y-107904819D01*
X60509524Y-107904819D02*
X60509524Y-106904819D01*
X60509524Y-106904819D02*
X60842857Y-106904819D01*
X60842857Y-106904819D02*
X60938095Y-106952438D01*
X60938095Y-106952438D02*
X60985714Y-107000057D01*
X60985714Y-107000057D02*
X61033333Y-107095295D01*
X61033333Y-107095295D02*
X61033333Y-107190533D01*
X61033333Y-107190533D02*
X60985714Y-107285771D01*
X60985714Y-107285771D02*
X60938095Y-107333390D01*
X60938095Y-107333390D02*
X60842857Y-107381009D01*
X60842857Y-107381009D02*
X60509524Y-107381009D01*
X61938095Y-107238152D02*
X61938095Y-107904819D01*
X61700000Y-106857200D02*
X61461905Y-107571485D01*
X61461905Y-107571485D02*
X62080952Y-107571485D01*
X60353333Y-57809580D02*
X60305714Y-57857200D01*
X60305714Y-57857200D02*
X60162857Y-57904819D01*
X60162857Y-57904819D02*
X60067619Y-57904819D01*
X60067619Y-57904819D02*
X59924762Y-57857200D01*
X59924762Y-57857200D02*
X59829524Y-57761961D01*
X59829524Y-57761961D02*
X59781905Y-57666723D01*
X59781905Y-57666723D02*
X59734286Y-57476247D01*
X59734286Y-57476247D02*
X59734286Y-57333390D01*
X59734286Y-57333390D02*
X59781905Y-57142914D01*
X59781905Y-57142914D02*
X59829524Y-57047676D01*
X59829524Y-57047676D02*
X59924762Y-56952438D01*
X59924762Y-56952438D02*
X60067619Y-56904819D01*
X60067619Y-56904819D02*
X60162857Y-56904819D01*
X60162857Y-56904819D02*
X60305714Y-56952438D01*
X60305714Y-56952438D02*
X60353333Y-57000057D01*
X61210476Y-57238152D02*
X61210476Y-57904819D01*
X60972381Y-56857200D02*
X60734286Y-57571485D01*
X60734286Y-57571485D02*
X61353333Y-57571485D01*
X78533333Y-69636009D02*
X78866666Y-69636009D01*
X79009523Y-70159819D02*
X78533333Y-70159819D01*
X78533333Y-70159819D02*
X78533333Y-69159819D01*
X78533333Y-69159819D02*
X79009523Y-69159819D01*
X79390476Y-70112200D02*
X79533333Y-70159819D01*
X79533333Y-70159819D02*
X79771428Y-70159819D01*
X79771428Y-70159819D02*
X79866666Y-70112200D01*
X79866666Y-70112200D02*
X79914285Y-70064580D01*
X79914285Y-70064580D02*
X79961904Y-69969342D01*
X79961904Y-69969342D02*
X79961904Y-69874104D01*
X79961904Y-69874104D02*
X79914285Y-69778866D01*
X79914285Y-69778866D02*
X79866666Y-69731247D01*
X79866666Y-69731247D02*
X79771428Y-69683628D01*
X79771428Y-69683628D02*
X79580952Y-69636009D01*
X79580952Y-69636009D02*
X79485714Y-69588390D01*
X79485714Y-69588390D02*
X79438095Y-69540771D01*
X79438095Y-69540771D02*
X79390476Y-69445533D01*
X79390476Y-69445533D02*
X79390476Y-69350295D01*
X79390476Y-69350295D02*
X79438095Y-69255057D01*
X79438095Y-69255057D02*
X79485714Y-69207438D01*
X79485714Y-69207438D02*
X79580952Y-69159819D01*
X79580952Y-69159819D02*
X79819047Y-69159819D01*
X79819047Y-69159819D02*
X79961904Y-69207438D01*
X80390476Y-70159819D02*
X80390476Y-69159819D01*
X80390476Y-69159819D02*
X80771428Y-69159819D01*
X80771428Y-69159819D02*
X80866666Y-69207438D01*
X80866666Y-69207438D02*
X80914285Y-69255057D01*
X80914285Y-69255057D02*
X80961904Y-69350295D01*
X80961904Y-69350295D02*
X80961904Y-69493152D01*
X80961904Y-69493152D02*
X80914285Y-69588390D01*
X80914285Y-69588390D02*
X80866666Y-69636009D01*
X80866666Y-69636009D02*
X80771428Y-69683628D01*
X80771428Y-69683628D02*
X80390476Y-69683628D01*
X81914285Y-70159819D02*
X81342857Y-70159819D01*
X81628571Y-70159819D02*
X81628571Y-69159819D01*
X81628571Y-69159819D02*
X81533333Y-69302676D01*
X81533333Y-69302676D02*
X81438095Y-69397914D01*
X81438095Y-69397914D02*
X81342857Y-69445533D01*
X60353333Y-59809580D02*
X60305714Y-59857200D01*
X60305714Y-59857200D02*
X60162857Y-59904819D01*
X60162857Y-59904819D02*
X60067619Y-59904819D01*
X60067619Y-59904819D02*
X59924762Y-59857200D01*
X59924762Y-59857200D02*
X59829524Y-59761961D01*
X59829524Y-59761961D02*
X59781905Y-59666723D01*
X59781905Y-59666723D02*
X59734286Y-59476247D01*
X59734286Y-59476247D02*
X59734286Y-59333390D01*
X59734286Y-59333390D02*
X59781905Y-59142914D01*
X59781905Y-59142914D02*
X59829524Y-59047676D01*
X59829524Y-59047676D02*
X59924762Y-58952438D01*
X59924762Y-58952438D02*
X60067619Y-58904819D01*
X60067619Y-58904819D02*
X60162857Y-58904819D01*
X60162857Y-58904819D02*
X60305714Y-58952438D01*
X60305714Y-58952438D02*
X60353333Y-59000057D01*
X61210476Y-58904819D02*
X61020000Y-58904819D01*
X61020000Y-58904819D02*
X60924762Y-58952438D01*
X60924762Y-58952438D02*
X60877143Y-59000057D01*
X60877143Y-59000057D02*
X60781905Y-59142914D01*
X60781905Y-59142914D02*
X60734286Y-59333390D01*
X60734286Y-59333390D02*
X60734286Y-59714342D01*
X60734286Y-59714342D02*
X60781905Y-59809580D01*
X60781905Y-59809580D02*
X60829524Y-59857200D01*
X60829524Y-59857200D02*
X60924762Y-59904819D01*
X60924762Y-59904819D02*
X61115238Y-59904819D01*
X61115238Y-59904819D02*
X61210476Y-59857200D01*
X61210476Y-59857200D02*
X61258095Y-59809580D01*
X61258095Y-59809580D02*
X61305714Y-59714342D01*
X61305714Y-59714342D02*
X61305714Y-59476247D01*
X61305714Y-59476247D02*
X61258095Y-59381009D01*
X61258095Y-59381009D02*
X61210476Y-59333390D01*
X61210476Y-59333390D02*
X61115238Y-59285771D01*
X61115238Y-59285771D02*
X60924762Y-59285771D01*
X60924762Y-59285771D02*
X60829524Y-59333390D01*
X60829524Y-59333390D02*
X60781905Y-59381009D01*
X60781905Y-59381009D02*
X60734286Y-59476247D01*
X67059580Y-54636666D02*
X67107200Y-54684285D01*
X67107200Y-54684285D02*
X67154819Y-54827142D01*
X67154819Y-54827142D02*
X67154819Y-54922380D01*
X67154819Y-54922380D02*
X67107200Y-55065237D01*
X67107200Y-55065237D02*
X67011961Y-55160475D01*
X67011961Y-55160475D02*
X66916723Y-55208094D01*
X66916723Y-55208094D02*
X66726247Y-55255713D01*
X66726247Y-55255713D02*
X66583390Y-55255713D01*
X66583390Y-55255713D02*
X66392914Y-55208094D01*
X66392914Y-55208094D02*
X66297676Y-55160475D01*
X66297676Y-55160475D02*
X66202438Y-55065237D01*
X66202438Y-55065237D02*
X66154819Y-54922380D01*
X66154819Y-54922380D02*
X66154819Y-54827142D01*
X66154819Y-54827142D02*
X66202438Y-54684285D01*
X66202438Y-54684285D02*
X66250057Y-54636666D01*
X67154819Y-53684285D02*
X67154819Y-54255713D01*
X67154819Y-53969999D02*
X66154819Y-53969999D01*
X66154819Y-53969999D02*
X66297676Y-54065237D01*
X66297676Y-54065237D02*
X66392914Y-54160475D01*
X66392914Y-54160475D02*
X66440533Y-54255713D01*
X72961905Y-94904819D02*
X72961905Y-93904819D01*
X72961905Y-93904819D02*
X73200000Y-93904819D01*
X73200000Y-93904819D02*
X73342857Y-93952438D01*
X73342857Y-93952438D02*
X73438095Y-94047676D01*
X73438095Y-94047676D02*
X73485714Y-94142914D01*
X73485714Y-94142914D02*
X73533333Y-94333390D01*
X73533333Y-94333390D02*
X73533333Y-94476247D01*
X73533333Y-94476247D02*
X73485714Y-94666723D01*
X73485714Y-94666723D02*
X73438095Y-94761961D01*
X73438095Y-94761961D02*
X73342857Y-94857200D01*
X73342857Y-94857200D02*
X73200000Y-94904819D01*
X73200000Y-94904819D02*
X72961905Y-94904819D01*
X73866667Y-93904819D02*
X74533333Y-93904819D01*
X74533333Y-93904819D02*
X74104762Y-94904819D01*
X54712142Y-93309580D02*
X54664523Y-93357200D01*
X54664523Y-93357200D02*
X54521666Y-93404819D01*
X54521666Y-93404819D02*
X54426428Y-93404819D01*
X54426428Y-93404819D02*
X54283571Y-93357200D01*
X54283571Y-93357200D02*
X54188333Y-93261961D01*
X54188333Y-93261961D02*
X54140714Y-93166723D01*
X54140714Y-93166723D02*
X54093095Y-92976247D01*
X54093095Y-92976247D02*
X54093095Y-92833390D01*
X54093095Y-92833390D02*
X54140714Y-92642914D01*
X54140714Y-92642914D02*
X54188333Y-92547676D01*
X54188333Y-92547676D02*
X54283571Y-92452438D01*
X54283571Y-92452438D02*
X54426428Y-92404819D01*
X54426428Y-92404819D02*
X54521666Y-92404819D01*
X54521666Y-92404819D02*
X54664523Y-92452438D01*
X54664523Y-92452438D02*
X54712142Y-92500057D01*
X55664523Y-93404819D02*
X55093095Y-93404819D01*
X55378809Y-93404819D02*
X55378809Y-92404819D01*
X55378809Y-92404819D02*
X55283571Y-92547676D01*
X55283571Y-92547676D02*
X55188333Y-92642914D01*
X55188333Y-92642914D02*
X55093095Y-92690533D01*
X56521666Y-92404819D02*
X56331190Y-92404819D01*
X56331190Y-92404819D02*
X56235952Y-92452438D01*
X56235952Y-92452438D02*
X56188333Y-92500057D01*
X56188333Y-92500057D02*
X56093095Y-92642914D01*
X56093095Y-92642914D02*
X56045476Y-92833390D01*
X56045476Y-92833390D02*
X56045476Y-93214342D01*
X56045476Y-93214342D02*
X56093095Y-93309580D01*
X56093095Y-93309580D02*
X56140714Y-93357200D01*
X56140714Y-93357200D02*
X56235952Y-93404819D01*
X56235952Y-93404819D02*
X56426428Y-93404819D01*
X56426428Y-93404819D02*
X56521666Y-93357200D01*
X56521666Y-93357200D02*
X56569285Y-93309580D01*
X56569285Y-93309580D02*
X56616904Y-93214342D01*
X56616904Y-93214342D02*
X56616904Y-92976247D01*
X56616904Y-92976247D02*
X56569285Y-92881009D01*
X56569285Y-92881009D02*
X56521666Y-92833390D01*
X56521666Y-92833390D02*
X56426428Y-92785771D01*
X56426428Y-92785771D02*
X56235952Y-92785771D01*
X56235952Y-92785771D02*
X56140714Y-92833390D01*
X56140714Y-92833390D02*
X56093095Y-92881009D01*
X56093095Y-92881009D02*
X56045476Y-92976247D01*
X54557142Y-84309580D02*
X54509523Y-84357200D01*
X54509523Y-84357200D02*
X54366666Y-84404819D01*
X54366666Y-84404819D02*
X54271428Y-84404819D01*
X54271428Y-84404819D02*
X54128571Y-84357200D01*
X54128571Y-84357200D02*
X54033333Y-84261961D01*
X54033333Y-84261961D02*
X53985714Y-84166723D01*
X53985714Y-84166723D02*
X53938095Y-83976247D01*
X53938095Y-83976247D02*
X53938095Y-83833390D01*
X53938095Y-83833390D02*
X53985714Y-83642914D01*
X53985714Y-83642914D02*
X54033333Y-83547676D01*
X54033333Y-83547676D02*
X54128571Y-83452438D01*
X54128571Y-83452438D02*
X54271428Y-83404819D01*
X54271428Y-83404819D02*
X54366666Y-83404819D01*
X54366666Y-83404819D02*
X54509523Y-83452438D01*
X54509523Y-83452438D02*
X54557142Y-83500057D01*
X55509523Y-84404819D02*
X54938095Y-84404819D01*
X55223809Y-84404819D02*
X55223809Y-83404819D01*
X55223809Y-83404819D02*
X55128571Y-83547676D01*
X55128571Y-83547676D02*
X55033333Y-83642914D01*
X55033333Y-83642914D02*
X54938095Y-83690533D01*
X55890476Y-83500057D02*
X55938095Y-83452438D01*
X55938095Y-83452438D02*
X56033333Y-83404819D01*
X56033333Y-83404819D02*
X56271428Y-83404819D01*
X56271428Y-83404819D02*
X56366666Y-83452438D01*
X56366666Y-83452438D02*
X56414285Y-83500057D01*
X56414285Y-83500057D02*
X56461904Y-83595295D01*
X56461904Y-83595295D02*
X56461904Y-83690533D01*
X56461904Y-83690533D02*
X56414285Y-83833390D01*
X56414285Y-83833390D02*
X55842857Y-84404819D01*
X55842857Y-84404819D02*
X56461904Y-84404819D01*
X88841034Y-57854819D02*
X88507701Y-57378628D01*
X88269606Y-57854819D02*
X88269606Y-56854819D01*
X88269606Y-56854819D02*
X88650558Y-56854819D01*
X88650558Y-56854819D02*
X88745796Y-56902438D01*
X88745796Y-56902438D02*
X88793415Y-56950057D01*
X88793415Y-56950057D02*
X88841034Y-57045295D01*
X88841034Y-57045295D02*
X88841034Y-57188152D01*
X88841034Y-57188152D02*
X88793415Y-57283390D01*
X88793415Y-57283390D02*
X88745796Y-57331009D01*
X88745796Y-57331009D02*
X88650558Y-57378628D01*
X88650558Y-57378628D02*
X88269606Y-57378628D01*
X89793415Y-57854819D02*
X89221987Y-57854819D01*
X89507701Y-57854819D02*
X89507701Y-56854819D01*
X89507701Y-56854819D02*
X89412463Y-56997676D01*
X89412463Y-56997676D02*
X89317225Y-57092914D01*
X89317225Y-57092914D02*
X89221987Y-57140533D01*
X66057142Y-98404819D02*
X65723809Y-97928628D01*
X65485714Y-98404819D02*
X65485714Y-97404819D01*
X65485714Y-97404819D02*
X65866666Y-97404819D01*
X65866666Y-97404819D02*
X65961904Y-97452438D01*
X65961904Y-97452438D02*
X66009523Y-97500057D01*
X66009523Y-97500057D02*
X66057142Y-97595295D01*
X66057142Y-97595295D02*
X66057142Y-97738152D01*
X66057142Y-97738152D02*
X66009523Y-97833390D01*
X66009523Y-97833390D02*
X65961904Y-97881009D01*
X65961904Y-97881009D02*
X65866666Y-97928628D01*
X65866666Y-97928628D02*
X65485714Y-97928628D01*
X66438095Y-97500057D02*
X66485714Y-97452438D01*
X66485714Y-97452438D02*
X66580952Y-97404819D01*
X66580952Y-97404819D02*
X66819047Y-97404819D01*
X66819047Y-97404819D02*
X66914285Y-97452438D01*
X66914285Y-97452438D02*
X66961904Y-97500057D01*
X66961904Y-97500057D02*
X67009523Y-97595295D01*
X67009523Y-97595295D02*
X67009523Y-97690533D01*
X67009523Y-97690533D02*
X66961904Y-97833390D01*
X66961904Y-97833390D02*
X66390476Y-98404819D01*
X66390476Y-98404819D02*
X67009523Y-98404819D01*
X67390476Y-97500057D02*
X67438095Y-97452438D01*
X67438095Y-97452438D02*
X67533333Y-97404819D01*
X67533333Y-97404819D02*
X67771428Y-97404819D01*
X67771428Y-97404819D02*
X67866666Y-97452438D01*
X67866666Y-97452438D02*
X67914285Y-97500057D01*
X67914285Y-97500057D02*
X67961904Y-97595295D01*
X67961904Y-97595295D02*
X67961904Y-97690533D01*
X67961904Y-97690533D02*
X67914285Y-97833390D01*
X67914285Y-97833390D02*
X67342857Y-98404819D01*
X67342857Y-98404819D02*
X67961904Y-98404819D01*
X54058095Y-70404819D02*
X54058095Y-71214342D01*
X54058095Y-71214342D02*
X54105714Y-71309580D01*
X54105714Y-71309580D02*
X54153333Y-71357200D01*
X54153333Y-71357200D02*
X54248571Y-71404819D01*
X54248571Y-71404819D02*
X54439047Y-71404819D01*
X54439047Y-71404819D02*
X54534285Y-71357200D01*
X54534285Y-71357200D02*
X54581904Y-71309580D01*
X54581904Y-71309580D02*
X54629523Y-71214342D01*
X54629523Y-71214342D02*
X54629523Y-70404819D01*
X55010476Y-70404819D02*
X55629523Y-70404819D01*
X55629523Y-70404819D02*
X55296190Y-70785771D01*
X55296190Y-70785771D02*
X55439047Y-70785771D01*
X55439047Y-70785771D02*
X55534285Y-70833390D01*
X55534285Y-70833390D02*
X55581904Y-70881009D01*
X55581904Y-70881009D02*
X55629523Y-70976247D01*
X55629523Y-70976247D02*
X55629523Y-71214342D01*
X55629523Y-71214342D02*
X55581904Y-71309580D01*
X55581904Y-71309580D02*
X55534285Y-71357200D01*
X55534285Y-71357200D02*
X55439047Y-71404819D01*
X55439047Y-71404819D02*
X55153333Y-71404819D01*
X55153333Y-71404819D02*
X55058095Y-71357200D01*
X55058095Y-71357200D02*
X55010476Y-71309580D01*
X62559580Y-54636666D02*
X62607200Y-54684285D01*
X62607200Y-54684285D02*
X62654819Y-54827142D01*
X62654819Y-54827142D02*
X62654819Y-54922380D01*
X62654819Y-54922380D02*
X62607200Y-55065237D01*
X62607200Y-55065237D02*
X62511961Y-55160475D01*
X62511961Y-55160475D02*
X62416723Y-55208094D01*
X62416723Y-55208094D02*
X62226247Y-55255713D01*
X62226247Y-55255713D02*
X62083390Y-55255713D01*
X62083390Y-55255713D02*
X61892914Y-55208094D01*
X61892914Y-55208094D02*
X61797676Y-55160475D01*
X61797676Y-55160475D02*
X61702438Y-55065237D01*
X61702438Y-55065237D02*
X61654819Y-54922380D01*
X61654819Y-54922380D02*
X61654819Y-54827142D01*
X61654819Y-54827142D02*
X61702438Y-54684285D01*
X61702438Y-54684285D02*
X61750057Y-54636666D01*
X61750057Y-54255713D02*
X61702438Y-54208094D01*
X61702438Y-54208094D02*
X61654819Y-54112856D01*
X61654819Y-54112856D02*
X61654819Y-53874761D01*
X61654819Y-53874761D02*
X61702438Y-53779523D01*
X61702438Y-53779523D02*
X61750057Y-53731904D01*
X61750057Y-53731904D02*
X61845295Y-53684285D01*
X61845295Y-53684285D02*
X61940533Y-53684285D01*
X61940533Y-53684285D02*
X62083390Y-53731904D01*
X62083390Y-53731904D02*
X62654819Y-54303332D01*
X62654819Y-54303332D02*
X62654819Y-53684285D01*
X91806905Y-55404819D02*
X91806905Y-54404819D01*
X91806905Y-54404819D02*
X92045000Y-54404819D01*
X92045000Y-54404819D02*
X92187857Y-54452438D01*
X92187857Y-54452438D02*
X92283095Y-54547676D01*
X92283095Y-54547676D02*
X92330714Y-54642914D01*
X92330714Y-54642914D02*
X92378333Y-54833390D01*
X92378333Y-54833390D02*
X92378333Y-54976247D01*
X92378333Y-54976247D02*
X92330714Y-55166723D01*
X92330714Y-55166723D02*
X92283095Y-55261961D01*
X92283095Y-55261961D02*
X92187857Y-55357200D01*
X92187857Y-55357200D02*
X92045000Y-55404819D01*
X92045000Y-55404819D02*
X91806905Y-55404819D01*
X93330714Y-55404819D02*
X92759286Y-55404819D01*
X93045000Y-55404819D02*
X93045000Y-54404819D01*
X93045000Y-54404819D02*
X92949762Y-54547676D01*
X92949762Y-54547676D02*
X92854524Y-54642914D01*
X92854524Y-54642914D02*
X92759286Y-54690533D01*
X56404820Y-66236665D02*
X55928629Y-66569998D01*
X56404820Y-66808093D02*
X55404820Y-66808093D01*
X55404820Y-66808093D02*
X55404820Y-66427141D01*
X55404820Y-66427141D02*
X55452439Y-66331903D01*
X55452439Y-66331903D02*
X55500058Y-66284284D01*
X55500058Y-66284284D02*
X55595296Y-66236665D01*
X55595296Y-66236665D02*
X55738153Y-66236665D01*
X55738153Y-66236665D02*
X55833391Y-66284284D01*
X55833391Y-66284284D02*
X55881010Y-66331903D01*
X55881010Y-66331903D02*
X55928629Y-66427141D01*
X55928629Y-66427141D02*
X55928629Y-66808093D01*
X55404820Y-65379522D02*
X55404820Y-65569998D01*
X55404820Y-65569998D02*
X55452439Y-65665236D01*
X55452439Y-65665236D02*
X55500058Y-65712855D01*
X55500058Y-65712855D02*
X55642915Y-65808093D01*
X55642915Y-65808093D02*
X55833391Y-65855712D01*
X55833391Y-65855712D02*
X56214343Y-65855712D01*
X56214343Y-65855712D02*
X56309581Y-65808093D01*
X56309581Y-65808093D02*
X56357201Y-65760474D01*
X56357201Y-65760474D02*
X56404820Y-65665236D01*
X56404820Y-65665236D02*
X56404820Y-65474760D01*
X56404820Y-65474760D02*
X56357201Y-65379522D01*
X56357201Y-65379522D02*
X56309581Y-65331903D01*
X56309581Y-65331903D02*
X56214343Y-65284284D01*
X56214343Y-65284284D02*
X55976248Y-65284284D01*
X55976248Y-65284284D02*
X55881010Y-65331903D01*
X55881010Y-65331903D02*
X55833391Y-65379522D01*
X55833391Y-65379522D02*
X55785772Y-65474760D01*
X55785772Y-65474760D02*
X55785772Y-65665236D01*
X55785772Y-65665236D02*
X55833391Y-65760474D01*
X55833391Y-65760474D02*
X55881010Y-65808093D01*
X55881010Y-65808093D02*
X55976248Y-65855712D01*
X96986668Y-66904819D02*
X96986668Y-67619104D01*
X96986668Y-67619104D02*
X96939049Y-67761961D01*
X96939049Y-67761961D02*
X96843811Y-67857200D01*
X96843811Y-67857200D02*
X96700954Y-67904819D01*
X96700954Y-67904819D02*
X96605716Y-67904819D01*
X97415240Y-67000057D02*
X97462859Y-66952438D01*
X97462859Y-66952438D02*
X97558097Y-66904819D01*
X97558097Y-66904819D02*
X97796192Y-66904819D01*
X97796192Y-66904819D02*
X97891430Y-66952438D01*
X97891430Y-66952438D02*
X97939049Y-67000057D01*
X97939049Y-67000057D02*
X97986668Y-67095295D01*
X97986668Y-67095295D02*
X97986668Y-67190533D01*
X97986668Y-67190533D02*
X97939049Y-67333390D01*
X97939049Y-67333390D02*
X97367621Y-67904819D01*
X97367621Y-67904819D02*
X97986668Y-67904819D01*
X67713333Y-57809580D02*
X67665714Y-57857200D01*
X67665714Y-57857200D02*
X67522857Y-57904819D01*
X67522857Y-57904819D02*
X67427619Y-57904819D01*
X67427619Y-57904819D02*
X67284762Y-57857200D01*
X67284762Y-57857200D02*
X67189524Y-57761961D01*
X67189524Y-57761961D02*
X67141905Y-57666723D01*
X67141905Y-57666723D02*
X67094286Y-57476247D01*
X67094286Y-57476247D02*
X67094286Y-57333390D01*
X67094286Y-57333390D02*
X67141905Y-57142914D01*
X67141905Y-57142914D02*
X67189524Y-57047676D01*
X67189524Y-57047676D02*
X67284762Y-56952438D01*
X67284762Y-56952438D02*
X67427619Y-56904819D01*
X67427619Y-56904819D02*
X67522857Y-56904819D01*
X67522857Y-56904819D02*
X67665714Y-56952438D01*
X67665714Y-56952438D02*
X67713333Y-57000057D01*
X68046667Y-56904819D02*
X68665714Y-56904819D01*
X68665714Y-56904819D02*
X68332381Y-57285771D01*
X68332381Y-57285771D02*
X68475238Y-57285771D01*
X68475238Y-57285771D02*
X68570476Y-57333390D01*
X68570476Y-57333390D02*
X68618095Y-57381009D01*
X68618095Y-57381009D02*
X68665714Y-57476247D01*
X68665714Y-57476247D02*
X68665714Y-57714342D01*
X68665714Y-57714342D02*
X68618095Y-57809580D01*
X68618095Y-57809580D02*
X68570476Y-57857200D01*
X68570476Y-57857200D02*
X68475238Y-57904819D01*
X68475238Y-57904819D02*
X68189524Y-57904819D01*
X68189524Y-57904819D02*
X68094286Y-57857200D01*
X68094286Y-57857200D02*
X68046667Y-57809580D01*
X57154819Y-61961666D02*
X56678628Y-62294999D01*
X57154819Y-62533094D02*
X56154819Y-62533094D01*
X56154819Y-62533094D02*
X56154819Y-62152142D01*
X56154819Y-62152142D02*
X56202438Y-62056904D01*
X56202438Y-62056904D02*
X56250057Y-62009285D01*
X56250057Y-62009285D02*
X56345295Y-61961666D01*
X56345295Y-61961666D02*
X56488152Y-61961666D01*
X56488152Y-61961666D02*
X56583390Y-62009285D01*
X56583390Y-62009285D02*
X56631009Y-62056904D01*
X56631009Y-62056904D02*
X56678628Y-62152142D01*
X56678628Y-62152142D02*
X56678628Y-62533094D01*
X56154819Y-61056904D02*
X56154819Y-61533094D01*
X56154819Y-61533094D02*
X56631009Y-61580713D01*
X56631009Y-61580713D02*
X56583390Y-61533094D01*
X56583390Y-61533094D02*
X56535771Y-61437856D01*
X56535771Y-61437856D02*
X56535771Y-61199761D01*
X56535771Y-61199761D02*
X56583390Y-61104523D01*
X56583390Y-61104523D02*
X56631009Y-61056904D01*
X56631009Y-61056904D02*
X56726247Y-61009285D01*
X56726247Y-61009285D02*
X56964342Y-61009285D01*
X56964342Y-61009285D02*
X57059580Y-61056904D01*
X57059580Y-61056904D02*
X57107200Y-61104523D01*
X57107200Y-61104523D02*
X57154819Y-61199761D01*
X57154819Y-61199761D02*
X57154819Y-61437856D01*
X57154819Y-61437856D02*
X57107200Y-61533094D01*
X57107200Y-61533094D02*
X57059580Y-61580713D01*
X88438095Y-83357200D02*
X88580952Y-83404819D01*
X88580952Y-83404819D02*
X88819047Y-83404819D01*
X88819047Y-83404819D02*
X88914285Y-83357200D01*
X88914285Y-83357200D02*
X88961904Y-83309580D01*
X88961904Y-83309580D02*
X89009523Y-83214342D01*
X89009523Y-83214342D02*
X89009523Y-83119104D01*
X89009523Y-83119104D02*
X88961904Y-83023866D01*
X88961904Y-83023866D02*
X88914285Y-82976247D01*
X88914285Y-82976247D02*
X88819047Y-82928628D01*
X88819047Y-82928628D02*
X88628571Y-82881009D01*
X88628571Y-82881009D02*
X88533333Y-82833390D01*
X88533333Y-82833390D02*
X88485714Y-82785771D01*
X88485714Y-82785771D02*
X88438095Y-82690533D01*
X88438095Y-82690533D02*
X88438095Y-82595295D01*
X88438095Y-82595295D02*
X88485714Y-82500057D01*
X88485714Y-82500057D02*
X88533333Y-82452438D01*
X88533333Y-82452438D02*
X88628571Y-82404819D01*
X88628571Y-82404819D02*
X88866666Y-82404819D01*
X88866666Y-82404819D02*
X89009523Y-82452438D01*
X89866666Y-82738152D02*
X89866666Y-83404819D01*
X89628571Y-82357200D02*
X89390476Y-83071485D01*
X89390476Y-83071485D02*
X90009523Y-83071485D01*
X63033333Y-63354819D02*
X62700000Y-62878628D01*
X62461905Y-63354819D02*
X62461905Y-62354819D01*
X62461905Y-62354819D02*
X62842857Y-62354819D01*
X62842857Y-62354819D02*
X62938095Y-62402438D01*
X62938095Y-62402438D02*
X62985714Y-62450057D01*
X62985714Y-62450057D02*
X63033333Y-62545295D01*
X63033333Y-62545295D02*
X63033333Y-62688152D01*
X63033333Y-62688152D02*
X62985714Y-62783390D01*
X62985714Y-62783390D02*
X62938095Y-62831009D01*
X62938095Y-62831009D02*
X62842857Y-62878628D01*
X62842857Y-62878628D02*
X62461905Y-62878628D01*
X63366667Y-62354819D02*
X63985714Y-62354819D01*
X63985714Y-62354819D02*
X63652381Y-62735771D01*
X63652381Y-62735771D02*
X63795238Y-62735771D01*
X63795238Y-62735771D02*
X63890476Y-62783390D01*
X63890476Y-62783390D02*
X63938095Y-62831009D01*
X63938095Y-62831009D02*
X63985714Y-62926247D01*
X63985714Y-62926247D02*
X63985714Y-63164342D01*
X63985714Y-63164342D02*
X63938095Y-63259580D01*
X63938095Y-63259580D02*
X63890476Y-63307200D01*
X63890476Y-63307200D02*
X63795238Y-63354819D01*
X63795238Y-63354819D02*
X63509524Y-63354819D01*
X63509524Y-63354819D02*
X63414286Y-63307200D01*
X63414286Y-63307200D02*
X63366667Y-63259580D01*
X74057142Y-98404819D02*
X73723809Y-97928628D01*
X73485714Y-98404819D02*
X73485714Y-97404819D01*
X73485714Y-97404819D02*
X73866666Y-97404819D01*
X73866666Y-97404819D02*
X73961904Y-97452438D01*
X73961904Y-97452438D02*
X74009523Y-97500057D01*
X74009523Y-97500057D02*
X74057142Y-97595295D01*
X74057142Y-97595295D02*
X74057142Y-97738152D01*
X74057142Y-97738152D02*
X74009523Y-97833390D01*
X74009523Y-97833390D02*
X73961904Y-97881009D01*
X73961904Y-97881009D02*
X73866666Y-97928628D01*
X73866666Y-97928628D02*
X73485714Y-97928628D01*
X74438095Y-97500057D02*
X74485714Y-97452438D01*
X74485714Y-97452438D02*
X74580952Y-97404819D01*
X74580952Y-97404819D02*
X74819047Y-97404819D01*
X74819047Y-97404819D02*
X74914285Y-97452438D01*
X74914285Y-97452438D02*
X74961904Y-97500057D01*
X74961904Y-97500057D02*
X75009523Y-97595295D01*
X75009523Y-97595295D02*
X75009523Y-97690533D01*
X75009523Y-97690533D02*
X74961904Y-97833390D01*
X74961904Y-97833390D02*
X74390476Y-98404819D01*
X74390476Y-98404819D02*
X75009523Y-98404819D01*
X75342857Y-97404819D02*
X75961904Y-97404819D01*
X75961904Y-97404819D02*
X75628571Y-97785771D01*
X75628571Y-97785771D02*
X75771428Y-97785771D01*
X75771428Y-97785771D02*
X75866666Y-97833390D01*
X75866666Y-97833390D02*
X75914285Y-97881009D01*
X75914285Y-97881009D02*
X75961904Y-97976247D01*
X75961904Y-97976247D02*
X75961904Y-98214342D01*
X75961904Y-98214342D02*
X75914285Y-98309580D01*
X75914285Y-98309580D02*
X75866666Y-98357200D01*
X75866666Y-98357200D02*
X75771428Y-98404819D01*
X75771428Y-98404819D02*
X75485714Y-98404819D01*
X75485714Y-98404819D02*
X75390476Y-98357200D01*
X75390476Y-98357200D02*
X75342857Y-98309580D01*
X54557142Y-90309580D02*
X54509523Y-90357200D01*
X54509523Y-90357200D02*
X54366666Y-90404819D01*
X54366666Y-90404819D02*
X54271428Y-90404819D01*
X54271428Y-90404819D02*
X54128571Y-90357200D01*
X54128571Y-90357200D02*
X54033333Y-90261961D01*
X54033333Y-90261961D02*
X53985714Y-90166723D01*
X53985714Y-90166723D02*
X53938095Y-89976247D01*
X53938095Y-89976247D02*
X53938095Y-89833390D01*
X53938095Y-89833390D02*
X53985714Y-89642914D01*
X53985714Y-89642914D02*
X54033333Y-89547676D01*
X54033333Y-89547676D02*
X54128571Y-89452438D01*
X54128571Y-89452438D02*
X54271428Y-89404819D01*
X54271428Y-89404819D02*
X54366666Y-89404819D01*
X54366666Y-89404819D02*
X54509523Y-89452438D01*
X54509523Y-89452438D02*
X54557142Y-89500057D01*
X55509523Y-90404819D02*
X54938095Y-90404819D01*
X55223809Y-90404819D02*
X55223809Y-89404819D01*
X55223809Y-89404819D02*
X55128571Y-89547676D01*
X55128571Y-89547676D02*
X55033333Y-89642914D01*
X55033333Y-89642914D02*
X54938095Y-89690533D01*
X55842857Y-89404819D02*
X56461904Y-89404819D01*
X56461904Y-89404819D02*
X56128571Y-89785771D01*
X56128571Y-89785771D02*
X56271428Y-89785771D01*
X56271428Y-89785771D02*
X56366666Y-89833390D01*
X56366666Y-89833390D02*
X56414285Y-89881009D01*
X56414285Y-89881009D02*
X56461904Y-89976247D01*
X56461904Y-89976247D02*
X56461904Y-90214342D01*
X56461904Y-90214342D02*
X56414285Y-90309580D01*
X56414285Y-90309580D02*
X56366666Y-90357200D01*
X56366666Y-90357200D02*
X56271428Y-90404819D01*
X56271428Y-90404819D02*
X55985714Y-90404819D01*
X55985714Y-90404819D02*
X55890476Y-90357200D01*
X55890476Y-90357200D02*
X55842857Y-90309580D01*
D12*
%TO.C,PWRSW1*%
X52924999Y-61299999D02*
X52924999Y-62600001D01*
X55475001Y-61299999D02*
X55475001Y-62600001D01*
D13*
X55075002Y-60300001D02*
G75*
G03*
X55075002Y-60300001I-125001J0D01*
G01*
D14*
%TO.C,CHGR1*%
X53671300Y-81626400D02*
X55728700Y-81626400D01*
X55728700Y-80313261D02*
X55728700Y-79586739D01*
X55728700Y-78273600D02*
X53671300Y-78273600D01*
%TO.C,J5*%
X72300000Y-20450000D02*
X72300000Y-20650000D01*
X80100000Y-20650000D02*
X80100000Y-20450000D01*
D10*
X72300000Y-24900000D02*
X72650000Y-24900000D01*
X72300000Y-23150000D02*
X72300000Y-24900000D01*
X80100000Y-24900000D02*
X79750000Y-24900000D01*
X80100000Y-23150000D02*
X80100000Y-24900000D01*
X77500000Y-26600000D02*
X77900000Y-25900000D01*
X77100000Y-25900000D02*
X77500000Y-26600000D01*
X77900000Y-25900000D02*
X77100000Y-25900000D01*
D14*
%TO.C,J6*%
X57486000Y-45609007D02*
X57486000Y-47006008D01*
X57486000Y-47006008D02*
X56470000Y-46371007D01*
X57486000Y-45609007D02*
X56470000Y-46371007D01*
X55400000Y-43450008D02*
X53470040Y-43450008D01*
X50100000Y-43450008D02*
X50100000Y-50949992D01*
X50100000Y-50949992D02*
X51529961Y-50949992D01*
X55400000Y-50949992D02*
X55400000Y-48420041D01*
X55400000Y-45979959D02*
X55400000Y-43450008D01*
X51529961Y-43450008D02*
X50100000Y-43450008D01*
X53470040Y-50949992D02*
X55400000Y-50949992D01*
%TO.C,J4*%
X66979960Y-109200008D02*
X65050000Y-109200008D01*
X68920039Y-116699992D02*
X70350000Y-116699992D01*
X65050000Y-114170041D02*
X65050000Y-116699992D01*
X65050000Y-109200008D02*
X65050000Y-111729959D01*
X70350000Y-109200008D02*
X68920039Y-109200008D01*
X70350000Y-116699992D02*
X70350000Y-109200008D01*
X65050000Y-116699992D02*
X66979960Y-116699992D01*
X62964000Y-114540993D02*
X63980000Y-113778993D01*
X62964000Y-113143992D02*
X63980000Y-113778993D01*
X62964000Y-114540993D02*
X62964000Y-113143992D01*
D15*
%TO.C,U1*%
X54820000Y-72390000D02*
X53020000Y-72390000D01*
X54820000Y-72390000D02*
X55620000Y-72390000D01*
X54820000Y-75510000D02*
X54020000Y-75510000D01*
X54820000Y-75510000D02*
X55620000Y-75510000D01*
D11*
%TO.C,J3*%
X88600000Y-76380000D02*
X88600000Y-76880000D01*
X88600000Y-76380000D02*
X89100000Y-76380000D01*
X88600000Y-81180000D02*
X88600000Y-80680000D01*
X88600000Y-81180000D02*
X89100000Y-81180000D01*
X98800000Y-76380000D02*
X98300000Y-76380000D01*
X98800000Y-76380000D02*
X98800000Y-76880000D01*
X98800000Y-81180000D02*
X98300000Y-81180000D01*
X98800000Y-81180000D02*
X98800000Y-80680000D01*
D15*
%TO.C,MMB1*%
X63300000Y-32050000D02*
X68100000Y-32050000D01*
X68100000Y-32110000D02*
X68100000Y-44850000D01*
X62300000Y-33050000D02*
X63300000Y-32050000D01*
X68100000Y-44850000D02*
X62300000Y-44850000D01*
X62300000Y-44850000D02*
X62300000Y-33110000D01*
D11*
X66650000Y-36400000D02*
X63750000Y-36400000D01*
X63750000Y-36400000D02*
X63750000Y-37600000D01*
X63750000Y-37600000D02*
X66650000Y-37600000D01*
X66650000Y-37600000D02*
X66650000Y-36400000D01*
%TO.C,D8*%
X80890000Y-95950000D02*
G75*
G03*
X80890000Y-95950000I-50000J0D01*
G01*
%TO.C,Q8*%
X69825000Y-94575000D02*
X69825000Y-94625000D01*
X69825000Y-94625000D02*
X69050000Y-94625000D01*
X69825000Y-97600000D02*
X69825000Y-97250000D01*
X70200000Y-94300000D02*
X69825000Y-94575000D01*
X70300000Y-97600000D02*
X69825000Y-97600000D01*
X70475000Y-94300000D02*
X70200000Y-94300000D01*
X71100000Y-94300000D02*
X71475000Y-94300000D01*
X71475000Y-94300000D02*
X71475000Y-94600000D01*
X71475000Y-97300000D02*
X71475000Y-97600000D01*
X71475000Y-97375000D02*
X71475000Y-97250000D01*
X71475000Y-97600000D02*
X71025000Y-97600000D01*
%TO.C,Q7*%
X61825000Y-94575000D02*
X61825000Y-94625000D01*
X61825000Y-94625000D02*
X61050000Y-94625000D01*
X61825000Y-97600000D02*
X61825000Y-97250000D01*
X62200000Y-94300000D02*
X61825000Y-94575000D01*
X62300000Y-97600000D02*
X61825000Y-97600000D01*
X62475000Y-94300000D02*
X62200000Y-94300000D01*
X63100000Y-94300000D02*
X63475000Y-94300000D01*
X63475000Y-94300000D02*
X63475000Y-94600000D01*
X63475000Y-97300000D02*
X63475000Y-97600000D01*
X63475000Y-97375000D02*
X63475000Y-97250000D01*
X63475000Y-97600000D02*
X63025000Y-97600000D01*
D15*
%TO.C,LMB1*%
X56800000Y-26550000D02*
X61600000Y-26550000D01*
X61600000Y-26610000D02*
X61600000Y-39350000D01*
X55800000Y-27550000D02*
X56800000Y-26550000D01*
X61600000Y-39350000D02*
X55800000Y-39350000D01*
X55800000Y-39350000D02*
X55800000Y-27610000D01*
D11*
X60150000Y-30900000D02*
X57250000Y-30900000D01*
X57250000Y-30900000D02*
X57250000Y-32100000D01*
X57250000Y-32100000D02*
X60150000Y-32100000D01*
X60150000Y-32100000D02*
X60150000Y-30900000D01*
D14*
%TO.C,XTAL1*%
X53772900Y-86810781D02*
X53772900Y-87089219D01*
X55627100Y-87089219D02*
X55627100Y-86810781D01*
D11*
%TO.C,Q9*%
X77825000Y-94575000D02*
X77825000Y-94625000D01*
X77825000Y-94625000D02*
X77050000Y-94625000D01*
X77825000Y-97600000D02*
X77825000Y-97250000D01*
X78200000Y-94300000D02*
X77825000Y-94575000D01*
X78300000Y-97600000D02*
X77825000Y-97600000D01*
X78475000Y-94300000D02*
X78200000Y-94300000D01*
X79100000Y-94300000D02*
X79475000Y-94300000D01*
X79475000Y-94300000D02*
X79475000Y-94600000D01*
X79475000Y-97300000D02*
X79475000Y-97600000D01*
X79475000Y-97375000D02*
X79475000Y-97250000D01*
X79475000Y-97600000D02*
X79025000Y-97600000D01*
%TO.C,D6*%
X64890000Y-95950000D02*
G75*
G03*
X64890000Y-95950000I-50000J0D01*
G01*
D15*
%TO.C,RMB1*%
X92300000Y-26620000D02*
X97100000Y-26620000D01*
X97100000Y-26680000D02*
X97100000Y-39420000D01*
X91300000Y-27620000D02*
X92300000Y-26620000D01*
X97100000Y-39420000D02*
X91300000Y-39420000D01*
X91300000Y-39420000D02*
X91300000Y-27680000D01*
D11*
X95650000Y-30970000D02*
X92750000Y-30970000D01*
X92750000Y-30970000D02*
X92750000Y-32170000D01*
X92750000Y-32170000D02*
X95650000Y-32170000D01*
X95650000Y-32170000D02*
X95650000Y-30970000D01*
%TO.C,J1*%
X88600000Y-70030000D02*
X88600000Y-70530000D01*
X88600000Y-70030000D02*
X89100000Y-70030000D01*
X88600000Y-74830000D02*
X88600000Y-74330000D01*
X88600000Y-74830000D02*
X89100000Y-74830000D01*
X98800000Y-70030000D02*
X98300000Y-70030000D01*
X98800000Y-70030000D02*
X98800000Y-70530000D01*
X98800000Y-74830000D02*
X98300000Y-74830000D01*
X98800000Y-74830000D02*
X98800000Y-74330000D01*
%TO.C,D2*%
X55545000Y-77450000D02*
G75*
G03*
X55545000Y-77450000I-50000J0D01*
G01*
D15*
%TO.C,PAW1*%
X83550000Y-49350000D02*
X83550000Y-65900000D01*
X69850000Y-49350000D02*
X83550000Y-49350000D01*
X68850000Y-50350000D02*
X69850000Y-49350000D01*
X83550000Y-65900000D02*
X68850000Y-65900000D01*
X68850000Y-65900000D02*
X68850000Y-50350000D01*
D14*
%TO.C,U2*%
X53561950Y-98138299D02*
X55568550Y-98138299D01*
X55568550Y-94861699D02*
X53561950Y-94861699D01*
X55568550Y-96863260D02*
X55568550Y-96136738D01*
D15*
%TO.C,SMB5*%
X51300000Y-108050000D02*
X56100000Y-108050000D01*
X56100000Y-108110000D02*
X56100000Y-120850000D01*
X50300000Y-109050000D02*
X51300000Y-108050000D01*
X56100000Y-120850000D02*
X50300000Y-120850000D01*
X50300000Y-120850000D02*
X50300000Y-109110000D01*
D11*
X54650000Y-112400000D02*
X51750000Y-112400000D01*
X51750000Y-112400000D02*
X51750000Y-113600000D01*
X51750000Y-113600000D02*
X54650000Y-113600000D01*
X54650000Y-113600000D02*
X54650000Y-112400000D01*
%TO.C,SMB4*%
X61650000Y-112400000D02*
X58750000Y-112400000D01*
X58750000Y-112400000D02*
X58750000Y-113600000D01*
X58750000Y-113600000D02*
X61650000Y-113600000D01*
X61650000Y-113600000D02*
X61650000Y-112400000D01*
D15*
X57300000Y-120850000D02*
X57300000Y-109110000D01*
X63100000Y-120850000D02*
X57300000Y-120850000D01*
X57300000Y-109050000D02*
X58300000Y-108050000D01*
X63100000Y-108110000D02*
X63100000Y-120850000D01*
X58300000Y-108050000D02*
X63100000Y-108050000D01*
D16*
%TO.C,ESP1*%
X63300000Y-71240000D02*
X81300000Y-71240000D01*
X63300000Y-71660000D02*
X63300000Y-71240000D01*
X63300000Y-90440000D02*
X63300000Y-89710000D01*
X64545000Y-90440000D02*
X63300000Y-90440000D01*
X81300000Y-71240000D02*
X81300000Y-71660000D01*
X81300000Y-90440000D02*
X80055000Y-90440000D01*
X81300000Y-90440000D02*
X81300000Y-89710000D01*
D12*
X61900000Y-72430000D02*
G75*
G03*
X61900000Y-72430000I-100000J0D01*
G01*
D11*
%TO.C,D7*%
X72890000Y-95950000D02*
G75*
G03*
X72890000Y-95950000I-50000J0D01*
G01*
D14*
%TO.C,U3*%
X53816700Y-69601000D02*
X55823300Y-69601000D01*
X55823300Y-66299000D02*
X53816700Y-66299000D01*
X55823300Y-68313261D02*
X55823300Y-67586739D01*
D11*
%TO.C,D1*%
X93455000Y-55950000D02*
G75*
G03*
X93455000Y-55950000I-50000J0D01*
G01*
D14*
%TO.C,J2*%
X92075801Y-60723000D02*
X92075801Y-66285599D01*
X92075801Y-66285599D02*
X98324201Y-66285599D01*
X96640154Y-60723000D02*
X92075801Y-60723000D01*
X98324201Y-66285599D02*
X98324201Y-62255673D01*
D17*
X99340201Y-62950000D02*
G75*
G03*
X99340201Y-62950000I-381000J0D01*
G01*
D11*
%TO.C,S4*%
X99800000Y-88050000D02*
X99800000Y-87550000D01*
X99800000Y-88050000D02*
X99300000Y-88050000D01*
X99800000Y-83850000D02*
X99800000Y-84350000D01*
X99800000Y-83850000D02*
X99300000Y-83850000D01*
X87900000Y-88050000D02*
X88400000Y-88050000D01*
X87900000Y-88050000D02*
X87900000Y-87550000D01*
X87900000Y-83850000D02*
X88400000Y-83850000D01*
X87900000Y-83850000D02*
X87900000Y-84350000D01*
%TD*%
M02*
