%TF.GenerationSoftware,KiCad,Pcbnew,7.0.7*%
%TF.CreationDate,2023-11-24T19:36:33-07:00*%
%TF.ProjectId,mouse,6d6f7573-652e-46b6-9963-61645f706362,rev?*%
%TF.SameCoordinates,Original*%
%TF.FileFunction,Copper,L2,Bot*%
%TF.FilePolarity,Positive*%
%FSLAX46Y46*%
G04 Gerber Fmt 4.6, Leading zero omitted, Abs format (unit mm)*
G04 Created by KiCad (PCBNEW 7.0.7) date 2023-11-24 19:36:33*
%MOMM*%
%LPD*%
G01*
G04 APERTURE LIST*
%TA.AperFunction,EtchedComponent*%
%ADD10C,0.010000*%
%TD*%
%TA.AperFunction,ComponentPad*%
%ADD11O,1.200000X1.900000*%
%TD*%
%TA.AperFunction,ComponentPad*%
%ADD12C,1.450000*%
%TD*%
%TA.AperFunction,ComponentPad*%
%ADD13C,1.500000*%
%TD*%
%TA.AperFunction,ComponentPad*%
%ADD14O,1.000000X1.500000*%
%TD*%
%TA.AperFunction,ComponentPad*%
%ADD15O,1.500000X1.200000*%
%TD*%
%TA.AperFunction,ComponentPad*%
%ADD16C,0.400000*%
%TD*%
%TA.AperFunction,ComponentPad*%
%ADD17C,1.320800*%
%TD*%
%TA.AperFunction,ComponentPad*%
%ADD18C,1.701800*%
%TD*%
%TA.AperFunction,ComponentPad*%
%ADD19R,1.900000X1.900000*%
%TD*%
%TA.AperFunction,ComponentPad*%
%ADD20C,1.900000*%
%TD*%
%TA.AperFunction,ViaPad*%
%ADD21C,0.800000*%
%TD*%
%TA.AperFunction,Conductor*%
%ADD22C,0.250000*%
%TD*%
%TA.AperFunction,Conductor*%
%ADD23C,0.200000*%
%TD*%
G04 APERTURE END LIST*
%TO.C,J5*%
D10*
X79826000Y-20951000D02*
X79852000Y-20953000D01*
X79878000Y-20956000D01*
X79904000Y-20961000D01*
X79929000Y-20967000D01*
X79955000Y-20974000D01*
X79979000Y-20983000D01*
X80003000Y-20993000D01*
X80027000Y-21004000D01*
X80050000Y-21017000D01*
X80072000Y-21031000D01*
X80094000Y-21045000D01*
X80115000Y-21061000D01*
X80135000Y-21078000D01*
X80154000Y-21096000D01*
X80172000Y-21115000D01*
X80189000Y-21135000D01*
X80205000Y-21156000D01*
X80219000Y-21178000D01*
X80233000Y-21200000D01*
X80246000Y-21223000D01*
X80257000Y-21247000D01*
X80267000Y-21271000D01*
X80276000Y-21295000D01*
X80283000Y-21321000D01*
X80289000Y-21346000D01*
X80294000Y-21372000D01*
X80297000Y-21398000D01*
X80299000Y-21424000D01*
X80300000Y-21450000D01*
X80300000Y-22350000D01*
X80299000Y-22376000D01*
X80297000Y-22402000D01*
X80294000Y-22428000D01*
X80289000Y-22454000D01*
X80283000Y-22479000D01*
X80276000Y-22505000D01*
X80267000Y-22529000D01*
X80257000Y-22553000D01*
X80246000Y-22577000D01*
X80233000Y-22600000D01*
X80219000Y-22622000D01*
X80205000Y-22644000D01*
X80189000Y-22665000D01*
X80172000Y-22685000D01*
X80154000Y-22704000D01*
X80135000Y-22722000D01*
X80115000Y-22739000D01*
X80094000Y-22755000D01*
X80072000Y-22769000D01*
X80050000Y-22783000D01*
X80027000Y-22796000D01*
X80003000Y-22807000D01*
X79979000Y-22817000D01*
X79955000Y-22826000D01*
X79929000Y-22833000D01*
X79904000Y-22839000D01*
X79878000Y-22844000D01*
X79852000Y-22847000D01*
X79826000Y-22849000D01*
X79800000Y-22850000D01*
X78500000Y-22850000D01*
X78500000Y-20950000D01*
X79800000Y-20950000D01*
X79826000Y-20951000D01*
%TA.AperFunction,EtchedComponent*%
G36*
X79826000Y-20951000D02*
G01*
X79852000Y-20953000D01*
X79878000Y-20956000D01*
X79904000Y-20961000D01*
X79929000Y-20967000D01*
X79955000Y-20974000D01*
X79979000Y-20983000D01*
X80003000Y-20993000D01*
X80027000Y-21004000D01*
X80050000Y-21017000D01*
X80072000Y-21031000D01*
X80094000Y-21045000D01*
X80115000Y-21061000D01*
X80135000Y-21078000D01*
X80154000Y-21096000D01*
X80172000Y-21115000D01*
X80189000Y-21135000D01*
X80205000Y-21156000D01*
X80219000Y-21178000D01*
X80233000Y-21200000D01*
X80246000Y-21223000D01*
X80257000Y-21247000D01*
X80267000Y-21271000D01*
X80276000Y-21295000D01*
X80283000Y-21321000D01*
X80289000Y-21346000D01*
X80294000Y-21372000D01*
X80297000Y-21398000D01*
X80299000Y-21424000D01*
X80300000Y-21450000D01*
X80300000Y-22350000D01*
X80299000Y-22376000D01*
X80297000Y-22402000D01*
X80294000Y-22428000D01*
X80289000Y-22454000D01*
X80283000Y-22479000D01*
X80276000Y-22505000D01*
X80267000Y-22529000D01*
X80257000Y-22553000D01*
X80246000Y-22577000D01*
X80233000Y-22600000D01*
X80219000Y-22622000D01*
X80205000Y-22644000D01*
X80189000Y-22665000D01*
X80172000Y-22685000D01*
X80154000Y-22704000D01*
X80135000Y-22722000D01*
X80115000Y-22739000D01*
X80094000Y-22755000D01*
X80072000Y-22769000D01*
X80050000Y-22783000D01*
X80027000Y-22796000D01*
X80003000Y-22807000D01*
X79979000Y-22817000D01*
X79955000Y-22826000D01*
X79929000Y-22833000D01*
X79904000Y-22839000D01*
X79878000Y-22844000D01*
X79852000Y-22847000D01*
X79826000Y-22849000D01*
X79800000Y-22850000D01*
X78500000Y-22850000D01*
X78500000Y-20950000D01*
X79800000Y-20950000D01*
X79826000Y-20951000D01*
G37*
%TD.AperFunction*%
X73900000Y-22850000D02*
X72600000Y-22850000D01*
X72574000Y-22849000D01*
X72548000Y-22847000D01*
X72522000Y-22844000D01*
X72496000Y-22839000D01*
X72471000Y-22833000D01*
X72445000Y-22826000D01*
X72421000Y-22817000D01*
X72397000Y-22807000D01*
X72373000Y-22796000D01*
X72350000Y-22783000D01*
X72328000Y-22769000D01*
X72306000Y-22755000D01*
X72285000Y-22739000D01*
X72265000Y-22722000D01*
X72246000Y-22704000D01*
X72228000Y-22685000D01*
X72211000Y-22665000D01*
X72195000Y-22644000D01*
X72181000Y-22622000D01*
X72167000Y-22600000D01*
X72154000Y-22577000D01*
X72143000Y-22553000D01*
X72133000Y-22529000D01*
X72124000Y-22505000D01*
X72117000Y-22479000D01*
X72111000Y-22454000D01*
X72106000Y-22428000D01*
X72103000Y-22402000D01*
X72101000Y-22376000D01*
X72100000Y-22350000D01*
X72100000Y-21450000D01*
X72101000Y-21424000D01*
X72103000Y-21398000D01*
X72106000Y-21372000D01*
X72111000Y-21346000D01*
X72117000Y-21321000D01*
X72124000Y-21295000D01*
X72133000Y-21271000D01*
X72143000Y-21247000D01*
X72154000Y-21223000D01*
X72167000Y-21200000D01*
X72181000Y-21178000D01*
X72195000Y-21156000D01*
X72211000Y-21135000D01*
X72228000Y-21115000D01*
X72246000Y-21096000D01*
X72265000Y-21078000D01*
X72285000Y-21061000D01*
X72306000Y-21045000D01*
X72328000Y-21031000D01*
X72350000Y-21017000D01*
X72373000Y-21004000D01*
X72397000Y-20993000D01*
X72421000Y-20983000D01*
X72445000Y-20974000D01*
X72471000Y-20967000D01*
X72496000Y-20961000D01*
X72522000Y-20956000D01*
X72548000Y-20953000D01*
X72574000Y-20951000D01*
X72600000Y-20950000D01*
X73900000Y-20950000D01*
X73900000Y-22850000D01*
%TA.AperFunction,EtchedComponent*%
G36*
X73900000Y-22850000D02*
G01*
X72600000Y-22850000D01*
X72574000Y-22849000D01*
X72548000Y-22847000D01*
X72522000Y-22844000D01*
X72496000Y-22839000D01*
X72471000Y-22833000D01*
X72445000Y-22826000D01*
X72421000Y-22817000D01*
X72397000Y-22807000D01*
X72373000Y-22796000D01*
X72350000Y-22783000D01*
X72328000Y-22769000D01*
X72306000Y-22755000D01*
X72285000Y-22739000D01*
X72265000Y-22722000D01*
X72246000Y-22704000D01*
X72228000Y-22685000D01*
X72211000Y-22665000D01*
X72195000Y-22644000D01*
X72181000Y-22622000D01*
X72167000Y-22600000D01*
X72154000Y-22577000D01*
X72143000Y-22553000D01*
X72133000Y-22529000D01*
X72124000Y-22505000D01*
X72117000Y-22479000D01*
X72111000Y-22454000D01*
X72106000Y-22428000D01*
X72103000Y-22402000D01*
X72101000Y-22376000D01*
X72100000Y-22350000D01*
X72100000Y-21450000D01*
X72101000Y-21424000D01*
X72103000Y-21398000D01*
X72106000Y-21372000D01*
X72111000Y-21346000D01*
X72117000Y-21321000D01*
X72124000Y-21295000D01*
X72133000Y-21271000D01*
X72143000Y-21247000D01*
X72154000Y-21223000D01*
X72167000Y-21200000D01*
X72181000Y-21178000D01*
X72195000Y-21156000D01*
X72211000Y-21135000D01*
X72228000Y-21115000D01*
X72246000Y-21096000D01*
X72265000Y-21078000D01*
X72285000Y-21061000D01*
X72306000Y-21045000D01*
X72328000Y-21031000D01*
X72350000Y-21017000D01*
X72373000Y-21004000D01*
X72397000Y-20993000D01*
X72421000Y-20983000D01*
X72445000Y-20974000D01*
X72471000Y-20967000D01*
X72496000Y-20961000D01*
X72522000Y-20956000D01*
X72548000Y-20953000D01*
X72574000Y-20951000D01*
X72600000Y-20950000D01*
X73900000Y-20950000D01*
X73900000Y-22850000D01*
G37*
%TD.AperFunction*%
%TD*%
D11*
%TO.P,J5,SH6,SHIELD6*%
%TO.N,unconnected-(J5-SHIELD6-PadSH6)*%
X72700000Y-21900000D03*
%TO.P,J5,SH3,SHIELD3*%
%TO.N,unconnected-(J5-SHIELD3-PadSH3)*%
X79700000Y-21900000D03*
D12*
%TO.P,J5,SH2,SHIELD2*%
%TO.N,GND*%
X73700000Y-24600000D03*
%TO.P,J5,SH1,SHIELD1*%
X78700000Y-24600000D03*
%TD*%
D13*
%TO.P,J3,1*%
%TO.N,TMS*%
X90700000Y-78780000D03*
%TO.P,J3,2*%
%TO.N,TDI*%
X92700000Y-78780000D03*
%TO.P,J3,3*%
%TO.N,TCK*%
X94700000Y-78780000D03*
%TO.P,J3,4*%
%TO.N,TDO*%
X96700000Y-78780000D03*
%TD*%
D14*
%TO.P,MMB1,1,COM*%
%TO.N,SCROLL_CLICK*%
X65200000Y-33370000D03*
%TO.P,MMB1,2,NO*%
%TO.N,PWR_3.3V*%
X65200000Y-38450000D03*
%TO.P,MMB1,3,NC*%
%TO.N,GND*%
X65200000Y-43530000D03*
%TD*%
D13*
%TO.P,ENC1,1,A*%
%TO.N,SCROLL_UP*%
X85200000Y-39450000D03*
%TO.P,ENC1,2,B*%
%TO.N,SCROLL_DOWN*%
X85200000Y-36950000D03*
%TO.P,ENC1,3,COM*%
%TO.N,GND*%
X85200000Y-34450000D03*
%TD*%
D14*
%TO.P,LMB1,1,COM*%
%TO.N,SW1_COM*%
X58700000Y-27870000D03*
%TO.P,LMB1,2,NO*%
%TO.N,PWR_3.3V*%
X58700000Y-32950000D03*
%TO.P,LMB1,3,NC*%
%TO.N,GND*%
X58700000Y-38030000D03*
%TD*%
%TO.P,RMB1,1,COM*%
%TO.N,SW2_COM*%
X94200000Y-27940000D03*
%TO.P,RMB1,2,NO*%
%TO.N,PWR_3.3V*%
X94200000Y-33020000D03*
%TO.P,RMB1,3,NC*%
%TO.N,GND*%
X94200000Y-38100000D03*
%TD*%
D13*
%TO.P,J1,1*%
%TO.N,GND*%
X90700000Y-72430000D03*
%TO.P,J1,2*%
%TO.N,RXD0*%
X92700000Y-72430000D03*
%TO.P,J1,3*%
%TO.N,TXD0*%
X94700000Y-72430000D03*
%TO.P,J1,4*%
%TO.N,PWR_3.3V*%
X96700000Y-72430000D03*
%TD*%
D15*
%TO.P,PAW1,1,NC1*%
%TO.N,unconnected-(PAW1-NC1-Pad1)*%
X70850000Y-50950000D03*
%TO.P,PAW1,2,NC2*%
%TO.N,unconnected-(PAW1-NC2-Pad2)*%
X70850000Y-52730000D03*
%TO.P,PAW1,3,GND*%
%TO.N,GND*%
X70850000Y-54510000D03*
%TO.P,PAW1,4,VDD*%
%TO.N,PWR_1.9V*%
X70850000Y-56290000D03*
%TO.P,PAW1,5,VDDREG*%
%TO.N,VDDREG*%
X70850000Y-58070000D03*
%TO.P,PAW1,6,NC6*%
%TO.N,unconnected-(PAW1-NC6-Pad6)*%
X70850000Y-59850000D03*
%TO.P,PAW1,7,VDDIO*%
%TO.N,PWR_3.3V*%
X70850000Y-61630000D03*
%TO.P,PAW1,8,GNDIO*%
%TO.N,GND1*%
X70850000Y-63410000D03*
%TO.P,PAW1,9,MOTION*%
%TO.N,MOTION*%
X81550000Y-64300000D03*
%TO.P,PAW1,10,SCLK*%
%TO.N,SCLK*%
X81550000Y-62520000D03*
%TO.P,PAW1,11,MOSI*%
%TO.N,MOSI*%
X81550000Y-60740000D03*
%TO.P,PAW1,12,MISO*%
%TO.N,MISO*%
X81550000Y-58960000D03*
%TO.P,PAW1,13,NCS*%
%TO.N,NCS*%
X81550000Y-57180000D03*
%TO.P,PAW1,14,NRESET*%
%TO.N,NRESET*%
X81550000Y-55400000D03*
%TO.P,PAW1,15,LED_P*%
%TO.N,LED_P*%
X81550000Y-53620000D03*
%TO.P,PAW1,16,NC16*%
%TO.N,unconnected-(PAW1-NC16-Pad16)*%
X81550000Y-51840000D03*
%TD*%
D14*
%TO.P,SMB5,1,COM*%
%TO.N,SW4_COM_OFF*%
X53200000Y-109370000D03*
%TO.P,SMB5,2,NO*%
%TO.N,PWR_3.3V_OFF*%
X53200000Y-114450000D03*
%TO.P,SMB5,3,NC*%
%TO.N,GND_OFF*%
X53200000Y-119530000D03*
%TD*%
%TO.P,SMB4,3,NC*%
%TO.N,GND_OFF*%
X60200000Y-119530000D03*
%TO.P,SMB4,2,NO*%
%TO.N,PWR_3.3V_OFF*%
X60200000Y-114450000D03*
%TO.P,SMB4,1,COM*%
%TO.N,SW3_COM_OFF*%
X60200000Y-109370000D03*
%TD*%
D16*
%TO.P,ESP1,41_10*%
%TO.N,N/C*%
X70100000Y-78750000D03*
%TO.P,ESP1,41_11*%
X71500000Y-78750000D03*
%TO.P,ESP1,41_12*%
X69400000Y-79450000D03*
%TO.P,ESP1,41_13*%
X70800000Y-79450000D03*
%TO.P,ESP1,41_14*%
X72200000Y-79450000D03*
%TO.P,ESP1,41_15*%
X70100000Y-80150000D03*
%TO.P,ESP1,41_16*%
X71500000Y-80150000D03*
%TO.P,ESP1,41_17*%
X69400000Y-80850000D03*
%TO.P,ESP1,41_18*%
X70800000Y-80850000D03*
%TO.P,ESP1,41_19*%
X72200000Y-80850000D03*
%TO.P,ESP1,41_20*%
X70100000Y-81550000D03*
%TO.P,ESP1,41_21*%
X71500000Y-81550000D03*
%TD*%
D17*
%TO.P,J2,1,1*%
%TO.N,+BATT*%
X96200002Y-62950000D03*
%TO.P,J2,2,2*%
%TO.N,GND*%
X94200000Y-62950000D03*
D18*
%TO.P,J2,3*%
%TO.N,N/C*%
X97700001Y-61250000D03*
%TD*%
D19*
%TO.P,S4,1*%
%TO.N,PWR_EN*%
X96200000Y-85950000D03*
D20*
%TO.P,S4,2*%
%TO.N,PWR_OUT*%
X93700000Y-85950000D03*
%TO.P,S4,3*%
%TO.N,GND*%
X91200000Y-85950000D03*
%TD*%
D21*
%TO.N,SW3_COM_OFF*%
X63200000Y-113700001D03*
%TO.N,SW4_COM*%
X57700000Y-75450000D03*
X57200000Y-47950000D03*
%TO.N,SW3_COM*%
X58200000Y-49450000D03*
%TO.N,GND*%
X59200000Y-76450000D03*
%TO.N,SW3_COM*%
X61200000Y-78780000D03*
%TO.N,VBUS*%
X55995400Y-81950000D03*
%TO.N,+BATT*%
X78700000Y-68950000D03*
%TO.N,SCROLL_DOWN*%
X89200000Y-46950000D03*
X86200000Y-46950000D03*
X89200000Y-43450000D03*
X76200000Y-86400000D03*
%TO.N,SCROLL_UP*%
X74700000Y-85130000D03*
%TO.N,SCROLL_DOWN*%
X86200000Y-64950000D03*
%TO.N,SCROLL_UP*%
X88380000Y-40950000D03*
%TO.N,SCROLL_DOWN*%
X88380000Y-35450000D03*
%TO.N,SCROLL_UP*%
X85200000Y-62950000D03*
%TO.N,GND*%
X87200000Y-69950000D03*
%TO.N,SW1_COM*%
X66200000Y-80450000D03*
%TO.N,SCROLL_CLICK*%
X67200000Y-83950000D03*
X65200000Y-27950000D03*
%TO.N,SW2_COM*%
X66760000Y-77510000D03*
X101200000Y-91950000D03*
%TO.N,USB_D-*%
X69700000Y-87670000D03*
X100200000Y-90950000D03*
%TO.N,USB_D+*%
X71200000Y-87950000D03*
X99200000Y-89950000D03*
%TO.N,PWR_1.9V*%
X61200000Y-61450000D03*
X61200000Y-56290000D03*
X56200000Y-62450000D03*
%TO.N,VDDREG*%
X64200000Y-53450000D03*
X68200000Y-53450000D03*
X64200000Y-57450000D03*
%TO.N,GND1*%
X62200000Y-58450000D03*
X68200000Y-58450000D03*
X66200000Y-58450000D03*
%TO.N,+BATT*%
X51924500Y-80900001D03*
X68200000Y-68950000D03*
X96200000Y-68950000D03*
X61020000Y-64950000D03*
X52200000Y-63950000D03*
%TO.N,VBUS*%
X49200000Y-62690001D03*
X52200000Y-62690001D03*
X56700000Y-76450000D03*
X51924500Y-81950000D03*
X49200000Y-76450000D03*
X52450000Y-57200000D03*
X53700000Y-55950000D03*
X49200000Y-81950000D03*
X78700000Y-28950000D03*
X55700000Y-55950000D03*
%TO.N,Net-(C12-Pad2)*%
X57200000Y-85450000D03*
X54700000Y-83950000D03*
%TO.N,Net-(C13-Pad2)*%
X54700000Y-89950000D03*
X57200000Y-88450000D03*
%TO.N,EN*%
X61700000Y-73450000D03*
X61020000Y-71450000D03*
%TO.N,Net-(D6-A)*%
X67020000Y-98450000D03*
X67020000Y-95950000D03*
%TO.N,Net-(D7-A)*%
X75020000Y-95950000D03*
X75020000Y-98450000D03*
%TO.N,Net-(D8-A)*%
X83020000Y-95950000D03*
X83020000Y-98450000D03*
%TO.N,Net-(CHGR1-STAT)*%
X51924500Y-78999999D03*
X51924500Y-77450000D03*
%TO.N,Net-(CHGR1-VSS)*%
X64550500Y-63950000D03*
X64550500Y-69950000D03*
X60200000Y-73450000D03*
X60200000Y-77450000D03*
X60200000Y-69950000D03*
X57700000Y-79950000D03*
%TO.N,XTAL1*%
X60700000Y-81320000D03*
%TO.N,XTAL2*%
X61700000Y-82590000D03*
%TO.N,PWR_5V_EN*%
X51924500Y-98950000D03*
X59700000Y-98950000D03*
X69125000Y-92950000D03*
X51924500Y-97450000D03*
X59712299Y-92950000D03*
%TO.N,NCS*%
X89700000Y-66450000D03*
X89700000Y-60950000D03*
X85200000Y-88950000D03*
X85200000Y-69950000D03*
X85200000Y-67450000D03*
%TO.N,MOSI*%
X84200000Y-87670000D03*
X84200000Y-70450000D03*
X84200000Y-60740000D03*
%TO.N,SCLK*%
X83200000Y-86400000D03*
X83200000Y-62520000D03*
X83200000Y-69950000D03*
%TO.N,MISO*%
X88687701Y-60962299D03*
X88687701Y-66437701D03*
X86200000Y-85130000D03*
X86200000Y-66450000D03*
X86200000Y-70450000D03*
%TO.N,NRESET*%
X79200000Y-71450000D03*
X79200000Y-83860000D03*
X90700000Y-66450000D03*
X90700000Y-60950000D03*
%TO.N,TCK*%
X94700000Y-82590000D03*
%TO.N,RXD0*%
X89200000Y-77510000D03*
%TO.N,MOTION*%
X77700000Y-74970000D03*
X81550000Y-69950000D03*
%TO.N,LED_P*%
X88700000Y-53620000D03*
%TO.N,PWR_OUT*%
X51200000Y-66999999D03*
X51200000Y-95549998D03*
X51200000Y-101950000D03*
X93700000Y-101950000D03*
X51200000Y-73000000D03*
X53700000Y-65450000D03*
X51200000Y-65450000D03*
%TO.N,Net-(PWRSW1-PR1)*%
X52200000Y-61209999D03*
X56700000Y-61209999D03*
%TO.N,PWR_EN*%
X96200000Y-102950000D03*
X52200000Y-68900001D03*
X50200000Y-74900000D03*
X50200000Y-102950000D03*
X52200000Y-74900000D03*
X50200000Y-68900001D03*
%TO.N,GND*%
X78020000Y-100950000D03*
X52380000Y-94450000D03*
X87200000Y-34450000D03*
X70020000Y-100950000D03*
X68700000Y-30450000D03*
X59200000Y-66950000D03*
X69400000Y-72430000D03*
X58700000Y-46450000D03*
X59200000Y-72450000D03*
X59200000Y-73950000D03*
X74900000Y-30450000D03*
X52380000Y-82950000D03*
X87200000Y-100950000D03*
X58200000Y-78999999D03*
X59200000Y-82950000D03*
X94200000Y-58450000D03*
X62880000Y-62450000D03*
X87200000Y-49450000D03*
X56700000Y-58450000D03*
X68700000Y-46450000D03*
X58200000Y-94450000D03*
X59200000Y-62450000D03*
X94200000Y-49450000D03*
X59200000Y-58450000D03*
X65700000Y-54510000D03*
X65380000Y-62450000D03*
X62020000Y-100950000D03*
X87200000Y-85950000D03*
X87200000Y-62950000D03*
X87200000Y-96950000D03*
X87200000Y-30450000D03*
X54950001Y-58450000D03*
X65380000Y-68900001D03*
X59200000Y-63950000D03*
X59200000Y-54510000D03*
X63200000Y-54510000D03*
X87200000Y-72430000D03*
X65200000Y-46450000D03*
X59200000Y-67950000D03*
X94200000Y-55950000D03*
X58200000Y-97450000D03*
X58200000Y-96450000D03*
X59200000Y-68900001D03*
%TO.N,PWR_3.3V*%
X90700000Y-36950000D03*
X64200000Y-59450000D03*
X58200000Y-60450000D03*
X58200000Y-65950000D03*
X90700000Y-39450000D03*
X64200000Y-60450000D03*
X67200000Y-61630000D03*
X67200000Y-60450000D03*
X92200000Y-67950000D03*
X67200000Y-73700000D03*
X58200000Y-73000000D03*
X57200000Y-40950000D03*
X63200000Y-65950000D03*
X67200000Y-65950000D03*
X90700000Y-58450000D03*
X67200000Y-44950000D03*
X65200000Y-40950000D03*
X66020000Y-65950000D03*
X90700000Y-44950000D03*
X67200000Y-40950000D03*
%TO.N,PWR_5V*%
X81200000Y-99450000D03*
X73200000Y-99450000D03*
X55930500Y-92950000D03*
X65200000Y-99450000D03*
%TD*%
D22*
%TO.N,SW1_COM*%
X91700000Y-26950000D02*
X59620000Y-26950000D01*
X103200000Y-38450000D02*
X91700000Y-26950000D01*
X103200000Y-93450000D02*
X103200000Y-38450000D01*
X59620000Y-26950000D02*
X58700000Y-27870000D01*
X66200000Y-88450000D02*
X71700000Y-93950000D01*
X102700000Y-93950000D02*
X103200000Y-93450000D01*
X66200000Y-80450000D02*
X66200000Y-88450000D01*
X71700000Y-93950000D02*
X102700000Y-93950000D01*
%TO.N,SW3_COM_OFF*%
X60200000Y-110700001D02*
X60200000Y-109370000D01*
X63200000Y-113700001D02*
X60200000Y-110700001D01*
%TO.N,SW3_COM*%
X61200000Y-77187348D02*
X61200000Y-78780000D01*
X54462652Y-70450000D02*
X61200000Y-77187348D01*
X50724694Y-70450000D02*
X54462652Y-70450000D01*
X48475000Y-68200306D02*
X50724694Y-70450000D01*
X48475000Y-59175000D02*
X48475000Y-68200306D01*
X58200000Y-49450000D02*
X48475000Y-59175000D01*
%TO.N,SW4_COM*%
X57200000Y-49813604D02*
X57200000Y-47950000D01*
X48025000Y-58988604D02*
X57200000Y-49813604D01*
X48025000Y-69275000D02*
X48025000Y-58988604D01*
X50200000Y-71450000D02*
X48025000Y-69275000D01*
X57700000Y-75450000D02*
X53700000Y-71450000D01*
X53700000Y-71450000D02*
X50200000Y-71450000D01*
%TO.N,GND*%
X58200000Y-78999999D02*
X59200000Y-77999999D01*
X59200000Y-77999999D02*
X59200000Y-76450000D01*
%TO.N,Net-(CHGR1-VSS)*%
X59225305Y-79950000D02*
X57700000Y-79950000D01*
X60200000Y-77450000D02*
X60200000Y-78975305D01*
X60200000Y-78975305D02*
X59225305Y-79950000D01*
%TO.N,+BATT*%
X51974499Y-80950000D02*
X51924500Y-80900001D01*
X62700000Y-79950000D02*
X60304695Y-79950000D01*
X68200000Y-74450000D02*
X62700000Y-79950000D01*
X68200000Y-65924695D02*
X68200000Y-74450000D01*
X60304695Y-79950000D02*
X59304695Y-80950000D01*
X59304695Y-80950000D02*
X51974499Y-80950000D01*
X67225305Y-64950000D02*
X68200000Y-65924695D01*
X61020000Y-64950000D02*
X67225305Y-64950000D01*
%TO.N,VBUS*%
X51924500Y-81950000D02*
X49200000Y-81950000D01*
%TO.N,SW2_COM*%
X71700000Y-91950000D02*
X101200000Y-91950000D01*
X68200000Y-88450000D02*
X71700000Y-91950000D01*
X68200000Y-78950000D02*
X68200000Y-88450000D01*
X66760000Y-77510000D02*
X68200000Y-78950000D01*
%TO.N,SCROLL_CLICK*%
X102200000Y-38950000D02*
X91200000Y-27950000D01*
X91200000Y-27950000D02*
X65200000Y-27950000D01*
X102200000Y-92462653D02*
X102200000Y-38950000D01*
X71700000Y-92950000D02*
X101712653Y-92950000D01*
X101712653Y-92950000D02*
X102200000Y-92462653D01*
X67200000Y-88450000D02*
X71700000Y-92950000D01*
X67200000Y-83950000D02*
X67200000Y-88450000D01*
%TO.N,EN*%
X61700000Y-72130000D02*
X61020000Y-71450000D01*
X61700000Y-73450000D02*
X61700000Y-72130000D01*
D23*
%TO.N,USB_D-*%
X71950000Y-90950000D02*
X100200000Y-90950000D01*
X69700000Y-88700000D02*
X71950000Y-90950000D01*
X69700000Y-87670000D02*
X69700000Y-88700000D01*
%TO.N,USB_D+*%
X73200000Y-89950000D02*
X99200000Y-89950000D01*
X71200000Y-87950000D02*
X73200000Y-89950000D01*
D22*
%TO.N,SCROLL_DOWN*%
X78399695Y-68225000D02*
X82925000Y-68225000D01*
X76200000Y-86450000D02*
X76200000Y-70424695D01*
X82925000Y-68225000D02*
X86200000Y-64950000D01*
X76200000Y-70424695D02*
X78399695Y-68225000D01*
%TO.N,SCROLL_UP*%
X82700000Y-67450000D02*
X85200000Y-64950000D01*
X74700000Y-84950000D02*
X74700000Y-69950000D01*
X85200000Y-64950000D02*
X85200000Y-62950000D01*
X74700000Y-69950000D02*
X77200000Y-67450000D01*
X77200000Y-67450000D02*
X82700000Y-67450000D01*
%TO.N,+BATT*%
X96200000Y-68950000D02*
X78700000Y-68950000D01*
%TO.N,MOSI*%
X84200000Y-87170000D02*
X84200000Y-70450000D01*
%TO.N,MISO*%
X86200000Y-84630000D02*
X86200000Y-70450000D01*
%TO.N,+BATT*%
X96200000Y-68950000D02*
X96200002Y-68949998D01*
X96200000Y-67950000D02*
X96200000Y-68950000D01*
X96200002Y-68949998D02*
X96200002Y-62950000D01*
%TO.N,SCROLL_DOWN*%
X89200000Y-46950000D02*
X86200000Y-46950000D01*
X89200000Y-38950000D02*
X89200000Y-43450000D01*
X87200000Y-36950000D02*
X89200000Y-38950000D01*
X85200000Y-36950000D02*
X87200000Y-36950000D01*
%TO.N,SCROLL_UP*%
X86700000Y-40950000D02*
X88200000Y-40950000D01*
X85200000Y-39450000D02*
X86700000Y-40950000D01*
%TO.N,SCROLL_DOWN*%
X86700000Y-35450000D02*
X88200000Y-35450000D01*
X85200000Y-36950000D02*
X86700000Y-35450000D01*
%TO.N,GND*%
X87200000Y-69950000D02*
X87200000Y-71930000D01*
%TO.N,PWR_5V_EN*%
X59712299Y-92950000D02*
X69125000Y-92950000D01*
%TO.N,PWR_5V*%
X64700000Y-99450000D02*
X65200000Y-99450000D01*
X58200000Y-92950000D02*
X64700000Y-99450000D01*
X55930500Y-92950000D02*
X58200000Y-92950000D01*
%TO.N,VBUS*%
X62200000Y-47450000D02*
X53700000Y-55950000D01*
X62200000Y-30950000D02*
X62200000Y-47450000D01*
X64200000Y-28950000D02*
X62200000Y-30950000D01*
X78700000Y-28950000D02*
X64200000Y-28950000D01*
%TO.N,PWR_1.9V*%
X57700000Y-62450000D02*
X58700000Y-61450000D01*
X58700000Y-61450000D02*
X61200000Y-61450000D01*
X56200000Y-62450000D02*
X57700000Y-62450000D01*
%TO.N,VDDREG*%
X64200000Y-57450000D02*
X64200000Y-53450000D01*
X68200000Y-53450000D02*
X68200000Y-56950000D01*
X68200000Y-56950000D02*
X69320000Y-58070000D01*
X69320000Y-58070000D02*
X70850000Y-58070000D01*
%TO.N,GND1*%
X69160000Y-63410000D02*
X70850000Y-63410000D01*
X68200000Y-62450000D02*
X69160000Y-63410000D01*
X62200000Y-58450000D02*
X66200000Y-58450000D01*
X68200000Y-58450000D02*
X68200000Y-62450000D01*
%TO.N,+BATT*%
X57700000Y-63950000D02*
X52200000Y-63950000D01*
X61020000Y-64950000D02*
X58700000Y-64950000D01*
X58700000Y-64950000D02*
X57700000Y-63950000D01*
%TO.N,VBUS*%
X49200000Y-81950000D02*
X49200000Y-76450000D01*
X56700000Y-76450000D02*
X49200000Y-76450000D01*
%TO.N,Net-(D6-A)*%
X67020000Y-98450000D02*
X67020000Y-95950000D01*
%TO.N,Net-(D7-A)*%
X75020000Y-95950000D02*
X75020000Y-98450000D01*
%TO.N,Net-(D8-A)*%
X83020000Y-98450000D02*
X83020000Y-95950000D01*
%TO.N,Net-(CHGR1-VSS)*%
X60200000Y-69950000D02*
X60200000Y-73450000D01*
X60200000Y-69950000D02*
X64550500Y-69950000D01*
%TO.N,NCS*%
X81550000Y-57180000D02*
X85930000Y-57180000D01*
X85200000Y-69950000D02*
X85200000Y-88450000D01*
X89700000Y-66450000D02*
X88700000Y-67450000D01*
X88700000Y-67450000D02*
X85200000Y-67450000D01*
X85930000Y-57180000D02*
X89700000Y-60950000D01*
X89700000Y-60950000D02*
X89700000Y-66450000D01*
%TO.N,MOSI*%
X84218245Y-87413510D02*
X84200000Y-87431755D01*
%TO.N,SCLK*%
X83200000Y-85900000D02*
X83200000Y-69950000D01*
%TO.N,MISO*%
X86685402Y-58960000D02*
X81550000Y-58960000D01*
X88675402Y-66450000D02*
X86200000Y-66450000D01*
X88687701Y-66437701D02*
X88675402Y-66450000D01*
X88687701Y-60962299D02*
X88700000Y-60974598D01*
X88700000Y-66425402D02*
X88687701Y-66437701D01*
X88700000Y-60974598D02*
X88700000Y-66425402D01*
X88687701Y-60962299D02*
X86685402Y-58960000D01*
%TO.N,NRESET*%
X90700000Y-60950000D02*
X90425000Y-60675000D01*
X79200000Y-71450000D02*
X79200000Y-83860000D01*
X90700000Y-66475305D02*
X90700000Y-66450000D01*
X90425000Y-60649695D02*
X85175305Y-55400000D01*
X90700000Y-66450000D02*
X90700000Y-60950000D01*
X90425000Y-60675000D02*
X90425000Y-60649695D01*
X85175305Y-55400000D02*
X81550000Y-55400000D01*
%TO.N,TCK*%
X94700000Y-82590000D02*
X94700000Y-78780000D01*
%TO.N,RXD0*%
X92700000Y-72430000D02*
X92700000Y-74010000D01*
X92700000Y-74010000D02*
X89200000Y-77510000D01*
%TO.N,MOTION*%
X77700000Y-71437347D02*
X77700000Y-74970000D01*
X81550000Y-69950000D02*
X79187347Y-69950000D01*
X79187347Y-69950000D02*
X77700000Y-71437347D01*
%TO.N,LED_P*%
X88700000Y-53620000D02*
X81550000Y-53620000D01*
%TO.N,Net-(PWRSW1-PR1)*%
X56700000Y-61209999D02*
X52200000Y-61209999D01*
%TO.N,PWR_EN*%
X50200000Y-68900001D02*
X52200000Y-68900001D01*
X50200000Y-74900000D02*
X52200000Y-74900000D01*
%TO.N,GND*%
X87200000Y-30450000D02*
X74900000Y-30450000D01*
X68700000Y-30450000D02*
X74900000Y-30450000D01*
X59200000Y-68900001D02*
X65380000Y-68900001D01*
X56700000Y-58450000D02*
X54950001Y-58450000D01*
X59200000Y-62450000D02*
X62880000Y-62450000D01*
X58700000Y-38030000D02*
X58700000Y-46450000D01*
X52380000Y-94450000D02*
X58200000Y-94450000D01*
X87200000Y-72430000D02*
X87200000Y-85950000D01*
%TO.N,PWR_3.3V*%
X66020000Y-65950000D02*
X63200000Y-65950000D01*
X90700000Y-48450000D02*
X90700000Y-58450000D01*
X92200000Y-67950000D02*
X92200000Y-59950000D01*
X58200000Y-60450000D02*
X64200000Y-60450000D01*
X67200000Y-60450000D02*
X67200000Y-44950000D01*
X90700000Y-44950000D02*
X67200000Y-44950000D01*
X92200000Y-59950000D02*
X90700000Y-58450000D01*
X67200000Y-65950000D02*
X67200000Y-73700000D01*
X90700000Y-39450000D02*
X90700000Y-48450000D01*
X63200000Y-65950000D02*
X58200000Y-65950000D01*
X67200000Y-44950000D02*
X67200000Y-40950000D01*
X64200000Y-60450000D02*
X67200000Y-60450000D01*
X58200000Y-73000000D02*
X58200000Y-65950000D01*
%TO.N,PWR_5V*%
X65200000Y-99450000D02*
X73200000Y-99450000D01*
X73200000Y-99450000D02*
X81200000Y-99450000D01*
%TD*%
M02*
