%TF.GenerationSoftware,KiCad,Pcbnew,7.0.7*%
%TF.CreationDate,2023-11-24T19:36:33-07:00*%
%TF.ProjectId,mouse,6d6f7573-652e-46b6-9963-61645f706362,rev?*%
%TF.SameCoordinates,Original*%
%TF.FileFunction,Soldermask,Top*%
%TF.FilePolarity,Negative*%
%FSLAX46Y46*%
G04 Gerber Fmt 4.6, Leading zero omitted, Abs format (unit mm)*
G04 Created by KiCad (PCBNEW 7.0.7) date 2023-11-24 19:36:33*
%MOMM*%
%LPD*%
G01*
G04 APERTURE LIST*
G04 Aperture macros list*
%AMRoundRect*
0 Rectangle with rounded corners*
0 $1 Rounding radius*
0 $2 $3 $4 $5 $6 $7 $8 $9 X,Y pos of 4 corners*
0 Add a 4 corners polygon primitive as box body*
4,1,4,$2,$3,$4,$5,$6,$7,$8,$9,$2,$3,0*
0 Add four circle primitives for the rounded corners*
1,1,$1+$1,$2,$3*
1,1,$1+$1,$4,$5*
1,1,$1+$1,$6,$7*
1,1,$1+$1,$8,$9*
0 Add four rect primitives between the rounded corners*
20,1,$1+$1,$2,$3,$4,$5,0*
20,1,$1+$1,$4,$5,$6,$7,0*
20,1,$1+$1,$6,$7,$8,$9,0*
20,1,$1+$1,$8,$9,$2,$3,0*%
G04 Aperture macros list end*
%ADD10C,0.010000*%
%ADD11C,0.788500*%
%ADD12R,0.299999X0.670001*%
%ADD13R,1.320800X0.508000*%
%ADD14R,1.000000X0.300000*%
%ADD15R,1.300000X2.000000*%
%ADD16RoundRect,0.100000X-0.130000X-0.100000X0.130000X-0.100000X0.130000X0.100000X-0.130000X0.100000X0*%
%ADD17RoundRect,0.100000X-0.100000X0.130000X-0.100000X-0.130000X0.100000X-0.130000X0.100000X0.130000X0*%
%ADD18RoundRect,0.150000X-0.512500X-0.150000X0.512500X-0.150000X0.512500X0.150000X-0.512500X0.150000X0*%
%ADD19C,1.500000*%
%ADD20O,1.000000X1.500000*%
%ADD21RoundRect,0.100000X0.130000X0.100000X-0.130000X0.100000X-0.130000X-0.100000X0.130000X-0.100000X0*%
%ADD22RoundRect,0.100000X0.100000X-0.130000X0.100000X0.130000X-0.100000X0.130000X-0.100000X-0.130000X0*%
%ADD23RoundRect,0.070000X-0.650000X-0.300000X0.650000X-0.300000X0.650000X0.300000X-0.650000X0.300000X0*%
%ADD24R,1.397000X1.422400*%
%ADD25O,1.500000X1.200000*%
%ADD26R,0.977900X0.508000*%
%ADD27RoundRect,0.102000X-0.750000X-0.450000X0.750000X-0.450000X0.750000X0.450000X-0.750000X0.450000X0*%
%ADD28RoundRect,0.102000X-0.450000X-0.750000X0.450000X-0.750000X0.450000X0.750000X-0.450000X0.750000X0*%
%ADD29RoundRect,0.102000X-0.450000X-0.450000X0.450000X-0.450000X0.450000X0.450000X-0.450000X0.450000X0*%
%ADD30R,1.003300X0.508000*%
%ADD31C,1.320800*%
%ADD32C,1.701800*%
%ADD33R,1.900000X1.900000*%
%ADD34C,1.900000*%
G04 APERTURE END LIST*
%TO.C,J5*%
D10*
X76013500Y-22913500D02*
X74386500Y-22913500D01*
X74386500Y-20886500D01*
X76013500Y-20886500D01*
X76013500Y-22913500D01*
G36*
X76013500Y-22913500D02*
G01*
X74386500Y-22913500D01*
X74386500Y-20886500D01*
X76013500Y-20886500D01*
X76013500Y-22913500D01*
G37*
X78013500Y-22913500D02*
X76386500Y-22913500D01*
X76386500Y-20886500D01*
X78013500Y-20886500D01*
X78013500Y-22913500D01*
G36*
X78013500Y-22913500D02*
G01*
X76386500Y-22913500D01*
X76386500Y-20886500D01*
X78013500Y-20886500D01*
X78013500Y-22913500D01*
G37*
X73964000Y-22913000D02*
X72600000Y-22913000D01*
X72571000Y-22913000D01*
X72541000Y-22910000D01*
X72512000Y-22907000D01*
X72483000Y-22901000D01*
X72454000Y-22894000D01*
X72426000Y-22886000D01*
X72398000Y-22876000D01*
X72371000Y-22865000D01*
X72344000Y-22852000D01*
X72318000Y-22838000D01*
X72293000Y-22823000D01*
X72269000Y-22806000D01*
X72245000Y-22788000D01*
X72223000Y-22769000D01*
X72202000Y-22748000D01*
X72181000Y-22727000D01*
X72162000Y-22705000D01*
X72144000Y-22681000D01*
X72127000Y-22657000D01*
X72112000Y-22632000D01*
X72098000Y-22606000D01*
X72085000Y-22579000D01*
X72074000Y-22552000D01*
X72064000Y-22524000D01*
X72056000Y-22496000D01*
X72049000Y-22467000D01*
X72043000Y-22438000D01*
X72040000Y-22409000D01*
X72037000Y-22379000D01*
X72037000Y-22350000D01*
X72037000Y-21450000D01*
X72037000Y-21421000D01*
X72040000Y-21391000D01*
X72043000Y-21362000D01*
X72049000Y-21333000D01*
X72056000Y-21304000D01*
X72064000Y-21276000D01*
X72074000Y-21248000D01*
X72085000Y-21221000D01*
X72098000Y-21194000D01*
X72112000Y-21168000D01*
X72127000Y-21143000D01*
X72144000Y-21119000D01*
X72162000Y-21095000D01*
X72181000Y-21073000D01*
X72202000Y-21052000D01*
X72223000Y-21031000D01*
X72245000Y-21012000D01*
X72269000Y-20994000D01*
X72293000Y-20977000D01*
X72318000Y-20962000D01*
X72344000Y-20948000D01*
X72371000Y-20935000D01*
X72398000Y-20924000D01*
X72426000Y-20914000D01*
X72454000Y-20906000D01*
X72483000Y-20899000D01*
X72512000Y-20893000D01*
X72541000Y-20890000D01*
X72571000Y-20887000D01*
X72600000Y-20886000D01*
X73963500Y-20886500D01*
X73964000Y-20886000D01*
X73964000Y-22913000D01*
G36*
X73964000Y-22913000D02*
G01*
X72600000Y-22913000D01*
X72571000Y-22913000D01*
X72541000Y-22910000D01*
X72512000Y-22907000D01*
X72483000Y-22901000D01*
X72454000Y-22894000D01*
X72426000Y-22886000D01*
X72398000Y-22876000D01*
X72371000Y-22865000D01*
X72344000Y-22852000D01*
X72318000Y-22838000D01*
X72293000Y-22823000D01*
X72269000Y-22806000D01*
X72245000Y-22788000D01*
X72223000Y-22769000D01*
X72202000Y-22748000D01*
X72181000Y-22727000D01*
X72162000Y-22705000D01*
X72144000Y-22681000D01*
X72127000Y-22657000D01*
X72112000Y-22632000D01*
X72098000Y-22606000D01*
X72085000Y-22579000D01*
X72074000Y-22552000D01*
X72064000Y-22524000D01*
X72056000Y-22496000D01*
X72049000Y-22467000D01*
X72043000Y-22438000D01*
X72040000Y-22409000D01*
X72037000Y-22379000D01*
X72037000Y-22350000D01*
X72037000Y-21450000D01*
X72037000Y-21421000D01*
X72040000Y-21391000D01*
X72043000Y-21362000D01*
X72049000Y-21333000D01*
X72056000Y-21304000D01*
X72064000Y-21276000D01*
X72074000Y-21248000D01*
X72085000Y-21221000D01*
X72098000Y-21194000D01*
X72112000Y-21168000D01*
X72127000Y-21143000D01*
X72144000Y-21119000D01*
X72162000Y-21095000D01*
X72181000Y-21073000D01*
X72202000Y-21052000D01*
X72223000Y-21031000D01*
X72245000Y-21012000D01*
X72269000Y-20994000D01*
X72293000Y-20977000D01*
X72318000Y-20962000D01*
X72344000Y-20948000D01*
X72371000Y-20935000D01*
X72398000Y-20924000D01*
X72426000Y-20914000D01*
X72454000Y-20906000D01*
X72483000Y-20899000D01*
X72512000Y-20893000D01*
X72541000Y-20890000D01*
X72571000Y-20887000D01*
X72600000Y-20886000D01*
X73963500Y-20886500D01*
X73964000Y-20886000D01*
X73964000Y-22913000D01*
G37*
X79829000Y-20887000D02*
X79859000Y-20890000D01*
X79888000Y-20893000D01*
X79917000Y-20899000D01*
X79946000Y-20906000D01*
X79974000Y-20914000D01*
X80002000Y-20924000D01*
X80029000Y-20935000D01*
X80056000Y-20948000D01*
X80082000Y-20962000D01*
X80107000Y-20977000D01*
X80131000Y-20994000D01*
X80155000Y-21012000D01*
X80177000Y-21031000D01*
X80198000Y-21052000D01*
X80219000Y-21073000D01*
X80238000Y-21095000D01*
X80256000Y-21119000D01*
X80273000Y-21143000D01*
X80288000Y-21168000D01*
X80302000Y-21194000D01*
X80315000Y-21221000D01*
X80326000Y-21248000D01*
X80336000Y-21276000D01*
X80344000Y-21304000D01*
X80351000Y-21333000D01*
X80357000Y-21362000D01*
X80360000Y-21391000D01*
X80363000Y-21421000D01*
X80363000Y-21450000D01*
X80363000Y-22350000D01*
X80363000Y-22379000D01*
X80360000Y-22409000D01*
X80357000Y-22438000D01*
X80351000Y-22467000D01*
X80344000Y-22496000D01*
X80336000Y-22524000D01*
X80326000Y-22552000D01*
X80315000Y-22579000D01*
X80302000Y-22606000D01*
X80288000Y-22632000D01*
X80273000Y-22657000D01*
X80256000Y-22681000D01*
X80238000Y-22705000D01*
X80219000Y-22727000D01*
X80198000Y-22748000D01*
X80177000Y-22769000D01*
X80155000Y-22788000D01*
X80131000Y-22806000D01*
X80107000Y-22823000D01*
X80082000Y-22838000D01*
X80056000Y-22852000D01*
X80029000Y-22865000D01*
X80002000Y-22876000D01*
X79974000Y-22886000D01*
X79946000Y-22894000D01*
X79917000Y-22901000D01*
X79888000Y-22907000D01*
X79859000Y-22910000D01*
X79829000Y-22913000D01*
X79800000Y-22913000D01*
X78436000Y-22913000D01*
X78436000Y-20886000D01*
X78436500Y-20886500D01*
X79800000Y-20886000D01*
X79829000Y-20887000D01*
G36*
X79829000Y-20887000D02*
G01*
X79859000Y-20890000D01*
X79888000Y-20893000D01*
X79917000Y-20899000D01*
X79946000Y-20906000D01*
X79974000Y-20914000D01*
X80002000Y-20924000D01*
X80029000Y-20935000D01*
X80056000Y-20948000D01*
X80082000Y-20962000D01*
X80107000Y-20977000D01*
X80131000Y-20994000D01*
X80155000Y-21012000D01*
X80177000Y-21031000D01*
X80198000Y-21052000D01*
X80219000Y-21073000D01*
X80238000Y-21095000D01*
X80256000Y-21119000D01*
X80273000Y-21143000D01*
X80288000Y-21168000D01*
X80302000Y-21194000D01*
X80315000Y-21221000D01*
X80326000Y-21248000D01*
X80336000Y-21276000D01*
X80344000Y-21304000D01*
X80351000Y-21333000D01*
X80357000Y-21362000D01*
X80360000Y-21391000D01*
X80363000Y-21421000D01*
X80363000Y-21450000D01*
X80363000Y-22350000D01*
X80363000Y-22379000D01*
X80360000Y-22409000D01*
X80357000Y-22438000D01*
X80351000Y-22467000D01*
X80344000Y-22496000D01*
X80336000Y-22524000D01*
X80326000Y-22552000D01*
X80315000Y-22579000D01*
X80302000Y-22606000D01*
X80288000Y-22632000D01*
X80273000Y-22657000D01*
X80256000Y-22681000D01*
X80238000Y-22705000D01*
X80219000Y-22727000D01*
X80198000Y-22748000D01*
X80177000Y-22769000D01*
X80155000Y-22788000D01*
X80131000Y-22806000D01*
X80107000Y-22823000D01*
X80082000Y-22838000D01*
X80056000Y-22852000D01*
X80029000Y-22865000D01*
X80002000Y-22876000D01*
X79974000Y-22886000D01*
X79946000Y-22894000D01*
X79917000Y-22901000D01*
X79888000Y-22907000D01*
X79859000Y-22910000D01*
X79829000Y-22913000D01*
X79800000Y-22913000D01*
X78436000Y-22913000D01*
X78436000Y-20886000D01*
X78436500Y-20886500D01*
X79800000Y-20886000D01*
X79829000Y-20887000D01*
G37*
D11*
X74094250Y-24600000D02*
G75*
G03*
X74094250Y-24600000I-394250J0D01*
G01*
X79094250Y-24600000D02*
G75*
G03*
X79094250Y-24600000I-394250J0D01*
G01*
D10*
X75163500Y-25313500D02*
X74636500Y-25313500D01*
X74636500Y-23836500D01*
X75163500Y-23836500D01*
X75163500Y-25313500D01*
G36*
X75163500Y-25313500D02*
G01*
X74636500Y-25313500D01*
X74636500Y-23836500D01*
X75163500Y-23836500D01*
X75163500Y-25313500D01*
G37*
X75813500Y-25313500D02*
X75286500Y-25313500D01*
X75286500Y-23836500D01*
X75813500Y-23836500D01*
X75813500Y-25313500D01*
G36*
X75813500Y-25313500D02*
G01*
X75286500Y-25313500D01*
X75286500Y-23836500D01*
X75813500Y-23836500D01*
X75813500Y-25313500D01*
G37*
X76463500Y-25313500D02*
X75936500Y-25313500D01*
X75936500Y-23836500D01*
X76463500Y-23836500D01*
X76463500Y-25313500D01*
G36*
X76463500Y-25313500D02*
G01*
X75936500Y-25313500D01*
X75936500Y-23836500D01*
X76463500Y-23836500D01*
X76463500Y-25313500D01*
G37*
X77113500Y-25313500D02*
X76586500Y-25313500D01*
X76586500Y-23836500D01*
X77113500Y-23836500D01*
X77113500Y-25313500D01*
G36*
X77113500Y-25313500D02*
G01*
X76586500Y-25313500D01*
X76586500Y-23836500D01*
X77113500Y-23836500D01*
X77113500Y-25313500D01*
G37*
X77763500Y-25313500D02*
X77236500Y-25313500D01*
X77236500Y-23836500D01*
X77763500Y-23836500D01*
X77763500Y-25313500D01*
G36*
X77763500Y-25313500D02*
G01*
X77236500Y-25313500D01*
X77236500Y-23836500D01*
X77763500Y-23836500D01*
X77763500Y-25313500D01*
G37*
%TD*%
D12*
%TO.C,PWRSW1*%
X54950001Y-61209999D03*
X54450000Y-61209999D03*
X53950000Y-61209999D03*
X53449999Y-61209999D03*
X53449999Y-62690001D03*
X53950000Y-62690001D03*
X54450000Y-62690001D03*
X54950001Y-62690001D03*
%TD*%
D13*
%TO.C,CHGR1*%
X53404600Y-78999999D03*
X53404600Y-79950000D03*
X53404600Y-80900001D03*
X55995400Y-80900001D03*
X55995400Y-78999999D03*
%TD*%
D14*
%TO.C,J6*%
X55200000Y-46449999D03*
X55200000Y-46950000D03*
X55200000Y-47450000D03*
X55200000Y-47950001D03*
D15*
X52500001Y-44150001D03*
X52500001Y-50249999D03*
%TD*%
%TO.C,J4*%
X67949999Y-109900001D03*
X67949999Y-115999999D03*
D14*
X65250000Y-112199999D03*
X65250000Y-112700000D03*
X65250000Y-113200000D03*
X65250000Y-113700001D03*
%TD*%
D16*
%TO.C,C8*%
X60380000Y-63950000D03*
X61020000Y-63950000D03*
%TD*%
D17*
%TO.C,R18*%
X80200000Y-29925000D03*
X80200000Y-29285000D03*
%TD*%
%TO.C,R7*%
X57200000Y-86630000D03*
X57200000Y-87270000D03*
%TD*%
D18*
%TO.C,U1*%
X53682500Y-73000000D03*
X53682500Y-73950000D03*
X53682500Y-74900000D03*
X55957500Y-74900000D03*
X55957500Y-73000000D03*
%TD*%
D16*
%TO.C,C18*%
X61380000Y-99450000D03*
X62020000Y-99450000D03*
%TD*%
D19*
%TO.C,J3*%
X90700000Y-78780000D03*
X92700000Y-78780000D03*
X94700000Y-78780000D03*
X96700000Y-78780000D03*
%TD*%
D20*
%TO.C,MMB1*%
X65200000Y-33370000D03*
X65200000Y-38450000D03*
X65200000Y-43530000D03*
%TD*%
D16*
%TO.C,D8*%
X81380000Y-95950000D03*
X82020000Y-95950000D03*
%TD*%
D21*
%TO.C,R2*%
X53520000Y-77450000D03*
X52880000Y-77450000D03*
%TD*%
%TO.C,R10*%
X59020000Y-88450000D03*
X58380000Y-88450000D03*
%TD*%
D22*
%TO.C,C9*%
X56700000Y-56590000D03*
X56700000Y-55950000D03*
%TD*%
D16*
%TO.C,C5*%
X65560000Y-59450000D03*
X66200000Y-59450000D03*
%TD*%
D23*
%TO.C,Q8*%
X69600000Y-95000000D03*
X69600000Y-96900000D03*
X71700000Y-95950000D03*
%TD*%
D17*
%TO.C,R17*%
X81200000Y-30130000D03*
X81200000Y-30770000D03*
%TD*%
D16*
%TO.C,C11*%
X65380000Y-66950000D03*
X66020000Y-66950000D03*
%TD*%
%TO.C,C15*%
X52380000Y-91450000D03*
X53020000Y-91450000D03*
%TD*%
D21*
%TO.C,R9*%
X59020000Y-85450000D03*
X58380000Y-85450000D03*
%TD*%
D16*
%TO.C,R24*%
X82380000Y-99450000D03*
X83020000Y-99450000D03*
%TD*%
%TO.C,C19*%
X69380000Y-99450000D03*
X70020000Y-99450000D03*
%TD*%
%TO.C,C14*%
X60380000Y-66950000D03*
X61020000Y-66950000D03*
%TD*%
%TO.C,R11*%
X88700000Y-55950000D03*
X89340000Y-55950000D03*
%TD*%
D19*
%TO.C,ENC1*%
X85200000Y-39450000D03*
X85200000Y-36950000D03*
X85200000Y-34450000D03*
%TD*%
D23*
%TO.C,Q7*%
X61600000Y-95000000D03*
X61600000Y-96900000D03*
X63700000Y-95950000D03*
%TD*%
D21*
%TO.C,R8*%
X63200000Y-66950000D03*
X62560000Y-66950000D03*
%TD*%
D20*
%TO.C,LMB1*%
X58700000Y-27870000D03*
X58700000Y-32950000D03*
X58700000Y-38030000D03*
%TD*%
D24*
%TO.C,XTAL1*%
X54700000Y-85857800D03*
X54700000Y-88042200D03*
%TD*%
D16*
%TO.C,C20*%
X77380000Y-99450000D03*
X78020000Y-99450000D03*
%TD*%
D23*
%TO.C,Q9*%
X77600000Y-95000000D03*
X77600000Y-96900000D03*
X79700000Y-95950000D03*
%TD*%
D16*
%TO.C,D6*%
X65380000Y-95950000D03*
X66020000Y-95950000D03*
%TD*%
%TO.C,C7*%
X92225000Y-58450000D03*
X92865000Y-58450000D03*
%TD*%
D20*
%TO.C,RMB1*%
X94200000Y-27940000D03*
X94200000Y-33020000D03*
X94200000Y-38100000D03*
%TD*%
D19*
%TO.C,J1*%
X90700000Y-72430000D03*
X92700000Y-72430000D03*
X94700000Y-72430000D03*
X96700000Y-72430000D03*
%TD*%
D16*
%TO.C,C10*%
X65380000Y-63950000D03*
X66020000Y-63950000D03*
%TD*%
%TO.C,D2*%
X56035000Y-77450000D03*
X56675000Y-77450000D03*
%TD*%
D25*
%TO.C,PAW1*%
X70850000Y-50950000D03*
X70850000Y-52730000D03*
X70850000Y-54510000D03*
X70850000Y-56290000D03*
X70850000Y-58070000D03*
X70850000Y-59850000D03*
X70850000Y-61630000D03*
X70850000Y-63410000D03*
X81550000Y-64300000D03*
X81550000Y-62520000D03*
X81550000Y-60740000D03*
X81550000Y-58960000D03*
X81550000Y-57180000D03*
X81550000Y-55400000D03*
X81550000Y-53620000D03*
X81550000Y-51840000D03*
%TD*%
D17*
%TO.C,R4*%
X55700000Y-59630000D03*
X55700000Y-60270000D03*
%TD*%
D16*
%TO.C,R15*%
X88380000Y-39450000D03*
X89020000Y-39450000D03*
%TD*%
D26*
%TO.C,U2*%
X53200000Y-95549998D03*
X53200000Y-96499999D03*
X53200000Y-97450000D03*
X55930500Y-97450000D03*
X55930500Y-95549998D03*
%TD*%
D16*
%TO.C,R16*%
X88380000Y-36950000D03*
X89020000Y-36950000D03*
%TD*%
D20*
%TO.C,SMB5*%
X53200000Y-109370000D03*
X53200000Y-114450000D03*
X53200000Y-119530000D03*
%TD*%
%TO.C,SMB4*%
X60200000Y-119530000D03*
X60200000Y-114450000D03*
X60200000Y-109370000D03*
%TD*%
D16*
%TO.C,C4*%
X62200000Y-57450000D03*
X62840000Y-57450000D03*
%TD*%
D27*
%TO.C,ESP1*%
X63550000Y-72430000D03*
X63550000Y-73700000D03*
X63550000Y-74970000D03*
X63550000Y-76240000D03*
X63550000Y-77510000D03*
X63550000Y-78780000D03*
X63550000Y-80050000D03*
X63550000Y-81320000D03*
X63550000Y-82590000D03*
X63550000Y-83860000D03*
X63550000Y-85130000D03*
X63550000Y-86400000D03*
X63550000Y-87670000D03*
X63550000Y-88940000D03*
D28*
X65315000Y-90190000D03*
X66585000Y-90190000D03*
X67855000Y-90190000D03*
X69125000Y-90190000D03*
X70395000Y-90190000D03*
X71665000Y-90190000D03*
X72935000Y-90190000D03*
X74205000Y-90190000D03*
X75475000Y-90190000D03*
X76745000Y-90190000D03*
X78015000Y-90190000D03*
X79285000Y-90190000D03*
D27*
X81050000Y-88940000D03*
X81050000Y-87670000D03*
X81050000Y-86400000D03*
X81050000Y-85130000D03*
X81050000Y-83860000D03*
X81050000Y-82590000D03*
X81050000Y-81320000D03*
X81050000Y-80050000D03*
X81050000Y-78780000D03*
X81050000Y-77510000D03*
X81050000Y-76240000D03*
X81050000Y-74970000D03*
X81050000Y-73700000D03*
X81050000Y-72430000D03*
D29*
X69400000Y-78750000D03*
X70800000Y-78750000D03*
X72200000Y-78750000D03*
X69400000Y-80150000D03*
X70800000Y-80150000D03*
X72200000Y-80150000D03*
X69400000Y-81550000D03*
X70800000Y-81550000D03*
X72200000Y-81550000D03*
%TD*%
D16*
%TO.C,C6*%
X62200000Y-59450000D03*
X62840000Y-59450000D03*
%TD*%
D17*
%TO.C,C1*%
X65700000Y-55650000D03*
X65700000Y-56290000D03*
%TD*%
D16*
%TO.C,D7*%
X73380000Y-95950000D03*
X74020000Y-95950000D03*
%TD*%
%TO.C,C16*%
X52380000Y-92950000D03*
X53020000Y-92950000D03*
%TD*%
%TO.C,C12*%
X52380000Y-83950000D03*
X53020000Y-83950000D03*
%TD*%
%TO.C,R1*%
X88687701Y-58450000D03*
X89327701Y-58450000D03*
%TD*%
%TO.C,R22*%
X66380000Y-99450000D03*
X67020000Y-99450000D03*
%TD*%
D30*
%TO.C,U3*%
X53442050Y-66999999D03*
X53442050Y-67950000D03*
X53442050Y-68900001D03*
X56197950Y-68900001D03*
X56197950Y-66999999D03*
%TD*%
D22*
%TO.C,C2*%
X63200000Y-56290000D03*
X63200000Y-55650000D03*
%TD*%
D21*
%TO.C,D1*%
X92865000Y-55950000D03*
X92225000Y-55950000D03*
%TD*%
D22*
%TO.C,R6*%
X54950001Y-65450000D03*
X54950001Y-64810000D03*
%TD*%
D31*
%TO.C,J2*%
X96200002Y-62950000D03*
X94200000Y-62950000D03*
D32*
X97700001Y-61250000D03*
%TD*%
D16*
%TO.C,C3*%
X65560000Y-57450000D03*
X66200000Y-57450000D03*
%TD*%
D17*
%TO.C,R5*%
X56700000Y-59630000D03*
X56700000Y-60270000D03*
%TD*%
D33*
%TO.C,S4*%
X96200000Y-85950000D03*
D34*
X93700000Y-85950000D03*
X91200000Y-85950000D03*
%TD*%
D16*
%TO.C,R3*%
X62880000Y-63950000D03*
X63520000Y-63950000D03*
%TD*%
%TO.C,R23*%
X74380000Y-99450000D03*
X75020000Y-99450000D03*
%TD*%
%TO.C,C13*%
X52380000Y-89950000D03*
X53020000Y-89950000D03*
%TD*%
M02*
